<svg width="159" height="122" viewBox="0 0 159 122" fill="none" xmlns="http://www.w3.org/2000/svg">
<path d="M150.225 14.0972L158.33 24.4163L149.807 22.1615L150.225 14.0972Z" fill="#444348" stroke="black" stroke-width="0.264583"/>
<path d="M89.85 0.756409L121.075 4.312L130.978 68.4971L97.7128 76.3599L89.85 0.756409Z" fill="#444348" stroke="black" stroke-width="0.264583"/>
<path d="M66.1783 83.5099L76.3768 121.663L70.0924 82.005L66.1783 83.5099Z" fill="#2D2C2F" stroke="black" stroke-width="0.264583"/>
<path d="M56.1813 7.6112L89.6484 0.554871L97.9144 76.7632L76.5438 121.52L56.1813 7.6112Z" fill="#444348" stroke="black" stroke-width="0.264583"/>
<path d="M125.997 69.8249L136.422 104.585L131.382 68.4727L125.997 69.8249Z" fill="#2D2C2F" stroke="black" stroke-width="0.264583"/>
<path d="M120.495 3.78058L150.131 11.845L154.163 64.0618L136.422 103.779L120.495 3.78058Z" fill="#444348" stroke="black" stroke-width="0.264583"/>
<path d="M56.5702 11.2545L47.7137 7.20801L31.7866 12.8531L39.6493 25.3529L56.5702 11.2545Z" fill="#2D2C2F" stroke="black" stroke-width="0.264583"/>
<path d="M34.2058 33.8203L47.512 13.861L56.7801 10.5619L67.4714 55.7958L34.2058 33.8203Z" fill="#444348" stroke="black" stroke-width="0.264583"/>
<path d="M20.4618 96.0831L10.6176 69.1021L34.4075 33.4172L97.3096 74.7471L20.4618 96.0831Z" fill="#444348" stroke="black" stroke-width="0.264583"/>
<path d="M20.2948 95.916L10.642 68.3445L0.335449 85.4324L20.2948 95.916Z" fill="#E9C6AF" stroke="black" stroke-width="0.264583"/>
<path d="M58.9345 8.9491L53.5012 12.1647L64.4818 43.7685L58.9345 8.9491Z" fill="#A78E7D" stroke="black" stroke-width="0.264583"/>
<path d="M20.983 95.7735L81.0382 66.1512L97.1424 74.7715L20.983 95.7735Z" fill="#D3A55F" stroke="black" stroke-width="0.264583"/>
</svg>
