<svg width="106" height="83" viewBox="0 0 106 83" fill="none" xmlns="http://www.w3.org/2000/svg">
<path d="M68.3032 57.184L64.9986 63.7932L74.4993 57.5971L72.7437 65.1357L82.6575 50.3683L68.3032 57.184Z" fill="#352827" stroke="black" stroke-width="0.264583"/>
<path d="M55.8077 62.967L53.226 66.788L38.5619 78.1475L50.6443 73.3971L43.5187 81.6586L54.5685 74.2233L51.8835 82.4848L64.0692 66.788L66.9607 60.282L55.8077 62.967Z" fill="#5D4543" stroke="black" stroke-width="0.264583"/>
<path d="M77.081 13.8113L82.2204 13.6224L86.3689 14.9524L78.5267 15.1537L77.081 13.8113Z" fill="#B7975B" stroke="black" stroke-width="0.264583"/>
<path d="M86.3751 15.0505L96.8052 8.75109L93.3974 8.44128L82.3477 13.6047L86.3751 15.0505Z" fill="#B7975B" stroke="black" stroke-width="0.264583"/>
<path d="M93.3911 8.42357L101.158 3.48548L105.48 0.283081L96.8783 8.72711L93.3911 8.42357Z" fill="#B7975B" stroke="black" stroke-width="0.264583"/>
<path d="M78.9638 15.0619L84.9346 22.0779L88.9089 18.6597L86.4179 14.9587L78.9638 15.0619Z" fill="#352827" stroke="black" stroke-width="0.264583"/>
<path d="M86.3814 15.0192L88.8536 18.7681L96.9753 8.71979L86.3814 15.0192Z" fill="#352827" stroke="black" stroke-width="0.264583"/>
<path d="M77.0862 13.7684L83.6349 17.7959L87.3422 29.6311L77.0862 13.7684Z" fill="#B7975B" stroke="black" stroke-width="0.264583"/>
<path d="M71.8925 17.4131L77.1843 13.8112L87.1106 29.3944L81.1512 36.8651L71.8925 17.4131Z" fill="#B7975B" stroke="black" stroke-width="0.264583"/>
<path d="M48.5236 10.2897L53.6818 7.85406L77.0758 13.8592L71.7287 17.6447L48.5236 10.2897Z" fill="#B7975B" stroke="black" stroke-width="0.264583"/>
<path d="M44.1384 12.8818L48.5914 9.89954L71.9301 16.4586L83.0602 40.079L44.1384 12.8818Z" fill="#D9B162" stroke="black" stroke-width="0.264583"/>
<path d="M40.8338 14.8439L45.0146 12.0036L69.6958 18.7577L82.1411 39.4218L37.3226 23.3119L40.8338 14.8439Z" fill="#B7975B" stroke="black" stroke-width="0.264583"/>
<path d="M31.6835 22.0822L40.7785 14.939L66.2076 21.789L82.1204 40.852L31.6835 22.0822Z" fill="#D9B162" stroke="black" stroke-width="0.264583"/>
<path d="M31.8723 21.425L37.6951 17.6676L62.9103 25.758L80.2062 40.973L31.8723 21.425Z" fill="#B7975B" stroke="black" stroke-width="0.264583"/>
<path d="M55.9892 31.3857L30.4944 22.249L35.2625 19.297L59.7736 27.7108L55.9892 31.3857Z" fill="#D9B162" stroke="black" stroke-width="0.264583"/>
<path d="M55.9349 31.4587L59.7256 27.7097L78.3202 40.0414L67.9934 47.2702L55.9349 31.4587Z" fill="#D9B162" stroke="black" stroke-width="0.264583"/>
<path d="M55.9652 31.2573L68.4064 47.1669L51.5737 48.716L50.7475 36.427L55.9652 31.2573Z" fill="#D9B162" stroke="black" stroke-width="0.264583"/>
<path d="M30.3306 22.3523L22.1422 30.1277L25.6533 46.031L30.3306 22.3523Z" fill="#D9B162" stroke="black" stroke-width="0.264583"/>
<path d="M30.3974 22.2125L27.2023 32.6061L25.4468 45.9277L37.3226 55.2219L52.3998 48.7159L52.5031 39.6283L56.0142 31.2636L30.3974 22.2125Z" fill="#D9B162" stroke="black" stroke-width="0.264583"/>
<path d="M39.8793 50.7688L48.123 47.9503L43.9443 64.3575L37.5292 61.7278L39.8793 50.7688Z" fill="#D9B162" stroke="black" stroke-width="0.264583"/>
<path d="M48.0626 47.8898L68.2176 46.8874L74.0862 59.5592L61.2809 62.5539L43.9318 64.516L48.0626 47.8898Z" fill="#D9B162" stroke="black" stroke-width="0.264583"/>
<path d="M68.1999 46.8571L79.3529 39.0088L87.2138 29.2462L93.8105 42.2101L83.7934 51.814L73.9579 59.6145L68.1999 46.8571Z" fill="#D9B162" stroke="black" stroke-width="0.264583"/>
<path d="M87.3045 29.6113L83.6902 17.6321L89.8863 29.1982L92.2614 34.5682L93.8105 42.1068L87.3045 29.6113Z" fill="#B7975B" stroke="black" stroke-width="0.264583"/>
<path d="M6.80681 70.1442L7.9944 74.7913L0.249268 70.6605L1.12705 67.1494L6.80681 70.1442Z" fill="#5D4543" stroke="black" stroke-width="0.264583"/>
<path d="M1.07541 67.0978L13.5193 47.7866L32.6755 56.9258L6.6519 70.1958L1.07541 67.0978Z" fill="#D9B162" stroke="black" stroke-width="0.264583"/>
<path d="M13.5709 47.8899L28.9579 44.482L40.0076 49.9552L32.5723 56.9775L13.5709 47.8899Z" fill="#B7975B" stroke="black" stroke-width="0.264583"/>
<path d="M6.75519 69.9893L32.6756 56.8742L32.3141 72.4677L28.5448 73.8102L7.99441 74.8429L6.75519 69.9893Z" fill="#5D4543" stroke="black" stroke-width="0.264583"/>
<path d="M32.5723 56.7709L32.1592 72.571L38.5619 61.5213L40.0076 50.1617L32.5723 56.7709Z" fill="#5D4543" stroke="black" stroke-width="0.264583"/>
<path d="M32.6755 56.7193L36.9095 42.4166L39.8011 38.8022L45.7906 36.5303L46.307 42.8297L44.2416 46.9604L32.6755 56.7193Z" fill="#5D4543" stroke="black" stroke-width="0.264583"/>
<path d="M13.7258 47.7349L19.7154 32.0898L21.884 25.3257L23.6396 29.4564L23.1232 33.5355L13.7258 47.7349Z" fill="#5D4543" stroke="black" stroke-width="0.264583"/>
<path d="M13.6742 47.8898L28.9063 44.5336L23.5879 29.5081L23.0716 33.329L13.6742 47.8898Z" fill="#D9B162" stroke="black" stroke-width="0.264583"/>
</svg>
