<svg width="134" height="88" viewBox="0 0 134 88" fill="none" xmlns="http://www.w3.org/2000/svg">
<path d="M38.7294 30.2492L26.9171 33.9515L32.2497 29.1937L38.7294 30.2492Z" fill="#DFDDD1" stroke="black" stroke-width="0.264583"/>
<path d="M35.2078 27.7034L11.1204 47.7748L9.87397 46.9692L8.36357 45.687L4.01697 41.4647L1.36072 38.5463L35.2078 27.7034Z" fill="#3C3835" stroke="black" stroke-width="0.264583"/>
<path d="M31.9479 29.5119L51.7893 33.5013L49.5959 22.8835L31.9479 29.5119Z" fill="#DFDDD1" stroke="black" stroke-width="0.264583"/>
<path d="M39.4009 13.3248C39.0991 13.4179 1.44122 26.3297 1.44122 26.3297L0.696663 30.1561L0.173462 35.8298L0.958264 38.7171L54.9687 23.1397L39.4009 13.3248Z" fill="#3C3835" stroke="black" stroke-width="0.264583"/>
<path d="M92.0695 70.9812L92.4168 71.9815L92.2525 73.6667L91.2061 74.1867L91.7293 73.1234L91.5683 72.2851L90.6084 71.4194L92.0695 70.9812Z" fill="#BF973F" stroke="black" stroke-width="0.264583"/>
<path d="M89.6631 73.1659L90.8171 74.1206L91.6268 75.2346L91.5885 76.6549L91.0451 77.3456L92.333 76.4686L92.4847 75.6819L92.4332 74.5259L91.6082 73.2142L91.3526 72.7162L89.6631 73.1659Z" fill="#BF973F" stroke="black" stroke-width="0.264583"/>
<path d="M85.4709 70.857L90.1007 69.9634L92.0506 70.9467L90.8237 71.3848L86.4771 72.7197L84.666 71.9125L85.4709 70.857Z" fill="#BF973F" stroke="black" stroke-width="0.264583"/>
<path d="M72.4513 66.4407L70.0768 67.5894L73.0148 69.522L77.1601 69.0097L74.4636 66.6968L72.4513 66.4407Z" fill="#BF973F" stroke="black" stroke-width="0.264583"/>
<path d="M81.6879 67.6825L86.1552 70.7638L85.9137 72.0911L81.1647 70.0808L79.0316 67.861L81.6879 67.6825Z" fill="#BF973F" stroke="black" stroke-width="0.264583"/>
<path d="M71.9281 35.0775C71.7873 35.3725 69.0103 45.1986 69.0103 45.1986L64.4826 47.2787L58.9286 42.4743L65.2875 34.5265L71.9281 35.0775Z" fill="#DFDDD1" stroke="black" stroke-width="0.264583"/>
<path d="M68.7487 44.9037L70.3384 48.9009L80.0177 64.1368C80.0177 64.1368 74.8259 63.8884 74.2826 63.1899C73.7393 62.4913 63.7582 46.0524 63.7582 46.0524L68.7487 44.9037Z" fill="#DFDDD1" stroke="black" stroke-width="0.264583"/>
<path d="M66.1326 66.6037L63.8575 64.5282L62.2297 64.3872L62.4883 65.5211L66.0521 68.9632L66.1326 66.6037Z" fill="#BF973F" stroke="black" stroke-width="0.264583"/>
<path d="M62.1317 64.4327L60.6995 65.7266L62.5653 65.5937L62.1317 64.4327Z" fill="#BF973F" stroke="black" stroke-width="0.264583"/>
<path d="M85.5124 71.9513L88.1264 71.7761L90.1451 71.7867L91.4457 72.7573L85.2004 74.2345L85.5124 71.9513Z" fill="#BF973F" stroke="black" stroke-width="0.264583"/>
<path d="M80.0579 68.9632C80.3597 68.971 86.135 71.9126 86.135 71.9126L85.4106 73.8529L80.1786 69.879L80.0579 68.9632Z" fill="#BF973F" stroke="black" stroke-width="0.264583"/>
<path d="M87.411 75.0003L88.4237 75.9264L88.4824 77.4607L88.1426 78.9116L87.1554 79.6592L88.5724 79.5409L89.4478 78.624L89.7281 77.1545L89.5085 75.2384L89.2189 74.612L87.411 75.0003Z" fill="#BF973F" stroke="black" stroke-width="0.264583"/>
<path d="M83.9818 73.6744L88.1156 73.6721L89.2939 74.6091L83.4412 75.8827L82.6738 74.1479L83.9818 73.6744Z" fill="#BF973F" stroke="black" stroke-width="0.264583"/>
<path d="M77.5828 70.4534L83.4788 75.8477L85.332 73.6773L79.6554 68.4043L77.5828 70.4534Z" fill="#BF973F" stroke="black" stroke-width="0.264583"/>
<path d="M78.3474 64.8495L78.5688 67.3953L77.9047 68.187L77.4836 70.4892L82.582 68.0238L80.0579 64.8107L78.3474 64.8495Z" fill="#BF973F" stroke="black" stroke-width="0.264583"/>
<path d="M72.6124 65.3075L72.0087 66.5959L74.7052 67.4419L77.4054 70.4457L77.7639 68.5441L78.5084 67.4885L78.2468 64.8263L74.8058 64.2364L72.6124 65.3075Z" fill="#BF973F" stroke="black" stroke-width="0.264583"/>
<path d="M74.4637 63.2817L72.8136 65.0746L76.7577 64.7875L82.2715 67.4109L80.1585 63.8949L74.4637 63.2817Z" fill="#BF973F" stroke="black" stroke-width="0.264583"/>
<path d="M64.1203 38.8108L76.2546 35.3026L63.9426 30.0473L64.1203 38.8108Z" fill="#FAF8EB" stroke="black" stroke-width="0.264583"/>
<path d="M110.592 10.2628L104.515 14.2833L111.075 12.9406L110.592 10.2628Z" fill="#3C3835" stroke="black" stroke-width="0.264583"/>
<path d="M111.055 13.088L104.656 14.5239L111.075 17.9933L111.055 13.088Z" fill="#3C3835" stroke="black" stroke-width="0.264583"/>
<path d="M111.075 17.8924L111.175 20.8961L110.37 21.2299L99.3832 29.5347L89.8247 22.4717L104.032 11.2873L111.075 17.8924Z" fill="#3C3835" stroke="black" stroke-width="0.264583"/>
<path d="M99.5443 29.8374L80.9102 36.1476L79.2803 28.0368L94.4129 21.2376L99.5443 29.8374Z" fill="#FAF8EB" stroke="black" stroke-width="0.264583"/>
<path d="M81.1202 36.1712L76.6957 37.0617L52.4565 24.7107L57.5271 20.9893L80.0091 30.0925L81.1202 36.1712Z" fill="#FAF8EB" stroke="black" stroke-width="0.264583"/>
<path d="M110.491 10.193L97.8337 18.8471L74.0079 8.04301L70.384 5.65417L79.2802 5.36528L82.5804 4.81421L89.1808 3.43265L95.097 2.22961L99.3832 1.49227L103.931 0.956719L109.626 0.739395L110.491 10.193Z" fill="#3C3835" stroke="black" stroke-width="0.264583"/>
<path d="M61.3232 70.5424L58.1237 67.2981L56.212 66.7004L52.9319 69.8128L56.4132 68.5632L60.3171 72.8243L61.3232 70.5424Z" fill="#BF973F" stroke="black" stroke-width="0.264583"/>
<path d="M80.9835 82.6737L82.9556 82.891L82.5934 85.9724L81.6677 86.9581L79.6353 87.773L80.9835 86.3992L81.064 84.5287L80.9835 82.6737Z" fill="#BF973F" stroke="black" stroke-width="0.264583"/>
<path d="M85.8331 78.7619L85.9136 80.2599L85.6118 81.8044L85.3904 82.534L84.4044 83.4188L84.988 82.2391L85.1087 80.7721L84.4446 79.6156L83.8409 78.7308L85.8331 78.7619Z" fill="#BF973F" stroke="black" stroke-width="0.264583"/>
<path d="M84.9075 75.1062L85.2898 76.1773L85.2295 77.6442L84.5654 78.0789L84.7063 77.2329L84.2233 75.9677L83.5995 75.277L84.9075 75.1062Z" fill="#BF973F" stroke="black" stroke-width="0.264583"/>
<path d="M74.4435 71.1944L79.7158 74.4309L78.1059 75.339L73.4172 73.1968L74.4435 71.1944Z" fill="#BF973F" stroke="black" stroke-width="0.264583"/>
<path d="M79.2126 74.7026L80.6414 74.656L82.9958 73.8178L83.4184 75.8591L79.2529 76.8913L79.2126 74.7026Z" fill="#BF973F" stroke="black" stroke-width="0.264583"/>
<path d="M73.5782 72.1723L78.0053 74.6871H79.5145L80.1585 77.2639L72.0891 74.6948L73.5782 72.1723Z" fill="#BF973F" stroke="black" stroke-width="0.264583"/>
<path d="M79.2127 77.1009L84.1026 76.9534L83.9416 79.0491L78.609 79.2819L79.2127 77.1009Z" fill="#BF973F" stroke="black" stroke-width="0.264583"/>
<path d="M72.6123 74.0661L79.6554 77.1009L79.2932 80.8109L73.3367 77.6054L72.6123 74.0661Z" fill="#BF973F" stroke="black" stroke-width="0.264583"/>
<path d="M83.0894 73.8927L85.0189 75.1774L83.4057 75.8441L83.0894 73.8927Z" fill="#BF973F" stroke="black" stroke-width="0.264583"/>
<path d="M84.0914 77.0352L85.8332 78.7541L83.9725 79.0318L84.0914 77.0352Z" fill="#BF973F" stroke="black" stroke-width="0.264583"/>
<path d="M56.4132 47.0715L62.6916 60.2816L66.1528 67.9889L69.3926 68.571L69.5939 66.1183L61.9471 49.074L62.5105 45.1389L56.4132 47.0715Z" fill="#FAF8EB" stroke="black" stroke-width="0.264583"/>
<path d="M48.9072 24.9578L49.692 31.6793L52.5093 44.0046L55.7692 47.5982L63.1544 46.1778L65.1063 41.614L66.2534 40.0928L66.2735 31.0739L58.1236 24.6007L48.9072 24.9578Z" fill="#FAF8EB" stroke="black" stroke-width="0.264583"/>
<path d="M63.7942 70.337L61.276 70.241L60.1974 73.1476L65.1869 73.5073L63.7942 70.337Z" fill="#BF973F" stroke="black" stroke-width="0.264583"/>
<path d="M66.2384 68.0902L63.6978 70.2785L64.563 73.5384L70.1349 77.9578L70.0637 73.3042L66.2384 68.0902Z" fill="#BF973F" stroke="black" stroke-width="0.264583"/>
<path d="M80.2107 80.2284L83.0047 82.87L80.215 82.8327L80.2107 80.2284Z" fill="#BF973F" stroke="black" stroke-width="0.264583"/>
<path d="M76.5446 79.1743L80.1786 80.1201L80.239 82.8522L75.7965 83.0142L76.5446 79.1743Z" fill="#BF973F" stroke="black" stroke-width="0.264583"/>
<path d="M70.2981 77.7063L75.7515 83.0695L76.7174 79.8873L77.7638 79.4682L72.8135 74.7026L70.2981 77.7063Z" fill="#BF973F" stroke="black" stroke-width="0.264583"/>
<path d="M70.0741 73.3389L70.139 77.8292L75.0196 73.0349L70.0741 73.3389Z" fill="#BF973F" stroke="black" stroke-width="0.264583"/>
<path d="M66.2333 67.9501L70.0969 73.29L74.9916 73.0837L67.5212 66.8169L66.2333 67.9501Z" fill="#BF973F" stroke="black" stroke-width="0.264583"/>
<path d="M67.5703 66.7483L69.7146 65.4974L75.0874 70.6278L75.007 73.0804L67.5703 66.7483Z" fill="#BF973F" stroke="black" stroke-width="0.264583"/>
<path d="M58.7497 26.5782L19.3715 20.9505L39.4342 13.4994L58.7497 26.5782Z" fill="#212121" stroke="black" stroke-width="0.264583"/>
<path d="M85.2418 27.3998L76.7648 32.8101L64.4293 30.0548L59.5193 27.3615L65.5562 22.852L70.8486 16.6428L85.2418 27.3998Z" fill="#212121" stroke="black" stroke-width="0.264583"/>
<path d="M56.193 7.25639C56.4143 7.82299 65.7173 23.0306 65.7173 23.0306L71.0701 16.7592L61.958 5.93973L56.193 7.25639Z" fill="#212121" stroke="black" stroke-width="0.264583"/>
<path d="M91.541 23.5912L85.2368 27.4934L63.2824 11.3882L56.3198 7.22028L67.1662 4.7133L89.7645 19.5456L91.541 23.5912Z" fill="#212121" stroke="black" stroke-width="0.264583"/>
<path d="M65.6971 23.0383L59.3985 27.4857L42.0725 15.7425L38.8613 13.5138L46.9826 10.1153L54.4281 11.8617L65.6971 23.0383Z" fill="#212121" stroke="black" stroke-width="0.264583"/>
<path d="M56.2063 7.20421L47.1212 10.1199L51.2085 12.2886C51.2085 12.2886 66.16 23.4109 65.8984 23.0616C65.6368 22.7123 56.2063 7.20421 56.2063 7.20421Z" fill="#212121" stroke="black" stroke-width="0.264583"/>
<path d="M91.3541 23.3798L66.7435 4.59688L80.1254 7.30566L91.5352 19.5301L91.3541 23.3798Z" fill="#212121" stroke="black" stroke-width="0.264583"/>
<path d="M94.3122 10.6664L98.9204 18.8393L91.5872 23.5447L80.2662 7.25909L94.3122 10.6664Z" fill="#212121" stroke="black" stroke-width="0.264583"/>
<path d="M126.533 6.79942L126.935 11.5107L133.491 12.5447L130.895 9.19172L126.533 6.79942Z" fill="#989A8B" stroke="black" stroke-width="0.264583"/>
<path d="M127.214 11.4006L127.554 15.6571L133.028 12.4749L127.214 11.4006Z" fill="#77796E" stroke="black" stroke-width="0.264583"/>
<path d="M131.911 12.3958L132.364 15.9753L133.491 12.651L131.911 12.3958Z" fill="#989A8B" stroke="black" stroke-width="0.264583"/>
<path d="M121.92 2.72635L119.666 1.67077L115.018 0.886859L109.061 0.615204L109.544 9.37023L121.216 9.90578L121.92 2.72635Z" fill="#DACFBB" stroke="black" stroke-width="0.264583"/>
<path d="M109.786 9.37023L110.007 13.2588L121.604 18.3157L120.914 8.40004L109.786 9.37023Z" fill="#DACFBB" stroke="black" stroke-width="0.264583"/>
<path d="M120.994 4.99271L119.002 9.30037L125.24 10.2939L124.737 4.84525L120.994 4.99271Z" fill="#DACFBB" stroke="black" stroke-width="0.264583"/>
<path d="M126.45 4.72969L126.634 6.81568L125.218 10.1248L123.268 7.32894L123.993 4.4494L126.45 4.72969Z" fill="#DACFBB" stroke="black" stroke-width="0.264583"/>
<path d="M110.067 13.2588L110.782 21.7102L121.568 18.3417L110.067 13.2588Z" fill="#DACFBB" stroke="black" stroke-width="0.264583"/>
<path d="M120.209 5.23333L122.564 2.20633L125.079 3.67326L126.468 4.52703L126.327 5.37304L123.791 5.25662L122.181 5.69127L120.209 5.23333Z" fill="#DACFBB" stroke="black" stroke-width="0.264583"/>
<path d="M118.901 9.17619L121.643 18.281L125.148 10.2628L118.901 9.17619Z" fill="#DACFBB" stroke="black" stroke-width="0.264583"/>
<path d="M126.649 6.8322L121.622 18.3156L127.639 15.6177L126.649 6.8322Z" fill="#DACFBB" stroke="black" stroke-width="0.264583"/>
</svg>
