<svg width="133" height="127" viewBox="0 0 133 127" fill="none" xmlns="http://www.w3.org/2000/svg">
<path d="M9.75781 4.61557L65.094 4.38672C65.094 4.38672 111.455 48.6321 110.564 48.5385C109.672 48.4448 49.4024 39.1978 49.4024 39.1978L9.75781 4.61557Z" fill="#447821" stroke="black" stroke-width="0.264583"/>
<path d="M62.4413 55.611L83.6979 99.409L71.3349 111.793L62.4413 55.611Z" fill="#0B1728" stroke="black" stroke-width="0.264583"/>
<path d="M62.3598 55.0934L60.8145 122.398L63.0731 126.003L79.359 104.7L62.3598 55.0934Z" fill="#71C837" stroke="black" stroke-width="0.264583"/>
<path d="M96.7695 38.3491L61.2899 53.7825L75.555 94.5397L116.323 53.2154L96.7695 38.3491Z" fill="#71C837" stroke="black" stroke-width="0.264583"/>
<path d="M119.657 57.4522L125.252 49.0988L132.144 60.4674L119.657 57.4522Z" fill="#241F1C" stroke="black" stroke-width="0.264583"/>
<path d="M113.722 56.0585L114.629 53.2412L122.399 58.1117C122.399 58.1117 113.454 56.0585 113.722 56.0585Z" fill="#2A7FFF" stroke="black" stroke-width="0.264583"/>
<path d="M121.375 57.3619L114.477 53.1618L115.115 43.9047L123.877 54.381L121.375 57.3619Z" fill="#FF2A2A" stroke="black" stroke-width="0.264583"/>
<path d="M124.009 54.5526L114.997 43.8929L115.918 34.2245L126.458 50.9148L124.009 54.5526Z" fill="#2A7FFF" stroke="black" stroke-width="0.264583"/>
<path d="M115.858 33.8734L96.7429 38.3064L114.436 53.3998L115.858 33.8734Z" fill="#FF2A2A" stroke="black" stroke-width="0.264583"/>
<path d="M115.81 33.9054L105.833 36.1554L115.045 44.1257L115.81 33.9054Z" fill="#2A7FFF" stroke="black" stroke-width="0.264583"/>
<path d="M119.635 57.3914L125.25 48.9379L126.646 51.1384L122.307 58.1147L119.635 57.3914Z" fill="black" stroke="black" stroke-width="0.264583"/>
<path d="M53.5838 0.540588L0.858521 6.81433L61.1789 53.9993L69.9084 51.7692L60.1011 8.90498L53.5838 0.540588Z" fill="#0B1728" stroke="black" stroke-width="0.264583"/>
<path d="M114.507 53.3776C113.497 53.401 53.5837 0.540588 53.5837 0.540588L61.2512 54.1267L114.507 53.3776Z" fill="#0B1728" stroke="black" stroke-width="0.264583"/>
</svg>
