<svg width="240" height="142" viewBox="0 0 240 142" fill="none" xmlns="http://www.w3.org/2000/svg">
<g clip-path="url(#clip0_206_239)">
<path d="M98.9382 97.4729C96.6114 98.055 18.6638 94.5626 18.6638 94.5626C18.6638 94.5626 -1.11402 81.4664 0.0493859 74.4818C1.21275 67.4972 14.8827 66.042 14.8827 66.042L15.7552 62.2587C15.7552 62.2587 5.57554 49.7446 8.77488 43.924C11.9742 38.1035 29.4251 36.6484 29.4251 36.6484L30.5886 28.4996C30.5886 28.4996 20.6997 15.9855 25.3532 11.038C30.0068 6.09059 46.8761 13.3662 46.8761 13.3662C46.8761 13.3662 52.984 -3.22225 62.582 0.561084C72.18 4.34446 79.7421 20.9329 79.7421 20.9329C79.7421 20.9329 84.6865 25.0073 86.4316 20.0598C88.1767 15.1124 87.8858 4.05337 94.8662 5.50851C101.847 6.96364 102.137 6.96365 102.137 6.96365C102.137 6.96365 114.062 7.83676 117.843 16.8586C121.624 25.8804 124.242 25.2983 124.242 25.2983C124.242 25.2983 132.095 15.6945 136.167 14.2393C140.239 12.7842 146.056 14.5302 147.51 19.7688C148.964 25.0073 148.964 42.4689 147.219 44.7971C145.474 47.1253 154.2 40.7227 159.726 46.2522C165.252 51.7817 169.324 52.9459 167.579 59.0574C165.834 65.169 166.124 67.7882 166.124 67.7882C166.124 67.7882 180.085 58.7664 183.866 61.3856C187.647 64.0049 198.99 69.5343 196.373 76.81C193.755 84.0857 200.735 93.6896 191.137 96.8909C181.539 100.092 98.9382 97.4729 98.9382 97.4729H98.9382Z" fill="#85B754"/>
<path d="M87.5951 116.972C87.5951 116.972 77.7062 114.644 77.7062 122.21C77.7062 129.777 92.2486 140.254 92.2486 140.254L240 142C240 142 235.928 135.015 232.438 133.851C228.948 132.687 240.582 126.285 232.438 118.718C224.294 111.151 209.752 118.136 209.752 118.136C209.752 118.136 214.987 105.913 209.752 104.167C204.516 102.42 194.628 101.256 194.628 101.256C194.628 101.256 199.863 71.5716 194.628 73.3178C189.392 75.0639 171.941 84.9588 171.941 84.9588C171.941 84.9588 174.268 64.0049 157.981 65.169C141.693 66.3331 142.275 82.6306 142.275 82.6306C142.275 82.6306 139.948 59.9306 130.059 62.8408C120.17 65.7511 112.026 73.8998 112.026 73.8998C112.026 73.8998 111.445 65.7511 103.883 66.9151C96.3205 68.0793 100.974 91.9435 100.974 91.9435C100.974 91.9435 86.4316 86.1229 82.9415 94.8537C79.4513 103.585 87.5951 116.972 87.5951 116.972Z" fill="#6D9543"/>
</g>
<defs>
<clipPath id="clip0_206_239">
<rect width="240" height="142" fill="white"/>
</clipPath>
</defs>
</svg>
