<svg width="321" height="471" viewBox="0 0 321 471" fill="none" xmlns="http://www.w3.org/2000/svg">
<g clip-path="url(#clip0_203_14)">
<g filter="url(#filter0_d_203_14)">
<path d="M138.566 104.918C138.566 104.918 123.462 141.588 101.165 135.117C78.8687 128.646 54.7739 95.2118 60.1683 74.72C65.5626 54.2282 83.5438 24.3894 92.1748 32.658C100.806 40.9266 100.806 40.2076 100.806 40.2076C100.806 40.2076 100.446 13.6042 113.752 12.8852C127.058 12.1662 137.487 2.4596 150.793 21.5133C164.099 40.567 152.591 26.9059 152.591 26.9059C152.591 26.9059 156.547 12.5258 165.897 8.5712C175.248 4.61662 189.992 -5.80902 197.904 4.25712C205.816 14.3233 210.131 36.972 216.604 37.691C223.078 38.41 254.724 47.0382 247.892 68.6084C241.059 90.1787 227.393 107.794 221.639 108.154C215.885 108.513 190.352 111.749 182.8 102.761C175.248 93.7737 156.188 97.7284 156.188 105.997C156.188 114.266 142.882 105.638 140.005 105.278C137.128 104.919 138.566 104.919 138.566 104.919V104.918Z" fill="#8FC958"/>
</g>
<g filter="url(#filter1_d_203_14)">
<path d="M134.97 86.5836C134.97 86.5836 122.743 109.951 106.2 101.683C89.6574 93.4142 84.9823 84.7861 82.4649 72.5629C79.9475 60.3398 93.9728 40.2076 104.762 41.6456C115.55 43.0836 118.068 41.2863 118.068 41.2863C118.068 41.2863 114.471 29.0632 124.181 27.2657C133.891 25.4682 137.128 21.5136 150.793 28.7036C164.459 35.8938 154.39 32.2987 154.39 32.2987C154.39 32.2987 162.301 15.402 174.528 23.6706C186.756 31.9392 191.071 43.0838 191.071 43.0838C191.071 43.0838 212.289 39.8482 214.447 52.7905C216.604 65.7326 215.525 97.3691 209.771 98.8071C204.018 100.245 175.248 100.245 174.888 91.2575C174.528 82.2699 175.248 93.0549 164.819 94.8525C154.39 96.65 134.97 86.5839 134.97 86.5839V86.5836Z" fill="#86BC55"/>
</g>
<g filter="url(#filter2_d_203_14)">
<path d="M86.0611 189.042C86.0611 189.042 89.6574 214.927 55.8528 217.084C22.0482 219.241 -3.84464 212.051 0.470838 188.323C4.78631 164.596 20.6097 161.72 20.6097 161.72C20.6097 161.72 -0.248407 136.555 11.2595 116.423C22.7675 96.2904 45.0641 82.6291 55.1335 89.1002C65.203 95.5713 87.4996 112.828 91.8151 114.266C96.1306 115.704 106.2 94.1333 119.146 101.323C132.093 108.513 157.986 123.613 156.547 148.059C155.109 172.505 137.847 189.761 128.497 193.357C119.146 196.952 86.0611 189.042 86.0611 189.042Z" fill="#75A24A"/>
</g>
<g filter="url(#filter3_d_203_14)">
<path d="M32.1177 171.067C29.9599 173.943 26.3637 183.29 33.5561 194.075C40.7486 204.861 73.8339 186.885 73.8339 186.885C73.8339 186.885 81.7456 186.166 83.9034 178.257C86.0611 170.348 90.3766 177.538 90.3766 177.538C90.3766 177.538 117.708 180.414 125.62 163.877C133.531 147.34 114.112 120.017 114.112 120.017C114.112 120.017 103.323 109.232 90.3766 118.579C77.4302 127.927 75.2724 127.208 75.2724 127.208C75.2724 127.208 61.6068 107.075 50.0988 114.265C38.5909 121.456 34.9946 148.778 34.9946 148.778C34.9946 148.778 34.9946 163.877 40.7486 165.315C46.5026 166.753 39.3101 166.034 39.3101 166.034L32.1177 171.067Z" fill="#85B754"/>
</g>
<g filter="url(#filter4_d_203_14)">
<path d="M169.494 139.431C175.607 118.939 187.115 114.266 187.115 114.266C187.115 114.266 206.535 111.389 213.008 117.141C219.481 122.894 230.989 103.84 230.989 103.84C230.989 103.84 240.339 89.4597 250.049 92.6952C259.759 95.9307 280.977 84.4266 292.844 108.873C304.712 133.319 292.125 144.104 292.125 144.104C292.125 144.104 331.324 169.989 318.378 204.501C305.431 239.014 257.242 235.059 257.242 235.059C257.242 235.059 241.059 237.216 226.314 218.522C211.57 199.828 222.718 191.199 222.718 191.199C222.718 191.199 186.036 184.369 178.125 168.191C170.213 152.013 169.494 139.431 169.494 139.431Z" fill="#89C453"/>
</g>
<g filter="url(#filter5_d_203_14)">
<path d="M220.92 179.336C220.92 179.336 197.904 165.315 198.983 146.261C200.062 127.208 225.595 134.757 225.595 134.757C225.595 134.757 230.27 118.939 241.778 119.299C253.286 119.658 261.198 119.658 261.198 119.658C261.198 119.658 282.415 129.005 279.538 142.307C276.661 155.608 275.583 150.216 275.583 150.216C275.583 150.216 296.081 158.125 295.002 179.695C293.923 201.265 259.759 207.017 259.759 207.017C259.759 207.017 252.567 218.162 236.743 198.749C220.92 179.336 220.92 179.336 220.92 179.336V179.336Z" fill="#85B754"/>
</g>
<g filter="url(#filter6_d_203_14)">
<path d="M120.585 458.671C120.585 458.671 143.601 472.332 156.547 470.894C169.494 469.456 181.721 457.952 181.721 457.952L165.178 304.084C165.178 304.084 161.582 276.042 168.055 262.381C174.528 248.72 185.317 221.398 201.14 212.77C216.964 204.142 227.753 196.232 227.753 196.232C227.753 196.232 232.068 191.199 245.734 194.794C259.399 198.389 279.538 202.703 279.538 202.703L276.661 189.042C276.661 189.042 237.822 186.166 239.261 183.29C240.699 180.414 250.768 126.489 250.768 126.489L242.137 125.77L226.314 184.009C226.314 184.009 181.002 208.456 178.125 216.365C175.248 224.274 165.178 237.935 165.178 237.935L159.424 145.902C159.424 145.902 158.705 120.736 164.459 117.141C170.213 113.546 186.036 71.8439 186.036 71.8439L175.967 69.6869L155.828 114.265L147.916 115.703L124.181 70.4058L111.954 69.6869L137.847 121.455C137.847 121.455 148.635 150.935 147.197 159.563C145.759 168.191 147.197 238.654 144.32 239.373C141.443 240.092 106.2 219.96 104.761 208.456C103.323 196.951 88.2188 170.348 88.2188 170.348L115.55 144.464L92.5343 143.026L81.0263 160.282L41.4678 137.274L37.8716 150.935L75.2724 171.786C75.2724 171.786 84.6226 214.208 90.3766 219.96C96.1305 225.712 129.216 241.53 134.251 250.877C139.285 260.224 142.162 328.53 142.162 328.53L120.585 458.671Z" fill="#624F29"/>
</g>
</g>
<defs>
<filter id="filter0_d_203_14" x="55.4023" y="0" width="197.449" height="143.882" filterUnits="userSpaceOnUse" color-interpolation-filters="sRGB">
<feFlood flood-opacity="0" result="BackgroundImageFix"/>
<feColorMatrix in="SourceAlpha" type="matrix" values="0 0 0 0 0 0 0 0 0 0 0 0 0 0 0 0 0 0 127 0" result="hardAlpha"/>
<feOffset dy="4"/>
<feGaussianBlur stdDeviation="2"/>
<feComposite in2="hardAlpha" operator="out"/>
<feColorMatrix type="matrix" values="0 0 0 0 0 0 0 0 0 0 0 0 0 0 0 0 0 0 0.25 0"/>
<feBlend mode="normal" in2="BackgroundImageFix" result="effect1_dropShadow_203_14"/>
<feBlend mode="normal" in="SourceGraphic" in2="effect1_dropShadow_203_14" result="shape"/>
</filter>
<filter id="filter1_d_203_14" x="78.1682" y="21.3922" width="141.309" height="90.0616" filterUnits="userSpaceOnUse" color-interpolation-filters="sRGB">
<feFlood flood-opacity="0" result="BackgroundImageFix"/>
<feColorMatrix in="SourceAlpha" type="matrix" values="0 0 0 0 0 0 0 0 0 0 0 0 0 0 0 0 0 0 127 0" result="hardAlpha"/>
<feOffset dy="4"/>
<feGaussianBlur stdDeviation="2"/>
<feComposite in2="hardAlpha" operator="out"/>
<feColorMatrix type="matrix" values="0 0 0 0 0 0 0 0 0 0 0 0 0 0 0 0 0 0 0.25 0"/>
<feBlend mode="normal" in2="BackgroundImageFix" result="effect1_dropShadow_203_14"/>
<feBlend mode="normal" in="SourceGraphic" in2="effect1_dropShadow_203_14" result="shape"/>
</filter>
<filter id="filter2_d_203_14" x="-4" y="87.4783" width="164.605" height="137.969" filterUnits="userSpaceOnUse" color-interpolation-filters="sRGB">
<feFlood flood-opacity="0" result="BackgroundImageFix"/>
<feColorMatrix in="SourceAlpha" type="matrix" values="0 0 0 0 0 0 0 0 0 0 0 0 0 0 0 0 0 0 127 0" result="hardAlpha"/>
<feOffset dy="4"/>
<feGaussianBlur stdDeviation="2"/>
<feComposite in2="hardAlpha" operator="out"/>
<feColorMatrix type="matrix" values="0 0 0 0 0 0 0 0 0 0 0 0 0 0 0 0 0 0 0.25 0"/>
<feBlend mode="normal" in2="BackgroundImageFix" result="effect1_dropShadow_203_14"/>
<feBlend mode="normal" in="SourceGraphic" in2="effect1_dropShadow_203_14" result="shape"/>
</filter>
<filter id="filter3_d_203_14" x="25.286" y="112.714" width="106.229" height="92.8076" filterUnits="userSpaceOnUse" color-interpolation-filters="sRGB">
<feFlood flood-opacity="0" result="BackgroundImageFix"/>
<feColorMatrix in="SourceAlpha" type="matrix" values="0 0 0 0 0 0 0 0 0 0 0 0 0 0 0 0 0 0 127 0" result="hardAlpha"/>
<feOffset dy="4"/>
<feGaussianBlur stdDeviation="2"/>
<feComposite in2="hardAlpha" operator="out"/>
<feColorMatrix type="matrix" values="0 0 0 0 0 0 0 0 0 0 0 0 0 0 0 0 0 0 0.25 0"/>
<feBlend mode="normal" in2="BackgroundImageFix" result="effect1_dropShadow_203_14"/>
<feBlend mode="normal" in="SourceGraphic" in2="effect1_dropShadow_203_14" result="shape"/>
</filter>
<filter id="filter4_d_203_14" x="165.494" y="92.2209" width="159.506" height="150.975" filterUnits="userSpaceOnUse" color-interpolation-filters="sRGB">
<feFlood flood-opacity="0" result="BackgroundImageFix"/>
<feColorMatrix in="SourceAlpha" type="matrix" values="0 0 0 0 0 0 0 0 0 0 0 0 0 0 0 0 0 0 127 0" result="hardAlpha"/>
<feOffset dy="4"/>
<feGaussianBlur stdDeviation="2"/>
<feComposite in2="hardAlpha" operator="out"/>
<feColorMatrix type="matrix" values="0 0 0 0 0 0 0 0 0 0 0 0 0 0 0 0 0 0 0.25 0"/>
<feBlend mode="normal" in2="BackgroundImageFix" result="effect1_dropShadow_203_14"/>
<feBlend mode="normal" in="SourceGraphic" in2="effect1_dropShadow_203_14" result="shape"/>
</filter>
<filter id="filter5_d_203_14" x="194.946" y="119.292" width="104.097" height="98.9087" filterUnits="userSpaceOnUse" color-interpolation-filters="sRGB">
<feFlood flood-opacity="0" result="BackgroundImageFix"/>
<feColorMatrix in="SourceAlpha" type="matrix" values="0 0 0 0 0 0 0 0 0 0 0 0 0 0 0 0 0 0 127 0" result="hardAlpha"/>
<feOffset dy="4"/>
<feGaussianBlur stdDeviation="2"/>
<feComposite in2="hardAlpha" operator="out"/>
<feColorMatrix type="matrix" values="0 0 0 0 0 0 0 0 0 0 0 0 0 0 0 0 0 0 0.25 0"/>
<feBlend mode="normal" in2="BackgroundImageFix" result="effect1_dropShadow_203_14"/>
<feBlend mode="normal" in="SourceGraphic" in2="effect1_dropShadow_203_14" result="shape"/>
</filter>
<filter id="filter6_d_203_14" x="33.8716" y="69.6869" width="249.667" height="409.313" filterUnits="userSpaceOnUse" color-interpolation-filters="sRGB">
<feFlood flood-opacity="0" result="BackgroundImageFix"/>
<feColorMatrix in="SourceAlpha" type="matrix" values="0 0 0 0 0 0 0 0 0 0 0 0 0 0 0 0 0 0 127 0" result="hardAlpha"/>
<feOffset dy="4"/>
<feGaussianBlur stdDeviation="2"/>
<feComposite in2="hardAlpha" operator="out"/>
<feColorMatrix type="matrix" values="0 0 0 0 0 0 0 0 0 0 0 0 0 0 0 0 0 0 0.25 0"/>
<feBlend mode="normal" in2="BackgroundImageFix" result="effect1_dropShadow_203_14"/>
<feBlend mode="normal" in="SourceGraphic" in2="effect1_dropShadow_203_14" result="shape"/>
</filter>
<clipPath id="clip0_203_14">
<rect width="321" height="471" fill="white"/>
</clipPath>
</defs>
</svg>
