<svg width="198" height="65" viewBox="0 0 198 65" fill="none" xmlns="http://www.w3.org/2000/svg">
<path d="M92.4505 21.0168C91.5579 21.0946 48.1083 22.1107 49.1448 22.4106C50.1814 22.7104 92.8536 29.4905 92.8536 29.4905L92.4505 21.0168Z" fill="#DCCBB5" stroke="black" stroke-width="0.264583"/>
<path d="M92.6088 20.9224C92.6088 20.9224 99.3754 9.9499 98.9435 9.9499C98.5116 9.9499 50.8149 14.1479 50.8149 14.1479L18.6812 12.7819L0.253235 5.17441L1.14584 7.4622L17.7886 14.892L34.6904 17.8905L50.8725 18.9789L92.6088 20.9224Z" fill="#E7D5B9" stroke="black" stroke-width="0.264583"/>
<path d="M92.3641 20.8947L52.6145 19.1177L34.4745 17.7906L17.659 14.8531L35.4391 21.8331L50.239 22.4106L92.6808 25.5202L92.3641 20.8947Z" fill="#DCCBB5" stroke="black" stroke-width="0.264583"/>
<path d="M102.973 10.1902L91.8006 8.65759L87.5391 5.6146L91.8294 4.4596L90.9368 0.961274L91.599 0.250504L94.2192 2.79373L96.9834 1.1945L97.4441 1.5832L96.7531 3.41565L98.5959 2.52719L99.2581 2.83815L98.0488 4.67061L99.3157 4.59287L99.0278 4.92604L106.082 4.31522L113.338 9.09071L102.973 10.1902Z" fill="#DCCBB5" stroke="black" stroke-width="0.264583"/>
<path d="M150.568 20.7432L156.73 24.4081L162.806 24.8079L165.311 24.4192L169.918 25.6963L174.813 29.439L173.632 26.396L177.548 27.9841C177.548 27.9841 173.575 21.5983 172.999 21.565C172.423 21.5317 150.568 20.7432 150.568 20.7432Z" fill="#DCCBB5" stroke="black" stroke-width="0.264583"/>
<path d="M135.902 8.70372L140.511 25.9185L165.178 21.8654L163.588 7.57939L135.902 8.70372Z" fill="#E7D5B9" stroke="black" stroke-width="0.260214"/>
<path d="M136.057 8.76773L104.605 9.07098L98.9619 10.1038L92.3708 20.9105L92.8864 29.6056L97.8101 31.7157L113.042 32.1599L118.916 30.8827L121.651 29.5612L125.135 29.861L129.512 26.8513L140.511 25.9185L136.057 8.76773Z" fill="#E7D5B9" stroke="black" stroke-width="0.264583"/>
<path d="M92.4294 20.8881L106.692 21.5554L138.647 18.7225L140.511 25.9707L129.512 26.8513L125.135 29.861L121.651 29.5612L118.916 30.8827L113.042 32.1599L111.846 32.3614L97.8102 31.7157L92.8536 29.4905L92.4294 20.8881Z" fill="#DCCBB5" stroke="black" stroke-width="0.264583"/>
<path d="M138.647 18.7486L162.298 15.8411L162.085 22.3366L140.476 25.8557L138.647 18.7486Z" fill="#DCCBB5" stroke="black" stroke-width="0.264583"/>
<path d="M106.691 21.5555L98.2262 31.4618L99.8962 35.7931L97.6503 35.0379L95.4908 34.938L91.0853 37.2035L85.8449 39.669L80.4605 49.6531L71.592 53.3514L70.8434 54.573L79.1648 53.0848L71.0738 63.4354L72.9453 63.5243L80.5469 56.039L81.2379 63.813L82.8216 63.0689L84.9235 54.0732L87.0542 60.4368L88.3499 59.7261L87.6301 50.5194L88.6091 48.2205L90.855 50.7637L95.6347 51.7854L90.9126 48.5536L90.999 43.9225L92.9857 42.3122L107.498 38.725L110.348 35.7043L111.846 32.3614L110.348 27.4304L106.691 21.5555Z" fill="#E7D5B9" stroke="black" stroke-width="0.264583"/>
<path d="M80.4605 49.6531L79.1648 53.0848" stroke="black" stroke-width="0.264583"/>
<path d="M141.095 22.9174L140.289 27.0376L146.969 42.7301L159.754 46.6727L167.125 51.2372L170.321 57.0122L172.25 57.1232L169.716 51.4371L175.59 56.99L176.224 55.8461L172.768 52.9475L176.742 55.1908L178.239 54.9798L177.116 53.3806L177.98 53.8359L178.441 52.9697L173.373 49.6601L176.425 49.0382L178.469 47.861L177.26 46.7282L171.933 47.5278L160.272 41.4752L154.916 38.5655L151.461 38.0324V34.1565L149.388 26.4268L144.003 21.8846L141.095 22.9174Z" fill="#E7D5B9" stroke="black" stroke-width="0.264583"/>
<path d="M144.004 21.8846L144.197 26.3323L146.118 27.7361L148.408 34.2377L148.999 38.6706" stroke="black" stroke-width="0.264583"/>
<path d="M151.461 38.0324L148.999 38.6706L146.969 42.7301" stroke="black" stroke-width="0.264583"/>
<path d="M148.999 38.6706L153.58 39.5572L159.754 46.6727L169.095 48.7185L167.125 51.2371" stroke="black" stroke-width="0.264583"/>
<path d="M169.716 51.4371L169.095 48.7186L172.768 52.9475" stroke="black" stroke-width="0.264583"/>
<path d="M169.095 48.7186L177.116 53.3806" stroke="black" stroke-width="0.264583"/>
<path d="M169.095 48.7186L173.373 49.6601" stroke="black" stroke-width="0.264583"/>
<path d="M171.933 47.5278L173.373 49.6601" stroke="black" stroke-width="0.264583"/>
<path d="M162.3 7.51622L162.085 22.3366C162.085 22.3366 189.843 16.8782 189.265 16.5716C188.686 16.265 178.675 8.78039 178.675 8.78039L174.378 8.51129L162.3 7.51622Z" fill="#E7D5B9" stroke="black" stroke-width="0.28156"/>
<path d="M181.873 12.0765L179.488 9.94533L172.565 8.3712L182.089 8.92972L187.066 12.987L191.168 14.5809L197.203 19.3297C197.203 19.3297 197.646 20.6038 196.983 20.3259C196.32 20.0481 189.459 15.2734 189.459 15.2734L181.873 12.0765Z" fill="#E7D5B9" stroke="black" stroke-width="0.264583"/>
<path d="M162.059 18.8184L161.993 22.9812L178.553 27.369L193.194 25.3327L196.338 22.3319L187.07 17.686L176.822 17.4565L177.419 17.7272L172.164 19.08L162.059 18.8184Z" fill="#DCCBB5" stroke="black" stroke-width="0.264583"/>
<path d="M175.568 18.6508L178.864 16.7462L181.081 19.2505L178.087 21.1663L175.568 18.6508Z" fill="#202020" stroke="black" stroke-width="0.264583"/>
<path d="M171.978 14.7669L180.953 12.4128L188.95 14.9934L196.74 20.3845L196.374 22.524L187.101 17.8211L172.447 17.4118L171.978 14.7669Z" fill="#E7D5B9" stroke="black" stroke-width="0.264583"/>
<path d="M162.109 18.8223L174 14.537L177.192 17.931L171.854 19.1569L162.109 18.8223Z" fill="#E7D5B9" stroke="black" stroke-width="0.264583"/>
<path d="M99.3502 4.98044L100.984 9.7007L106.082 4.31522L99.3502 4.98044Z" fill="#DCCBB5" stroke="black" stroke-width="0.264583"/>
<path d="M91.8142 8.67453L99.0278 4.92602L91.8294 4.45958" stroke="black" stroke-width="0.264583"/>
<path d="M94.2192 2.79372L94.8127 4.65547L96.7531 3.41564" stroke="black" stroke-width="0.264583"/>
<path d="M99.8962 35.7931L107.498 38.725" stroke="black" stroke-width="0.264583"/>
<path d="M107.498 38.725L85.8449 39.669" stroke="black" stroke-width="0.264583"/>
<path d="M88.6091 48.2205L85.8449 39.669L84.9235 54.0732" stroke="black" stroke-width="0.264583"/>
<path d="M85.8449 39.669L80.5469 56.0389" stroke="black" stroke-width="0.264583"/>
<path d="M85.8449 39.669L80.4605 49.6531" stroke="black" stroke-width="0.264583"/>
</svg>
