<svg width="106" height="81" viewBox="0 0 106 81" fill="none" xmlns="http://www.w3.org/2000/svg">
<path d="M81.0037 45.3359L85.9643 11.3088L96.7774 13.8773L93.6561 46.4116L81.0037 45.3359Z" fill="#502D16" stroke="black" stroke-width="0.264583"/>
<path d="M4.08557 65.2253L67.6672 80.8421L69.9738 79.5486L19.6921 49.5289L4.08557 65.2253Z" fill="#784421" stroke="black" stroke-width="0.264583"/>
<path d="M15.1774 48.6289L97.7249 39.4086L91.2594 68.5402L68.4626 80.3948L15.1774 48.6289Z" fill="#784421" stroke="black" stroke-width="0.264583"/>
<path d="M6.17578 65.7138L25.2381 47.4709L36.3717 46.2909L18.3127 68.6994L6.17578 65.7138Z" fill="#28170B" stroke="black" stroke-width="0.264583"/>
<path d="M28.3408 56.4115L19.3403 50.4478" stroke="black" stroke-width="0.264583"/>
<path d="M91.175 68.4347L94.3807 11.1771L87.5807 5.1181L80.0004 6.01817L84.3479 3.95459L91.9283 4.06435L101.236 10.6502L105.695 39.2111L91.175 68.4347Z" fill="#784421" stroke="black" stroke-width="0.264583"/>
<path d="M21.4758 7.24757L29.8922 2.22034L19.4692 4.02048L21.4758 7.24757Z" fill="#502D16" stroke="black" stroke-width="0.264583"/>
<path d="M24.2627 5.84257L35.7446 10.6503L40.5938 5.40351L27.9414 2.54962L24.2627 5.84257Z" fill="#502D16" stroke="black" stroke-width="0.264583"/>
<path d="M68.384 80.353L29.5019 9.28916L29.3347 6.6109L37.9741 0.617737L41.3183 6.80848L73.4971 47.1724L68.384 80.353Z" fill="#784421" stroke="black" stroke-width="0.264583"/>
<path d="M1.4659 49.968L1.13147 58.4419L4.14131 65.5985L22.3676 62.6788L28.4987 43.909L22.4791 40.3746L7.31837 43.5138L1.4659 49.968Z" fill="#784421" stroke="black" stroke-width="0.264583"/>
<path d="M19.3995 51.8944L22.4233 62.4483L28.429 44.1176L19.3995 51.8944Z" fill="#28170B" stroke="black" stroke-width="0.264583"/>
</svg>
