<svg width="156" height="78" viewBox="0 0 156 78" fill="none" xmlns="http://www.w3.org/2000/svg">
<path d="M124.651 48.1665L131.52 47.4751L137.589 45.7423L138.345 57.1135L124.651 48.1665Z" fill="#E0B2C5" stroke="black" stroke-width="0.264583"/>
<path d="M85.4721 20.634L138.228 57.0007L88.2799 50.6322L75.6233 34.596L85.4721 20.634Z" fill="#EDC2D4" stroke="black" stroke-width="0.264583"/>
<path d="M112.168 53.7396L116.638 56.8219L154.824 77.0984L149.921 68.3763L145.429 62.4533L140.742 59.0045L138.107 56.8802L112.168 53.7396Z" fill="#F4D7E3" stroke="black" stroke-width="0.264583"/>
<path d="M31.4315 60.149L71.2371 73.8694L50.4812 54.8758L35.6648 56.0004L31.4315 60.149Z" fill="#F4D7E3" stroke="black" stroke-width="0.264583"/>
<path d="M70.9159 13.3329L93.5932 0.799438L80.5052 36.5171L70.9159 13.3329Z" fill="#F4D7E3" stroke="black" stroke-width="0.264583"/>
<path d="M16.4409 41.7L10.631 51.0635L14.4107 53.8626L16.4409 41.7Z" fill="#E0B2C5" stroke="black" stroke-width="0.264583"/>
<path d="M8.59984 66.1135L5.01453 74.3774L5.53288 75.6436L6.11604 75.9435L7.04476 75.6436L21.0404 66.3634L15.2737 63.4477L8.59984 66.1135Z" fill="#F4D7E3" stroke="black" stroke-width="0.264583"/>
<path d="M11.5804 60.4821L1.29962 68.6793L0.500488 70.3787L0.586882 71.7116L2.14196 72.8529L3.32986 73.1195L21.5156 65.3804L11.5804 60.4821Z" fill="#F4D7E3" stroke="black" stroke-width="0.264583"/>
<path d="M11.5044 59.6262L37.6505 57.6863L20.9551 66.2167L12.2294 62.8429L11.5044 59.6262Z" fill="#E0B2C5" stroke="black" stroke-width="0.264583"/>
<path d="M11.4733 59.9272L16.7 41.725L71.1925 13.0514L72.0564 15.3006L89.8102 51.0635L65.2745 55.1871L11.4733 59.9272Z" fill="#F4D7E3" stroke="black" stroke-width="0.264583"/>
</svg>
