<svg width="188" height="78" viewBox="0 0 188 78" fill="none" xmlns="http://www.w3.org/2000/svg">
<path d="M77.8993 12.272L19.1167 14.4992L11.8876 35.2009L41.8995 39.3631L55.2625 20.9616L77.8993 12.272Z" fill="url(#paint0_linear_236_4091)" stroke="black" stroke-width="0.264583"/>
<path d="M55.1365 20.9735L33.8938 54.8383L25.4701 76.8681L18.063 73.2347L31.4816 53.6106L55.1365 20.9735Z" fill="#3C3835" stroke="black" stroke-width="0.264583"/>
<path d="M55.0769 20.9613L18.3134 70.4704L18.1807 73.1597L31.6527 53.7805L55.0769 20.9613Z" fill="#212121" stroke="black" stroke-width="0.264583"/>
<path d="M58.0062 16.719L49.8305 28.5606L18.3195 70.4732L10.501 65.8916L58.0062 16.719Z" fill="#3C3835" stroke="black" stroke-width="0.264583"/>
<path d="M15.7373 55.2883L10.5095 65.9005L20.6964 57.5875L15.7373 55.2883Z" fill="#3C3835" stroke="black" stroke-width="0.264583"/>
<path d="M57.6281 16.6621C57.0589 17.2878 20.6606 57.5715 20.6606 57.5715L7.43274 58.1292L45.9317 23.9505L57.6281 16.6621Z" fill="#3C3835" stroke="black" stroke-width="0.264583"/>
<path d="M46.3272 23.4702L14.9237 49.0447L7.29773 58.1811L16.5603 49.9702L53.5368 18.979L46.3272 23.4702Z" fill="#212121" stroke="black" stroke-width="0.264583"/>
<path d="M58.2257 16.4426L46.3586 23.7749L14.969 49.0757L3.7417 50.4309L39.5286 25.7945L58.2257 16.4426Z" fill="#3C3835" stroke="black" stroke-width="0.264583"/>
<path d="M53.9921 16.2339L13.6862 41.1423L3.69934 50.4916L13.9403 43.7118L53.9921 16.2339Z" fill="#212121" stroke="black" stroke-width="0.264583"/>
<path d="M55.3798 15.3778L1.5365 41.5129L13.5175 41.2165L55.3798 15.3778Z" fill="#3C3835" stroke="black" stroke-width="0.264583"/>
<path d="M51.908 15.773L1.13025 32.5638C1.13025 32.5638 10.5579 35.7612 10.9848 35.5416C11.4117 35.3221 51.908 15.773 51.908 15.773Z" fill="#3C3835" stroke="black" stroke-width="0.264583"/>
<path d="M48.9198 15.3559L2.82397 25.2458L11.3262 27.4191L48.9198 15.3559Z" fill="#3C3835" stroke="black" stroke-width="0.264583"/>
<path d="M48.7775 15.4437L11.4116 21.2503L2.76025 25.2567L12.332 23.8757L48.7775 15.4437Z" fill="#212121" stroke="black" stroke-width="0.264583"/>
<path d="M64.0312 13.1716L5.86218 17.8915L11.44 21.1844L64.0312 13.1716Z" fill="#3C3835" stroke="black" stroke-width="0.264583"/>
<path d="M179.364 16.0977L187.757 25.4742L183.825 23.4098L180.883 22.6787L179.364 16.0977Z" fill="#DFDDD1" stroke="black" stroke-width="0.264583"/>
<path d="M175.667 14.4312L179.318 15.9473L181.292 23.0003L175.985 20.5264L172.451 19.0304L175.667 14.4312Z" fill="#DFDDD1" stroke="black" stroke-width="0.264583"/>
<path d="M165.849 15.3862L173.732 20.4792L175.895 14.4641L172.451 13.147L165.849 15.3862Z" fill="#DFDDD1" stroke="black" stroke-width="0.264583"/>
<path d="M156.913 11.7639L166.133 16.5497L174.785 13.8714L165.706 8.15266L156.913 11.7639Z" fill="#DFDDD1" stroke="black" stroke-width="0.264583"/>
<path d="M147.436 9.12956L156.941 12.9933L166.076 8.37218L159.559 4.92557L147.436 9.12956Z" fill="#DFDDD1" stroke="black" stroke-width="0.264583"/>
<path d="M93.2117 45.0874L86.6947 43.8141L80.7469 38.3808L76.1082 31.29L72.7501 27.9641L65.0948 23.9577L55.2197 20.983L69.5058 14.0678L78.1572 12.3665L85.4425 13.7385L89.0852 15.2533L93.4109 18.0852L97.6797 19.5122L106.388 39.5223L93.2117 45.0874Z" fill="#DFDDD1" stroke="black" stroke-width="0.264583"/>
<path d="M62.9213 13.1386L17.0979 15.5535L5.66357 17.8225L17.3806 17.6406C17.3806 17.6406 62.0391 13.1386 62.9213 13.1386Z" fill="#212121" stroke="black" stroke-width="0.264583"/>
<path d="M51.7087 15.8718L11.3482 27.458L0.840942 32.5481L12.8078 29.6419L51.7087 15.8718Z" fill="#212121" stroke="black" stroke-width="0.264583"/>
<path d="M55.1237 15.3339L10.9906 35.6281L1.59058 41.4301L12.6359 37.1342L55.1237 15.3339Z" fill="#212121" stroke="black" stroke-width="0.264583"/>
<path d="M139.155 6.58302L147.095 9.89792L159.417 4.78288L152.046 2.07169L139.155 6.58302Z" fill="#DFDDD1" stroke="black" stroke-width="0.264583"/>
<path d="M133.349 5.44147L139.126 7.53798L152.331 2.00583L137.988 1.39114L133.349 5.44147Z" fill="#DFDDD1" stroke="black" stroke-width="0.264583"/>
<path d="M106.598 22.0928L111.835 11.5334L116.587 6.05615L128.227 1.05087L138.472 0.831345L151.819 2.06071L142.911 1.89606L136.907 3.24617L129.251 9.95281L129.621 22.0709L106.598 22.0928Z" fill="#3C3835" stroke="black" stroke-width="0.264583"/>
<path d="M78.0328 12.2787L12.1801 14.2764C12.1801 14.2764 16.8757 15.6814 17.331 15.5826C17.7864 15.4838 78.0328 12.2787 78.0328 12.2787Z" fill="#3C3835" stroke="black" stroke-width="0.264583"/>
<path d="M101.534 41.0025L93.6858 38.8338L87.0767 33.6704L83.4623 28.3005L79.3315 25.2024L70.8635 20.7619L62.4988 17.5605L69.2112 14.3592L76.8531 16.2181L83.6688 19.0063L88.1094 22.1044L91.2074 25.5122L93.8924 30.4691L97.197 34.4966L101.534 41.0025Z" fill="#3C3835" stroke="black" stroke-width="0.264583"/>
<path d="M78.7756 55.7931L81.8426 58.1298L103.019 46.0081L85.2016 50.3164L78.7756 55.7931Z" fill="#DFDDD1" stroke="black" stroke-width="0.264583"/>
<path d="M101.632 39.5707L73.1487 56.4247L74.5716 59.4433L79.2377 57.3262L88.1046 52.9539L105.707 45.7097L101.632 39.5707Z" fill="#FAF8EB" stroke="black" stroke-width="0.264583"/>
<path d="M74.3718 57.1156L67.5423 55.2722L60.0009 63.329L74.3735 59.4667L74.3718 57.1156Z" fill="#3C3835" stroke="black" stroke-width="0.264583"/>
<path d="M81.5686 51.5283L74.4282 57.3697L67.6964 55.3168L78.2142 50.2889L81.5686 51.5283Z" fill="#3C3835" stroke="black" stroke-width="0.264583"/>
<path d="M124.229 57.8601L127.464 62.5194L130.772 66.0731L125.018 62.9887L124.229 57.8601Z" fill="#FAF8EB" stroke="black" stroke-width="0.264583"/>
<path d="M129.087 32.9899L128.262 37.5342L127.323 38.6977L121.176 49.1144L120.806 57.7858L121.631 62.2313L119.554 57.5992L112.553 47.9948L129.087 32.9899Z" fill="#DFDDD1" stroke="black" stroke-width="0.264583"/>
<path d="M122.656 62.3081L119.326 62.7033L124.335 63.9985L122.656 62.3081Z" fill="#DFDDD1" stroke="black" stroke-width="0.264583"/>
<path d="M124.619 58.1042L126.881 63.4722L129.656 67.2037L125.473 65.4474L124.619 58.1042Z" fill="#FAF8EB" stroke="black" stroke-width="0.264583"/>
<path d="M126.895 38.0173L128.497 36.4947L128.441 37.6617L124.818 48.2692L124.448 52.1768L124.79 53.9111L125.534 63.6388L126.859 67.835L122.202 63.4501L118.875 50.6256L120.766 44.8314L126.895 38.0173Z" fill="#FAF8EB" stroke="black" stroke-width="0.264583"/>
<path d="M114.197 19.4475L125.011 13.0372L137.163 13.5092L138.016 19.8975L114.197 19.4475Z" fill="#212121" stroke="black" stroke-width="0.264583"/>
<path d="M123.709 22.716L100.333 39.8947L104.526 47.4404L118.558 44.8006L133.84 29.5433L123.709 22.716Z" fill="#FAF8EB" stroke="black" stroke-width="0.264583"/>
<path d="M97.1284 22.0135L99.8889 35.284L100.344 44.7458L112.705 67.0791L120.062 70.7226L114.992 65.9212L114.12 64.1429L112.98 52.9123L117.049 42.4407L117.704 26.2943L97.1284 22.0135Z" fill="#FAF8EB" stroke="black" stroke-width="0.264583"/>
<path d="M109.252 67.3903L101.625 69.9368L110.419 68.9818L109.252 67.3903Z" fill="#DFDDD1" stroke="black" stroke-width="0.264583"/>
<path d="M110.646 68.1586L118.074 71.6492L114.329 67.6185L100.514 44.8148L110.646 68.1586Z" fill="#FAF8EB" stroke="black" stroke-width="0.264583"/>
<path d="M97.413 19.906L123.623 16.8435L117.675 26.6016L97.1284 22.0135L97.413 19.906Z" fill="#3C3835" stroke="black" stroke-width="0.264583"/>
<path d="M109.226 69.1278L115.683 72.5931L111.762 68.3145L100.529 44.9314L109.226 69.1278Z" fill="#FAF8EB" stroke="black" stroke-width="0.264583"/>
<path d="M150.205 21.4808L149.408 23.7254L145.95 20.7783L150.205 21.4808Z" fill="#DACFBB" stroke="black" stroke-width="0.264583"/>
<path d="M151.761 28.2676L155.171 34.1476L152.538 37.2265L151.761 28.2676Z" fill="#7D7F73" stroke="black" stroke-width="0.264583"/>
<path d="M137.74 32.0676L141.411 34.5318L151.969 34.9379L152.368 37.2046L153.663 35.0203L151.955 28.3191L147.074 22.5674L137.74 32.0676Z" fill="#989A8B" stroke="black" stroke-width="0.264583"/>
<path d="M135.577 32.2706L138.082 33.1323L145.296 24.8176L147.672 23.0614L148.758 24.4218L150.177 26.3386L149.55 23.4675L146.377 20.674L135.748 24.62L135.577 32.2706Z" fill="#BDB3A2" stroke="black" stroke-width="0.264583"/>
<path d="M117.321 26.5903L123.71 16.9859L126.997 17.3865L140.714 23.7913L135.307 32.4188L117.321 26.5903Z" fill="#DACFBB" stroke="black" stroke-width="0.264583"/>
<path d="M140.956 23.7639L143.645 23.473L146.562 21.6454L148.782 21.8704L150.262 21.4478L137.285 13.5612L134.354 16.5194L123.739 17.0078L127.054 17.2987L140.956 23.7639Z" fill="#DACFBB" stroke="black" stroke-width="0.264583"/>
<defs>
<linearGradient id="paint0_linear_236_4091" x1="38.5473" y1="25.4258" x2="70.2064" y2="12.8246" gradientUnits="userSpaceOnUse">
<stop/>
<stop offset="1" stop-color="#3C3835"/>
</linearGradient>
</defs>
</svg>
