<svg width="99" height="141" viewBox="0 0 99 141" fill="none" xmlns="http://www.w3.org/2000/svg">
<path d="M93.2067 32.412L95.0098 34.3992L97.8219 35.1278L96.1569 32.6766L93.2067 32.412Z" fill="#272725" stroke="black" stroke-width="0.264583"/>
<path d="M79.4475 74.3823L79.8545 44.0449L80.9708 38.3403L84.1264 33.6209L88.2479 31.079L92.1977 30.7644L96.2119 32.6521L92.0904 32.2878L89.8364 33.5049L87.5824 36.9244L85.4143 40.791L85.3499 45.8333L85.629 50.5445L86.7882 78.0992L86.1936 79.857L79.4475 74.3823Z" fill="#3B3A38" stroke="black" stroke-width="0.264583"/>
<path d="M32.6094 10.0032L37.1158 4.08397L39.9998 0.992737L42.216 1.82409L41.2142 3.12381L38.9373 4.64601L37.3283 7.83091L36.7515 10.0322L34.3229 12.5497L32.6094 10.0032Z" fill="#232321" stroke="black" stroke-width="0.264583"/>
<path d="M43.6978 45.7913L32.137 15.0321L32.5845 10.0344L52.6534 39.3747L43.6978 45.7913Z" fill="#272725" stroke="black" stroke-width="0.264583"/>
<path d="M57.1154 120.931L51.8132 122.107L46.4252 123.308L43.8492 125.046L42.1748 126.835L48.9582 125.204L52.3714 125.079L60.7246 125.673L57.1154 120.931Z" fill="#232321" stroke="black" stroke-width="0.264583"/>
<path d="M52.8867 115.003L60.6977 125.754L63.5126 120.501L57.2659 107.717L52.8867 115.003Z" fill="#232321" stroke="black" stroke-width="0.264583"/>
<path d="M55.3983 95.6868L53.1872 99.3546L52.8867 114.73L59.112 106.955L61.2157 92.3087L55.3983 95.6868Z" fill="#232321" stroke="black" stroke-width="0.264583"/>
<path d="M31.1655 54.2579L52.568 39.6448L49.8661 58.7074L45.9803 62.466L31.1655 54.2579Z" fill="#3B3A38" stroke="black" stroke-width="0.264583"/>
<path d="M78.5571 73.5345L86.1347 79.885L78.8362 88.3302L74.8928 89.602L78.5571 73.5345Z" fill="#3B3A38" stroke="black" stroke-width="0.264583"/>
<path d="M22.6156 60.9908L30.966 54.3671L60.9761 65.437L74.5858 71.0257L79.3299 73.7166L74.9078 89.4066L50.5005 97.3136L45.048 96.9162L17.9574 70.3302L22.6156 60.9908Z" fill="#3B3A38" stroke="black" stroke-width="0.264583"/>
<path d="M79.49 119.356L75.5336 125.286L73.6017 128.913L73.0006 131.248L73.4729 135.297L75.319 135.073L79.0112 127.307L85.3268 119.616L79.49 119.356Z" fill="#272725" stroke="black" stroke-width="0.264583"/>
<path d="M63.6842 118.125L85.6658 119.938L84.0344 114.904L67.1188 110.631L63.6842 118.125Z" fill="#3B3A38" stroke="black" stroke-width="0.264583"/>
<path d="M59.9957 94.1511L56.3213 109.149L63.5769 118.158L73.3012 98.2369L73.8164 90.9342L74.7821 89.4227L59.9957 94.1511Z" fill="#3B3A38" stroke="black" stroke-width="0.264583"/>
<path d="M1.58189 120.49L0.449829 124.55L3.47659 135.173L6.13843 138.145L9.98092 139.95L9.68038 138.857L8.47827 137.889L5.4515 133.79L6.49604 126.613L5.35549 125.277L1.58189 120.49Z" fill="#3B3A38" stroke="black" stroke-width="0.264583"/>
<path d="M21.3422 104.991L1.5072 120.515L4.34077 124.133L20.5694 116.715L21.3422 104.991Z" fill="#3B3A38" stroke="black" stroke-width="0.264583"/>
<path d="M37.762 71.3728C37.4829 71.6874 34.0288 88.8753 34.0288 88.8753L44.9981 96.8302L37.762 71.3728Z" fill="#272725" stroke="black" stroke-width="0.264583"/>
<path d="M37.8283 71.2479L19.2384 65.4025L20.462 116.761L31.9036 98.4383L37.8283 71.2479Z" fill="#3B3A38" stroke="black" stroke-width="0.264583"/>
<path d="M12.4049 67.3593L6.05371 70.8317L6.13678 78.7517L11.713 80.2303L12.4049 67.3593Z" fill="#D2C6B6" stroke="black" stroke-width="0.264583"/>
<path d="M24.8944 63.1945L26.3971 75.6531L14.4815 82.0756L13.2217 82.2278L24.8944 63.1945Z" fill="#272725" stroke="black" stroke-width="0.264583"/>
<path d="M24.4957 53.3529L28.8166 55.8919L25.7747 58.6923L24.4957 53.3529Z" fill="#272725" stroke="black" stroke-width="0.264583"/>
<path d="M11.1271 61.8597L17.138 56.772L24.5605 53.23L26.8981 62.2578L12.9789 82.4386L11.8253 81.777L11.1271 61.8597Z" fill="#3B3A38" stroke="black" stroke-width="0.264583"/>
<path d="M11.1934 62.1215L15.1041 65.4814L11.3035 66.6106L11.1934 62.1215Z" fill="#D2C6B6" stroke="black" stroke-width="0.264583"/>
</svg>
