<svg width="153" height="118" viewBox="0 0 153 118" fill="none" xmlns="http://www.w3.org/2000/svg">
<path d="M84.044 101.806L84.2586 105.034L81.4927 104.841L84.044 101.806Z" fill="#232321" stroke="black" stroke-width="0.264583"/>
<path d="M144.919 105.724L152 108.869L151.547 111.776L145.324 110.838L144.919 105.724Z" fill="#232321" stroke="black" stroke-width="0.264583"/>
<path d="M128.394 79.9729L133.592 87.9926L131.756 89.602L125.891 81.7295L128.394 79.9729Z" fill="#232321" stroke="black" stroke-width="0.264583"/>
<path d="M127.87 92.5174L145.634 103.6L145.849 112.005L125.581 99.6265L127.87 92.5174Z" fill="#232321" stroke="black" stroke-width="0.264583"/>
<path d="M123.424 52.3802C123.043 52.4354 108.689 62.5427 108.689 62.5427L123.615 88.7997L134.393 70.9946L123.424 52.3802Z" fill="#272725" stroke="black" stroke-width="0.264583"/>
<path d="M109.237 62.5703L92.9274 62.7726L85.7503 60.8688L54.0134 62.1932L60.2845 73.864L69.1784 85.921L75.4495 96.4422L109.237 62.5703Z" fill="#3B3A38" stroke="black" stroke-width="0.264583"/>
<path d="M108.879 62.322L79.5984 92.0093L88.2062 91.9082L92.2359 91.0529L97.434 88.6801L103.324 87.0431L106.996 86.9419L112.361 88.6157L117.606 87.4753L108.879 62.322Z" fill="#272725" stroke="black" stroke-width="0.264583"/>
<path d="M3.88879 8.16727L1.53705 10.7533L0.4552 16.38L0.502888 22.2844L2.67272 34.7185L11.662 40.4666L17.2416 38.8755L13.0804 28.9602L12.0244 21.6044L12.7112 14.0533L13.1881 7.44992L3.88879 8.16727Z" fill="#272725" stroke="black" stroke-width="0.264583"/>
<path d="M84.5314 59.2908L85.5972 60.8218L81.7645 60.879L84.5314 59.2908Z" fill="#3B3A38" stroke="black" stroke-width="0.264583"/>
<path d="M60.2862 14.5475L1.50769 10.387L8.20852 3.18714L14.1662 0.961881L20.1914 0.860718L50.4249 3.16068L60.2862 14.5475Z" fill="#3B3A38" stroke="black" stroke-width="0.264583"/>
<path d="M59.4566 54.8643L57.7159 65.5786L68.3982 69.4137L84.7077 59.1868L81.7749 57.0256L59.4566 54.8643Z" fill="#3B3A38" stroke="black" stroke-width="0.264583"/>
<path d="M50.0251 14.0382L49.3179 55.0573L50.8963 58.8875L54.3061 62.2535L57.9447 64.9395L59.9639 54.9923L60.2991 14.3765L50.0251 14.0382Z" fill="#3B3A38" stroke="black" stroke-width="0.264583"/>
<path d="M81.4688 104.933L85.117 113.431L82.5418 116.935L73.8624 112.98L81.4688 104.933Z" fill="#3B3A38" stroke="black" stroke-width="0.264583"/>
<path d="M108.889 62.4505L90.6021 71.9685L88.7319 87.3392L110.464 64.3619L108.889 62.4505Z" fill="#3B3A38" stroke="black" stroke-width="0.264583"/>
<path d="M90.8397 71.7326L67.663 103.535L74.0533 112.99L86.8338 100.464L90.8397 71.7326Z" fill="#3B3A38" stroke="black" stroke-width="0.264583"/>
<path d="M144.012 109.955L151.571 113.394L151.643 117.009L143.488 117.202L144.012 109.955Z" fill="#3B3A38" stroke="black" stroke-width="0.264583"/>
<path d="M108.665 62.3334L109.475 80.2764L118.059 102.009L132.461 108.446L108.665 62.3334Z" fill="#272725" stroke="black" stroke-width="0.264583"/>
<path d="M121.384 100.151L141.771 115.546L143.249 117.496L144.942 108.805L126.391 93.7314L120.573 98.293L121.384 100.151Z" fill="#3B3A38" stroke="black" stroke-width="0.264583"/>
<path d="M109.213 62.6737L115.007 60.7056L133.343 89.041L133.51 91.4506L131.436 93.6854L121.898 99.2495L121.016 100.831L110.453 79.7062L109.213 62.6737Z" fill="#3B3A38" stroke="black" stroke-width="0.264583"/>
<path d="M141.815 63.4716L148.968 72.4569L146.679 77.506L136.071 75.7704L141.815 63.4716Z" fill="#D2C6B6" stroke="black" stroke-width="0.264583"/>
<path d="M123.264 52.3526L126.197 73.5237L140.122 77.2116L145.916 53.2631L123.264 52.3526Z" fill="#3B3A38" stroke="black" stroke-width="0.264583"/>
</svg>
