<svg width="222" height="97" viewBox="0 0 222 97" fill="none" xmlns="http://www.w3.org/2000/svg">
<path d="M145.307 15.0372L151.584 19.4542L148.573 28.2925L145.307 15.0372Z" fill="#E0AE00" stroke="black" stroke-width="0.264583"/>
<path d="M211.226 87.6141L221.534 92.6411L204.795 89.8319L192.741 86.5134L182.05 81.3057L172.893 74.0938L162.202 62.7421L143.845 30.3132L152.364 30.8553L181.454 74.981L198.193 85.1171L211.226 87.6141Z" fill="#E0AE00" stroke="black" stroke-width="0.264583"/>
<path d="M161.862 47.0698L179.282 68.0812L181.412 69.8719L184.521 74.7674L189.589 78.7594L198.108 84.1314L205.391 86.5134L211.1 87.5368L196.788 85.8399L187.971 81.01L182.562 79.4658L176.301 73.4532L164.077 60.4093L153.897 42.3878L161.862 47.0698Z" fill="#E0AE00" stroke="black" stroke-width="0.264583"/>
<path d="M151.597 19.4378L166.377 50.536L170.167 57.058L179.282 67.9662L168.208 59.7357L145.719 33.9766L151.597 19.4378Z" fill="#E0AE00" stroke="black" stroke-width="0.264583"/>
<path d="M128.234 56.4133L130.534 68.7507L139.222 72.5949L142.971 63.5595L128.234 56.4133Z" fill="#E0AE00" stroke="black" stroke-width="0.264583"/>
<path d="M130.572 68.7674L125.124 75.864L139.129 72.5322L130.572 68.7674Z" fill="#E0AE00" stroke="black" stroke-width="0.264583"/>
<path d="M139.209 72.4753L114.945 78.1968L114.433 81.4496L119.157 84.2816L124.272 84.0124L139.209 72.4753Z" fill="#E0AE00" stroke="black" stroke-width="0.264583"/>
<path d="M53.2779 77.1956L44.809 80.5798L44.4116 84.2916L47.7852 86.126L54.719 84.1931L53.2779 77.1956Z" fill="#E0AE00" stroke="black" stroke-width="0.264583"/>
<path d="M47.0348 3.19788L49.3348 1.45651L70.5329 3.64749L71.044 4.63317L67.1681 8.75661L59.97 26.8603L47.0348 3.19788Z" fill="#E0AE00" stroke="black" stroke-width="0.264583"/>
<path d="M100.007 4.83033L110.57 3.49966L127.436 4.35392L125.307 14.03L113.807 39.8549L101.583 49.186L96.3013 49.0874L96.5994 6.94954L100.007 4.83033Z" fill="#E0AE00" stroke="black" stroke-width="0.264583"/>
<path d="M127.522 4.35391L131.568 5.42173L137.701 9.52874L125.222 14.0957L127.522 4.35391Z" fill="#E0AE00" stroke="black" stroke-width="0.264583"/>
<path d="M69.4681 3.92677L93.7032 4.63317L99.7939 4.69889L99.1124 49.7117L69.3829 50.6152L51.8774 19.1227L69.4681 3.92677Z" fill="#E0AE00" stroke="black" stroke-width="0.264583"/>
<path d="M113.73 40.2576L117.287 45.4393L153.235 82.8624L150.765 66.2043L141.608 43.9115L124.443 37.3567L113.73 40.2576Z" fill="#E0AE00" stroke="black" stroke-width="0.264583"/>
<path d="M148.405 27.0296L141.725 44.3498L139.396 44.4092L148.405 27.0296Z" fill="#E0AE00" stroke="black" stroke-width="0.264583"/>
<path d="M140.577 69.5471L138.243 93.4092L153.402 83.0303L140.577 69.5471Z" fill="#E0AE00" stroke="black" stroke-width="0.264583"/>
<path d="M138.839 86.3122L127.126 87.4786L126.615 92.2592L134.154 94.5591L138.2 93.6063L138.839 86.3122Z" fill="#E0AE00" stroke="black" stroke-width="0.264583"/>
<path d="M125.337 13.8811L137.774 9.34698L144.641 12.4804L148.262 27.1506L139.308 44.5029L113.539 40.2152L125.337 13.8811Z" fill="#E0AE00" stroke="black" stroke-width="0.264583"/>
<path d="M57.2745 63.1816L49.8208 87.1829L51.1838 95.3969L64.1744 83.1416L76.2597 59.3432L61.3633 57.8753L57.2745 63.1816Z" fill="#E0AE00" stroke="black" stroke-width="0.264583"/>
<path d="M49.8438 87.3208L41.1321 90.1564L40.1525 93.7049L46.7543 96.1855L51.2849 95.4076L49.8438 87.3208Z" fill="#E0AE00" stroke="black" stroke-width="0.264583"/>
<path d="M49.2245 49.7106L57.3338 63.1585L76.0863 59.2447L49.2245 49.7106Z" fill="#E0AE00" stroke="black" stroke-width="0.264583"/>
<path d="M48.5431 1.59294L76.3134 59.3268L42.6228 47.7885L35.7654 26.4978L46.0792 2.91254L48.5431 1.59294Z" fill="#E0AE00" stroke="black" stroke-width="0.264583"/>
<path d="M5.60902 14.5161L2.43225 23.1751L3.20816 25.6539L9.059 22.7301L7.71289 12.1575L5.60902 14.5161Z" fill="#E0AE00" stroke="black" stroke-width="0.264583"/>
<path d="M13.1195 37.7606L24.9735 31.97L21.219 27.5025L12.658 36.3407L13.1195 37.7606Z" fill="#E0AE00" stroke="black" stroke-width="0.264583"/>
<path d="M3.29053 26.6632L5.34421 17.3264L15.8532 22.7822L11.5719 31.1957L3.29053 26.6632Z" fill="#E0AE00" stroke="black" stroke-width="0.264583"/>
<path d="M23.5403 6.02281L32.6551 0.938339L32.5486 3.03291L31.718 6.32673L23.5403 6.02281Z" fill="#E0AE00" stroke="black" stroke-width="0.264583"/>
<path d="M0.945068 33.2112L3.5858 26.3935L18.1444 34.9995L5.25615 40.2195L0.945068 33.2112Z" fill="#E0AE00" stroke="black" stroke-width="0.264583"/>
<path d="M12.2933 36.0861L18.3402 34.8494L17.1135 32.709L12.2933 36.0861Z" fill="#E0AE00" stroke="black" stroke-width="0.264583"/>
<path d="M8.46265 26.9768L11.7058 36.2277L24.5579 31.2054L17.258 10.8855L9.61264 23.2805L8.46265 26.9768Z" fill="#E0AE00" stroke="black" stroke-width="0.264583"/>
<path d="M8.20708 11.2058L5.31079 17.1939L8.59041 26.5085L17.4283 10.9101L18.3413 5.91282L14.4682 6.8442L8.20708 11.2058Z" fill="#E0AE00" stroke="black" stroke-width="0.264583"/>
<path d="M18.3895 6.03316L20.9849 6.03107L27.0969 15.4854L18.3895 6.03316Z" fill="#E0AE00" stroke="black" stroke-width="0.264583"/>
<path d="M27.182 5.71891L39.7255 4.08432L42.2172 2.67151L47.1366 2.58937L35.6857 26.6925L39.6387 38.1643L29.1626 30.9277L27.0968 28.1021L24.0941 28.9153L22.3904 13.2922L27.182 5.71891Z" fill="#E0AE00" stroke="black" stroke-width="0.264583"/>
<path d="M20.8358 5.72711L24.9886 3.73932L26.309 2.21151L27.5309 16.156L20.3729 9.31802L20.8358 5.72711Z" fill="#E0AE00" stroke="black" stroke-width="0.264583"/>
<path d="M17.3005 11.2798L24.1579 30.3774L27.4588 15.8386L18.3682 5.96749L17.3005 11.2798Z" fill="#E0AE00" stroke="black" stroke-width="0.264583"/>
<path d="M1.13672 33.4987L7.75176 38.6299L5.2573 40.0759L1.13672 33.4987Z" fill="#E0AE00" stroke="black" stroke-width="0.264583"/>
<path d="M48.5062 6.40541C47.8682 6.95042 47.8768 7.18305 47.8768 7.18305C47.8768 7.18305 48.2242 8.019 48.8277 7.41417C49.4312 6.80933 48.7562 6.15284 48.5062 6.40541V6.40541Z" fill="black" stroke="black" stroke-width="0.0733053"/>
<path d="M43.6961 16.0173C43.0582 16.5624 43.0668 16.795 43.0668 16.795C43.0668 16.795 43.4141 17.6309 44.0176 17.0261C44.6211 16.4213 43.9462 15.7648 43.6961 16.0173H43.6961Z" fill="black" stroke="black" stroke-width="0.0733053"/>
<path d="M72.2987 7.19288C71.6607 7.73789 71.6693 7.97052 71.6693 7.97052C71.6693 7.97052 72.0167 8.80647 72.6202 8.20163C73.2237 7.5968 72.5487 6.94031 72.2987 7.19288V7.19288Z" fill="black" stroke="black" stroke-width="0.0733053"/>
<path d="M67.4886 16.8048C66.8506 17.3498 66.8593 17.5824 66.8593 17.5824C66.8593 17.5824 67.2066 18.4184 67.8101 17.8136C68.4136 17.2087 67.7386 16.5522 67.4886 16.8048Z" fill="black" stroke="black" stroke-width="0.0733053"/>
<path d="M78.4038 9.66578C77.7658 10.2108 77.7744 10.4434 77.7744 10.4434C77.7744 10.4434 78.1218 11.2794 78.7253 10.6745C79.3288 10.0697 78.6538 9.41321 78.4038 9.66578V9.66578Z" fill="black" stroke="black" stroke-width="0.0733053"/>
<path d="M73.5937 19.2778C72.9557 19.8228 72.9644 20.0554 72.9644 20.0554C72.9644 20.0554 73.3117 20.8913 73.9152 20.2865C74.5187 19.6817 73.8437 19.0252 73.5937 19.2778H73.5937Z" fill="black" stroke="black" stroke-width="0.0733053"/>
<path d="M50.9879 16.6256C49.8119 17.4669 49.8278 17.826 49.8278 17.826C49.8278 17.826 50.4681 19.1165 51.5806 18.1828C52.6931 17.2491 51.4488 16.2357 50.988 16.6256L50.9879 16.6256Z" fill="black" stroke="black" stroke-width="0.12366"/>
<path d="M65.5922 10.5984C64.4161 11.4398 64.432 11.7989 64.432 11.7989C64.432 11.7989 65.0724 13.0893 66.1848 12.1556C67.2973 11.222 66.0531 10.2085 65.5922 10.5984L65.5922 10.5984Z" fill="black" stroke="black" stroke-width="0.12366"/>
<path d="M94.6488 6.57989C93.4728 7.42123 93.4887 7.78035 93.4887 7.78035C93.4887 7.78035 94.129 9.07081 95.2415 8.13712C96.354 7.20344 95.1097 6.19 94.6488 6.57989V6.57989Z" fill="black" stroke="black" stroke-width="0.12366"/>
<path d="M81.2024 21.8038C80.0264 22.6451 80.0422 23.0042 80.0422 23.0042C80.0422 23.0042 80.6826 24.2947 81.7951 23.361C82.9076 22.4273 81.6633 21.4139 81.2024 21.8038H81.2024Z" fill="black" stroke="black" stroke-width="0.12366"/>
<path d="M96.0399 14.0759C94.8639 14.9172 94.8798 15.2764 94.8798 15.2764C94.8798 15.2764 95.5201 16.5668 96.6326 15.6331C97.7451 14.6995 96.5008 13.686 96.04 14.0759H96.0399Z" fill="black" stroke="black" stroke-width="0.12366"/>
<path d="M76.5657 15.6215C75.3896 16.4628 75.4055 16.8219 75.4055 16.8219C75.4055 16.8219 76.0459 18.1124 77.1584 17.1787C78.2709 16.245 77.0266 15.2316 76.5657 15.6215H76.5657Z" fill="black" stroke="black" stroke-width="0.12366"/>
<path d="M113.273 13.7668C112.097 14.6082 112.113 14.9673 112.113 14.9673C112.113 14.9673 112.753 16.2578 113.866 15.3241C114.978 14.3904 113.734 13.3769 113.273 13.7668Z" fill="black" stroke="black" stroke-width="0.12366"/>
<path d="M115.514 14.6942C114.338 15.5355 114.354 15.8946 114.354 15.8946C114.354 15.8946 114.994 17.1851 116.107 16.2514C117.219 15.3177 115.975 14.3043 115.514 14.6942V14.6942Z" fill="black" stroke="black" stroke-width="0.12366"/>
<path d="M143.489 25.6677C142.313 26.5091 142.329 26.8682 142.329 26.8682C142.329 26.8682 142.969 28.1587 144.082 27.225C145.194 26.2913 143.95 25.2778 143.489 25.6677H143.489Z" fill="black" stroke="black" stroke-width="0.12366"/>
<path d="M131.124 16.6261C129.948 17.4675 129.964 17.8266 129.964 17.8266C129.964 17.8266 130.605 19.117 131.717 18.1834C132.83 17.2497 131.585 16.2362 131.124 16.6261Z" fill="black" stroke="black" stroke-width="0.12366"/>
<path d="M128.033 22.8084C126.857 23.6498 126.873 24.0089 126.873 24.0089C126.873 24.0089 127.513 25.2993 128.626 24.3657C129.738 23.432 128.494 22.4185 128.033 22.8084L128.033 22.8084Z" fill="black" stroke="black" stroke-width="0.12366"/>
<path d="M72.9941 12.9115C72.3561 13.4565 72.3648 13.6891 72.3648 13.6891C72.3648 13.6891 72.7121 14.5251 73.3156 13.9202C73.9191 13.3154 73.2441 12.6589 72.9941 12.9115V12.9115Z" fill="black" stroke="black" stroke-width="0.0733053"/>
<path d="M84.7884 5.80187C84.1504 6.34688 84.1591 6.57951 84.1591 6.57951C84.1591 6.57951 84.5064 7.41546 85.1099 6.81063C85.7134 6.2058 85.0384 5.5493 84.7884 5.80187V5.80187Z" fill="black" stroke="black" stroke-width="0.0733053"/>
<path d="M79.9786 15.4138C79.3406 15.9588 79.3492 16.1914 79.3492 16.1914C79.3492 16.1914 79.6966 17.0274 80.3001 16.4225C80.9036 15.8177 80.2286 15.1612 79.9786 15.4138Z" fill="black" stroke="black" stroke-width="0.0733053"/>
<path d="M86.0836 17.8867C85.4456 18.4318 85.4542 18.6644 85.4542 18.6644C85.4542 18.6644 85.8016 19.5003 86.4051 18.8955C87.0086 18.2907 86.3336 17.6342 86.0836 17.8867Z" fill="black" stroke="black" stroke-width="0.0733053"/>
<path d="M85.484 11.5205C84.846 12.0655 84.8546 12.2981 84.8546 12.2981C84.8546 12.2981 85.202 13.1341 85.8055 12.5292C86.409 11.9244 85.734 11.2679 85.484 11.5205V11.5205Z" fill="black" stroke="black" stroke-width="0.0733053"/>
<path d="M108.977 5.80187C108.339 6.34688 108.347 6.57951 108.347 6.57951C108.347 6.57951 108.695 7.41546 109.298 6.81063C109.902 6.2058 109.227 5.5493 108.977 5.80187V5.80187Z" fill="black" stroke="black" stroke-width="0.0733053"/>
<path d="M104.167 15.4138C103.529 15.9588 103.537 16.1914 103.537 16.1914C103.537 16.1914 103.885 17.0274 104.488 16.4226C105.092 15.8177 104.417 15.1612 104.167 15.4138V15.4138Z" fill="black" stroke="black" stroke-width="0.0733053"/>
<path d="M110.272 17.8867C109.634 18.4318 109.642 18.6644 109.642 18.6644C109.642 18.6644 109.99 19.5003 110.593 18.8955C111.197 18.2907 110.522 17.6342 110.272 17.8867V17.8867Z" fill="black" stroke="black" stroke-width="0.0733053"/>
<path d="M109.672 11.5205C109.034 12.0655 109.043 12.2981 109.043 12.2981C109.043 12.2981 109.39 13.1341 109.994 12.5292C110.597 11.9244 109.922 11.2679 109.672 11.5205V11.5205Z" fill="black" stroke="black" stroke-width="0.0733053"/>
<path d="M106.581 10.0522C105.943 10.5972 105.952 10.8298 105.952 10.8298C105.952 10.8298 106.299 11.6658 106.903 11.0609C107.506 10.4561 106.831 9.79961 106.581 10.0522V10.0522Z" fill="black" stroke="black" stroke-width="0.0733053"/>
<path d="M101.771 19.6641C101.133 20.2091 101.142 20.4417 101.142 20.4417C101.142 20.4417 101.489 21.2777 102.093 20.6729C102.696 20.068 102.021 19.4115 101.771 19.6641V19.6641Z" fill="black" stroke="black" stroke-width="0.0733053"/>
<path d="M107.876 22.1371C107.238 22.6821 107.247 22.9147 107.247 22.9147C107.247 22.9147 107.594 23.7506 108.198 23.1458C108.801 22.541 108.126 21.8845 107.876 22.1371V22.1371Z" fill="black" stroke="black" stroke-width="0.0733053"/>
<path d="M107.277 15.7708C106.639 16.3158 106.647 16.5484 106.647 16.5484C106.647 16.5484 106.995 17.3844 107.598 16.7795C108.202 16.1747 107.527 15.5182 107.277 15.7708L107.277 15.7708Z" fill="black" stroke="black" stroke-width="0.0733053"/>
<path d="M68.1842 22.5235C67.5462 23.0685 67.5548 23.3011 67.5548 23.3011C67.5548 23.3011 67.9022 24.1371 68.5057 23.5322C69.1092 22.9274 68.4342 22.2709 68.1842 22.5235L68.1842 22.5235Z" fill="black" stroke="black" stroke-width="0.0733053"/>
<path d="M90.8336 11.7962C90.0019 11.685 89.8345 11.8467 89.8345 11.8467C89.8345 11.8467 89.4439 12.6633 90.2971 12.709C91.1503 12.7546 91.1886 11.8138 90.8336 11.7962V11.7962Z" fill="black" stroke="black" stroke-width="0.0733053"/>
<path d="M46.4212 10.1783C45.4711 11.1115 45.4839 11.5098 45.4839 11.5098C45.4839 11.5098 45.5946 12.5901 46.4934 11.5546C47.3923 10.519 46.7936 9.74589 46.4212 10.1783L46.4212 10.1783Z" fill="black" stroke="black" stroke-width="0.11706"/>
<path d="M47.3316 10.7259C47.8954 11.9324 48.2753 12.0528 48.2753 12.0528C48.2753 12.0528 49.331 12.3079 48.6534 11.1157C47.9759 9.92354 47.0477 10.2309 47.3316 10.7259L47.3316 10.7259Z" fill="black" stroke="black" stroke-width="0.11706"/>
<path d="M48.6235 14.0537C49.3392 12.9306 49.237 12.5454 49.237 12.5454C49.237 12.5454 48.8859 11.5177 48.2433 12.729C47.6007 13.9404 48.358 14.5589 48.6235 14.0537L48.6235 14.0537Z" fill="black" stroke="black" stroke-width="0.11706"/>
<path d="M89.4719 10.2047C89.4802 10.1649 90.2569 10.2774 90.5624 10.2857C91.7403 10.3177 92.0966 10.11 92.0966 10.11C92.0966 10.11 93.5727 9.13852 91.4038 9.03782C89.235 8.93711 88.5684 10.1657 89.4719 10.2047V10.2047Z" fill="black" stroke="black" stroke-width="0.168727"/>
<path d="M93.1105 12.7904C93.7138 10.8072 93.492 10.1918 93.492 10.1918C93.492 10.1918 92.8034 8.56441 92.3122 10.6793C91.821 12.7942 92.9087 13.6719 93.1105 12.7904L93.1105 12.7904Z" fill="black" stroke="black" stroke-width="0.168727"/>
<path d="M91.7081 13.5911C91.7073 13.6316 90.9233 13.6658 90.6216 13.7145C89.4584 13.9025 89.1469 14.1729 89.1469 14.1729C89.1469 14.1729 87.8777 15.4023 90.0273 15.0973C92.177 14.7923 92.603 13.4611 91.7081 13.5911L91.7081 13.5911Z" fill="black" stroke="black" stroke-width="0.168727"/>
<path d="M87.6514 11.7283C87.428 13.7891 87.7606 14.3525 87.7606 14.3525C87.7606 14.3525 88.7402 15.8231 88.8289 13.6538C88.9177 11.4844 87.6855 10.8246 87.6514 11.7283L87.6514 11.7283Z" fill="black" stroke="black" stroke-width="0.168727"/>
<path d="M66.6338 23.5322C66.0954 22.8887 65.8626 22.895 65.8626 22.895C65.8626 22.895 65.0232 23.2338 65.6218 23.8434C66.2205 24.4531 66.8838 23.7848 66.6338 23.5322L66.6338 23.5322Z" fill="black" stroke="black" stroke-width="0.0733053"/>
<path d="M66.7034 21.4388C66.7364 21.4151 67.2334 22.0224 67.4533 22.2347C68.3007 23.0534 68.7038 23.1407 68.7038 23.1407C68.7038 23.1407 70.4486 23.4204 68.9165 21.882C67.3843 20.3437 66.0632 20.8001 66.7034 21.4388Z" fill="black" stroke="black" stroke-width="0.168727"/>
<path d="M67.7199 25.9573C69.5037 24.9014 69.7555 24.2977 69.7555 24.2977C69.7555 24.2977 70.3461 22.6322 68.556 23.8609C66.766 25.0896 66.976 26.4715 67.7199 25.9573L67.7199 25.9573Z" fill="black" stroke="black" stroke-width="0.168727"/>
<path d="M66.0674 25.4468C66.0394 25.4761 65.4379 24.9721 65.1824 24.8044C64.1973 24.1578 63.785 24.1471 63.785 24.1471C63.785 24.1471 62.0186 24.1974 63.8105 25.4234C65.6024 26.6495 66.8154 25.955 66.0674 25.4468V25.4468Z" fill="black" stroke="black" stroke-width="0.168727"/>
<path d="M64.3318 21.334C62.7759 22.7037 62.6409 23.3438 62.6409 23.3438C62.6409 23.3438 62.3709 25.0901 63.9008 23.5495C65.4307 22.0088 64.967 20.6903 64.3319 21.334L64.3318 21.334Z" fill="black" stroke="black" stroke-width="0.168727"/>
<path d="M47.6132 13.7251C46.7922 12.6765 46.395 12.6447 46.395 12.6447C46.395 12.6447 45.309 12.6339 46.2375 13.6429C47.1661 14.6519 48.0013 14.1435 47.6132 13.7251H47.6132Z" fill="black" stroke="black" stroke-width="0.11706"/>
<path d="M60.2069 16.2031C59.9984 17.5184 60.2457 17.8309 60.2457 17.8309C60.2457 17.8309 60.9775 18.6334 61.0837 17.2663C61.19 15.8991 60.2489 15.634 60.2069 16.2031H60.2069Z" fill="black" stroke="black" stroke-width="0.11706"/>
<path d="M61.2642 16.1016C62.4352 16.7359 62.8122 16.6066 62.8122 16.6066C62.8122 16.6066 63.8124 16.1835 62.5586 15.6284C61.3047 15.0734 60.7415 15.8727 61.2642 16.1016V16.1016Z" fill="black" stroke="black" stroke-width="0.11706"/>
<path d="M115.377 21.3015C113.733 21.3672 113.548 21.7133 113.548 21.7133C113.548 21.7133 113.142 22.71 114.774 22.5187C116.407 22.3275 116.055 21.2194 115.377 21.3015L115.377 21.3015Z" fill="black" stroke="black" stroke-width="0.139827"/>
<path d="M116.43 23.3242C116.158 21.7012 115.791 21.5619 115.791 21.5619C115.791 21.5619 114.751 21.2844 115.147 22.8796C115.542 24.4749 116.597 23.9864 116.43 23.3242L116.43 23.3242Z" fill="black" stroke="black" stroke-width="0.139827"/>
<path d="M115.046 24.8627C113.252 23.447 112.826 23.4349 112.826 23.4349C112.826 23.4349 111.731 23.5096 113.595 24.8604C115.459 26.2112 115.822 25.4225 115.046 24.8627V24.8627Z" fill="black" stroke="black" stroke-width="0.142927"/>
<path d="M131.58 9.51051C131.449 7.87011 131.095 7.69973 131.095 7.69973C131.095 7.69973 130.083 7.33372 130.34 8.95705C130.596 10.5804 131.689 10.1846 131.58 9.51051L131.58 9.51051Z" fill="black" stroke="black" stroke-width="0.139827"/>
<path d="M129.601 10.6439C131.212 10.3068 131.337 9.93494 131.337 9.93494C131.337 9.93494 131.572 8.8848 129.994 9.34366C128.416 9.80251 128.946 10.8371 129.601 10.6439L129.601 10.6439Z" fill="black" stroke="black" stroke-width="0.139827"/>
<path d="M128.009 9.32219C129.351 7.47335 129.346 7.0468 129.346 7.0468C129.346 7.0468 129.228 5.95558 127.953 7.87243C126.678 9.78931 127.48 10.1201 128.009 9.32218V9.32219Z" fill="black" stroke="black" stroke-width="0.142927"/>
<path d="M117.88 6.73865C116.708 5.58302 116.329 5.68495 116.329 5.68495C116.329 5.68495 115.324 6.06941 116.579 7.13044C117.834 8.19149 118.403 7.17751 117.88 6.73865H117.88Z" fill="black" stroke="black" stroke-width="0.139827"/>
<path d="M117.123 8.88976C118.122 7.58192 117.973 7.21905 117.973 7.21905C117.973 7.21905 117.465 6.27023 116.57 7.64892C115.676 9.02764 116.753 9.4641 117.123 8.88976V8.88976Z" fill="black" stroke="black" stroke-width="0.139827"/>
<path d="M115.053 8.93038C114.861 6.65345 114.579 6.33389 114.579 6.33389C114.579 6.33389 113.776 5.58546 114.064 7.8696C114.351 10.1538 115.175 9.87958 115.053 8.93037V8.93038Z" fill="black" stroke="black" stroke-width="0.142927"/>
<path d="M57.3357 4.78358C55.9804 5.71704 56.0093 6.10817 56.0093 6.10817C56.0093 6.10817 56.1979 7.16777 57.476 6.13458C58.7541 5.10139 57.8652 4.3522 57.3357 4.78359L57.3357 4.78358Z" fill="black" stroke="black" stroke-width="0.139827"/>
<path d="M59.3061 5.93163C58.2094 4.70466 57.825 4.78258 57.825 4.78258C57.825 4.78258 56.7976 5.10312 57.9835 6.24092C59.1695 7.37874 59.8007 6.4025 59.3061 5.93163L59.3061 5.93163Z" fill="black" stroke="black" stroke-width="0.139827"/>
<path d="M58.957 7.97156C56.6845 7.73206 56.3175 7.94952 56.3175 7.94952C56.3175 7.94952 55.4315 8.59737 57.729 8.74423C60.0265 8.89109 59.9121 8.03063 58.957 7.97156H58.957Z" fill="black" stroke="black" stroke-width="0.142927"/>
<path d="M64.2825 18.0077C64.1895 16.6792 63.8782 16.4304 63.8782 16.4304C63.8782 16.4304 62.9846 15.8132 63.1888 17.1692C63.393 18.5251 64.3697 18.5717 64.2825 18.0077L64.2825 18.0077Z" fill="black" stroke="black" stroke-width="0.11706"/>
<path d="M63.2751 18.3446C61.9913 17.9902 61.6531 18.201 61.6531 18.201C61.6531 18.201 60.7738 18.8385 62.1205 19.097C63.4671 19.3555 63.8359 18.45 63.2751 18.3446L63.2751 18.3446Z" fill="black" stroke="black" stroke-width="0.11706"/>
<path d="M77.4225 8.26412C76.6616 9.35712 76.748 9.74615 76.748 9.74615C76.748 9.74615 77.0569 10.7873 77.7483 9.60318C78.4398 8.41904 77.7083 7.77019 77.4225 8.26412L77.4225 8.26412Z" fill="black" stroke="black" stroke-width="0.11706"/>
<path d="M78.4184 8.63363C79.196 9.71484 79.5916 9.76281 79.5916 9.76281C79.5916 9.76281 80.6763 9.81788 79.7896 8.77185C78.903 7.72581 78.0478 8.19975 78.4184 8.63363L78.4184 8.63363Z" fill="black" stroke="black" stroke-width="0.11706"/>
<path d="M80.3044 11.6645C80.7997 10.4283 80.6279 10.0687 80.6279 10.0687C80.6279 10.0687 80.0925 9.12381 79.6854 10.4332C79.2783 11.7426 80.1371 12.2101 80.3044 11.6645L80.3044 11.6645Z" fill="black" stroke="black" stroke-width="0.11706"/>
<path d="M79.2509 11.5287C78.2498 10.6503 77.8536 10.6926 77.8536 10.6926C77.8536 10.6926 76.7844 10.8832 77.8838 11.7027C78.9831 12.5223 79.7097 11.868 79.2509 11.5287Z" fill="black" stroke="black" stroke-width="0.11706"/>
<path d="M104.053 6.88772C103.292 7.98073 103.379 8.36976 103.379 8.36976C103.379 8.36976 103.688 9.41092 104.379 8.22678C105.071 7.04264 104.339 6.39379 104.053 6.88772L104.053 6.88772Z" fill="black" stroke="black" stroke-width="0.11706"/>
<path d="M105.049 7.25724C105.827 8.33845 106.222 8.38642 106.222 8.38642C106.222 8.38642 107.307 8.4415 106.42 7.39546C105.534 6.34942 104.678 6.82337 105.049 7.25725L105.049 7.25724Z" fill="black" stroke="black" stroke-width="0.11706"/>
<path d="M106.935 10.2881C107.43 9.05189 107.259 8.6923 107.259 8.6923C107.259 8.6923 106.723 7.74741 106.316 9.05681C105.909 10.3662 106.768 10.8337 106.935 10.2881L106.935 10.2881Z" fill="black" stroke="black" stroke-width="0.11706"/>
<path d="M105.882 10.1523C104.881 9.27391 104.484 9.31624 104.484 9.31624C104.484 9.31624 103.415 9.5068 104.514 10.3263C105.614 11.1459 106.34 10.4916 105.882 10.1523Z" fill="black" stroke="black" stroke-width="0.11706"/>
<path d="M93.7924 19.633C92.5058 19.977 92.3207 20.3299 92.3207 20.3299C92.3207 20.3299 91.8849 21.3246 93.1772 20.8662C94.4696 20.4079 94.3295 19.4402 93.7924 19.633V19.633Z" fill="black" stroke="black" stroke-width="0.11706"/>
<path d="M94.3148 20.558C94.2111 21.8857 94.4823 22.1777 94.4823 22.1777C94.4823 22.1777 95.2753 22.9197 95.2731 21.5484C95.2708 20.1772 94.3116 19.9873 94.3148 20.558L94.3148 20.558Z" fill="black" stroke="black" stroke-width="0.11706"/>
<path d="M93.7996 24.0904C94.9757 23.4656 95.0765 23.0801 95.0765 23.0801C95.0765 23.0801 95.2773 22.0128 94.1213 22.7504C92.9653 23.4879 93.3197 24.3992 93.7996 24.0904L93.7996 24.0904Z" fill="black" stroke="black" stroke-width="0.11706"/>
<path d="M93.0823 23.3068C92.8844 21.9898 92.5544 21.7664 92.5544 21.7664C92.5544 21.7664 91.6147 21.222 91.9256 22.5575C92.2366 23.893 93.2139 23.8621 93.0823 23.3068Z" fill="black" stroke="black" stroke-width="0.11706"/>
<path d="M20.0466 10.9661C18.7763 11.657 18.748 12.0153 18.748 12.0153C18.748 12.0153 19.2255 13.3745 20.444 12.5842C21.6625 11.7938 20.5518 10.6356 20.0466 10.9661H20.0466Z" fill="black" stroke="black" stroke-width="0.12366"/>
<path d="M39.5056 11.6058C38.2353 12.2967 38.207 12.655 38.207 12.655C38.207 12.655 38.6844 14.0142 39.9029 13.2239C41.1215 12.4336 40.0107 11.2753 39.5056 11.6058H39.5056Z" fill="black" stroke="black" stroke-width="0.12366"/>
<path d="M23.4787 13.4386C22.7787 13.9013 22.7588 14.1333 22.7588 14.1333C22.7588 14.1333 23.0011 15.0055 23.6742 14.4792C24.3472 13.9528 23.7578 13.2186 23.4787 13.4386H23.4787Z" fill="black" stroke="black" stroke-width="0.0733053"/>
<path d="M29.1574 14.168C28.4574 14.6307 28.4375 14.8627 28.4375 14.8627C28.4375 14.8627 28.6798 15.7349 29.3529 15.2085C30.0259 14.6822 29.4365 13.9479 29.1574 14.168L29.1574 14.168Z" fill="black" stroke="black" stroke-width="0.0733053"/>
<path d="M29.3425 7.77623C28.6425 8.23897 28.6226 8.4709 28.6226 8.4709C28.6226 8.4709 28.8649 9.34311 29.5379 8.81678C30.211 8.29044 29.6215 7.55619 29.3425 7.77623H29.3425Z" fill="black" stroke="black" stroke-width="0.0733053"/>
<path d="M34.6178 8.70536C33.806 8.49302 33.62 8.63298 33.62 8.63298C33.62 8.63298 33.1323 9.39561 33.9734 9.54547C34.8146 9.69534 34.9679 8.76631 34.6178 8.70537L34.6178 8.70536Z" fill="black" stroke="black" stroke-width="0.0733053"/>
<path d="M33.4615 6.95898C33.4747 6.92059 34.2317 7.12738 34.5339 7.17306C35.699 7.34912 36.0781 7.18668 36.0781 7.18668C36.0781 7.18668 37.6621 6.40335 35.5219 6.03767C33.3817 5.67198 32.5697 6.8096 33.4615 6.95901L33.4615 6.95898Z" fill="black" stroke="black" stroke-width="0.168727"/>
<path d="M36.756 9.97109C37.5978 8.07677 37.453 7.43881 37.453 7.43881C37.453 7.43881 36.9691 5.7393 36.2224 7.77806C35.4757 9.81684 36.4477 10.8212 36.756 9.97109L36.756 9.97109Z" fill="black" stroke="black" stroke-width="0.168727"/>
<path d="M35.266 10.5939C35.2601 10.634 34.4779 10.5718 34.1725 10.5832C32.995 10.6273 32.6528 10.8575 32.6528 10.8575C32.6528 10.8575 31.2424 11.9221 33.4132 11.8828C35.5841 11.8435 36.1701 10.5745 35.266 10.5938L35.266 10.5939Z" fill="black" stroke="black" stroke-width="0.168727"/>
<path d="M31.4681 8.24806C30.9939 10.266 31.2549 10.8659 31.2549 10.8659C31.2549 10.8659 32.0469 12.4455 32.4008 10.3033C32.7547 8.16117 31.6126 7.35539 31.4681 8.24807L31.4681 8.24806Z" fill="black" stroke="black" stroke-width="0.168727"/>
<path d="M10.8151 13.0032C11.4582 11.837 11.3318 11.4591 11.3318 11.4591C11.3318 11.4591 10.9162 10.4557 10.3517 11.7054C9.78721 12.955 10.5822 13.5242 10.8151 13.0032L10.8151 13.0032Z" fill="black" stroke="black" stroke-width="0.11706"/>
<path d="M36.5942 16.8457C35.2752 17.0294 35.0483 17.357 35.0483 17.357C35.0483 17.357 34.4938 18.2908 35.8326 17.9942C37.1713 17.6976 37.1509 16.7201 36.5942 16.8457L36.5942 16.8457Z" fill="black" stroke="black" stroke-width="0.11706"/>
<path d="M36.9993 17.8277C36.7337 19.1327 36.9672 19.4556 36.9672 19.4556C36.9672 19.4556 37.6633 20.2892 37.829 18.928C37.9948 17.5669 37.0661 17.2609 36.9993 17.8277L36.9993 17.8277Z" fill="black" stroke="black" stroke-width="0.11706"/>
<path d="M37.143 19.4289C35.824 19.6126 35.5971 19.9402 35.5971 19.9402C35.5971 19.9402 35.0426 20.8741 36.3814 20.5775C37.7202 20.2809 37.6997 19.3033 37.143 19.4289V19.4289Z" fill="black" stroke="black" stroke-width="0.11706"/>
<path d="M6.71392 24.3521C6.44831 25.6571 6.68176 25.9801 6.68176 25.9801C6.68176 25.9801 7.3779 26.8137 7.54364 25.4525C7.70942 24.0913 6.78069 23.7853 6.71393 24.3521L6.71392 24.3521Z" fill="black" stroke="black" stroke-width="0.11706"/>
<path d="M7.53935 32.553C8.78317 32.077 8.9305 31.7068 8.9305 31.7068C8.9305 31.7068 9.2605 30.6721 8.02287 31.2625C6.78522 31.8528 7.02524 32.8007 7.53934 32.553L7.53935 32.553Z" fill="black" stroke="black" stroke-width="0.11706"/>
<path d="M35.4394 20.4047C35.4044 19.0734 35.1043 18.8113 35.1043 18.8113C35.1043 18.8113 34.2383 18.1558 34.3833 19.5194C34.5283 20.8829 35.502 20.9719 35.4394 20.4047Z" fill="black" stroke="black" stroke-width="0.11706"/>
<path d="M122.017 9.72055C120.73 10.0645 120.545 10.4174 120.545 10.4174C120.545 10.4174 120.109 11.4122 121.402 10.9538C122.694 10.4954 122.554 9.52769 122.017 9.72056V9.72055Z" fill="black" stroke="black" stroke-width="0.11706"/>
<path d="M122.539 10.6455C122.436 11.9733 122.707 12.2652 122.707 12.2652C122.707 12.2652 123.5 13.0072 123.498 11.636C123.495 10.2647 122.536 10.0749 122.539 10.6455V10.6455Z" fill="black" stroke="black" stroke-width="0.11706"/>
<path d="M122.024 14.178C123.2 13.5532 123.301 13.1676 123.301 13.1676C123.301 13.1676 123.502 12.1003 122.346 12.8379C121.19 13.5755 121.544 14.4868 122.024 14.1779V14.178Z" fill="black" stroke="black" stroke-width="0.11706"/>
<path d="M121.307 13.3943C121.109 12.0773 120.779 11.8539 120.779 11.8539C120.779 11.8539 119.839 11.3096 120.15 12.645C120.461 13.9806 121.438 13.9496 121.307 13.3943Z" fill="black" stroke="black" stroke-width="0.11706"/>
<path d="M137.225 15.3265C136.109 16.0544 136.044 16.4474 136.044 16.4474C136.044 16.4474 135.94 17.5285 137.025 16.69C138.11 15.8516 137.675 14.9758 137.225 15.3265V15.3265Z" fill="black" stroke="black" stroke-width="0.11706"/>
<path d="M138.009 16.0425C138.325 17.3364 138.673 17.5293 138.673 17.5293C138.673 17.5293 139.658 17.9871 139.229 16.6849C138.8 15.3824 137.828 15.5013 138.009 16.0425V16.0425Z" fill="black" stroke="black" stroke-width="0.11706"/>
<path d="M138.621 19.5596C139.544 18.5993 139.519 18.2015 139.519 18.2015C139.519 18.2015 139.377 17.1248 138.509 18.186C137.64 19.2471 138.261 20.0026 138.621 19.5595L138.621 19.5596Z" fill="black" stroke="black" stroke-width="0.11706"/>
<path d="M137.695 19.0385C137.097 17.8488 136.713 17.7395 136.713 17.7395C136.713 17.7395 135.651 17.5151 136.363 18.6871C137.074 19.8592 137.993 19.5251 137.695 19.0385Z" fill="black" stroke="black" stroke-width="0.11706"/>
<path d="M8.68906 18.1812C8.05108 18.7262 8.0597 18.9588 8.0597 18.9588C8.0597 18.9588 8.40707 19.7948 9.01056 19.1899C9.61406 18.5851 8.93908 17.9286 8.68906 18.1812L8.68906 18.1812Z" fill="black" stroke="black" stroke-width="0.0733053"/>
<path d="M14.3303 9.29408C13.6923 9.8391 13.7009 10.0717 13.7009 10.0717C13.7009 10.0717 14.0483 10.9077 14.6518 10.3028C15.2553 9.698 14.5803 9.04151 14.3303 9.29408L14.3303 9.29408Z" fill="black" stroke="black" stroke-width="0.0733053"/>
<path d="M10.93 16.7129C10.292 17.2579 10.3007 17.4905 10.3007 17.4905C10.3007 17.4905 10.648 18.3265 11.2515 17.7216C11.855 17.1168 11.18 16.4603 10.93 16.7129H10.93Z" fill="black" stroke="black" stroke-width="0.0733053"/>
<path d="M9.46164 14.6263C8.82366 15.1713 8.83228 15.404 8.83228 15.404C8.83228 15.404 9.17965 16.2399 9.78314 15.6351C10.3866 15.0303 9.71166 14.3738 9.46165 14.6263L9.46164 14.6263Z" fill="black" stroke="black" stroke-width="0.0733053"/>
<path d="M14.5622 12.2307C13.9242 12.7757 13.9329 13.0083 13.9329 13.0083C13.9329 13.0083 14.2802 13.8443 14.8837 13.2394C15.4872 12.6346 14.8122 11.9781 14.5622 12.2307H14.5622Z" fill="black" stroke="black" stroke-width="0.0733053"/>
<path d="M126.632 22.1068C125.8 21.9955 125.633 22.1572 125.633 22.1572C125.633 22.1572 125.242 22.9738 126.096 23.0195C126.949 23.0652 126.987 22.1243 126.632 22.1068V22.1068Z" fill="black" stroke="black" stroke-width="0.0733053"/>
<path d="M125.27 20.5152C125.279 20.4755 126.055 20.588 126.361 20.5963C127.539 20.6282 127.895 20.4205 127.895 20.4205C127.895 20.4205 129.371 19.449 127.202 19.3483C125.033 19.2476 124.367 20.4762 125.27 20.5152V20.5152Z" fill="black" stroke="black" stroke-width="0.168727"/>
<path d="M128.909 23.1009C129.512 21.1178 129.291 20.5023 129.291 20.5023C129.291 20.5023 128.602 18.8749 128.111 20.9898C127.62 23.1047 128.707 23.9824 128.909 23.1009L128.909 23.1009Z" fill="black" stroke="black" stroke-width="0.168727"/>
<path d="M127.506 23.9016C127.506 23.9422 126.722 23.9763 126.42 24.0251C125.257 24.2131 124.945 24.4835 124.945 24.4835C124.945 24.4835 123.676 25.7129 125.826 25.4079C127.975 25.1029 128.401 23.7717 127.506 23.9016V23.9016Z" fill="black" stroke="black" stroke-width="0.168727"/>
<path d="M123.45 22.0388C123.226 24.0997 123.559 24.663 123.559 24.663C123.559 24.663 124.539 26.1337 124.627 23.9643C124.716 21.7949 123.484 21.1352 123.45 22.0388H123.45Z" fill="black" stroke="black" stroke-width="0.168727"/>
<path d="M136.797 11.1341C136.159 11.6791 136.168 11.9117 136.168 11.9117C136.168 11.9117 136.515 12.7477 137.119 12.1428C137.722 11.538 137.047 10.8815 136.797 11.1341V11.1341Z" fill="black" stroke="black" stroke-width="0.0733053"/>
<path d="M131.987 20.746C131.349 21.2911 131.358 21.5237 131.358 21.5237C131.358 21.5237 131.705 22.3596 132.309 21.7548C132.912 21.15 132.237 20.4935 131.987 20.746Z" fill="black" stroke="black" stroke-width="0.0733053"/>
<path d="M138.092 23.2189C137.454 23.764 137.463 23.9966 137.463 23.9966C137.463 23.9966 137.81 24.8325 138.414 24.2277C139.017 23.6229 138.342 22.9664 138.092 23.2189Z" fill="black" stroke="black" stroke-width="0.0733053"/>
<path d="M137.493 16.8527C136.855 17.3977 136.863 17.6304 136.863 17.6304C136.863 17.6304 137.211 18.4663 137.814 17.8615C138.418 17.2566 137.742 16.6001 137.493 16.8527V16.8527Z" fill="black" stroke="black" stroke-width="0.0733053"/>
<path d="M144.33 23.8397C143.679 23.3105 143.452 23.361 143.452 23.361C143.452 23.361 142.692 23.8536 143.396 24.338C144.1 24.8224 144.624 24.04 144.33 23.8397L144.33 23.8397Z" fill="black" stroke="black" stroke-width="0.0733053"/>
<path d="M134.008 20.8435C133.357 20.3144 133.129 20.3649 133.129 20.3649C133.129 20.3649 132.37 20.8574 133.074 21.3418C133.777 21.8262 134.301 21.0439 134.008 20.8435V20.8435Z" fill="black" stroke="black" stroke-width="0.0733053"/>
<path d="M131.853 55.8068C131.202 55.2777 130.975 55.3282 130.975 55.3282C130.975 55.3282 130.215 55.8207 130.919 56.3051C131.623 56.7895 132.147 56.0072 131.853 55.8068L131.853 55.8068Z" fill="black" stroke="black" stroke-width="0.0733053"/>
<path d="M137.528 44.3874C136.876 43.8582 136.649 43.9087 136.649 43.9087C136.649 43.9087 135.89 44.4012 136.593 44.8856C137.297 45.3701 137.821 44.5877 137.528 44.3874Z" fill="black" stroke="black" stroke-width="0.0733053"/>
<path d="M145.438 55.3029C144.786 54.7737 144.559 54.8242 144.559 54.8242C144.559 54.8242 143.8 55.3167 144.503 55.8012C145.207 56.2856 145.731 55.5032 145.438 55.3029L145.438 55.3029Z" fill="black" stroke="black" stroke-width="0.0733053"/>
<path d="M136.197 50.8384C135.546 50.3093 135.319 50.3598 135.319 50.3598C135.319 50.3598 134.559 50.8523 135.263 51.3367C135.967 51.8211 136.491 51.0388 136.197 50.8384Z" fill="black" stroke="black" stroke-width="0.0733053"/>
<path d="M134.726 28.1254C133.686 27.1205 133.336 27.2009 133.336 27.2009C133.336 27.2009 132.182 28.0637 133.301 28.9894C134.42 29.9151 135.192 28.5083 134.726 28.1254L134.726 28.1254Z" fill="black" stroke="black" stroke-width="0.12366"/>
<path d="M127.293 49.8251C126.253 48.8202 125.903 48.9007 125.903 48.9007C125.903 48.9007 124.749 49.7634 125.868 50.6891C126.988 51.6148 127.76 50.2081 127.293 49.8251L127.293 49.8251Z" fill="black" stroke="black" stroke-width="0.12366"/>
<path d="M149.396 73.2745C148.356 72.2696 148.006 72.35 148.006 72.35C148.006 72.35 146.852 73.2128 147.971 74.1385C149.09 75.0642 149.862 73.6574 149.396 73.2745L149.396 73.2745Z" fill="black" stroke="black" stroke-width="0.12366"/>
<path d="M135.086 58.7782C134.046 57.7733 133.696 57.8537 133.696 57.8537C133.696 57.8537 132.542 58.7164 133.661 59.6421C134.78 60.5678 135.553 59.1611 135.086 58.7782V58.7782Z" fill="black" stroke="black" stroke-width="0.12366"/>
<path d="M145.365 71.9772C144.325 70.9723 143.975 71.0527 143.975 71.0527C143.975 71.0527 142.821 71.9155 143.94 72.8412C145.06 73.7669 145.832 72.3601 145.365 71.9772L145.365 71.9772Z" fill="black" stroke="black" stroke-width="0.12366"/>
<path d="M140.33 53.1017C139.29 52.0968 138.94 52.1773 138.94 52.1773C138.94 52.1773 137.786 53.04 138.905 53.9657C140.024 54.8914 140.797 53.4847 140.33 53.1018L140.33 53.1017Z" fill="black" stroke="black" stroke-width="0.12366"/>
<path d="M117.627 35.8279C118.723 34.8844 118.675 34.5282 118.675 34.5282C118.675 34.5282 117.921 33.3004 116.897 34.3301C115.873 35.3598 117.203 36.2575 117.627 35.8279V35.8279Z" fill="black" stroke="black" stroke-width="0.12366"/>
<path d="M115.312 35.1053C116.408 34.1619 116.359 33.8056 116.359 33.8056C116.359 33.8056 115.606 32.5778 114.582 33.6075C113.557 34.6372 114.888 35.5349 115.312 35.1053V35.1053Z" fill="black" stroke="black" stroke-width="0.12366"/>
<path d="M86.465 26.6857C87.5608 25.7422 87.5128 25.386 87.5128 25.386C87.5128 25.386 86.7593 24.1582 85.735 25.1879C84.7108 26.2176 86.0409 27.1153 86.465 26.6857L86.465 26.6857Z" fill="black" stroke="black" stroke-width="0.12366"/>
<path d="M99.5909 34.5816C100.687 33.6381 100.639 33.2819 100.639 33.2819C100.639 33.2819 99.8851 32.0541 98.8609 33.0838C97.8366 34.1135 99.1667 35.0112 99.5909 34.5815V34.5816Z" fill="black" stroke="black" stroke-width="0.12366"/>
<path d="M102.115 28.1469C103.211 27.2034 103.163 26.8472 103.163 26.8472C103.163 26.8472 102.409 25.6194 101.385 26.6491C100.361 27.6788 101.691 28.5765 102.115 28.1468V28.1469Z" fill="black" stroke="black" stroke-width="0.12366"/>
<path d="M142.351 49.0997C141.7 48.5706 141.472 48.6211 141.472 48.6211C141.472 48.6211 140.713 49.1136 141.417 49.598C142.121 50.0825 142.644 49.3001 142.351 49.0997L142.351 49.0997Z" fill="black" stroke="black" stroke-width="0.0733053"/>
<path d="M132.23 51.6893C131.579 51.1602 131.352 51.2106 131.352 51.2106C131.352 51.2106 130.592 51.7032 131.296 52.1876C132 52.672 132.524 51.8896 132.23 51.6893H132.23Z" fill="black" stroke="black" stroke-width="0.0733053"/>
<path d="M141.15 56.421C140.499 55.8919 140.272 55.9424 140.272 55.9424C140.272 55.9424 139.512 56.4349 140.216 56.9193C140.92 57.4037 141.444 56.6214 141.15 56.421H141.15Z" fill="black" stroke="black" stroke-width="0.0733053"/>
<path d="M139.82 62.8721C139.168 62.343 138.941 62.3934 138.941 62.3934C138.941 62.3934 138.182 62.886 138.886 63.3704C139.589 63.8548 140.113 63.0724 139.82 62.8721H139.82Z" fill="black" stroke="black" stroke-width="0.0733053"/>
<path d="M145.973 61.1334C145.322 60.6043 145.095 60.6548 145.095 60.6548C145.095 60.6548 144.335 61.1473 145.039 61.6317C145.743 62.1161 146.267 61.3337 145.973 61.1334L145.973 61.1334Z" fill="black" stroke="black" stroke-width="0.0733053"/>
<path d="M128.184 46.9301C128.771 46.3301 128.742 46.0991 128.742 46.0991C128.742 46.0991 128.321 45.2977 127.774 45.9543C127.227 46.6108 127.958 47.2041 128.184 46.9301V46.9301Z" fill="black" stroke="black" stroke-width="0.0733053"/>
<path d="M126.549 33.3706C127.135 32.7705 127.106 32.5396 127.106 32.5396C127.106 32.5396 126.685 31.7382 126.138 32.3948C125.591 33.0513 126.322 33.6446 126.549 33.3706V33.3706Z" fill="black" stroke="black" stroke-width="0.0733053"/>
<path d="M120.246 31.4553C120.833 30.8553 120.804 30.6244 120.804 30.6244C120.804 30.6244 120.383 29.8229 119.836 30.4795C119.289 31.136 120.02 31.7293 120.246 31.4554V31.4553Z" fill="black" stroke="black" stroke-width="0.0733053"/>
<path d="M121.415 37.7421C122.001 37.1421 121.972 36.9112 121.972 36.9112C121.972 36.9112 121.551 36.1097 121.004 36.7663C120.457 37.4228 121.188 38.0161 121.415 37.7421V37.7421Z" fill="black" stroke="black" stroke-width="0.0733053"/>
<path d="M124.625 38.9272C125.212 38.3271 125.182 38.0962 125.182 38.0962C125.182 38.0962 124.761 37.2948 124.214 37.9514C123.667 38.6079 124.399 39.2012 124.625 38.9272V38.9272Z" fill="black" stroke="black" stroke-width="0.0733053"/>
<path d="M128.553 28.9225C129.14 28.3224 129.11 28.0915 129.11 28.0915C129.11 28.0915 128.689 27.2901 128.143 27.9466C127.596 28.6032 128.327 29.1965 128.553 28.9225V28.9225Z" fill="black" stroke="black" stroke-width="0.0733053"/>
<path d="M122.251 27.0072C122.838 26.4072 122.808 26.1762 122.808 26.1762C122.808 26.1762 122.387 25.3748 121.84 26.0314C121.294 26.6879 122.025 27.2812 122.251 27.0072V27.0072Z" fill="black" stroke="black" stroke-width="0.0733053"/>
<path d="M123.419 33.294C124.006 32.6939 123.976 32.463 123.976 32.463C123.976 32.463 123.555 31.6616 123.009 32.3182C122.462 32.9747 123.193 33.568 123.419 33.294L123.419 33.294Z" fill="black" stroke="black" stroke-width="0.0733053"/>
<path d="M133.188 35.7483C132.536 35.2192 132.309 35.2696 132.309 35.2696C132.309 35.2696 131.55 35.7622 132.253 36.2466C132.957 36.731 133.481 35.9486 133.188 35.7483V35.7483Z" fill="black" stroke="black" stroke-width="0.0733053"/>
<path d="M146.668 66.4449C146.627 65.6068 146.438 65.4712 146.438 65.4712C146.438 65.4712 145.564 65.2344 145.673 66.0819C145.782 66.9293 146.714 66.7972 146.668 66.4449Z" fill="black" stroke="black" stroke-width="0.0733053"/>
<path d="M140.243 22.47C139.153 21.7038 138.764 21.7884 138.764 21.7884C138.764 21.7884 137.721 22.0923 138.902 22.7894C140.083 23.4866 140.735 22.7582 140.243 22.47L140.243 22.47Z" fill="black" stroke="black" stroke-width="0.11706"/>
<path d="M139.869 23.4641C138.784 24.2365 138.734 24.6319 138.734 24.6319C138.734 24.6319 138.673 25.7162 139.724 24.8347C140.774 23.9531 140.304 23.0955 139.869 23.4641L139.869 23.4641Z" fill="black" stroke="black" stroke-width="0.11706"/>
<path d="M136.829 25.3355C138.062 25.8367 138.423 25.6667 138.423 25.6667C138.423 25.6667 139.37 25.1359 138.063 24.7224C136.755 24.309 136.284 25.1656 136.829 25.3355V25.3355Z" fill="black" stroke="black" stroke-width="0.11706"/>
<path d="M147.987 64.8183C148.028 64.8193 148.057 65.6035 148.104 65.9055C148.285 67.0699 148.554 67.3829 148.554 67.3829C148.554 67.3829 149.776 68.6593 149.484 66.5079C149.191 64.3565 147.862 63.9226 147.987 64.8183H147.987Z" fill="black" stroke="black" stroke-width="0.168727"/>
<path d="M146.101 68.8639C148.16 69.0994 148.725 68.7702 148.725 68.7702C148.725 68.7702 150.202 67.7992 148.033 67.6977C145.864 67.5963 145.197 68.8246 146.101 68.8639V68.8639Z" fill="black" stroke="black" stroke-width="0.168727"/>
<path d="M145.06 67.629C145.02 67.6356 144.845 66.8705 144.742 66.5826C144.348 65.4724 144.025 65.2149 144.025 65.2149C144.025 65.2149 142.587 64.1883 143.275 66.2476C143.963 68.3069 145.349 68.4857 145.06 67.629L145.06 67.629Z" fill="black" stroke="black" stroke-width="0.168727"/>
<path d="M146.16 63.3027C144.093 63.455 143.599 63.8837 143.599 63.8837C143.599 63.8837 142.329 65.1127 144.479 64.8084C146.629 64.5042 147.055 63.1731 146.16 63.3027V63.3027Z" fill="black" stroke="black" stroke-width="0.168727"/>
<path d="M131.916 34.4055C132.451 33.7597 132.403 33.5319 132.403 33.5319C132.403 33.5319 131.918 32.7674 131.427 33.4663C130.935 34.1651 131.712 34.697 131.916 34.4055L131.916 34.4055Z" fill="black" stroke="black" stroke-width="0.0733053"/>
<path d="M133.987 34.0961C134.017 34.1243 133.509 34.7228 133.34 34.9773C132.687 35.9586 132.674 36.3709 132.674 36.3709C132.674 36.3709 132.714 38.1375 133.951 36.3529C135.187 34.5682 134.5 33.3512 133.987 34.0962V34.0961Z" fill="black" stroke="black" stroke-width="0.168727"/>
<path d="M129.726 35.9114C131.087 37.4754 131.726 37.6141 131.726 37.6141C131.726 37.6141 133.471 37.8943 131.939 36.3555C130.408 34.8166 129.086 35.2726 129.726 35.9114L129.726 35.9114Z" fill="black" stroke="black" stroke-width="0.168727"/>
<path d="M129.93 34.194C129.896 34.1717 130.284 33.4892 130.402 33.2076C130.861 32.1219 130.797 31.7145 130.797 31.7145C130.797 31.7145 130.428 29.9862 129.546 31.9699C128.663 33.9537 129.565 35.0214 129.93 34.194V34.194Z" fill="black" stroke="black" stroke-width="0.168727"/>
<path d="M134.28 32.5174C132.652 31.2342 131.999 31.2171 131.999 31.2171C131.999 31.2171 130.232 31.2667 132.024 32.4934C133.815 33.72 135.028 33.0259 134.28 32.5175V32.5174Z" fill="black" stroke="black" stroke-width="0.168727"/>
<path d="M136.969 24.2826C137.853 23.2858 137.812 22.8894 137.812 22.8894C137.812 22.8894 137.627 21.8193 136.802 22.9147C135.977 24.0101 136.628 24.7398 136.969 24.2826V24.2826Z" fill="black" stroke="black" stroke-width="0.11706"/>
<path d="M136.805 37.1165C135.474 37.1489 135.211 37.4485 135.211 37.4485C135.211 37.4485 134.554 38.3131 135.918 38.1709C137.282 38.0287 137.373 37.0551 136.805 37.1165V37.1165Z" fill="black" stroke="black" stroke-width="0.11706"/>
<path d="M137.096 38.1383C136.683 39.4046 136.878 39.752 136.878 39.752C136.878 39.752 137.475 40.6594 137.795 39.326C138.114 37.9925 137.227 37.5828 137.096 38.1383L137.096 38.1383Z" fill="black" stroke="black" stroke-width="0.11706"/>
<path d="M114.855 28.5123C116.487 28.2994 116.64 27.9381 116.64 27.9381C116.64 27.9381 116.955 26.909 115.346 27.2459C113.738 27.5829 114.187 28.655 114.855 28.5123H114.855Z" fill="black" stroke="black" stroke-width="0.139827"/>
<path d="M113.625 26.5923C114.042 28.1843 114.419 28.2901 114.419 28.2901C114.419 28.2901 115.48 28.4733 114.943 26.9199C114.406 25.3666 113.399 25.9477 113.625 26.5923L113.625 26.5923Z" fill="black" stroke="black" stroke-width="0.139827"/>
<path d="M114.866 24.9358C116.779 26.1849 117.205 26.1587 117.205 26.1587C117.205 26.1587 118.289 25.986 116.311 24.8079C114.333 23.6298 114.042 24.4478 114.866 24.9358H114.866Z" fill="black" stroke="black" stroke-width="0.142927"/>
<path d="M99.7753 41.7094C100.053 43.3313 100.421 43.4694 100.421 43.4694C100.421 43.4694 101.461 43.7431 101.06 42.1493C100.659 40.5555 99.6061 41.0477 99.7753 41.7094L99.7753 41.7094Z" fill="black" stroke="black" stroke-width="0.139827"/>
<path d="M101.645 40.4031C100.07 40.8833 99.9798 41.2648 99.9798 41.2648C99.9798 41.2648 99.8393 42.3319 101.37 41.7333C102.901 41.1347 102.28 40.1519 101.645 40.4031Z" fill="black" stroke="black" stroke-width="0.139827"/>
<path d="M103.349 41.5765C102.178 43.5384 102.221 43.9628 102.221 43.9628C102.221 43.9628 102.437 45.0389 103.535 43.0154C104.633 40.9919 103.804 40.7345 103.349 41.5765Z" fill="black" stroke="black" stroke-width="0.142927"/>
<path d="M119.62 45.3275C120.89 46.3734 121.258 46.2379 121.258 46.2379C121.258 46.2379 122.225 45.7648 120.88 44.8207C119.535 43.8765 119.059 44.9374 119.62 45.3275H119.62Z" fill="black" stroke="black" stroke-width="0.139827"/>
<path d="M120.181 43.1171C119.303 44.5093 119.484 44.8573 119.484 44.8573C119.484 44.8573 120.075 45.7568 120.842 44.3034C121.609 42.85 120.497 42.5119 120.181 43.1171V43.1171Z" fill="black" stroke="black" stroke-width="0.139827"/>
<path d="M121.852 44.3594C122.247 46.6099 122.557 46.9028 122.557 46.9028C122.557 46.9028 123.424 47.5762 122.932 45.3271C122.441 43.0779 121.645 43.4249 121.852 44.3594V44.3594Z" fill="black" stroke="black" stroke-width="0.142927"/>
<path d="M141.878 31.0723C140.715 29.9078 140.335 30.0068 140.335 30.0068C140.335 30.0068 139.327 30.3835 140.574 31.4541C141.821 32.5248 142.397 31.5152 141.878 31.0723H141.878Z" fill="black" stroke="black" stroke-width="0.139827"/>
<path d="M141.104 33.2176C142.113 31.9174 141.967 31.5534 141.967 31.5534C141.967 31.5534 141.466 30.6008 140.561 31.9726C139.656 33.3444 140.73 33.7891 141.104 33.2176V33.2176Z" fill="black" stroke="black" stroke-width="0.139827"/>
<path d="M139.035 33.2423C138.86 30.964 138.58 30.6423 138.58 30.6423C138.58 30.6423 137.783 29.8877 138.053 32.174C138.323 34.4603 139.149 34.1925 139.035 33.2423V33.2423Z" fill="black" stroke="black" stroke-width="0.142927"/>
<path d="M135.766 41.451C137.056 41.1198 137.244 40.7687 137.244 40.7687C137.244 40.7687 137.69 39.7783 136.393 40.2239C135.096 40.6695 135.227 41.6386 135.766 41.451V41.451Z" fill="black" stroke="black" stroke-width="0.11706"/>
<path d="M135.253 40.521C135.37 39.1943 135.101 38.8997 135.101 38.8997C135.101 38.8997 134.316 38.1499 134.304 39.5211C134.293 40.8923 135.25 41.0916 135.253 40.5209V40.521Z" fill="black" stroke="black" stroke-width="0.11706"/>
<path d="M133.965 45.5843C132.753 45.0331 132.386 45.1883 132.386 45.1883C132.386 45.1883 131.418 45.6801 132.707 46.1465C133.997 46.6128 134.503 45.7763 133.965 45.5843V45.5843Z" fill="black" stroke="black" stroke-width="0.11706"/>
<path d="M133.782 46.6305C132.859 47.5905 132.883 47.9883 132.883 47.9883C132.883 47.9883 133.025 49.065 133.893 48.0041C134.762 46.9433 134.142 46.1876 133.782 46.6305L133.782 46.6305Z" fill="black" stroke="black" stroke-width="0.11706"/>
<path d="M144.433 58.2287C145.738 58.4927 146.061 58.2589 146.061 58.2589C146.061 58.2589 146.894 57.5617 145.532 57.3976C144.171 57.2336 143.866 58.1626 144.433 58.2287Z" fill="black" stroke="black" stroke-width="0.11706"/>
<path d="M131.085 48.9764C131.768 47.8333 131.655 47.4512 131.655 47.4512C131.655 47.4512 131.274 46.434 130.667 47.6632C130.059 48.8924 130.834 49.489 131.085 48.9764Z" fill="black" stroke="black" stroke-width="0.11706"/>
<path d="M161.574 42.9968C162.137 43.6192 162.369 43.604 162.369 43.604C162.369 43.604 163.195 43.2332 162.573 42.647C161.952 42.0608 161.314 42.7541 161.574 42.9968Z" fill="black" stroke="black" stroke-width="0.0733053"/>
<path d="M169.215 64.5442C169.777 65.1666 170.01 65.1514 170.01 65.1514C170.01 65.1514 170.836 64.7806 170.214 64.1944C169.592 63.6082 168.955 64.3014 169.215 64.5442L169.215 64.5442Z" fill="black" stroke="black" stroke-width="0.0733053"/>
<path d="M175.583 70.9413C176.146 71.5637 176.378 71.5485 176.378 71.5485C176.378 71.5485 177.204 71.1777 176.582 70.5915C175.961 70.0053 175.323 70.6985 175.583 70.9413L175.583 70.9413Z" fill="black" stroke="black" stroke-width="0.0733053"/>
<path d="M160.541 50.9531C161.104 51.5755 161.336 51.5603 161.336 51.5603C161.336 51.5603 162.162 51.1895 161.54 50.6033C160.919 50.0171 160.281 50.7103 160.541 50.9531L160.541 50.9531Z" fill="black" stroke="black" stroke-width="0.0733053"/>
<path d="M165.786 54.7051C166.66 55.857 167.018 55.831 167.018 55.831C167.018 55.831 168.29 55.1545 167.326 54.0688C166.361 52.983 165.383 54.2554 165.786 54.7051L165.786 54.7051Z" fill="black" stroke="black" stroke-width="0.12366"/>
<path d="M150.923 26.765C151.797 27.9169 152.155 27.8909 152.155 27.8909C152.155 27.8909 153.427 27.2144 152.463 26.1287C151.498 25.043 150.52 26.3153 150.923 26.765L150.923 26.765Z" fill="black" stroke="black" stroke-width="0.12366"/>
<path d="M147.705 20.2472C148.579 21.399 148.937 21.373 148.937 21.373C148.937 21.373 150.209 20.6966 149.244 19.6108C148.28 18.5251 147.302 19.7975 147.705 20.2472L147.705 20.2472Z" fill="black" stroke="black" stroke-width="0.12366"/>
<path d="M154.09 29.4353C154.964 30.5872 155.323 30.5612 155.323 30.5612C155.323 30.5612 156.594 29.8847 155.63 28.799C154.665 27.7133 153.687 28.9856 154.09 29.4353H154.09Z" fill="black" stroke="black" stroke-width="0.12366"/>
<path d="M171.176 65.3959C172.05 66.5477 172.409 66.5217 172.409 66.5217C172.409 66.5217 173.681 65.8452 172.716 64.7595C171.751 63.6738 170.773 64.9462 171.176 65.3959H171.176Z" fill="black" stroke="black" stroke-width="0.12366"/>
<path d="M175.368 68.8878C175.931 69.5102 176.163 69.495 176.163 69.495C176.163 69.495 176.989 69.1242 176.368 68.538C175.746 67.9518 175.109 68.645 175.368 68.8878L175.368 68.8878Z" fill="black" stroke="black" stroke-width="0.0733053"/>
<path d="M160.573 47.0087C161.136 47.631 161.368 47.6158 161.368 47.6158C161.368 47.6158 162.194 47.245 161.572 46.6588C160.951 46.0726 160.313 46.7659 160.573 47.0087L160.573 47.0087Z" fill="black" stroke="black" stroke-width="0.0733053"/>
<path d="M156.498 44.6798C157.061 45.3022 157.293 45.287 157.293 45.287C157.293 45.287 158.119 44.9162 157.498 44.33C156.876 43.7438 156.239 44.437 156.498 44.6798L156.498 44.6798Z" fill="black" stroke="black" stroke-width="0.0733053"/>
<path d="M158.798 38.5075C159.361 39.1298 159.593 39.1147 159.593 39.1147C159.593 39.1147 160.419 38.7438 159.797 38.1576C159.176 37.5714 158.539 38.2647 158.798 38.5075L158.798 38.5075Z" fill="black" stroke="black" stroke-width="0.0733053"/>
<path d="M152.451 39.2863C153.014 39.9087 153.246 39.8935 153.246 39.8935C153.246 39.8935 154.072 39.5227 153.451 38.9365C152.829 38.3503 152.192 39.0435 152.451 39.2863L152.451 39.2863Z" fill="black" stroke="black" stroke-width="0.0733053"/>
<path d="M163.845 52.3297C163.173 52.8332 163.167 53.0659 163.167 53.0659C163.167 53.0659 163.461 53.9222 164.102 53.3568C164.742 52.7914 164.111 52.0935 163.845 52.3297V52.3297Z" fill="black" stroke="black" stroke-width="0.0733053"/>
<path d="M152.576 33.9311C152.488 34.7656 152.655 34.9284 152.655 34.9284C152.655 34.9284 153.482 35.2958 153.504 34.4417C153.525 33.5875 152.584 33.5758 152.576 33.9311V33.9311Z" fill="black" stroke="black" stroke-width="0.0733053"/>
<path d="M151.024 35.3372C150.984 35.33 151.074 34.5504 151.074 34.2448C151.073 33.0665 150.855 32.7161 150.855 32.7161C150.855 32.7161 149.842 31.268 149.803 33.4389C149.763 35.6097 151.01 36.2414 151.024 35.3372L151.024 35.3372Z" fill="black" stroke="black" stroke-width="0.168727"/>
<path d="M153.506 31.6269C151.506 31.0798 150.897 31.3188 150.897 31.3188C150.897 31.3188 149.29 32.053 151.418 32.4844C153.546 32.9158 154.393 31.8037 153.506 31.6269V31.6269Z" fill="black" stroke="black" stroke-width="0.168727"/>
<path d="M154.345 33.0063C154.386 33.0059 154.442 33.7887 154.499 34.0889C154.72 35.2464 154.999 35.5501 154.999 35.5501C154.999 35.5501 156.264 36.7842 155.898 34.644C155.533 32.5038 154.19 32.1154 154.345 33.0063L154.345 33.0063Z" fill="black" stroke="black" stroke-width="0.168727"/>
<path d="M152.598 37.1139C154.664 37.2791 155.218 36.9308 155.218 36.9308C155.218 36.9308 156.66 35.9101 154.489 35.8825C152.318 35.855 151.694 37.1053 152.598 37.1139V37.1139Z" fill="black" stroke="black" stroke-width="0.168727"/>
<path d="M170.673 59.2397C169.577 58.0121 169.193 58.0898 169.193 58.0898C169.193 58.0898 168.165 58.4097 169.351 59.5482C170.536 60.6867 171.168 59.7108 170.673 59.2397Z" fill="black" stroke="black" stroke-width="0.139827"/>
<path d="M162.717 56.7956C163.831 57.5254 164.217 57.4281 164.217 57.4281C164.217 57.4281 165.249 57.0899 164.046 56.4321C162.843 55.7743 162.215 56.5238 162.717 56.7956V56.7956Z" fill="black" stroke="black" stroke-width="0.11706"/>
<path d="M165.995 60.89C167.054 60.0823 167.09 59.6855 167.09 59.6855C167.09 59.6855 167.115 58.5997 166.094 59.5155C165.074 60.4313 165.572 61.2728 165.995 60.89L165.995 60.89Z" fill="black" stroke="black" stroke-width="0.11706"/>
<path d="M180.253 69.8072C179.003 69.3469 178.648 69.5287 178.648 69.5287C178.648 69.5287 177.719 70.0906 179.039 70.4606C180.36 70.8306 180.803 69.959 180.253 69.8071V69.8072Z" fill="black" stroke="black" stroke-width="0.11706"/>
<path d="M178.612 73.1273C179.174 73.7496 179.407 73.7345 179.407 73.7345C179.407 73.7345 180.233 73.3637 179.611 72.7775C178.989 72.1913 178.352 72.8845 178.612 73.1273L178.612 73.1273Z" fill="black" stroke="black" stroke-width="0.0733053"/>
<path d="M181.871 77.7561C182.451 77.9941 182.691 77.9883 182.691 77.9883C182.691 77.9883 183.542 77.8465 182.901 77.6223C182.26 77.3982 181.603 77.6633 181.871 77.7561Z" fill="black" stroke="black" stroke-width="0.0460326"/>
<path d="M180.573 73.9789C181.447 75.1308 181.806 75.1048 181.806 75.1048C181.806 75.1048 183.078 74.4283 182.113 73.3426C181.148 72.2569 180.17 73.5292 180.573 73.9789H180.573Z" fill="black" stroke="black" stroke-width="0.12366"/>
<path d="M184.765 77.4709C185.328 78.0933 185.561 78.0781 185.561 78.0781C185.561 78.0781 186.386 77.7073 185.765 77.1211C185.143 76.5349 184.506 77.2281 184.765 77.4709L184.765 77.4709Z" fill="black" stroke="black" stroke-width="0.0733053"/>
<path d="M188.722 79.163C187.473 78.7028 187.118 78.8846 187.118 78.8846C187.118 78.8846 186.188 79.4464 187.509 79.8164C188.829 80.1865 189.272 79.3148 188.722 79.163V79.163Z" fill="black" stroke="black" stroke-width="0.11706"/>
<path d="M163.609 48.4736C162.759 49.499 162.813 49.8939 162.813 49.8939C162.813 49.8939 163.034 50.9572 163.822 49.8352C164.61 48.7132 163.936 48.0053 163.609 48.4736V48.4736Z" fill="black" stroke="black" stroke-width="0.11706"/>
<path d="M127.427 41.8521C128.086 40.6953 127.965 40.3156 127.965 40.3156C127.965 40.3156 127.564 39.3063 126.982 40.5477C126.399 41.7891 127.186 42.3697 127.427 41.8521Z" fill="black" stroke="black" stroke-width="0.11706"/>
<path d="M126.401 41.5734C125.53 40.5664 125.132 40.5541 125.132 40.5541C125.132 40.5541 124.046 40.5965 125.023 41.5588C126 42.5211 126.809 41.9723 126.401 41.5735L126.401 41.5734Z" fill="black" stroke="black" stroke-width="0.11706"/>
<path d="M58.787 67.5813C59.0292 66.7779 58.8962 66.5868 58.8962 66.5868C58.8962 66.5868 58.1522 66.0713 57.9713 66.9063C57.7905 67.7414 58.7132 67.9289 58.787 67.5813V67.5813Z" fill="black" stroke="black" stroke-width="0.0733053"/>
<path d="M72.7423 63.3938C72.9846 62.5904 72.8516 62.3993 72.8516 62.3993C72.8516 62.3993 72.1075 61.8837 71.9266 62.7188C71.7458 63.5539 72.6685 63.7414 72.7423 63.3938L72.7423 63.3938Z" fill="black" stroke="black" stroke-width="0.0733053"/>
<path d="M64.4119 79.9567C64.6541 79.1533 64.5211 78.9622 64.5211 78.9622C64.5211 78.9622 63.777 78.4467 63.5962 79.2817C63.4153 80.1168 64.3381 80.3043 64.4119 79.9567V79.9567Z" fill="black" stroke="black" stroke-width="0.0733053"/>
<path d="M65.0329 69.7132C65.2751 68.9098 65.1421 68.7187 65.1421 68.7187C65.1421 68.7187 64.398 68.2031 64.2172 69.0382C64.0363 69.8733 64.959 70.0608 65.0329 69.7132V69.7132Z" fill="black" stroke="black" stroke-width="0.0733053"/>
<path d="M56.6498 55.2915C56.8008 53.8534 56.5216 53.6269 56.5216 53.6269C56.5216 53.6269 55.1313 53.2497 55.0916 54.7015C55.0518 56.1533 56.6356 55.895 56.6498 55.2915L56.6498 55.2915Z" fill="black" stroke="black" stroke-width="0.12366"/>
<path d="M56.122 87.7659C56.273 86.3278 55.9938 86.1014 55.9938 86.1014C55.9938 86.1014 54.6035 85.7241 54.5637 87.1759C54.524 88.6277 56.1078 88.3694 56.122 87.7659L56.122 87.7659Z" fill="black" stroke="black" stroke-width="0.12366"/>
<path d="M57.2658 71.7002C57.8006 70.3567 57.5931 70.0632 57.5931 70.0632C57.5931 70.0632 56.3569 69.3235 55.9255 70.7104C55.4942 72.0972 57.0888 72.2774 57.2658 71.7002L57.2658 71.7002Z" fill="black" stroke="black" stroke-width="0.12366"/>
<path d="M54.6608 83.7917C54.8118 82.3536 54.5326 82.1272 54.5326 82.1272C54.5326 82.1272 53.1423 81.7499 53.1025 83.2017C53.0628 84.6535 54.6466 84.3952 54.6608 83.7917L54.6608 83.7917Z" fill="black" stroke="black" stroke-width="0.12366"/>
<path d="M64.5085 74.3957C65.0433 73.0522 64.8358 72.7586 64.8358 72.7586C64.8358 72.7586 63.5996 72.019 63.1682 73.4058C62.7368 74.7926 64.3315 74.9728 64.5085 74.3957L64.5085 74.3957Z" fill="black" stroke="black" stroke-width="0.12366"/>
<path d="M58.9319 60.6807C59.1741 59.8773 59.0411 59.6863 59.0411 59.6863C59.0411 59.6863 58.2971 59.1707 58.1162 60.0058C57.9354 60.8408 58.8581 61.0284 58.9319 60.6807L58.9319 60.6807Z" fill="black" stroke="black" stroke-width="0.0733053"/>
<path d="M62.7392 66.3662C62.9814 65.5628 62.8484 65.3718 62.8484 65.3718C62.8484 65.3718 62.1043 64.8562 61.9235 65.6913C61.7426 66.5263 62.6653 66.7138 62.7392 66.3662L62.7392 66.3662Z" fill="black" stroke="black" stroke-width="0.0733053"/>
<path d="M61.7493 76.415C61.9915 75.6116 61.8585 75.4206 61.8585 75.4206C61.8585 75.4206 61.1144 74.905 60.9336 75.7401C60.7527 76.5751 61.6755 76.7626 61.7493 76.415V76.415Z" fill="black" stroke="black" stroke-width="0.0733053"/>
<path d="M55.2762 77.634C55.5184 76.8307 55.3854 76.6396 55.3854 76.6396C55.3854 76.6396 54.6413 76.124 54.4605 76.9591C54.2796 77.7942 55.2023 77.9817 55.2762 77.6341V77.634Z" fill="black" stroke="black" stroke-width="0.0733053"/>
<path d="M60.3317 5.41237C60.3473 4.57344 60.1676 4.42552 60.1676 4.42552C60.1676 4.42552 59.3117 4.13064 59.3637 4.9835C59.4157 5.83633 60.3548 5.76703 60.3317 5.41238L60.3317 5.41237Z" fill="black" stroke="black" stroke-width="0.0733053"/>
<path d="M63.3433 57.9194C64.1773 58.0118 64.3411 57.8463 64.3411 57.8463C64.3411 57.8463 64.713 57.021 63.859 56.9948C63.005 56.9685 62.988 57.9099 63.3433 57.9194L63.3433 57.9194Z" fill="black" stroke="black" stroke-width="0.0733053"/>
<path d="M56.5753 9.23138C57.2104 8.68301 57.2006 8.45047 57.2006 8.45047C57.2006 8.45047 56.8489 7.61633 56.2485 8.2243C55.6482 8.8323 56.3266 9.48525 56.5753 9.23138L56.5753 9.23138Z" fill="black" stroke="black" stroke-width="0.0733053"/>
<path d="M58.6697 9.26883C58.6939 9.30144 58.0944 9.80786 57.8854 10.0308C57.0798 10.8908 56.9987 11.2952 56.9987 11.2952C56.9987 11.2952 56.746 13.0441 58.2606 11.4884C59.7751 9.9327 59.2984 8.61881 58.6697 9.26878L58.6697 9.26883Z" fill="black" stroke="black" stroke-width="0.168727"/>
<path d="M54.3206 10.2751C55.4039 12.0424 56.0115 12.2849 56.0115 12.2849C56.0115 12.2849 57.6858 12.8497 56.4297 11.0788C55.1735 9.30788 53.7951 9.53918 54.3206 10.2751L54.3206 10.2751Z" fill="black" stroke="black" stroke-width="0.168727"/>
<path d="M54.6525 8.69455C54.6225 8.66701 55.1173 8.05785 55.2811 7.79978C55.9124 6.80482 55.9167 6.39239 55.9167 6.39239C55.9167 6.39239 55.8393 4.62701 54.641 6.43757C53.4427 8.24814 54.1558 9.45025 54.6524 8.69454L54.6525 8.69455Z" fill="black" stroke="black" stroke-width="0.168727"/>
<path d="M58.7378 6.89593C57.3444 5.36124 56.7023 5.23618 56.7023 5.23618C56.7023 5.23618 54.952 4.99312 56.516 6.49907C58.08 8.00505 59.3913 7.52106 58.7378 6.89594L58.7378 6.89593Z" fill="black" stroke="black" stroke-width="0.168727"/>
<path d="M59.7929 47.0944C59.7518 48.7396 60.0853 48.946 60.0853 48.946C60.0853 48.946 61.0535 49.416 60.9685 47.7748C60.8835 46.1335 59.755 46.4125 59.7929 47.0944L59.7929 47.0944Z" fill="black" stroke="black" stroke-width="0.139827"/>
<path d="M61.8798 46.1746C60.2426 46.341 60.0798 46.6978 60.0798 46.6978C60.0798 46.6978 59.7354 47.7175 61.3529 47.4265C62.9704 47.1355 62.5515 46.0511 61.8798 46.1746L61.8798 46.1746Z" fill="black" stroke="black" stroke-width="0.139827"/>
<path d="M61.9305 48.256C60.4014 49.954 60.3617 50.3787 60.3617 50.3787C60.3617 50.3787 60.3653 51.4763 61.8341 49.7036C63.303 47.9309 62.5395 47.5179 61.9305 48.256L61.9305 48.256Z" fill="black" stroke="black" stroke-width="0.142927"/>
<path d="M69.0459 65.6533C69.0953 64.3225 68.8124 64.0418 68.8124 64.0418C68.8124 64.0418 67.9897 63.3328 68.048 64.7028C68.1062 66.0728 69.0724 66.2234 69.0459 65.6533L69.0459 65.6533Z" fill="black" stroke="black" stroke-width="0.11706"/>
<path d="M68.0083 65.8807C66.7697 65.3913 66.4109 65.5648 66.4109 65.5648C66.4109 65.5648 65.4686 66.1046 66.7799 66.5055C68.0913 66.9064 68.5547 66.0454 68.0083 65.8808L68.0083 65.8807Z" fill="black" stroke="black" stroke-width="0.11706"/>
<path d="M63.5015 79.7456C63.7529 81.0534 64.0918 81.2631 64.0918 81.2631C64.0918 81.2631 65.0529 81.7688 64.6878 80.447C64.3226 79.1253 63.3474 79.1961 63.5015 79.7456Z" fill="black" stroke="black" stroke-width="0.11706"/>
<path d="M50.6365 20.7726C50.6522 19.9337 50.4724 19.7857 50.4724 19.7857C50.4724 19.7857 49.6165 19.4909 49.6685 20.3437C49.7205 21.1966 50.6596 21.1273 50.6365 20.7726L50.6365 20.7726Z" fill="black" stroke="black" stroke-width="0.0733053"/>
<path d="M42.4731 38.3619C42.6241 36.9238 42.3449 36.6974 42.3449 36.6974C42.3449 36.6974 40.9546 36.3201 40.9148 37.7719C40.875 39.2237 42.4589 38.9654 42.473 38.3619L42.4731 38.3619Z" fill="black" stroke="black" stroke-width="0.12366"/>
<path d="M43.5622 42.1155C43.7132 40.6774 43.434 40.451 43.434 40.451C43.434 40.451 42.0437 40.0737 42.0039 41.5255C41.9641 42.9773 43.548 42.719 43.5621 42.1155L43.5622 42.1155Z" fill="black" stroke="black" stroke-width="0.12366"/>
<path d="M47.1144 18.0841C47.1301 17.2452 46.9503 17.0972 46.9503 17.0972C46.9503 17.0972 46.0944 16.8024 46.1464 17.6552C46.1984 18.5081 47.1375 18.4388 47.1144 18.0841L47.1144 18.0841Z" fill="black" stroke="black" stroke-width="0.0733053"/>
<path d="M41.2133 21.0103C41.2289 20.1714 41.0492 20.0234 41.0492 20.0234C41.0492 20.0234 40.1933 19.7286 40.2453 20.5814C40.2973 21.4342 41.2364 21.3649 41.2133 21.0103L41.2133 21.0103Z" fill="black" stroke="black" stroke-width="0.0733053"/>
<path d="M46.3736 24.7864C46.3892 23.9474 46.2095 23.7995 46.2095 23.7995C46.2095 23.7995 45.3536 23.5046 45.4056 24.3575C45.4576 25.2103 46.3966 25.141 46.3736 24.7864L46.3736 24.7864Z" fill="black" stroke="black" stroke-width="0.0733053"/>
<path d="M42.6174 28.6054C43.2525 28.057 43.2427 27.8245 43.2427 27.8245C43.2427 27.8245 42.891 26.9903 42.2907 27.5983C41.6903 28.2063 42.3687 28.8592 42.6174 28.6054L42.6174 28.6054Z" fill="black" stroke="black" stroke-width="0.0733053"/>
<path d="M44.7118 28.6428C44.736 28.6754 44.1365 29.1818 43.9275 29.4048C43.1219 30.2648 43.0408 30.6692 43.0408 30.6692C43.0408 30.6692 42.7881 32.4181 44.3027 30.8624C45.8173 29.3067 45.3405 27.9928 44.7118 28.6428L44.7118 28.6428Z" fill="black" stroke="black" stroke-width="0.168727"/>
<path d="M40.3626 29.6491C41.4459 31.4164 42.0535 31.6589 42.0535 31.6589C42.0535 31.6589 43.7278 32.2237 42.4717 30.4528C41.2155 28.6819 39.837 28.9132 40.3626 29.6491V29.6491Z" fill="black" stroke="black" stroke-width="0.168727"/>
<path d="M40.6944 28.0685C40.6645 28.041 41.1593 27.4318 41.3231 27.1738C41.9544 26.1788 41.9587 25.7664 41.9587 25.7664C41.9587 25.7664 41.8813 24.001 40.683 25.8116C39.4847 27.6221 40.1978 28.8242 40.6944 28.0685L40.6944 28.0685Z" fill="black" stroke="black" stroke-width="0.168727"/>
<path d="M28.2865 19.791C27.7213 19.1708 27.489 19.1869 27.489 19.1869C27.489 19.1869 26.6647 19.561 27.2886 20.1447C27.9125 20.7285 28.547 20.0327 28.2865 19.791L28.2865 19.791Z" fill="black" stroke="black" stroke-width="0.0733053"/>
<path d="M32.8588 29.4942C31.9801 28.3458 31.6217 28.3733 31.6217 28.3733C31.6217 28.3733 30.3525 29.0548 31.3215 30.1367C32.2905 31.2186 33.2634 29.9423 32.8588 29.4942L32.8588 29.4942Z" fill="black" stroke="black" stroke-width="0.12366"/>
<path d="M33.6922 23.2543C32.5044 23.8567 32.3962 24.2402 32.3962 24.2402C32.3962 24.2402 32.1753 25.3035 33.3451 24.588C34.5148 23.8725 34.1778 22.9546 33.6922 23.2543L33.6922 23.2543Z" fill="black" stroke="black" stroke-width="0.11706"/>
<path d="M30.4076 24.6526C31.5531 25.3318 31.9348 25.2173 31.9348 25.2173C31.9348 25.2173 32.9507 24.8333 31.7193 24.23C30.4879 23.6267 29.8941 24.4035 30.4076 24.6526V24.6526Z" fill="black" stroke="black" stroke-width="0.11706"/>
<path d="M30.7035 23.6324C31.7252 22.7781 31.7442 22.3801 31.7442 22.3801C31.7442 22.3801 31.72 21.2943 30.7414 22.2548C29.7628 23.2153 30.2978 24.0337 30.7035 23.6324L30.7035 23.6324Z" fill="black" stroke="black" stroke-width="0.11706"/>
<path d="M33.4883 17.0064C32.7569 15.759 32.3978 15.7423 32.3978 15.7423C32.3978 15.7423 31.0547 16.2631 31.8838 17.4556C32.7129 18.6481 33.8348 17.5007 33.4883 17.0064L33.4883 17.0064Z" fill="black" stroke="black" stroke-width="0.12366"/>
<path d="M23.7568 26.8807C24.5958 26.8693 24.7379 26.6849 24.7379 26.6849C24.7379 26.6849 25.0051 25.82 24.1544 25.8994C23.3036 25.9788 23.4031 26.9151 23.7568 26.8807L23.7568 26.8807Z" fill="black" stroke="black" stroke-width="0.0733053"/>
<path d="M26.3307 23.274C27.1697 23.2626 27.3117 23.0782 27.3117 23.0782C27.3117 23.0782 27.5789 22.2133 26.7282 22.2927C25.8775 22.3721 25.9769 23.3084 26.3307 23.274L26.3307 23.274Z" fill="black" stroke="black" stroke-width="0.0733053"/>
<path d="M23.2163 17.4699C24.0553 17.4585 24.1974 17.2741 24.1974 17.2741C24.1974 17.2741 24.4646 16.4092 23.6138 16.4886C22.7631 16.568 22.8626 17.5044 23.2163 17.4699L23.2163 17.4699Z" fill="black" stroke="black" stroke-width="0.0733053"/>
<path d="M21.6946 20.1216C22.5336 20.1102 22.6756 19.9259 22.6756 19.9259C22.6756 19.9259 22.9428 19.0609 22.0921 19.1404C21.2414 19.2198 21.3408 20.1561 21.6946 20.1216L21.6946 20.1216Z" fill="black" stroke="black" stroke-width="0.0733053"/>
<path d="M39.4831 6.97753C39.5097 6.94676 40.1344 7.42171 40.3976 7.57709C41.4124 8.17606 41.8247 8.16714 41.8247 8.16714C41.8247 8.16714 43.5867 8.03297 41.7386 6.89351C39.8904 5.75403 38.7118 6.50544 39.4831 6.97746L39.4831 6.97753Z" fill="black" stroke="black" stroke-width="0.168727"/>
<path d="M24.3336 18.9628C25.8227 17.5207 25.9271 16.8749 25.9271 16.8749C25.9271 16.8749 26.1137 15.1177 24.6588 16.7293C23.2039 18.341 23.7298 19.636 24.3336 18.9628L24.3336 18.9628Z" fill="black" stroke="black" stroke-width="0.168727"/>
<path d="M24.3018 21.4668C23.1307 22.101 23.0329 22.4873 23.0329 22.4873C23.0329 22.4873 22.8407 23.5562 23.9908 22.8094C25.1408 22.0626 24.7792 21.1542 24.3018 21.4668Z" fill="black" stroke="black" stroke-width="0.11706"/>
<path d="M16.8595 14.9386C17.5218 16.094 17.9104 16.1824 17.9104 16.1824C17.9104 16.1824 18.9836 16.3488 18.2093 15.2171C17.4349 14.0854 16.5354 14.4689 16.8596 14.9386L16.8595 14.9386Z" fill="black" stroke="black" stroke-width="0.11706"/>
<path d="M14.2918 31.3257C14.52 29.8978 14.2534 29.6566 14.2534 29.6566C14.2534 29.6566 12.8854 29.2051 12.7676 30.6527C12.6498 32.1003 14.2452 31.9275 14.2918 31.3257L14.2918 31.3257Z" fill="black" stroke="black" stroke-width="0.12366"/>
<path d="M13.7931 25.1162C13.8539 24.2793 13.6824 24.1219 13.6824 24.1219C13.6824 24.1219 12.8436 23.7814 12.8496 24.6358C12.8556 25.4902 13.7971 25.4715 13.7932 25.1162L13.7931 25.1162Z" fill="black" stroke="black" stroke-width="0.0733053"/>
<path d="M18.3135 22.7702C18.8447 23.9914 19.2212 24.122 19.2212 24.122C19.2212 24.122 20.2696 24.4053 19.6244 23.1954C18.9791 21.9854 18.043 22.2677 18.3135 22.7702L18.3135 22.7702Z" fill="black" stroke="black" stroke-width="0.11706"/>
<path d="M15.51 17.9254C15.4677 17.0874 15.2782 16.9522 15.2782 16.9522C15.2782 16.9522 14.404 16.717 14.5147 17.5643C14.6254 18.4115 15.5574 18.2776 15.51 17.9254V17.9254Z" fill="black" stroke="black" stroke-width="0.0733053"/>
<path d="M5.35813 22.1344C4.72015 22.6794 4.72877 22.912 4.72877 22.912C4.72877 22.912 5.07613 23.748 5.67963 23.1431C6.28313 22.5383 5.60815 21.8818 5.35813 22.1344L5.35813 22.1344Z" fill="black" stroke="black" stroke-width="0.0733053"/>
<path d="M15.305 20.5968C15.2627 19.7588 15.0732 19.6236 15.0732 19.6236C15.0732 19.6236 14.1991 19.3884 14.3097 20.2357C14.4204 21.0829 15.3524 20.949 15.305 20.5968L15.305 20.5968Z" fill="black" stroke="black" stroke-width="0.0733053"/>
<path d="M17.8539 20.7075C17.8117 19.8694 17.6222 19.7343 17.6222 19.7343C17.6222 19.7343 16.748 19.4991 16.8587 20.3463C16.9694 21.1936 17.9014 21.0597 17.8539 20.7075L17.8539 20.7075Z" fill="black" stroke="black" stroke-width="0.0733053"/>
<path d="M16.638 26.2097C16.5958 25.3717 16.4062 25.2365 16.4062 25.2365C16.4062 25.2365 15.5321 25.0014 15.6427 25.8486C15.7534 26.6958 16.6854 26.5619 16.638 26.2097L16.638 26.2097Z" fill="black" stroke="black" stroke-width="0.0733053"/>
<path d="M19.576 27.7427C20.4151 27.7314 20.5571 27.547 20.5571 27.547C20.5571 27.547 20.8243 26.6821 19.9736 26.7615C19.1228 26.8409 19.2223 27.7772 19.576 27.7428L19.576 27.7427Z" fill="black" stroke="black" stroke-width="0.0733053"/>
<path d="M20.295 30.0092C21.134 29.9979 21.2761 29.8135 21.2761 29.8135C21.2761 29.8135 21.5433 28.9486 20.6926 29.028C19.8418 29.1074 19.9413 30.0437 20.295 30.0093L20.295 30.0092Z" fill="black" stroke="black" stroke-width="0.0733053"/>
<path d="M9.13738 21.3656C8.63424 22.0371 8.69357 22.2621 8.69357 22.2621C8.69357 22.2621 9.21554 23.0017 9.67195 22.2794C10.1284 21.5571 9.32603 21.0644 9.13738 21.3655V21.3656Z" fill="black" stroke="black" stroke-width="0.0733053"/>
<path d="M9.89776 36.0066C9.39462 36.6781 9.45394 36.9032 9.45394 36.9032C9.45394 36.9032 9.97592 37.6428 10.4323 36.9205C10.8888 36.1982 10.0864 35.7054 9.89776 36.0066L9.89776 36.0066Z" fill="black" stroke="black" stroke-width="0.0733053"/>
<path d="M3.62882 31.7419C1.57962 32.0547 1.12043 32.5206 1.12043 32.5206C1.12043 32.5206 -0.0497135 33.8447 2.06981 33.374C4.18937 32.9032 4.51097 31.543 3.62881 31.7419L3.62882 31.7419Z" fill="black" stroke="black" stroke-width="0.168727"/>
<path d="M18.0342 29.825C16.8631 30.4591 16.7654 30.8454 16.7654 30.8454C16.7654 30.8454 16.5731 31.9143 17.7232 31.1675C18.8733 30.4208 18.5116 29.5123 18.0342 29.825Z" fill="black" stroke="black" stroke-width="0.11706"/>
<path d="M13.0907 26.3764C11.7713 26.1957 11.464 26.4495 11.464 26.4495C11.464 26.4495 10.6772 27.198 12.0462 27.2755C13.4153 27.353 13.6606 26.4064 13.0907 26.3764V26.3764Z" fill="black" stroke="black" stroke-width="0.11706"/>
<path d="M44.78 26.2699C43.3865 24.7352 42.7444 24.6102 42.7444 24.6102C42.7444 24.6102 40.9941 24.3671 42.5581 25.8731C44.1221 27.379 45.4334 26.8951 44.7799 26.2699L44.78 26.2699Z" fill="black" stroke="black" stroke-width="0.168727"/>
<path d="M49.7029 20.816C50.299 22.0069 50.682 22.117 50.682 22.117C50.682 22.117 51.7441 22.3435 51.0347 21.17C50.3253 19.9965 49.4057 20.3287 49.7029 20.816Z" fill="black" stroke="black" stroke-width="0.11706"/>
<path d="M64.8138 64.2763C66.1308 64.4743 66.4413 64.2245 66.4413 64.2245C66.4413 64.2245 67.2378 63.4863 65.87 63.391C64.502 63.2956 64.2443 64.2389 64.8138 64.2763V64.2763Z" fill="black" stroke="black" stroke-width="0.11706"/>
<path d="M67.8554 51.3604C68.1119 50.0535 67.8762 49.7322 67.8762 49.7322C67.8762 49.7322 67.1742 48.9035 67.018 50.2658C66.8618 51.6281 67.7926 51.9275 67.8554 51.3603L67.8554 51.3604Z" fill="black" stroke="black" stroke-width="0.11706"/>
<path d="M124.251 38.7239C123.869 39.9996 124.072 40.3424 124.072 40.3424C124.072 40.3424 124.69 41.2354 124.978 39.8948C125.266 38.5541 124.369 38.1655 124.251 38.7239H124.251Z" fill="black" stroke="black" stroke-width="0.11706"/>
<path d="M125.313 38.7647C126.389 39.5498 126.779 39.4721 126.779 39.4721C126.779 39.4721 127.827 39.1864 126.659 38.4687C125.49 37.7511 124.825 38.4679 125.313 38.7647H125.313Z" fill="black" stroke="black" stroke-width="0.11706"/>
<path d="M97.7632 45.113C97.1927 43.9096 96.8121 43.7913 96.8121 43.7913C96.8121 43.7913 95.7551 43.5422 96.4392 44.7306C97.1233 45.919 98.0498 45.6065 97.7632 45.113V45.113Z" fill="black" stroke="black" stroke-width="0.11706"/>
<path d="M96.9475 45.7938C95.6229 45.9314 95.3847 46.2509 95.3847 46.2509C95.3847 46.2509 94.798 47.1648 96.1463 46.9151C97.4947 46.6654 97.5083 45.6876 96.9475 45.7938V45.7938Z" fill="black" stroke="black" stroke-width="0.11706"/>
<path d="M93.3801 45.9246C94.2069 46.9687 94.6043 46.9983 94.6043 46.9983C94.6043 46.9983 95.6903 47.0031 94.7562 45.9992C93.8221 44.9953 92.9897 45.5083 93.3801 45.9246Z" fill="black" stroke="black" stroke-width="0.11706"/>
<path d="M94.0215 45.0777C95.2811 44.6454 95.4413 44.2805 95.4413 44.2805C95.4413 44.2805 95.8071 43.258 94.5497 43.8048C93.2922 44.3517 93.499 45.3074 94.0215 45.0777Z" fill="black" stroke="black" stroke-width="0.11706"/>
<path d="M109.281 40.6422C110.532 40.1843 110.684 39.8161 110.684 39.8161C110.684 39.8161 111.029 38.7863 109.783 39.3588C108.537 39.9313 108.764 40.8825 109.281 40.6422Z" fill="black" stroke="black" stroke-width="0.11706"/>
<path d="M108.678 39.7679C108.662 38.4362 108.366 38.1698 108.366 38.1698C108.366 38.1698 107.509 37.5019 107.635 38.8674C107.76 40.2329 108.732 40.3359 108.678 39.7679L108.678 39.7679Z" fill="black" stroke="black" stroke-width="0.11706"/>
<path d="M108.874 36.2035C107.759 36.9312 107.693 37.3243 107.693 37.3243C107.693 37.3243 107.589 38.4053 108.674 37.567C109.759 36.7287 109.324 35.8528 108.874 36.2035L108.874 36.2035Z" fill="black" stroke="black" stroke-width="0.11706"/>
<path d="M109.659 36.9196C109.974 38.2135 110.323 38.4064 110.323 38.4064C110.323 38.4064 111.307 38.8643 110.878 37.5621C110.448 36.2598 109.478 36.3784 109.659 36.9196Z" fill="black" stroke="black" stroke-width="0.11706"/>
<path d="M93.6317 36.4232C94.6772 35.5982 94.7075 35.2009 94.7075 35.2009C94.7075 35.2009 94.7142 34.1149 93.7087 35.0473C92.7032 35.9797 93.2148 36.8129 93.6317 36.4233V36.4232Z" fill="black" stroke="black" stroke-width="0.11706"/>
<path d="M92.7861 35.7805C92.356 34.5201 91.9913 34.3593 91.9913 34.3593C91.9913 34.3593 90.9694 33.9917 91.5141 35.2501C92.0581 36.5088 93.0149 36.3033 92.7861 35.7805Z" fill="black" stroke="black" stroke-width="0.11706"/>
<path d="M91.8614 32.3325C91.0285 33.3717 91.0885 33.7657 91.0885 33.7657C91.0885 33.7657 91.3265 34.8253 92.0962 33.6905C92.866 32.5557 92.1799 31.859 91.8615 32.3325L91.8614 32.3325Z" fill="black" stroke="black" stroke-width="0.11706"/>
<path d="M92.83 32.7684C93.5329 33.8996 93.9244 33.9741 93.9244 33.9741C93.9244 33.9741 95.0028 34.1023 94.1888 32.9988C93.3747 31.8953 92.4894 32.3105 92.83 32.7684V32.7684Z" fill="black" stroke="black" stroke-width="0.11706"/>
<path d="M103.573 28.72C104.412 28.7562 104.564 28.5801 104.564 28.5801C104.564 28.5801 104.88 27.7318 104.026 27.7628C103.172 27.7939 103.218 28.7343 103.573 28.72L103.573 28.72Z" fill="black" stroke="black" stroke-width="0.0733053"/>
<path d="M105.072 30.183C105.068 30.2233 104.284 30.181 103.979 30.2C102.803 30.2738 102.467 30.5127 102.467 30.5127C102.467 30.5127 101.084 31.6127 103.253 31.5184C105.422 31.4241 105.976 30.1407 105.072 30.1829L105.072 30.183Z" fill="black" stroke="black" stroke-width="0.168727"/>
<path d="M101.216 27.9341C100.793 29.9634 101.069 30.5565 101.069 30.5565C101.069 30.5565 101.901 32.1156 102.201 29.9651C102.5 27.8147 101.338 27.0381 101.216 27.9341H101.216Z" fill="black" stroke="black" stroke-width="0.168727"/>
<path d="M102.541 27.0108C102.539 26.9703 103.316 26.866 103.612 26.7904C104.754 26.4988 105.04 26.2015 105.04 26.2015C105.04 26.2015 106.194 24.8632 104.08 25.3599C101.967 25.8565 101.662 27.2205 102.541 27.0108L102.541 27.0108Z" fill="black" stroke="black" stroke-width="0.168727"/>
<path d="M106.749 28.5022C106.786 26.4296 106.405 25.8984 106.405 25.8984C106.405 25.8984 105.297 24.5215 105.403 26.6901C105.51 28.8587 106.796 29.4053 106.749 28.5022L106.749 28.5022Z" fill="black" stroke="black" stroke-width="0.168727"/>
<path d="M94.4338 40.5604C95.0204 39.9603 94.9909 39.7294 94.9909 39.7294C94.9909 39.7294 94.5699 38.928 94.0231 39.5845C93.4763 40.2411 94.2075 40.8344 94.4338 40.5604L94.4338 40.5604Z" fill="black" stroke="black" stroke-width="0.0733053"/>
<path d="M98.3622 30.5556C98.9487 29.9556 98.9192 29.7247 98.9192 29.7247C98.9192 29.7247 98.4983 28.9233 97.9515 29.5798C97.4047 30.2364 98.1358 30.8296 98.3622 30.5557L98.3622 30.5556Z" fill="black" stroke="black" stroke-width="0.0733053"/>
<path d="M92.0599 28.6404C92.6465 28.0403 92.617 27.8094 92.617 27.8094C92.617 27.8094 92.196 27.008 91.6492 27.6645C91.1024 28.3211 91.8336 28.9144 92.0599 28.6404V28.6404Z" fill="black" stroke="black" stroke-width="0.0733053"/>
<path d="M93.228 34.9272C93.8145 34.3271 93.7851 34.0962 93.7851 34.0962C93.7851 34.0962 93.3641 33.2948 92.8173 33.9513C92.2705 34.6079 93.0017 35.2012 93.228 34.9272L93.228 34.9272Z" fill="black" stroke="black" stroke-width="0.0733053"/>
<path d="M81.3509 26.6649C80.1748 27.5062 80.1907 27.8653 80.1907 27.8653C80.1907 27.8653 80.831 29.1558 81.9435 28.2221C83.056 27.2884 81.8118 26.275 81.3509 26.6649L81.3509 26.6649Z" fill="black" stroke="black" stroke-width="0.12366"/>
<path d="M68.3635 28.7191C66.5699 27.3034 66.1435 27.2914 66.1435 27.2914C66.1435 27.2914 65.0484 27.3661 66.9127 28.7169C68.777 30.0677 69.1396 29.279 68.3635 28.7191L68.3635 28.7191Z" fill="black" stroke="black" stroke-width="0.142927"/>
<path d="M47.1172 27.9469C48.2933 27.3221 48.3942 26.9366 48.3942 26.9366C48.3942 26.9366 48.5949 25.8693 47.4389 26.6068C46.2829 27.3444 46.6373 28.2557 47.1172 27.9469V27.9469Z" fill="black" stroke="black" stroke-width="0.11706"/>
<path d="M80.8242 27.7581C80.8234 27.7987 80.0394 27.8328 79.7377 27.8815C78.5744 28.0695 78.263 28.3399 78.263 28.3399C78.263 28.3399 76.9937 29.5694 79.1434 29.2644C81.2931 28.9593 81.7191 27.6281 80.8242 27.7581V27.7581Z" fill="black" stroke="black" stroke-width="0.168727"/>
<path d="M88.0434 31.9819C87.0036 30.977 86.6533 31.0574 86.6533 31.0574C86.6533 31.0574 85.4996 31.9202 86.6187 32.8458C87.7378 33.7716 88.5101 32.3648 88.0434 31.9819L88.0434 31.9819Z" fill="black" stroke="black" stroke-width="0.12366"/>
<path d="M83.2384 46.7265C82.1986 45.7216 81.8482 45.8021 81.8482 45.8021C81.8482 45.8021 80.6945 46.6648 81.8136 47.5905C82.9328 48.5162 83.705 47.1095 83.2383 46.7265L83.2384 46.7265Z" fill="black" stroke="black" stroke-width="0.12366"/>
<path d="M70.9445 39.6843C72.0403 38.7409 71.9923 38.3847 71.9923 38.3847C71.9923 38.3847 71.2388 37.1569 70.2145 38.1865C69.1903 39.2163 70.5204 40.114 70.9445 39.6843L70.9445 39.6843Z" fill="black" stroke="black" stroke-width="0.12366"/>
<path d="M68.6292 38.9618C69.725 38.0183 69.677 37.6621 69.677 37.6621C69.677 37.6621 68.9235 36.4343 67.8992 37.464C66.875 38.4937 68.2051 39.3914 68.6292 38.9617L68.6292 38.9618Z" fill="black" stroke="black" stroke-width="0.12366"/>
<path d="M52.9087 38.438C54.0046 37.4946 53.9565 37.1383 53.9565 37.1383C53.9565 37.1383 53.203 35.9105 52.1788 36.9402C51.1545 37.97 52.4846 38.8677 52.9087 38.438L52.9087 38.438Z" fill="black" stroke="black" stroke-width="0.12366"/>
<path d="M55.4326 32.0034C56.5285 31.0599 56.4805 30.7037 56.4805 30.7037C56.4805 30.7037 55.7269 29.4758 54.7027 30.5055C53.6784 31.5353 55.0086 32.433 55.4326 32.0033L55.4326 32.0034Z" fill="black" stroke="black" stroke-width="0.12366"/>
<path d="M88.1753 48.5907C87.5241 48.0615 87.2968 48.112 87.2968 48.112C87.2968 48.112 86.5373 48.6045 87.2411 49.089C87.945 49.5734 88.4689 48.791 88.1753 48.5907H88.1753Z" fill="black" stroke="black" stroke-width="0.0733053"/>
<path d="M84.1295 43.8315C84.716 43.2314 84.6866 43.0005 84.6866 43.0005C84.6866 43.0005 84.2656 42.1991 83.7188 42.8556C83.172 43.5122 83.9032 44.1055 84.1295 43.8315V43.8315Z" fill="black" stroke="black" stroke-width="0.0733053"/>
<path d="M79.8663 37.2271C80.4529 36.627 80.4234 36.3961 80.4234 36.3961C80.4234 36.3961 80.0024 35.5947 79.4556 36.2512C78.9088 36.9078 79.64 37.5011 79.8663 37.2271V37.2271Z" fill="black" stroke="black" stroke-width="0.0733053"/>
<path d="M73.564 35.3118C74.1505 34.7117 74.121 34.4808 74.121 34.4808C74.121 34.4808 73.7001 33.6794 73.1533 34.336C72.6065 34.9925 73.3376 35.5858 73.564 35.3118L73.564 35.3118Z" fill="black" stroke="black" stroke-width="0.0733053"/>
<path d="M74.7323 41.5986C75.3188 40.9985 75.2894 40.7676 75.2894 40.7676C75.2894 40.7676 74.8684 39.9662 74.3216 40.6228C73.7748 41.2793 74.5059 41.8726 74.7323 41.5986V41.5986Z" fill="black" stroke="black" stroke-width="0.0733053"/>
<path d="M77.9428 42.7837C78.5293 42.1836 78.4998 41.9527 78.4998 41.9527C78.4998 41.9527 78.0789 41.1513 77.5321 41.8078C76.9852 42.4644 77.7164 43.0577 77.9427 42.7837L77.9428 42.7837Z" fill="black" stroke="black" stroke-width="0.0733053"/>
<path d="M81.8711 32.7789C82.4576 32.1789 82.4282 31.948 82.4282 31.948C82.4282 31.948 82.0072 31.1465 81.4604 31.8031C80.9136 32.4596 81.6447 33.0529 81.8711 32.7789V32.7789Z" fill="black" stroke="black" stroke-width="0.0733053"/>
<path d="M75.5687 30.8637C76.1552 30.2636 76.1258 30.0327 76.1258 30.0327C76.1258 30.0327 75.7048 29.2313 75.158 29.8878C74.6112 30.5444 75.3424 31.1377 75.5687 30.8637V30.8637Z" fill="black" stroke="black" stroke-width="0.0733053"/>
<path d="M76.7369 37.1505C77.3235 36.5504 77.294 36.3195 77.294 36.3195C77.294 36.3195 76.8731 35.5181 76.3262 36.1746C75.7794 36.8312 76.5106 37.4245 76.7369 37.1505V37.1505Z" fill="black" stroke="black" stroke-width="0.0733053"/>
<path d="M86.5054 39.6047C85.8541 39.0756 85.6269 39.1261 85.6269 39.1261C85.6269 39.1261 84.8674 39.6186 85.5712 40.103C86.275 40.5875 86.7989 39.8051 86.5054 39.6048L86.5054 39.6047Z" fill="black" stroke="black" stroke-width="0.0733053"/>
<path d="M85.2333 38.2619C85.769 37.6161 85.7209 37.3883 85.7209 37.3883C85.7209 37.3883 85.2361 36.6238 84.7445 37.3227C84.253 38.0215 85.03 38.5534 85.2333 38.2619L85.2333 38.2619Z" fill="black" stroke="black" stroke-width="0.0733053"/>
<path d="M87.305 37.9526C87.3342 37.9808 86.8267 38.5793 86.6575 38.8338C86.0052 39.8151 85.9921 40.2274 85.9921 40.2274C85.9921 40.2274 86.0319 41.994 87.2685 40.2093C88.505 38.4246 87.8176 37.2076 87.305 37.9526L87.305 37.9526Z" fill="black" stroke="black" stroke-width="0.168727"/>
<path d="M83.0441 39.7679C84.4046 41.3319 85.0439 41.4706 85.0439 41.4706C85.0439 41.4706 86.7886 41.7508 85.257 40.2119C83.7254 38.673 82.4041 39.129 83.0441 39.7679L83.0441 39.7679Z" fill="black" stroke="black" stroke-width="0.168727"/>
<path d="M83.248 38.0504C83.214 38.0282 83.6012 37.3456 83.7201 37.064C84.1782 35.9784 84.1143 35.5709 84.1143 35.5709C84.1143 35.5709 83.7461 33.8426 82.8636 35.8264C81.9811 37.8101 82.883 38.8778 83.248 38.0504L83.248 38.0504Z" fill="black" stroke="black" stroke-width="0.168727"/>
<path d="M87.5982 36.3739C85.9702 35.0907 85.3162 35.0735 85.3162 35.0735C85.3162 35.0735 83.5499 35.1231 85.3414 36.3498C87.1328 37.5765 88.3461 36.8824 87.5982 36.3739L87.5982 36.3739Z" fill="black" stroke="black" stroke-width="0.168727"/>
<path d="M68.173 32.3688C69.8049 32.1558 69.9575 31.7945 69.9575 31.7945C69.9575 31.7945 70.2726 30.7654 68.6641 31.1024C67.0555 31.4393 67.5052 32.5114 68.173 32.3688H68.173Z" fill="black" stroke="black" stroke-width="0.139827"/>
<path d="M66.9427 30.4487C67.3595 32.0407 67.7371 32.1466 67.7371 32.1466C67.7371 32.1466 68.7977 32.3298 68.2608 30.7764C67.724 29.223 66.7171 29.8041 66.9427 30.4487H66.9427Z" fill="black" stroke="black" stroke-width="0.139827"/>
<path d="M68.1833 28.7923C70.0967 30.0414 70.5225 30.0152 70.5225 30.0152C70.5225 30.0152 71.6065 29.8424 69.6285 28.6644C67.6506 27.4863 67.3602 28.3043 68.1833 28.7923H68.1833Z" fill="black" stroke="black" stroke-width="0.142927"/>
<path d="M53.0931 45.5658C53.3712 47.1878 53.7383 47.3258 53.7383 47.3258C53.7383 47.3258 54.7792 47.5996 54.3781 46.0058C53.9771 44.412 52.9238 44.9042 53.0931 45.5658H53.0931Z" fill="black" stroke="black" stroke-width="0.139827"/>
<path d="M54.9623 44.2596C53.3882 44.7397 53.2976 45.1213 53.2976 45.1213C53.2976 45.1213 53.1571 46.1883 54.6877 45.5898C56.2183 44.9912 55.5973 44.0084 54.9623 44.2596H54.9623Z" fill="black" stroke="black" stroke-width="0.139827"/>
<path d="M56.6671 45.433C55.4956 47.3948 55.5389 47.8192 55.5389 47.8192C55.5389 47.8192 55.7549 48.8954 56.8528 46.8719C57.9508 44.8483 57.1218 44.5909 56.6671 45.433H56.6671Z" fill="black" stroke="black" stroke-width="0.142927"/>
<path d="M72.9374 49.184C74.208 50.2299 74.576 50.0944 74.576 50.0944C74.576 50.0944 75.5427 49.6213 74.1975 48.6771C72.8523 47.7329 72.3769 48.7939 72.9374 49.184H72.9374Z" fill="black" stroke="black" stroke-width="0.139827"/>
<path d="M73.4983 46.9736C72.6208 48.3657 72.8015 48.7138 72.8015 48.7138C72.8015 48.7138 73.3926 49.6132 74.1598 48.1598C74.9271 46.7064 73.8147 46.3684 73.4983 46.9736V46.9736Z" fill="black" stroke="black" stroke-width="0.139827"/>
<path d="M75.169 48.2158C75.5646 50.4663 75.8747 50.7593 75.8747 50.7593C75.8747 50.7593 76.7415 51.4326 76.25 49.1835C75.7585 46.9344 74.9628 47.2814 75.1691 48.2158L75.169 48.2158Z" fill="black" stroke="black" stroke-width="0.142927"/>
<path d="M89.9108 42.4856C88.6984 41.9345 88.3314 42.0897 88.3314 42.0897C88.3314 42.0897 87.363 42.5815 88.6525 43.0478C89.942 43.5142 90.4482 42.6776 89.9108 42.4856V42.4856Z" fill="black" stroke="black" stroke-width="0.11706"/>
<path d="M89.7271 43.5319C88.804 44.4918 88.8282 44.8896 88.8282 44.8896C88.8282 44.8896 88.9698 45.9664 89.8386 44.9055C90.7075 43.8447 90.0869 43.089 89.7271 43.5319L89.7271 43.5319Z" fill="black" stroke="black" stroke-width="0.11706"/>
<path d="M87.0296 45.8778C87.7129 44.7347 87.5998 44.3526 87.5998 44.3526C87.5998 44.3526 87.2193 43.3354 86.6117 44.5646C86.004 45.7938 86.7787 46.3904 87.0296 45.8778Z" fill="black" stroke="black" stroke-width="0.11706"/>
<path d="M80.7441 45.7086C81.4039 44.5517 81.2829 44.172 81.2829 44.172C81.2829 44.172 80.8818 43.1628 80.2994 44.4042C79.717 45.6456 80.5037 46.2262 80.7441 45.7086V45.7086Z" fill="black" stroke="black" stroke-width="0.11706"/>
<path d="M79.7192 45.4299C78.8478 44.4228 78.4494 44.4105 78.4494 44.4105C78.4494 44.4105 77.3642 44.453 78.3411 45.4152C79.318 46.3775 80.1273 45.8288 79.7191 45.4299L79.7192 45.4299Z" fill="black" stroke="black" stroke-width="0.11706"/>
<path d="M77.569 42.5804C77.1866 43.8561 77.3899 44.1988 77.3899 44.1988C77.3899 44.1988 78.008 45.0919 78.296 43.7512C78.584 42.4106 77.6867 42.022 77.569 42.5804H77.569Z" fill="black" stroke="black" stroke-width="0.11706"/>
<path d="M78.6303 42.6212C79.7061 43.4062 80.097 43.3285 80.097 43.3285C80.097 43.3285 81.1448 43.0428 79.9764 42.3252C78.8079 41.6076 78.143 42.3244 78.6304 42.6212H78.6303Z" fill="black" stroke="black" stroke-width="0.11706"/>
<path d="M50.3079 46.9602C49.7373 45.7568 49.3568 45.6385 49.3568 45.6385C49.3568 45.6385 48.2997 45.3894 48.9839 46.5777C49.668 47.7662 50.5945 47.4537 50.3079 46.9602Z" fill="black" stroke="black" stroke-width="0.11706"/>
<path d="M49.4926 47.641C48.1679 47.7786 47.9298 48.0981 47.9298 48.0981C47.9298 48.0981 47.3431 49.012 48.6914 48.7623C50.0397 48.5126 50.0533 47.5348 49.4926 47.641V47.641Z" fill="black" stroke="black" stroke-width="0.11706"/>
<path d="M45.925 47.7718C46.7518 48.8159 47.1492 48.8455 47.1492 48.8455C47.1492 48.8455 48.2352 48.8503 47.3012 47.8464C46.3671 46.8425 45.5347 47.3556 45.925 47.7718V47.7718Z" fill="black" stroke="black" stroke-width="0.11706"/>
<path d="M46.5664 46.925C47.826 46.4926 47.9862 46.1277 47.9862 46.1277C47.9862 46.1277 48.352 45.1052 47.0946 45.6521C45.8371 46.1989 46.044 47.1546 46.5664 46.925Z" fill="black" stroke="black" stroke-width="0.11706"/>
<path d="M62.5987 44.4987C63.8492 44.0407 64.0019 43.6726 64.0019 43.6726C64.0019 43.6726 64.3467 42.6428 63.1007 43.2153C61.8547 43.7878 62.081 44.739 62.5987 44.4987H62.5987Z" fill="black" stroke="black" stroke-width="0.11706"/>
<path d="M61.9955 43.6243C61.9797 42.2926 61.6833 42.0262 61.6833 42.0262C61.6833 42.0262 60.8269 41.3584 60.9522 42.7238C61.0775 44.0894 62.0499 44.1924 61.9955 43.6243V43.6243Z" fill="black" stroke="black" stroke-width="0.11706"/>
<path d="M62.1917 40.0599C61.0764 40.7877 61.0105 41.1807 61.0105 41.1807C61.0105 41.1807 60.9063 42.2617 61.9915 41.4235C63.0766 40.5852 62.642 39.7093 62.1917 40.0599H62.1917Z" fill="black" stroke="black" stroke-width="0.11706"/>
<path d="M62.9763 40.7761C63.2915 42.07 63.6402 42.2629 63.6402 42.2629C63.6402 42.2629 64.625 42.7208 64.1955 41.4186C63.766 40.1163 62.7954 40.2348 62.9763 40.7761Z" fill="black" stroke="black" stroke-width="0.11706"/>
<path d="M46.9495 40.2797C47.995 39.4547 48.0252 39.0573 48.0252 39.0573C48.0252 39.0573 48.032 37.9713 47.0264 38.9038C46.021 39.8361 46.5325 40.6694 46.9495 40.2797V40.2797Z" fill="black" stroke="black" stroke-width="0.11706"/>
<path d="M46.1478 36.6248C46.8506 37.756 47.2421 37.8306 47.2421 37.8306C47.2421 37.8306 48.3206 37.9587 47.5065 36.8553C46.6925 35.7518 45.8072 36.1669 46.1478 36.6249V36.6248Z" fill="black" stroke="black" stroke-width="0.11706"/>
<path d="M56.8912 32.5765C57.7295 32.6126 57.8817 32.4366 57.8817 32.4366C57.8817 32.4366 58.1975 31.5882 57.3437 31.6193C56.4898 31.6504 56.5361 32.5908 56.8912 32.5765L56.8912 32.5765Z" fill="black" stroke="black" stroke-width="0.0733053"/>
<path d="M58.3902 34.0394C58.3854 34.0797 57.6018 34.0375 57.2968 34.0565C56.1208 34.1303 55.7845 34.3691 55.7845 34.3691C55.7845 34.3691 54.4016 35.4691 56.5707 35.3748C58.7399 35.2806 59.2935 33.9972 58.3902 34.0394V34.0394Z" fill="black" stroke="black" stroke-width="0.168727"/>
<path d="M54.5341 31.7905C54.1111 33.8199 54.3872 34.4129 54.3872 34.4129C54.3872 34.4129 55.219 35.972 55.5185 33.8215C55.8181 31.6711 54.656 30.8945 54.5341 31.7905H54.5341Z" fill="black" stroke="black" stroke-width="0.168727"/>
<path d="M55.8591 30.8673C55.8563 30.8268 56.6341 30.7225 56.9302 30.6469C58.0719 30.3553 58.3578 30.058 58.3578 30.058C58.3578 30.058 59.5117 28.7197 57.398 29.2163C55.2844 29.7129 54.9795 31.077 55.8591 30.8673L55.8591 30.8673Z" fill="black" stroke="black" stroke-width="0.168727"/>
<path d="M60.0665 32.3587C60.1042 30.2861 59.7224 29.7548 59.7224 29.7548C59.7224 29.7548 58.6148 28.378 58.721 30.5465C58.8273 32.7152 60.1137 33.2617 60.0665 32.3587L60.0665 32.3587Z" fill="black" stroke="black" stroke-width="0.168727"/>
<path d="M47.7515 44.4168C48.338 43.8168 48.3085 43.5859 48.3085 43.5859C48.3085 43.5859 47.8876 42.7844 47.3408 43.441C46.794 44.0975 47.5251 44.6908 47.7515 44.4169L47.7515 44.4168Z" fill="black" stroke="black" stroke-width="0.0733053"/>
<path d="M51.6798 34.4121C52.2663 33.8121 52.2369 33.5811 52.2369 33.5811C52.2369 33.5811 51.8159 32.7797 51.2691 33.4363C50.7223 34.0928 51.4535 34.6861 51.6798 34.4121L51.6798 34.4121Z" fill="black" stroke="black" stroke-width="0.0733053"/>
<path d="M46.5458 38.7836C47.1323 38.1836 47.1028 37.9527 47.1028 37.9527C47.1028 37.9527 46.6819 37.1513 46.1351 37.8078C45.5883 38.4643 46.3195 39.0576 46.5458 38.7837L46.5458 38.7836Z" fill="black" stroke="black" stroke-width="0.0733053"/>
</svg>
