<svg width="144" height="64" viewBox="0 0 144 64" fill="none" xmlns="http://www.w3.org/2000/svg">
<path d="M100.489 34.9128L138.797 52.9679L143.78 50.6405L142.865 45.104L98.9347 27.6132L100.489 34.9128Z" fill="#34251A" stroke="black" stroke-width="0.264583"/>
<path d="M23.4615 23.84L21.5415 29.4822L27.8957 44.5927L38.1356 27.19L23.4615 23.84Z" fill="#201710" stroke="black" stroke-width="0.264583"/>
<path d="M31.0042 28.7064L25.3357 35.8473L30.0442 57.4992L35.0727 63.018L40.6041 61.8896V53.6731L35.8041 30.8751L31.0042 28.7064Z" fill="#34251A" stroke="black" stroke-width="0.264583"/>
<path d="M56.6039 8.34155L101.632 27.719L103.78 36.676L95.0948 45.8269L67.3466 52.4565L47.644 38.6331L56.6039 8.34155Z" fill="#34251A" stroke="black" stroke-width="0.264583"/>
<path d="M27.5758 2.62883C28.2615 2.84041 56.604 8.04182 56.604 8.04182L62.0439 15.8351L52.2612 42.5827L37.0385 37.2755L25.8844 24.8274L27.5758 2.62883Z" fill="#34251A" stroke="black" stroke-width="0.264583"/>
<path d="M1.0618 8.00657L0.284668 11.6564L3.02749 17.1751L10.5245 20.772L13.5416 20.631L15.6444 19.8728L18.1587 7.61866L16.6502 5.69679L13.1759 1.5533L8.01027 4.8152L1.0618 8.00657Z" fill="#34251A" stroke="black" stroke-width="0.264583"/>
<path d="M13.176 1.07722L26.6615 3.08726L28.1701 4.53307L28.6272 7.67155L27.1644 24.0868L28.353 28.3008L26.0216 27.4722L15.2789 21.1952L13.176 1.07722Z" fill="#34251A" stroke="black" stroke-width="0.264583"/>
</svg>
