<svg width="140" height="76" viewBox="0 0 140 76" fill="none" xmlns="http://www.w3.org/2000/svg">
<path d="M95.5704 19.6481L131.873 31.9736L137.352 35.8932L138.913 39.1989L117.456 30.9819L113.477 31.4423L99.7639 26.3775L95.5704 19.6481Z" fill="#34251A" stroke="black" stroke-width="0.264583"/>
<path d="M15.4663 25.3032C15.4663 25.3032 18.0681 30.0728 18.5272 30.12C18.9864 30.1673 33.6787 38.7738 33.6787 38.7738L44.7899 39.6947L50.0852 29.7895L23.8226 20.262L15.4663 25.3032Z" fill="#201710" stroke="black" stroke-width="0.264583"/>
<path d="M20.9761 25.5865L16.9969 34.9959L16.8132 50.4028L18.007 58.0649L24.2819 62.4803L29.6385 58.5843L30.3425 48.2659L28.6896 31.8201L27.7407 23.9809L20.9761 25.5865Z" fill="#201710" stroke="black" stroke-width="0.264583"/>
<path d="M44.3264 29.3909L40.5309 40.0872L51.9175 69.0356L56.5089 75.3754L60.9166 71.1961L56.9986 56.7691L51.7338 42.0942L44.3264 29.3909Z" fill="#34251A" stroke="black" stroke-width="0.264583"/>
<path d="M67.8387 6.7677C68.9406 7.41703 95.8766 19.3647 95.8766 19.3647L102.611 24.217L104.417 28.0422L98.7539 40.5211L83.082 53.1536L78.6743 54.6412L64.8083 44.2873L67.8387 6.7677Z" fill="#34251A" stroke="black" stroke-width="0.264583"/>
<path d="M31.2913 0.829254L51.3709 2.11611L67.9304 6.35448L70.5322 12.411L71.0831 21.5488L67.1345 46.188L50.7893 41.9142L45.6775 34.0514L44.0859 33.1896L37.5967 28.7859L31.2913 0.829254Z" fill="#34251A" stroke="black" stroke-width="0.264583"/>
<path d="M12.7115 1.21886L31.3525 0.60495L39.5558 6.69686L41.7596 20.569L41.3311 27.3456L43.6574 32.8236L40.2904 33.3903L22.384 24.0399L12.7115 1.21886Z" fill="#34251A" stroke="black" stroke-width="0.264583"/>
<path d="M1.35553 23.367L1.04944 17.4876L11.9463 1.12442L27.3121 4.77248L30.1893 8.25526L29.4241 27.5817L27.1896 26.6018L25.0776 28.1366L16.3234 25.5747L4.78375 21.5607L1.35553 23.367Z" fill="#34251A" stroke="black" stroke-width="0.264583"/>
<path d="M2.51874 22.694L2.21265 17.6411L6.31427 15.7049L8.39569 18.6564L14.64 24.7129L5.12051 21.6315L2.51874 22.694Z" fill="#201710" stroke="black" stroke-width="0.264583"/>
</svg>
