<svg width="124" height="135" viewBox="0 0 124 135" fill="none" xmlns="http://www.w3.org/2000/svg">
<path d="M50.7997 100.426L44.6883 114.454L46.4939 118.482L56.6333 101.815L50.7997 100.426Z" fill="#E0E1DD" stroke="black" stroke-width="0.264583"/>
<path d="M44.6882 114.732L39.0629 116.26L46.2161 117.927L44.6882 114.732Z" fill="#3C3436" stroke="black" stroke-width="0.264583"/>
<path d="M53.4387 100.981L43.1604 119.315L44.5493 124.732L61.8419 102.648L53.4387 100.981Z" fill="#EFF0EB" stroke="black" stroke-width="0.264583"/>
<path d="M43.2993 119.038L35.7989 123.274L44.5494 124.941L43.2993 119.038Z" fill="#483E40" stroke="black" stroke-width="0.264583"/>
<path d="M62.7448 80.2855L94.552 127.094L59.9669 101.676L62.7448 80.2855Z" fill="#EFF0EB" stroke="black" stroke-width="0.264583"/>
<path d="M73.787 96.6058L116.359 120.01L96.2188 128.483L94.2048 126.885L73.787 96.6058Z" fill="#101010" stroke="black" stroke-width="0.264583"/>
<path d="M96.4966 128.76L116.567 120.149L104.622 134.386L96.4966 128.76Z" fill="#101010" stroke="black" stroke-width="0.264583"/>
<path d="M90.524 31.8108L66.3561 90.9806L43.6465 46.3255L83.1868 9.54547L90.524 31.8108Z" fill="#E0E1DD" stroke="black" stroke-width="0.264583"/>
<path d="M83.6487 9.37904L112.053 0.628571L66.0088 34.1026L83.6487 9.37904Z" fill="#060606" stroke="black" stroke-width="0.264583"/>
<path d="M66.7728 33.8943C81.4958 22.227 111.775 0.97583 111.775 0.97583L90.5241 31.3941L66.7728 33.8943Z" fill="#060606" stroke="black" stroke-width="0.264583"/>
<path d="M18.298 43.0615L20.7287 66.8822L29.1319 42.7142L18.298 43.0615Z" fill="#E0E1DD" stroke="black" stroke-width="0.264583"/>
<path d="M29.1319 42.6447L20.6592 66.5349L21.9092 78.8966C21.9092 78.8966 68.7867 94.453 68.0923 93.3419C67.3978 92.2307 43.7854 42.0891 43.7854 42.0891L29.1319 42.6447Z" fill="#EFF0EB" stroke="black" stroke-width="0.264583"/>
<path d="M21.9092 78.8966L48.7162 100.009L62.0503 102.648L63.9948 92.3695L21.9092 78.8966Z" fill="#EFF0EB" stroke="black" stroke-width="0.264583"/>
<path d="M33.4158 42.3508L51.5925 58.3549L43.8385 42.0155L33.4158 42.3508Z" fill="#B50A10" stroke="black" stroke-width="0.264583"/>
<path d="M54.2026 87.5082L61.9114 80.0773L67.9534 93.203L54.2026 87.5082Z" fill="#EFF0EB" stroke="black" stroke-width="0.264583"/>
<path d="M44.6883 49.7284C44.6883 49.7284 53.9943 88.4805 54.1332 87.3694C54.2721 86.2582 123.72 24.3104 123.72 24.3104L44.6883 49.7284Z" fill="#101010" stroke="black" stroke-width="0.264583"/>
<path d="M44.8272 49.7285L87.4683 18.7546L123.373 24.3799L44.8272 49.7285Z" fill="#EFF0EB" stroke="black" stroke-width="0.264583"/>
<path d="M19.7564 20.5602L0.797028 28.1995L8.01964 31.1163L19.7564 20.5602Z" fill="#B50A10" stroke="black" stroke-width="0.264583"/>
<path d="M9.1308 37.7833L2.46378 42.9225H9.82528L9.1308 37.7833Z" fill="#483E40" stroke="black" stroke-width="0.264583"/>
<path d="M8.29742 31.2552L9.96418 43.4781L43.8549 42.0197L36.6323 26.3938L19.6869 20.9074L8.29742 31.2552Z" fill="#EFF0EB" stroke="black" stroke-width="0.264583"/>
<path d="M7.8681 31.1782L43.6539 42.0751L36.7571 26.2318L7.8681 31.1782Z" fill="#B50A10" stroke="black" stroke-width="0.264583"/>
<path d="M8.34235 31.0512L19.7134 20.5135L36.7909 26.2893L8.34235 31.0512Z" fill="#B50A10" stroke="black" stroke-width="0.264583"/>
</svg>
