<svg width="335" height="437" viewBox="0 0 335 437" fill="none" xmlns="http://www.w3.org/2000/svg">
<g clip-path="url(#clip0_215_180)">
<g filter="url(#filter0_d_215_180)">
<path d="M128.523 97.3447C128.523 97.3447 114.513 131.367 93.8328 125.363C73.1522 119.359 50.8039 88.3387 55.8072 69.3262C60.8106 50.3136 77.4885 22.6288 85.4939 30.3005C93.4993 37.9722 93.4993 37.3051 93.4993 37.3051C93.4993 37.3051 93.1657 12.6222 105.507 11.9551C117.849 11.288 127.522 2.28205 139.864 19.9603C152.205 37.6386 141.532 24.9636 141.532 24.9636C141.532 24.9636 145.201 11.6216 153.873 7.95247C162.546 4.28336 176.222 -5.38969 183.56 3.94981C190.898 13.2893 194.901 34.3031 200.905 34.9702C206.909 35.6373 236.262 43.6426 229.924 63.6558C223.587 83.669 210.912 100.013 205.575 100.347C200.238 100.68 176.555 103.682 169.55 95.3433C162.546 87.0045 144.867 90.6737 144.867 98.3453C144.867 106.017 132.526 98.012 129.857 97.6782C127.189 97.3449 128.523 97.3449 128.523 97.3449V97.3447Z" fill="#2D6453"/>
</g>
<g filter="url(#filter1_d_215_180)">
<path d="M125.187 80.3333C125.187 80.3333 113.846 102.014 98.5026 94.3426C83.159 86.6708 78.8227 78.6655 76.4878 67.3248C74.1529 55.984 87.1617 37.305 97.1684 38.6392C107.175 39.9734 109.51 38.3059 109.51 38.3059C109.51 38.3059 106.174 26.9651 115.181 25.2974C124.187 23.6296 127.189 19.9605 139.864 26.6315C152.539 33.3026 143.199 29.9671 143.199 29.9671C143.199 29.9671 150.538 14.2901 161.879 21.9618C173.22 29.6335 177.222 39.9736 177.222 39.9736C177.222 39.9736 196.902 36.9716 198.903 48.9796C200.905 60.9875 199.904 90.3402 194.567 91.6745C189.23 93.0086 162.546 93.0086 162.212 84.6698C161.879 76.331 162.546 86.3375 152.872 88.0053C143.199 89.673 125.187 80.3336 125.187 80.3336V80.3333Z" fill="#1C8754"/>
</g>
<g filter="url(#filter2_d_215_180)">
<path d="M79.8234 175.396C79.8234 175.396 83.159 199.412 51.8046 201.413C20.4502 203.415 -3.56598 196.744 0.436711 174.729C4.4394 152.715 19.1159 150.046 19.1159 150.046C19.1159 150.046 -0.230403 126.697 10.4434 108.018C21.1173 89.3396 41.7979 76.6645 51.1375 82.6684C60.4771 88.6724 81.1577 104.683 85.1604 106.017C89.163 107.351 98.5027 87.3382 110.511 94.0092C122.519 100.68 146.535 114.69 145.201 137.371C143.867 160.053 127.856 176.063 119.183 179.399C110.511 182.734 79.8234 175.396 79.8234 175.396Z" fill="#2A775C"/>
</g>
<g filter="url(#filter3_d_215_180)">
<path d="M29.7897 158.718C27.7884 161.387 24.4528 170.059 31.124 180.066C37.7951 190.072 68.4824 173.395 68.4824 173.395C68.4824 173.395 75.8207 172.728 77.822 165.389C79.8234 158.051 83.8261 164.722 83.8261 164.722C83.8261 164.722 109.176 167.391 116.515 152.047C123.853 136.704 105.841 111.354 105.841 111.354C105.841 111.354 95.8342 101.347 83.8261 110.02C71.818 118.692 69.8167 118.025 69.8167 118.025C69.8167 118.025 57.1415 99.3459 46.4676 106.017C35.7938 112.688 32.4582 138.038 32.4582 138.038C32.4582 138.038 32.4582 152.047 37.7951 153.381C43.132 154.716 36.4609 154.049 36.4609 154.049L29.7897 158.718Z" fill="#2B8A51"/>
</g>
<g filter="url(#filter4_d_215_180)">
<path d="M194.475 128.422C200.145 109.41 210.819 105.074 210.819 105.074C210.819 105.074 228.831 102.405 234.835 107.742C240.839 113.079 251.513 95.4006 251.513 95.4006C251.513 95.4006 260.186 82.0584 269.192 85.0604C278.198 88.0623 297.878 77.3887 308.885 100.07C319.893 122.752 308.218 132.758 308.218 132.758C308.218 132.758 344.576 156.774 332.568 188.795C320.56 220.817 275.863 217.147 275.863 217.147C275.863 217.147 260.853 219.149 247.177 201.804C233.501 184.459 243.841 176.454 243.841 176.454C243.841 176.454 209.819 170.116 202.48 155.106C195.142 140.097 194.475 128.422 194.475 128.422Z" fill="#2D6453"/>
</g>
<g filter="url(#filter5_d_215_180)">
<path d="M249.721 166.39C249.721 166.39 228.374 153.382 229.374 135.703C230.375 118.025 254.057 125.03 254.057 125.03C254.057 125.03 258.394 110.353 269.068 110.687C279.741 111.02 287.08 111.02 287.08 111.02C287.08 111.02 306.76 119.693 304.091 132.034C301.423 144.375 300.422 139.372 300.422 139.372C300.422 139.372 319.435 146.71 318.434 166.723C317.433 186.737 285.745 192.074 285.745 192.074C285.745 192.074 279.074 202.414 264.398 184.402C249.721 166.39 249.721 166.39 249.721 166.39V166.39Z" fill="#2B8A51"/>
</g>
<g filter="url(#filter6_d_215_180)">
<path d="M111.845 425.561C111.845 425.561 133.193 438.236 145.201 436.902C157.209 435.567 168.55 424.894 168.55 424.894L153.206 282.133C153.206 282.133 149.871 256.116 155.875 243.441C161.879 230.766 171.885 205.416 186.562 197.411C201.238 189.405 228.699 168.859 228.699 168.859C228.699 168.859 229.399 169.85 242.075 173.185C254.75 176.521 305.034 176.278 305.034 176.278L305.196 163.131C305.196 163.131 240.869 164.708 242.203 162.04C243.537 159.372 269.859 123.49 269.859 123.49L258.551 116.219L227.836 159.405C227.836 159.405 167.883 193.408 165.214 200.746C162.546 208.084 153.206 220.759 153.206 220.759L147.869 135.37C147.869 135.37 147.202 112.021 152.539 108.685C157.876 105.35 172.552 66.6578 172.552 66.6578L163.213 64.6565L144.534 106.017L137.195 107.351L115.181 65.3235L103.84 64.6565L127.856 112.688C127.856 112.688 137.862 140.039 136.528 148.045C135.194 156.05 136.528 221.426 133.86 222.093C131.191 222.761 98.5027 204.082 97.1684 193.408C95.8342 182.734 81.8248 158.051 81.8248 158.051L107.175 134.035L85.8275 132.701L75.1536 148.712L38.4623 127.364L35.1267 140.039L69.8167 159.385C69.8167 159.385 78.4892 198.745 83.8261 204.082C89.1631 209.418 119.85 224.095 124.52 232.767C129.19 241.44 131.858 304.815 131.858 304.815L111.845 425.561Z" fill="#A28B5A"/>
</g>
</g>
<defs>
<filter id="filter0_d_215_180" x="51.0968" y="0" width="183.718" height="134.073" filterUnits="userSpaceOnUse" color-interpolation-filters="sRGB">
<feFlood flood-opacity="0" result="BackgroundImageFix"/>
<feColorMatrix in="SourceAlpha" type="matrix" values="0 0 0 0 0 0 0 0 0 0 0 0 0 0 0 0 0 0 127 0" result="hardAlpha"/>
<feOffset dy="4"/>
<feGaussianBlur stdDeviation="2"/>
<feComposite in2="hardAlpha" operator="out"/>
<feColorMatrix type="matrix" values="0 0 0 0 0 0 0 0 0 0 0 0 0 0 0 0 0 0 0.25 0"/>
<feBlend mode="normal" in2="BackgroundImageFix" result="effect1_dropShadow_215_180"/>
<feBlend mode="normal" in="SourceGraphic" in2="effect1_dropShadow_215_180" result="shape"/>
</filter>
<filter id="filter1_d_215_180" x="72.2126" y="19.8479" width="131.647" height="84.1379" filterUnits="userSpaceOnUse" color-interpolation-filters="sRGB">
<feFlood flood-opacity="0" result="BackgroundImageFix"/>
<feColorMatrix in="SourceAlpha" type="matrix" values="0 0 0 0 0 0 0 0 0 0 0 0 0 0 0 0 0 0 127 0" result="hardAlpha"/>
<feOffset dy="4"/>
<feGaussianBlur stdDeviation="2"/>
<feComposite in2="hardAlpha" operator="out"/>
<feColorMatrix type="matrix" values="0 0 0 0 0 0 0 0 0 0 0 0 0 0 0 0 0 0 0.25 0"/>
<feBlend mode="normal" in2="BackgroundImageFix" result="effect1_dropShadow_215_180"/>
<feBlend mode="normal" in="SourceGraphic" in2="effect1_dropShadow_215_180" result="shape"/>
</filter>
<filter id="filter2_d_215_180" x="-4" y="81.1636" width="153.254" height="128.586" filterUnits="userSpaceOnUse" color-interpolation-filters="sRGB">
<feFlood flood-opacity="0" result="BackgroundImageFix"/>
<feColorMatrix in="SourceAlpha" type="matrix" values="0 0 0 0 0 0 0 0 0 0 0 0 0 0 0 0 0 0 127 0" result="hardAlpha"/>
<feOffset dy="4"/>
<feGaussianBlur stdDeviation="2"/>
<feComposite in2="hardAlpha" operator="out"/>
<feColorMatrix type="matrix" values="0 0 0 0 0 0 0 0 0 0 0 0 0 0 0 0 0 0 0.25 0"/>
<feBlend mode="normal" in2="BackgroundImageFix" result="effect1_dropShadow_215_180"/>
<feBlend mode="normal" in="SourceGraphic" in2="effect1_dropShadow_215_180" result="shape"/>
</filter>
<filter id="filter3_d_215_180" x="23.1633" y="104.577" width="99.1091" height="86.6855" filterUnits="userSpaceOnUse" color-interpolation-filters="sRGB">
<feFlood flood-opacity="0" result="BackgroundImageFix"/>
<feColorMatrix in="SourceAlpha" type="matrix" values="0 0 0 0 0 0 0 0 0 0 0 0 0 0 0 0 0 0 127 0" result="hardAlpha"/>
<feOffset dy="4"/>
<feGaussianBlur stdDeviation="2"/>
<feComposite in2="hardAlpha" operator="out"/>
<feColorMatrix type="matrix" values="0 0 0 0 0 0 0 0 0 0 0 0 0 0 0 0 0 0 0.25 0"/>
<feBlend mode="normal" in2="BackgroundImageFix" result="effect1_dropShadow_215_180"/>
<feBlend mode="normal" in="SourceGraphic" in2="effect1_dropShadow_215_180" result="shape"/>
</filter>
<filter id="filter4_d_215_180" x="190.475" y="84.6204" width="148.525" height="140.655" filterUnits="userSpaceOnUse" color-interpolation-filters="sRGB">
<feFlood flood-opacity="0" result="BackgroundImageFix"/>
<feColorMatrix in="SourceAlpha" type="matrix" values="0 0 0 0 0 0 0 0 0 0 0 0 0 0 0 0 0 0 127 0" result="hardAlpha"/>
<feOffset dy="4"/>
<feGaussianBlur stdDeviation="2"/>
<feComposite in2="hardAlpha" operator="out"/>
<feColorMatrix type="matrix" values="0 0 0 0 0 0 0 0 0 0 0 0 0 0 0 0 0 0 0.25 0"/>
<feBlend mode="normal" in2="BackgroundImageFix" result="effect1_dropShadow_215_180"/>
<feBlend mode="normal" in="SourceGraphic" in2="effect1_dropShadow_215_180" result="shape"/>
</filter>
<filter id="filter5_d_215_180" x="225.34" y="110.681" width="97.1322" height="92.3462" filterUnits="userSpaceOnUse" color-interpolation-filters="sRGB">
<feFlood flood-opacity="0" result="BackgroundImageFix"/>
<feColorMatrix in="SourceAlpha" type="matrix" values="0 0 0 0 0 0 0 0 0 0 0 0 0 0 0 0 0 0 127 0" result="hardAlpha"/>
<feOffset dy="4"/>
<feGaussianBlur stdDeviation="2"/>
<feComposite in2="hardAlpha" operator="out"/>
<feColorMatrix type="matrix" values="0 0 0 0 0 0 0 0 0 0 0 0 0 0 0 0 0 0 0.25 0"/>
<feBlend mode="normal" in2="BackgroundImageFix" result="effect1_dropShadow_215_180"/>
<feBlend mode="normal" in="SourceGraphic" in2="effect1_dropShadow_215_180" result="shape"/>
</filter>
<filter id="filter6_d_215_180" x="31.1267" y="64.6565" width="278.07" height="380.344" filterUnits="userSpaceOnUse" color-interpolation-filters="sRGB">
<feFlood flood-opacity="0" result="BackgroundImageFix"/>
<feColorMatrix in="SourceAlpha" type="matrix" values="0 0 0 0 0 0 0 0 0 0 0 0 0 0 0 0 0 0 127 0" result="hardAlpha"/>
<feOffset dy="4"/>
<feGaussianBlur stdDeviation="2"/>
<feComposite in2="hardAlpha" operator="out"/>
<feColorMatrix type="matrix" values="0 0 0 0 0 0 0 0 0 0 0 0 0 0 0 0 0 0 0.25 0"/>
<feBlend mode="normal" in2="BackgroundImageFix" result="effect1_dropShadow_215_180"/>
<feBlend mode="normal" in="SourceGraphic" in2="effect1_dropShadow_215_180" result="shape"/>
</filter>
<clipPath id="clip0_215_180">
<rect width="335" height="437" fill="white"/>
</clipPath>
</defs>
</svg>
