<svg width="357" height="50" viewBox="0 0 357 50" fill="none" xmlns="http://www.w3.org/2000/svg">
<path d="M168.782 0.279785H146.177V10.264H168.782V0.279785Z" fill="#8E2A20"/>
<path d="M134.966 10.3081L146.18 0.277832V34.2653H134.966V10.3081Z" fill="#C0392B"/>
<path d="M161.925 19.0457H153.638V30.2369H161.925V19.0457Z" fill="#E74C3C"/>
<path d="M161.903 19.0408L173.293 30.3705L173.168 34.4662L161.903 46.1716L161.903 19.0408Z" fill="#FF5442"/>
<path d="M134.951 34.2666H161.92V46.0339H146.795L134.951 34.2666Z" fill="#E74C3C"/>
<path d="M12.339 8.79224H1.29041V45.9153H12.339V8.79224Z" fill="#8E2A20"/>
<path d="M60.8884 12.5815H49.2634V45.9749H60.8884V12.5815Z" fill="#C0392B"/>
<path d="M85.2634 12.6129H73.6384V45.962H85.2634V12.6129Z" fill="#C0392B"/>
<path d="M46.5134 21.6441L74.5759 21.5818L85.2634 33.4568H46.5134V21.6441Z" fill="#E74C3C"/>
<path d="M60.9133 0.0188981L73.6317 0L85.2993 12.6263H49.2451L60.9133 0.0188981Z" fill="#E74C3C"/>
<path d="M238.951 0.581543H227.076V45.8315H238.951V0.581543Z" fill="#C0392B"/>
<path d="M224.326 0.144074L253.078 0.0998535L264.701 12.269H224.326V0.144074Z" fill="#E74C3C"/>
<path d="M264.701 12.2692H252.638V33.9567H264.701V12.2692Z" fill="#C0392B"/>
<path d="M193.308 13.3418H181.683V46.0722H193.308V13.3418Z" fill="#C0392B"/>
<path d="M217.683 13.373H206.058V46.0151H217.683V13.373Z" fill="#C0392B"/>
<path d="M178.933 22.4043L206.995 22.3419L217.683 34.2169H178.933V22.4043Z" fill="#E74C3C"/>
<path d="M193.333 0.249484L206.051 0.226807L217.719 13.3834H181.665L193.333 0.249484Z" fill="#E74C3C"/>
<path d="M354.058 0.39502H330.128V9.92091H354.058V0.39502Z" fill="#C0392B"/>
<path d="M320.646 9.96159L330.128 0.41333V28.3731L320.646 19.9223V9.96159Z" fill="#E74C3C"/>
<path d="M356.706 28.3691H344.862V36.57H356.706V28.3691Z" fill="#8E2A20"/>
<path d="M330.129 19.9023L344.933 19.9447L356.712 28.3697H330.129V19.9023Z" fill="#C0392B"/>
<path d="M321.156 36.5518H356.69L345.005 45.9684L321.156 45.906V36.5518Z" fill="#E74C3C"/>
<path d="M224.326 33.8942H264.701L252.881 46.045L224.326 46.0186V33.8942Z" fill="#E74C3C"/>
<path d="M282.282 0.206665H302.907L314.657 11.8133H270.282L282.282 0.206665Z" fill="#E74C3C"/>
<path d="M270.263 34.4254H314.638L302.67 45.8942L282.17 45.9566L270.263 34.4254Z" fill="#E74C3C"/>
<path d="M282.28 11.7775H270.342V34.4449H282.28V11.7775Z" fill="#C0392B"/>
<path d="M314.638 11.7946H302.701V34.462H314.638V11.7946Z" fill="#C0392B"/>
<path d="M26.897 0.178101H0V10.5687H26.897V0.178101Z" fill="#C0392B"/>
<path d="M11.3667 21.951H39.43L26.887 30.7346H11.3667V21.951Z" fill="#C0392B"/>
<path d="M11.3927 22.0126L43.4549 39.975L37.661 49.783L5.30774 30.4247L11.3927 22.0126Z" fill="#E74C3C"/>
<path d="M26.8883 0.179565L39.4282 10.5043L39.4596 21.9017L26.8884 30.7383L26.8883 0.179565Z" fill="#E74C3C"/>
<path d="M125.83 0.482422H101.9V10.0083H125.83V0.482422Z" fill="#C0392B"/>
<path d="M92.4183 10.049L101.9 0.500732V28.4605L92.4183 20.0097V10.049Z" fill="#E74C3C"/>
<path d="M128.478 28.4565H116.634V36.6574H128.478V28.4565Z" fill="#8E2A20"/>
<path d="M101.901 19.9897L116.705 20.0321L128.484 28.4571H101.901V19.9897Z" fill="#C0392B"/>
<path d="M92.9285 36.6392H128.462L116.777 46.0558L92.9285 45.9934V36.6392Z" fill="#E74C3C"/>
</svg>
