<svg width="380" height="60" viewBox="0 0 380 60" fill="none" xmlns="http://www.w3.org/2000/svg">
<path d="M168.782 10.2798H146.177V20.264H168.782V10.2798Z" fill="#8E2A20"/>
<path d="M134.966 20.3081L146.18 10.2778V44.2653H134.966V20.3081Z" fill="#C0392B"/>
<path d="M161.925 29.0457H153.638V40.2369H161.925V29.0457Z" fill="#E74C3C"/>
<path d="M161.903 29.0408L173.293 40.3705L173.168 44.4662L161.903 56.1716L161.903 29.0408Z" fill="#FF5442"/>
<path d="M134.951 44.2666H161.92V56.0339H146.795L134.951 44.2666Z" fill="#E74C3C"/>
<path d="M12.339 18.7922H1.29041V55.9153H12.339V18.7922Z" fill="#8E2A20"/>
<path d="M60.8884 22.5815H49.2634V55.9749H60.8884V22.5815Z" fill="#C0392B"/>
<path d="M85.2634 22.6129H73.6384V55.962H85.2634V22.6129Z" fill="#C0392B"/>
<path d="M46.5134 31.6441L74.5759 31.5818L85.2634 43.4568H46.5134V31.6441Z" fill="#E74C3C"/>
<path d="M60.9133 10.0189L73.6317 10L85.2993 22.6263H49.2451L60.9133 10.0189Z" fill="#E74C3C"/>
<path d="M238.951 10.5815H227.076V55.8315H238.951V10.5815Z" fill="#C0392B"/>
<path d="M224.326 10.1441L253.078 10.0999L264.701 22.269H224.326V10.1441Z" fill="#E74C3C"/>
<path d="M264.701 22.2692H252.638V43.9567H264.701V22.2692Z" fill="#C0392B"/>
<path d="M193.308 23.3418H181.683V56.0722H193.308V23.3418Z" fill="#C0392B"/>
<path d="M217.683 23.373H206.058V56.0151H217.683V23.373Z" fill="#C0392B"/>
<path d="M178.933 32.4043L206.995 32.3419L217.683 44.2169H178.933V32.4043Z" fill="#E74C3C"/>
<path d="M193.333 10.2495L206.051 10.2268L217.719 23.3834H181.665L193.333 10.2495Z" fill="#E74C3C"/>
<path d="M354.058 10.395H330.128V19.9209H354.058V10.395Z" fill="#C0392B"/>
<path d="M320.646 19.9616L330.128 10.4133V38.3731L320.646 29.9223V19.9616Z" fill="#E74C3C"/>
<path d="M356.706 38.3691H344.862V46.57H356.706V38.3691Z" fill="#8E2A20"/>
<path d="M330.129 29.9023L344.933 29.9447L356.712 38.3697H330.129V29.9023Z" fill="#C0392B"/>
<path d="M321.156 46.5518H356.69L345.005 55.9684L321.156 55.906V46.5518Z" fill="#E74C3C"/>
<path d="M224.326 43.8942H264.701L252.881 56.045L224.326 56.0186V43.8942Z" fill="#E74C3C"/>
<path d="M282.282 10.2067H302.907L314.657 21.8133H270.282L282.282 10.2067Z" fill="#E74C3C"/>
<path d="M270.263 44.4254H314.638L302.67 55.8942L282.17 55.9566L270.263 44.4254Z" fill="#E74C3C"/>
<path d="M282.28 21.7775H270.342V44.4449H282.28V21.7775Z" fill="#C0392B"/>
<path d="M314.638 21.7946H302.701V44.462H314.638V21.7946Z" fill="#C0392B"/>
<path d="M26.897 10.1781H0V20.5687H26.897V10.1781Z" fill="#C0392B"/>
<path d="M11.3667 31.951H39.43L26.887 40.7346H11.3667V31.951Z" fill="#C0392B"/>
<path d="M11.3927 32.0126L43.4549 49.975L37.661 59.783L5.30774 40.4247L11.3927 32.0126Z" fill="#E74C3C"/>
<path d="M26.8883 10.1796L39.4282 20.5043L39.4596 31.9017L26.8884 40.7383L26.8883 10.1796Z" fill="#E74C3C"/>
<path d="M125.83 10.4824H101.9V20.0083H125.83V10.4824Z" fill="#C0392B"/>
<path d="M92.4183 20.049L101.9 10.5007V38.4605L92.4183 30.0097V20.049Z" fill="#E74C3C"/>
<path d="M128.478 38.4565H116.634V46.6574H128.478V38.4565Z" fill="#8E2A20"/>
<path d="M101.901 29.9897L116.705 30.0321L128.484 38.4571H101.901V29.9897Z" fill="#C0392B"/>
<path d="M92.9285 46.6392H128.462L116.777 56.0558L92.9285 55.9934V46.6392Z" fill="#E74C3C"/>
</svg>
