<svg width="40" height="40" viewBox="0 0 40 40" fill="none" xmlns="http://www.w3.org/2000/svg">
<path fill="#fff" d="M12.3714 25.1758L20.0098 32.8143L27.6483 25.1758C28.4161 24.408 29.6564 24.408 30.4242 25.1758C31.1919 25.9436 31.1919 27.1839 30.4242 27.9517L21.3879 36.9879C20.6201 37.7557 19.3799 37.7557 18.6121 36.9879L9.57584 27.9517C8.80805 27.1839 8.80805 25.9436 9.57584 25.1758C10.3436 24.4277 11.6036 24.408 12.3714 25.1758V25.1758Z"/>
<path fill="#fff" d="M12.3714 3.57584L20.0098 11.2143L27.6483 3.57584C28.4161 2.80805 29.6564 2.80805 30.4242 3.57584C31.1919 4.34362 31.1919 5.58389 30.4242 6.35168L21.3879 15.3879C20.6201 16.1557 19.3799 16.1557 18.6121 15.3879L9.57584 6.35168C8.80805 5.58389 8.80805 4.34362 9.57584 3.57584C10.3436 2.82774 11.6036 2.80805 12.3714 3.57584V3.57584Z"/>
<path fill="#fff" d="M12.6507 14.5717L20.2891 22.2102L27.9276 14.5717C28.6954 13.8039 29.9357 13.8039 30.7035 14.5717C31.4712 15.3395 31.4712 16.5797 30.7035 17.3475L21.6672 26.3838C20.8994 27.1516 19.6592 27.1516 18.8914 26.3838L9.85514 17.3475C9.08735 16.5797 9.08735 15.3395 9.85514 14.5717C10.6229 13.8236 11.8829 13.8039 12.6507 14.5717V14.5717Z"/>
</svg>
