<svg width="160" height="95" viewBox="0 0 160 95" fill="none" xmlns="http://www.w3.org/2000/svg">
<g clip-path="url(#clip0_207_301)">
<g filter="url(#filter0_d_207_301)">
<path d="M65.9588 59.0329C64.4076 59.3854 12.4425 57.2703 12.4425 57.2703C12.4425 57.2703 -0.742681 49.3388 0.0329239 45.1087C0.808503 40.8786 9.92182 39.9973 9.92182 39.9973L10.5035 37.706C10.5035 37.706 3.71703 30.127 5.84992 26.6019C7.98281 23.0768 19.6168 22.1955 19.6168 22.1955L20.3924 17.2603C20.3924 17.2603 13.7998 9.68135 16.9022 6.68501C20.0046 3.68867 31.2508 8.09504 31.2508 8.09504C31.2508 8.09504 35.3226 -1.9515 41.7213 0.339811C48.12 2.63115 53.1614 12.6777 53.1614 12.6777C53.1614 12.6777 56.4577 15.1453 57.6211 12.1489C58.7844 9.15258 58.5906 2.45486 63.2441 3.33614C67.8977 4.21742 68.0917 4.21742 68.0917 4.21742C68.0917 4.21742 76.0415 4.74621 78.5622 10.2101C81.0829 15.674 82.828 15.3215 82.828 15.3215C82.828 15.3215 88.0633 9.5051 90.7779 8.62382C93.4925 7.74254 97.3704 8.80001 98.3399 11.9727C99.3094 15.1452 99.3094 25.7206 98.1461 27.1307C96.9827 28.5407 102.8 24.663 106.484 28.0119C110.168 31.3608 112.882 32.0658 111.719 35.7672C110.556 39.4685 110.75 41.0548 110.75 41.0548C110.75 41.0548 120.057 35.5909 122.577 37.1772C125.098 38.7635 132.66 42.1124 130.915 46.5187C129.17 50.9251 133.824 56.7416 127.425 58.6804C121.026 60.6192 65.9588 59.0329 65.9588 59.0329H65.9588Z" fill="#AFBD5B"/>
<path d="M58.3967 70.8422C58.3967 70.8422 51.8041 69.4321 51.8041 74.0148C51.8041 78.5974 61.4991 84.9426 61.4991 84.9426L160 86.0001C160 86.0001 157.285 81.77 154.959 81.065C152.632 80.36 160.388 76.4824 154.959 71.8997C149.529 67.3171 139.834 71.5472 139.834 71.5472C139.834 71.5472 143.325 64.1445 139.834 63.0869C136.344 62.0294 129.752 61.3244 129.752 61.3244C129.752 61.3244 133.242 43.3463 129.752 44.4039C126.261 45.4614 114.627 51.4541 114.627 51.4541C114.627 51.4541 116.179 38.7637 105.32 39.4687C94.462 40.1737 94.8498 50.044 94.8498 50.044C94.8498 50.044 93.2986 36.2961 86.706 38.0587C80.1134 39.8212 74.6842 44.7564 74.6842 44.7564C74.6842 44.7564 74.2964 39.8212 69.255 40.5262C64.2136 41.2312 67.316 55.6842 67.316 55.6842C67.316 55.6842 57.6211 52.1591 55.2943 57.4468C52.9675 62.7344 58.3967 70.8422 58.3967 70.8422Z" fill="#A6BF8B"/>
</g>
</g>
<defs>
<filter id="filter0_d_207_301" x="-4" y="0" width="168" height="94.0002" filterUnits="userSpaceOnUse" color-interpolation-filters="sRGB">
<feFlood flood-opacity="0" result="BackgroundImageFix"/>
<feColorMatrix in="SourceAlpha" type="matrix" values="0 0 0 0 0 0 0 0 0 0 0 0 0 0 0 0 0 0 127 0" result="hardAlpha"/>
<feOffset dy="4"/>
<feGaussianBlur stdDeviation="2"/>
<feComposite in2="hardAlpha" operator="out"/>
<feColorMatrix type="matrix" values="0 0 0 0 0 0 0 0 0 0 0 0 0 0 0 0 0 0 0.25 0"/>
<feBlend mode="normal" in2="BackgroundImageFix" result="effect1_dropShadow_207_301"/>
<feBlend mode="normal" in="SourceGraphic" in2="effect1_dropShadow_207_301" result="shape"/>
</filter>
<clipPath id="clip0_207_301">
<rect width="160" height="95" fill="white"/>
</clipPath>
</defs>
</svg>
