<svg width="160" height="95" viewBox="0 0 160 95" fill="none" xmlns="http://www.w3.org/2000/svg">
<g clip-path="url(#clip0_207_297)">
<g filter="url(#filter0_d_207_297)">
<path d="M65.9588 59.7193C64.4076 60.076 12.4425 57.9363 12.4425 57.9363C12.4425 57.9363 -0.742681 49.9125 0.0329239 45.6332C0.808503 41.3539 9.92182 40.4624 9.92182 40.4624L10.5035 38.1444C10.5035 38.1444 3.71703 30.4773 5.84992 26.9112C7.98281 23.3451 19.6168 22.4536 19.6168 22.4536L20.3924 17.461C20.3924 17.461 13.7998 9.79393 16.9022 6.76274C20.0046 3.73156 31.2508 8.18917 31.2508 8.18917C31.2508 8.18917 35.3226 -1.97419 41.7213 0.343763C48.12 2.66174 53.1614 12.8251 53.1614 12.8251C53.1614 12.8251 56.4577 15.3214 57.6211 12.2902C58.7844 9.25901 58.5906 2.4834 63.2441 3.37493C67.8977 4.26646 68.0917 4.26646 68.0917 4.26646C68.0917 4.26646 76.0415 4.8014 78.5622 10.3288C81.0829 15.8563 82.828 15.4997 82.828 15.4997C82.828 15.4997 88.0633 9.61562 90.7779 8.72409C93.4925 7.83257 97.3704 8.90233 98.3399 12.1119C99.3094 15.3214 99.3094 26.0197 98.1461 27.4461C96.9827 28.8726 102.8 24.9498 106.484 28.3376C110.168 31.7254 112.882 32.4387 111.719 36.1831C110.556 39.9275 110.75 41.5322 110.75 41.5322C110.75 41.5322 120.057 36.0047 122.577 37.6095C125.098 39.2143 132.66 42.602 130.915 47.0597C129.17 51.5173 133.824 57.4014 127.425 59.3627C121.026 61.3241 65.9588 59.7193 65.9588 59.7193H65.9588Z" fill="#DFC165"/>
<path d="M58.3967 71.6659C58.3967 71.6659 51.8041 70.2394 51.8041 74.8754C51.8041 79.5113 61.4991 85.9303 61.4991 85.9303L160 87.0001C160 87.0001 157.285 82.7208 154.959 82.0076C152.632 81.2943 160.388 77.3716 154.959 72.7357C149.529 68.0998 139.834 72.3791 139.834 72.3791C139.834 72.3791 143.325 64.8903 139.834 63.8205C136.344 62.7506 129.752 62.0374 129.752 62.0374C129.752 62.0374 133.242 43.8503 129.752 44.9201C126.261 45.99 114.627 52.0523 114.627 52.0523C114.627 52.0523 116.179 39.2144 105.32 39.9276C94.462 40.6408 94.8498 50.6259 94.8498 50.6259C94.8498 50.6259 93.2986 36.7181 86.706 38.5011C80.1134 40.2842 74.6842 45.2767 74.6842 45.2767C74.6842 45.2767 74.2964 40.2842 69.255 40.9974C64.2136 41.7106 67.316 56.3317 67.316 56.3317C67.316 56.3317 57.6211 52.7655 55.2943 58.1147C52.9675 63.4638 58.3967 71.6659 58.3967 71.6659Z" fill="#EDB50D"/>
</g>
</g>
<defs>
<filter id="filter0_d_207_297" x="-4" y="0" width="168" height="95" filterUnits="userSpaceOnUse" color-interpolation-filters="sRGB">
<feFlood flood-opacity="0" result="BackgroundImageFix"/>
<feColorMatrix in="SourceAlpha" type="matrix" values="0 0 0 0 0 0 0 0 0 0 0 0 0 0 0 0 0 0 127 0" result="hardAlpha"/>
<feOffset dy="4"/>
<feGaussianBlur stdDeviation="2"/>
<feComposite in2="hardAlpha" operator="out"/>
<feColorMatrix type="matrix" values="0 0 0 0 0 0 0 0 0 0 0 0 0 0 0 0 0 0 0.25 0"/>
<feBlend mode="normal" in2="BackgroundImageFix" result="effect1_dropShadow_207_297"/>
<feBlend mode="normal" in="SourceGraphic" in2="effect1_dropShadow_207_297" result="shape"/>
</filter>
<clipPath id="clip0_207_297">
<rect width="160" height="95" fill="white"/>
</clipPath>
</defs>
</svg>
