<svg width="257" height="165" viewBox="0 0 257 165" fill="none" xmlns="http://www.w3.org/2000/svg">
<g clip-path="url(#clip0_210_427)">
<g filter="url(#filter0_d_210_427)">
<path d="M112.989 162.826L138.796 165L139.418 9.83159L130.712 0L113.611 1.28238L107.703 8.12174L112.989 162.826Z" fill="#3A7549"/>
<path d="M116.72 38.0083L116.409 46.7315" stroke="white" stroke-width="0.264583"/>
<path d="M131.333 14.9541V21.185" stroke="white" stroke-width="0.264583"/>
<path d="M114.854 8.1001L114.543 10.2809" stroke="white" stroke-width="0.264583"/>
<path d="M121.073 72.5896L120.451 78.5089" stroke="white" stroke-width="0.264583"/>
<path d="M131.955 91.5938L131.022 98.7592" stroke="white" stroke-width="0.264583"/>
<path d="M119.829 90.3475L120.451 94.3976" stroke="white" stroke-width="0.264583"/>
<path d="M124.493 45.7969L124.182 52.0277" stroke="white" stroke-width="0.264583"/>
<path d="M135.375 33.0236L134.132 40.1891" stroke="white" stroke-width="0.264583"/>
<path d="M114.543 59.5048V64.1779" stroke="white" stroke-width="0.264583"/>
<path d="M134.132 67.2933L135.375 71.655" stroke="white" stroke-width="0.264583"/>
<path d="M121.187 129.696L120.565 135.615" stroke="white" stroke-width="0.264583"/>
<path d="M114.658 116.611V121.284" stroke="white" stroke-width="0.264583"/>
<path d="M134.246 124.4L135.49 128.762" stroke="white" stroke-width="0.264583"/>
<path d="M117.653 20.8734L114.854 24.6119" stroke="white" stroke-width="0.264583"/>
<path d="M113.922 94.0861L114.544 98.1361" stroke="white" stroke-width="0.264583"/>
<path d="M126.061 105.741L125.621 112.13L126.061 105.741Z" fill="black"/>
<path d="M126.061 105.741L125.621 112.13" stroke="white" stroke-width="0.264583"/>
<path d="M137.293 83.6474C138.612 83.6474 223.917 55.2294 223.917 55.2294L237.108 14.0343L242.605 9.62842C242.605 9.62842 250.52 12.0517 252.938 13.3734C255.356 14.6952 256.895 20.2026 256.895 20.2026L239.709 65.7214L137.513 92.0185L137.293 83.6474Z" fill="#3A7549"/>
<path d="M110.706 75.432C107.848 75.432 35.7544 62.2097 35.7544 62.2097L19.2293 23.507L11.5343 21.0837L0.761255 25.049L0.101685 30.5564L13.7329 68.6673L111.832 89.3105L110.706 75.432Z" fill="#3A7549"/>
<path d="M166.469 74.6954L169.392 43.774L154.881 31.4376L154.442 25.2693L159.718 20.4228L164.555 21.304L174.229 36.284L185.661 8.52694L192.697 3.23987L204.569 7.20517L205.449 13.3734L188.3 37.6058L212.044 39.3682L221.278 32.3187L224.796 32.7593L226.115 37.6058L224.356 41.1305L217.321 43.3335L190.938 44.6552L183.05 69.978L166.469 74.6954Z" fill="#3A7549"/>
<path d="M197.223 39.1635L205.888 23.9475L211.165 20.8634L216.002 24.8287L215.562 29.6752L206.328 38.9275" fill="#3A7549"/>
<path d="M137.293 57.873L150.924 42.8929L155.321 45.0959L160.158 56.5512L159.279 61.8383L137.24 72.724" fill="#3A7549"/>
<path d="M102.728 75.8609L87.8039 49.3797L86.5602 41.2795L91.8459 33.491L96.8207 34.7371L110.035 60.751L110.968 76.0945L102.728 75.8609Z" fill="#3A7549"/>
<path d="M54.0685 68.6953L53.6021 49.3796L37.123 41.2795L34.6356 36.6063L37.123 28.5062L40.5432 27.5716L53.913 36.6063L50.8037 17.2906L53.913 10.7482L64.7954 10.1251L69.7702 14.7983L67.9047 36.2948L75.9887 26.9485L81.4299 26.3254L86.8711 31.4658L83.14 37.5409L70.0811 43.616L66.6609 69.9415L54.0685 68.6953Z" fill="#3A7549"/>
<path d="M54.2239 72.2781L60.1315 74.3031" stroke="white" stroke-width="0.264583"/>
<path d="M10.8497 38.1641L12.0934 43.9276" stroke="white" stroke-width="0.264583"/>
<path d="M16.7573 36.6063L18.1565 39.2545" stroke="white" stroke-width="0.264583"/>
<path d="M15.5137 59.1932L15.8246 62.3087" stroke="white" stroke-width="0.264583"/>
<path d="M20.0221 46.5757L22.1986 48.6007" stroke="white" stroke-width="0.264583"/>
<path d="M87.8038 75.0819L91.0686 76.9512" stroke="white" stroke-width="0.264583"/>
<path d="M60.4425 50.1584L60.287 52.8066" stroke="white" stroke-width="0.264583"/>
<path d="M53.1356 42.6814L55.0012 45.018" stroke="white" stroke-width="0.264583"/>
<path d="M64.1735 34.4255L63.2407 37.3852" stroke="white" stroke-width="0.264583"/>
<path d="M58.1105 20.5619L57.9551 23.8331" stroke="white" stroke-width="0.264583"/>
<path d="M58.266 14.4868L60.4425 15.4215" stroke="white" stroke-width="0.264583"/>
<path d="M81.8962 34.8928L80.1862 36.139" stroke="white" stroke-width="0.264583"/>
<path d="M41.3204 30.9985L42.7196 32.2447" stroke="white" stroke-width="0.264583"/>
<path d="M91.6904 45.4854L92.1568 47.3546" stroke="white" stroke-width="0.264583"/>
<path d="M103.35 58.4144L105.527 62.3087" stroke="white" stroke-width="0.264583"/>
<path d="M144.237 57.9471L149.678 53.1182" stroke="white" stroke-width="0.264583"/>
<path d="M157.296 80.0666L160.871 78.9762" stroke="white" stroke-width="0.264583"/>
<path d="M188.388 74.6146L191.342 72.9011" stroke="white" stroke-width="0.264583"/>
<path d="M180.615 61.2183L183.103 55.1432" stroke="white" stroke-width="0.264583"/>
<path d="M177.35 45.9526L179.371 42.3699" stroke="white" stroke-width="0.264583"/>
<path d="M167.712 35.0486L165.535 31.4658" stroke="white" stroke-width="0.264583"/>
<path d="M159.628 27.26L159.317 25.235" stroke="white" stroke-width="0.264583"/>
<path d="M186.678 24.6119L187.3 22.8984" stroke="white" stroke-width="0.264583"/>
<path d="M196.628 17.6021L199.271 14.3309" stroke="white" stroke-width="0.264583"/>
<path d="M190.876 7.63281H193.674" stroke="white" stroke-width="0.264583"/>
<path d="M207.821 25.8582H209.531" stroke="white" stroke-width="0.264583"/>
<path d="M207.355 34.2698L209.998 32.5563" stroke="white" stroke-width="0.264583"/>
<path d="M214.972 41.4352L218.393 38.7871" stroke="white" stroke-width="0.264583"/>
<path d="M221.036 65.2684L226.943 62.3087" stroke="white" stroke-width="0.264583"/>
<path d="M205.334 64.801L209.842 63.7106" stroke="white" stroke-width="0.264583"/>
<path d="M242.956 43.3046C243.111 42.2142 244.666 39.566 244.666 39.566" stroke="white" stroke-width="0.264583"/>
<path d="M242.8 25.5465L239.069 29.9081" stroke="white" stroke-width="0.264583"/>
<path d="M245.754 19.4714L249.641 25.0792" stroke="white" stroke-width="0.264583"/>
<path d="M231.141 49.0681L230.208 49.6912" stroke="white" stroke-width="0.264583"/>
<path d="M239.38 62.6202L237.825 63.8664" stroke="white" stroke-width="0.264583"/>
</g>
</g>
<defs>
<filter id="filter0_d_210_427" x="-3.89832" y="0" width="264.794" height="173" filterUnits="userSpaceOnUse" color-interpolation-filters="sRGB">
<feFlood flood-opacity="0" result="BackgroundImageFix"/>
<feColorMatrix in="SourceAlpha" type="matrix" values="0 0 0 0 0 0 0 0 0 0 0 0 0 0 0 0 0 0 127 0" result="hardAlpha"/>
<feOffset dy="4"/>
<feGaussianBlur stdDeviation="2"/>
<feComposite in2="hardAlpha" operator="out"/>
<feColorMatrix type="matrix" values="0 0 0 0 0 0 0 0 0 0 0 0 0 0 0 0 0 0 0.25 0"/>
<feBlend mode="normal" in2="BackgroundImageFix" result="effect1_dropShadow_210_427"/>
<feBlend mode="normal" in="SourceGraphic" in2="effect1_dropShadow_210_427" result="shape"/>
</filter>
<clipPath id="clip0_210_427">
<rect width="257" height="165" fill="white"/>
</clipPath>
</defs>
</svg>
