<svg width="295" height="432" viewBox="0 0 295 432" fill="none" xmlns="http://www.w3.org/2000/svg">
<g clip-path="url(#clip0_209_390)">
<g filter="url(#filter0_d_209_390)">
<path d="M127.343 96.2309C127.343 96.2309 113.462 129.864 92.9712 123.929C72.4806 117.993 50.3374 87.328 55.2949 68.533C60.2523 49.738 76.777 22.3699 84.7089 29.9538C92.6408 37.5378 92.6408 36.8783 92.6408 36.8783C92.6408 36.8783 92.3103 12.4778 104.539 11.8183C116.767 11.1588 126.351 2.25594 138.58 19.732C150.808 37.208 140.232 24.678 140.232 24.678C140.232 24.678 143.867 11.4886 152.46 7.86148C161.053 4.23435 174.603 -5.32802 181.874 3.90462C189.145 13.1373 193.111 33.9106 199.06 34.5701C205.009 35.2296 234.092 43.1433 227.813 62.9275C221.534 82.7116 208.975 98.8687 203.687 99.1985C198.399 99.528 174.934 102.496 167.994 94.2524C161.053 86.009 143.537 89.6362 143.537 97.2201C143.537 104.804 131.309 96.8906 128.665 96.5606C126.021 96.2311 127.343 96.2311 127.343 96.2311V96.2309Z" fill="#CBD653"/>
</g>
<g filter="url(#filter1_d_209_390)">
<path d="M79.0904 173.389C79.0904 173.389 82.3954 197.13 51.3289 199.109C20.2624 201.087 -3.53324 194.492 0.432701 172.73C4.39864 150.967 18.9404 148.329 18.9404 148.329C18.9404 148.329 -0.228287 125.248 10.3475 106.783C20.9234 88.3173 41.414 75.7872 50.6679 81.7225C59.9218 87.6577 80.4124 103.485 84.3784 104.804C88.3443 106.123 97.5982 86.3388 109.496 92.9335C121.394 99.5283 145.189 113.377 143.867 135.799C142.545 158.221 126.682 174.049 118.089 177.346C109.496 180.644 79.0904 173.389 79.0904 173.389Z" fill="#9BB484"/>
</g>
<g filter="url(#filter2_d_209_390)">
<path d="M155.765 127.885C161.384 109.09 171.96 104.804 171.96 104.804C171.96 104.804 189.806 102.166 195.755 107.442C201.704 112.718 212.28 95.2416 212.28 95.2416C212.28 95.2416 220.873 82.0521 229.796 85.0197C238.719 87.9873 258.219 77.4358 269.125 99.8579C280.031 122.28 268.464 132.172 268.464 132.172C268.464 132.172 304.488 155.913 292.59 187.568C280.692 219.223 236.406 215.595 236.406 215.595C236.406 215.595 221.534 217.574 207.983 200.427C194.433 183.281 204.678 175.368 204.678 175.368C204.678 175.368 170.968 169.103 163.697 154.264C156.426 139.426 155.765 127.885 155.765 127.885Z" fill="#D0C985"/>
</g>
<g filter="url(#filter3_d_209_390)">
<path d="M110.818 420.692C110.818 420.692 131.97 433.222 143.867 431.903C155.765 430.584 167.002 420.032 167.002 420.032L151.799 278.905C151.799 278.905 148.494 253.185 154.443 240.655C160.392 228.125 170.307 203.065 184.849 195.152C199.391 187.238 209.305 179.984 209.305 179.984C209.305 179.984 213.271 175.368 225.83 178.665C238.389 181.962 256.897 185.919 256.897 185.919L254.253 173.389C254.253 173.389 218.559 170.751 219.881 168.113C221.203 165.475 230.457 116.015 230.457 116.015L222.525 115.356L207.983 168.773C207.983 168.773 166.341 191.195 163.697 198.449C161.053 205.703 151.799 218.233 151.799 218.233L146.511 133.821C146.511 133.821 145.85 110.739 151.138 107.442C156.426 104.144 170.968 65.895 170.968 65.895L161.714 63.9166L143.206 104.804L135.936 106.123L114.123 64.576L102.886 63.9166L126.682 111.399C126.682 111.399 136.597 138.437 135.275 146.351C133.953 154.264 135.275 218.893 132.631 219.552C129.987 220.212 97.5982 201.747 96.2762 191.195C94.9542 180.643 81.0735 156.243 81.0735 156.243L106.191 132.502L85.0394 131.183L74.4636 147.01L38.1091 125.907L34.8042 138.437L69.1756 157.562C69.1756 157.562 77.7685 196.471 83.0564 201.747C88.3443 207.022 118.75 221.531 123.377 230.104C128.004 238.677 130.648 301.327 130.648 301.327L110.818 420.692Z" fill="#624F29"/>
</g>
</g>
<defs>
<filter id="filter0_d_209_390" x="50.5909" y="0" width="182.105" height="132.631" filterUnits="userSpaceOnUse" color-interpolation-filters="sRGB">
<feFlood flood-opacity="0" result="BackgroundImageFix"/>
<feColorMatrix in="SourceAlpha" type="matrix" values="0 0 0 0 0 0 0 0 0 0 0 0 0 0 0 0 0 0 127 0" result="hardAlpha"/>
<feOffset dy="4"/>
<feGaussianBlur stdDeviation="2"/>
<feComposite in2="hardAlpha" operator="out"/>
<feColorMatrix type="matrix" values="0 0 0 0 0 0 0 0 0 0 0 0 0 0 0 0 0 0 0.25 0"/>
<feBlend mode="normal" in2="BackgroundImageFix" result="effect1_dropShadow_209_390"/>
<feBlend mode="normal" in="SourceGraphic" in2="effect1_dropShadow_209_390" result="shape"/>
</filter>
<filter id="filter1_d_209_390" x="-4" y="80.2349" width="151.92" height="127.207" filterUnits="userSpaceOnUse" color-interpolation-filters="sRGB">
<feFlood flood-opacity="0" result="BackgroundImageFix"/>
<feColorMatrix in="SourceAlpha" type="matrix" values="0 0 0 0 0 0 0 0 0 0 0 0 0 0 0 0 0 0 127 0" result="hardAlpha"/>
<feOffset dy="4"/>
<feGaussianBlur stdDeviation="2"/>
<feComposite in2="hardAlpha" operator="out"/>
<feColorMatrix type="matrix" values="0 0 0 0 0 0 0 0 0 0 0 0 0 0 0 0 0 0 0.25 0"/>
<feBlend mode="normal" in2="BackgroundImageFix" result="effect1_dropShadow_209_390"/>
<feBlend mode="normal" in="SourceGraphic" in2="effect1_dropShadow_209_390" result="shape"/>
</filter>
<filter id="filter2_d_209_390" x="151.765" y="84.5847" width="147.235" height="139.137" filterUnits="userSpaceOnUse" color-interpolation-filters="sRGB">
<feFlood flood-opacity="0" result="BackgroundImageFix"/>
<feColorMatrix in="SourceAlpha" type="matrix" values="0 0 0 0 0 0 0 0 0 0 0 0 0 0 0 0 0 0 127 0" result="hardAlpha"/>
<feOffset dy="4"/>
<feGaussianBlur stdDeviation="2"/>
<feComposite in2="hardAlpha" operator="out"/>
<feColorMatrix type="matrix" values="0 0 0 0 0 0 0 0 0 0 0 0 0 0 0 0 0 0 0.25 0"/>
<feBlend mode="normal" in2="BackgroundImageFix" result="effect1_dropShadow_209_390"/>
<feBlend mode="normal" in="SourceGraphic" in2="effect1_dropShadow_209_390" result="shape"/>
</filter>
<filter id="filter3_d_209_390" x="30.8042" y="63.9166" width="230.092" height="376.083" filterUnits="userSpaceOnUse" color-interpolation-filters="sRGB">
<feFlood flood-opacity="0" result="BackgroundImageFix"/>
<feColorMatrix in="SourceAlpha" type="matrix" values="0 0 0 0 0 0 0 0 0 0 0 0 0 0 0 0 0 0 127 0" result="hardAlpha"/>
<feOffset dy="4"/>
<feGaussianBlur stdDeviation="2"/>
<feComposite in2="hardAlpha" operator="out"/>
<feColorMatrix type="matrix" values="0 0 0 0 0 0 0 0 0 0 0 0 0 0 0 0 0 0 0.25 0"/>
<feBlend mode="normal" in2="BackgroundImageFix" result="effect1_dropShadow_209_390"/>
<feBlend mode="normal" in="SourceGraphic" in2="effect1_dropShadow_209_390" result="shape"/>
</filter>
<clipPath id="clip0_209_390">
<rect width="295" height="432" fill="white"/>
</clipPath>
</defs>
</svg>
