<svg width="305" height="246" viewBox="0 0 305 246" fill="none" xmlns="http://www.w3.org/2000/svg">
<g clip-path="url(#clip0_262_205)">
<path d="M57.0244 29.2802C57.678 30.7565 59.1485 60.5287 59.1485 60.5287C59.1485 60.5287 67.9718 61.1028 76.0598 58.8063C84.1478 56.5098 96.0755 52.9011 100.569 45.2735C105.062 37.6459 103.918 34.6112 103.918 34.6112L102.856 32.6429L104.735 28.46L104.572 27.2297C104.572 27.2297 102.157 27.5842 100.359 26.1899C98.562 24.7956 94.9317 23.3749 94.9317 23.3749H92.7259L91.5005 27.8039C91.5005 27.8039 87.4973 32.5609 85.7 32.3148C83.9027 32.0688 82.4321 32.7249 82.4321 32.7249C82.4321 32.7249 82.187 34.5293 80.6348 35.5135C79.0826 36.4977 78.429 35.9236 78.429 35.1854C78.429 34.4473 75.6513 33.545 74.6709 32.7249C73.6906 31.9047 72.4651 30.2643 70.0959 30.9205C67.7267 31.5766 66.3379 31.6587 66.3379 31.6587L57.0244 29.2802Z" fill="#63604A"/>
<path d="M8.57827 114.903C8.57827 114.903 8.12309 118.188 10.5774 118.49C13.0316 118.792 42.1385 120.776 42.1385 120.776L62.69 117.274C62.69 117.274 64.4764 85.5942 60.9334 75.1334C57.3904 64.6727 59.4707 60.5492 59.4707 60.5492L58.367 33.6579L53.2718 25.995L25.7311 22.6855C25.7311 22.6855 -1.51564 26.4273 -1.13715 46.6006C-0.758646 66.774 3.86959 87.0656 3.86959 87.0656L8.57827 114.903Z" fill="#5E5C4F"/>
<path d="M65.6843 19.3971C65.6843 19.3971 67.7267 18.3308 69.0747 18.0028C70.4227 17.6747 89.7031 15.7063 89.7031 15.7063L175.567 7.79166L175.73 10.1292L126.467 15.2962C126.467 15.2962 126.998 15.0502 127.325 15.6653C127.651 16.2804 127.733 18.1668 127.733 18.1668C127.733 18.1668 127.692 18.823 126.957 19.028C126.222 19.2331 79.6544 23.908 79.6544 23.908C79.6544 23.908 78.96 23.744 76.1006 25.6304C73.2412 27.5168 72.0566 28.337 71.0762 28.419C70.0959 28.501 68.7479 28.747 68.2986 28.2139C67.8492 27.6808 67.1548 25.9175 67.1548 25.9175L65.6843 19.3971Z" fill="#4C4C4C"/>
<path d="M91.0103 17.9618L125.568 14.353C125.568 14.353 126.222 19.5201 125.731 20.0122C125.241 20.5043 124.343 20.4223 124.343 20.4223L89.9482 24.031C89.9482 24.031 88.9678 24.2771 89.1312 23.703C89.2946 23.1288 91.0103 17.9618 91.0103 17.9618Z" fill="#6A5440"/>
<g filter="url(#filter0_d_262_205)">
<path d="M18.9537 220.954C19.7706 218.166 21.2412 200.942 21.2412 200.942L7.84289 198.974L8.16969 213.409C8.16969 213.409 5.5554 219.97 4.41164 222.759C3.26789 225.547 2.07742 231.199 4.044 233.216C5.61366 234.825 8.24452 235.843 12.1932 234.979C13.053 234.791 17.0951 230.017 17.4219 228.91C17.7961 227.642 18.9537 220.954 18.9537 220.954Z" fill="#333331"/>
</g>
<g filter="url(#filter1_d_262_205)">
<path d="M51.7654 195.246L54.0552 214.941L58.1346 218.261C58.1346 218.261 61.2398 227.739 71.1593 226.124C81.0789 224.51 79.9995 220.81 79.9995 220.81C79.9995 220.81 80.6642 218.135 79.6109 216.87C78.5575 215.605 67.4782 205.981 67.4782 205.981C67.4782 205.981 65.1058 200.206 65.0984 199.51C65.0909 198.814 64.685 193.251 64.685 193.251L51.7654 195.246Z" fill="#333331"/>
</g>
<path d="M51.7654 195.246L64.685 193.251L62.3669 116.718L29.1475 122.063L41.1412 152.441L46.4125 170.016C46.4125 170.016 50.6866 180.758 50.6045 183.891C50.5223 187.023 51.7654 195.246 51.7654 195.246Z" fill="#45443B"/>
<path d="M7.8429 198.974C7.8429 198.974 6.48878 164.138 7.78185 162.812C9.07494 161.486 9.63301 137.201 9.63301 137.201L11.2169 117.171L44.0921 120.098C44.0921 120.098 43.498 125.682 36.9776 142.485C30.4573 159.287 30.4905 162.404 30.4905 162.404C30.4905 162.404 26.7459 179.012 25.1401 181.654C23.5342 184.296 21.2412 200.942 21.2412 200.942L7.8429 198.974Z" fill="#4A493F"/>
<path d="M29.5397 17.981L27.9154 20.0574L28.1544 23.5058L30.1184 23.4847L33.2414 23.7991L50.3268 16.9747L45.7067 14.4145C45.7067 14.4145 37.015 17.4078 36.1203 17.4754C35.2256 17.543 29.5397 17.9811 29.5397 17.9811V17.981Z" fill="#543A21"/>
<path d="M30.1531 23.4829L33.241 23.8187C33.241 23.8187 33.1053 22.5899 34.5689 20.0109C36.0324 17.432 37.5213 17.2315 37.5213 17.2315C37.5213 17.2315 39.2718 16.6591 39.9938 17.328C40.7158 17.9969 41.0679 18.4443 41.0679 18.4443L44.5391 18.3454C44.5391 18.3454 44.352 18.0399 45.3968 16.4087C46.4415 14.7775 46.4437 14.9826 46.4437 14.9826C46.4437 14.9826 48.4809 15.7051 52.0575 15.9127C55.6342 16.1203 55.4471 16.5058 55.4471 16.5058C55.4471 16.5058 54.8436 17.3735 55.2267 18.8253C55.6098 20.277 55.9173 20.3762 55.9173 20.3762L55.8849 23.0833L51.851 24.0494C51.851 24.0494 44.6572 26.3365 44.514 26.3175C44.3708 26.2986 31.0056 24.8885 31.0056 24.8885L30.1531 23.4829Z" fill="#D7AC92"/>
<path d="M68.4211 25.3023C68.4211 25.3023 67.8492 26.7376 68.5845 27.3527C69.3198 27.9679 70.2184 28.0909 70.2184 28.0909C70.2184 28.0909 70.8506 28.1964 71.9749 27.5988C73.3638 26.8606 73.2004 26.2865 72.751 25.8354C72.0359 25.1175 70.9537 24.1951 70.1368 24.4411C69.3198 24.6872 68.4211 25.3023 68.4211 25.3023Z" fill="white"/>
<path d="M24.0786 29.0873L61.436 21.8166C61.436 21.8166 61.8853 22.1857 63.601 20.9964C65.3166 19.8072 65.6842 19.3971 65.6842 19.3971L67.1956 26.0815L58.1273 25.7944C58.1273 25.7944 49.6093 27.4675 48.3838 27.8776C47.1584 28.2877 29.5163 34.018 29.5163 34.018L24.0786 29.0873Z" fill="#6A5440"/>
<path d="M0.405871 53.3919C0.405871 53.3919 -1.36173 40.8615 2.57909 34.9956C6.51992 29.1297 14.2483 26.0119 14.2483 26.0119C14.2483 26.0119 21.553 29.1322 22.6141 29.0388C23.6753 28.9454 27.1133 29.5646 27.1133 29.5646L46.7915 28.4509L51.984 26.5415L56.3217 33.3688C56.3217 33.3688 45.5537 50.282 38.5552 52.8999C31.5568 55.5178 30.2048 58.9772 17.864 58.6177C5.52326 58.2582 0.405871 53.3919 0.405871 53.3919Z" fill="#797459"/>
<path d="M52.1027 27.209C52.1027 27.209 53.2482 20.9995 55.121 20.4052C56.9938 19.811 57.9802 20.3745 57.9802 20.3745L58.8041 21.0218C58.8041 21.0218 69.4574 24.0242 69.7885 24.4307C70.1196 24.8373 71.4868 26.0961 71.4868 26.0961C71.4868 26.0961 72.6818 27.5985 71.0506 27.862C69.4194 28.1256 63.9215 25.8881 63.9215 25.8881C63.9215 25.8881 65.5816 28.331 64.6057 28.7516C63.6297 29.1722 62.4122 29.9234 62.4122 29.9234C62.4122 29.9234 63.801 29.9085 62.0239 31.8141C60.2468 33.7197 56.7366 34.0035 56.7366 34.0035L55.6711 33.6868L52.1027 27.209Z" fill="#EBBEA4"/>
<path d="M24.2092 29.0587C24.2092 29.0587 23.1484 25.5061 24.1033 23.1172C25.0583 20.7283 29.5878 18.0278 29.5878 18.0278C29.5878 18.0278 28.6702 22.3299 29.5802 23.3864C30.4901 24.443 33.5387 27.5392 33.5387 27.5392L24.2092 29.0587Z" fill="#4F4B3C"/>
<path d="M45.7067 14.4144C45.7067 14.4144 48.9389 16.8446 52.3741 16.6337C55.8093 16.4228 57.2294 16.8715 59.6665 15.1634C62.1036 13.4552 63.2923 11.1516 63.2923 11.1516L55.1012 9.61562L45.7067 14.4144Z" fill="#453D37"/>
<path d="M57.8568 16.1108C57.8568 16.1108 61.479 15.8253 62.6295 14.015C63.7801 12.2047 63.3505 11.1944 63.3505 11.1944L63.003 11.1111L57.8568 16.1108Z" fill="#3B3530"/>
<path d="M29.5099 18.2224C29.5099 18.2224 27.9188 12.2566 29.6672 8.26494C31.4156 4.27328 36.4096 1.26172 36.4096 1.26172C36.4096 1.26172 39.8287 -0.456983 44.5145 0.130648C49.2002 0.71827 52.6234 4.79935 52.8293 5.14513C53.0352 5.4909 55.2173 9.67234 55.2173 9.67234C55.2173 9.67234 50.1822 13.3141 43.6798 15.7329C37.1774 18.1517 29.5099 18.2224 29.5099 18.2224Z" fill="#4F492D"/>
<path d="M79.0417 18.0438L87.6607 17.1416C87.6607 17.1416 87.7833 17.3467 87.9467 17.7567C88.1101 18.1668 88.2735 19.028 87.865 19.11C87.4565 19.192 79.1643 19.9712 79.1643 19.9712L78.7558 19.1921C78.7558 19.1921 78.6741 19.2331 78.8375 18.6179C79.0009 18.0028 79.0417 18.0438 79.0417 18.0438Z" fill="#868686"/>
<path d="M94.8979 23.563C94.8979 23.563 94.6049 25.1793 96.484 26.0815C98.363 26.9837 99.2617 27.5578 100.324 27.7218C101.386 27.8858 104.49 27.3937 104.49 27.3937C104.49 27.3937 110.127 25.3433 110.536 24.8512C110.944 24.3591 111.026 24.1131 111.026 24.1131C111.026 24.1131 111.516 24.6052 113.232 24.5231C114.947 24.4411 115.356 22.1447 115.356 22.1447C115.356 22.1447 115.193 19.6842 114.539 19.1921C113.885 18.7 112.818 17.7596 112.16 18.1258C111.4 18.5482 110.944 18.782 111.516 19.8482C112.088 20.9144 112.468 21.6716 112.468 21.6716L110.618 21.8986C110.618 21.8986 113.232 22.6367 109.229 20.1762C105.226 17.7157 104.74 17.5189 104.082 17.5517C103.033 17.6038 103.183 18.946 103.183 18.946L101.794 18.8639C101.794 18.8639 100.954 18.791 100.977 19.6841C100.998 20.4958 103.841 22.4288 103.841 22.4288L94.8979 23.563Z" fill="#EBBEA4"/>
<path d="M175.71 10.1129L177.32 9.9534L177.19 7.74234L175.565 7.81482L175.71 10.1129Z" fill="#2D2D2D"/>
</g>
<g clip-path="url(#clip1_262_205)">
<path d="M212.842 185.749L208.062 219.042L206.182 228.175L203.128 225.665L203.732 217.052L204.58 200.638L203.462 185.658L212.842 185.749Z" fill="#2F1F12" stroke="black" stroke-width="0.264583"/>
<path d="M203.16 225.68C202.728 225.921 201.037 226.757 201.037 226.757L200.437 228.41L206.139 228.256L203.16 225.68Z" fill="#2F1F12" stroke="black" stroke-width="0.264583"/>
<path d="M204.587 200.869L210.136 201.381L210.773 192.294L203.893 192.177L204.587 200.869Z" fill="#BD6F19" stroke="black" stroke-width="0.264583"/>
<path d="M257.35 213.397L252.209 215.025L245.445 202.495L249.955 199.374L257.35 213.397Z" fill="#BD6F19" stroke="black" stroke-width="0.264583"/>
<path d="M252.42 228.512C250.114 226.703 249.731 225.558 249.773 225.558L246.798 226.063L245.806 228.325L252.42 228.512Z" fill="#2F1F12" stroke="black" stroke-width="0.264583"/>
<path d="M257.44 213.442C257.44 213.442 252.983 228.92 252.48 228.506C251.849 227.985 249.394 225.895 249.594 225.407C249.752 225.022 252.093 214.935 252.093 214.935L257.44 213.442Z" fill="#2F1F12" stroke="black" stroke-width="0.264583"/>
<path d="M245.355 202.54L240.665 198.922L236.426 188.427L233.134 165.764L249.504 163.773L254.103 198.831L245.355 202.54Z" fill="#BD6F19" stroke="black" stroke-width="0.264583"/>
<path d="M251.813 166.883L257.762 172.063L262.463 192.822L260.827 201.958L258.668 212.41L256.077 204.924L246.468 167.163L251.813 166.883Z" fill="#BD6F19" stroke="black" stroke-width="0.264583"/>
<path d="M245.806 166.352L257.711 172.051L251.398 166.171L245.806 166.352Z" fill="#BD6F19" stroke="black" stroke-width="0.264583"/>
<path d="M262.446 192.86L253.923 197.202C253.923 197.202 258.793 213.578 258.793 213.035C258.793 212.492 262.446 192.86 262.446 192.86Z" fill="#DED1CC" stroke="black" stroke-width="0.264583"/>
<path d="M195.398 163.308L187.205 152L185.428 164.351L195.398 163.308Z" fill="#BD6F19" stroke="black" stroke-width="0.264583"/>
<path d="M199.214 163.001L182.554 163.809L180.084 165.538L199.939 175.216L199.214 163.001Z" fill="#DF8F35" stroke="black" stroke-width="0.264583"/>
<path d="M186.035 179.094L177.887 170.608L168.356 174.8L169.067 178.089L175.336 180.098L186.035 179.094Z" fill="#392515" stroke="black" stroke-width="0.264583"/>
<path d="M169.013 178.072L169.057 174.243L167.303 175.435L169.013 178.072Z" fill="#23170D" stroke="black" stroke-width="0.264583"/>
<path d="M199.148 174.759L184.891 167.806L185.587 152.99L199.148 174.759Z" fill="#DF8F35" stroke="black" stroke-width="0.264583"/>
<path d="M200.262 175.248L186.323 179.407L177.486 170.315L180.206 165.527L200.262 175.248Z" fill="#DF8F35" stroke="black" stroke-width="0.264583"/>
<path d="M200.087 175.207L200.59 183.779L187.541 180.663L186.297 179.38L200.087 175.207Z" fill="#EFE1DC" stroke="black" stroke-width="0.264583"/>
<path d="M199.854 183.668L204.003 192.217L220.08 193.167L215.525 167.519L199.223 163.04L199.854 183.668Z" fill="#DF8F35" stroke="black" stroke-width="0.264583"/>
<path d="M233.384 166.29L209.783 167.985L215.748 193.544L220.021 193.32L237.622 185.964L233.384 166.29Z" fill="#DF8F35" stroke="black" stroke-width="0.264583"/>
<path d="M209.645 168.165L216.445 176.608L216.089 198.053L208.964 200.043L202.016 180.388L209.645 168.165Z" fill="#DF8F35" stroke="black" stroke-width="0.264583"/>
<path d="M216.057 198.106L218.434 224.47L215.097 232.794L212.174 230.749L214.16 223.976L209 200.038L216.057 198.106Z" fill="#392515" stroke="black" stroke-width="0.264583"/>
<path d="M212.143 230.69L209.234 231.617L208.592 233.483L215.04 232.816L212.143 230.69Z" fill="#392515" stroke="black" stroke-width="0.264583"/>
<path d="M264.472 215.597L267.11 233.232L268.528 232.833L264.472 215.597Z" fill="#2F1F12" stroke="black" stroke-width="0.264583"/>
<path d="M249.55 164.216L233.225 166.388L237.598 186.472L242.695 197.51L253.789 205.2L256.338 195.858L255.592 181.135L249.55 164.216Z" fill="#DF8F35" stroke="black" stroke-width="0.264583"/>
<path d="M262.267 204.928H265.153L268.129 207.552L269.121 211.714L262.267 204.928Z" fill="#DF8F35" stroke="black" stroke-width="0.264583"/>
<path d="M267.79 231.207L265.455 233.006L265.333 234.603L268.219 233.698L267.79 231.207Z" fill="#392515" stroke="black" stroke-width="0.264583"/>
<path d="M269.196 211.984L271.105 232.522L267.949 233.97L264.483 215.28L269.196 211.984Z" fill="#392515" stroke="black" stroke-width="0.264583"/>
<path d="M256.268 195.936L269.165 211.949L264.385 215.478L253.833 205.074L256.268 195.936Z" fill="#DF8F35" stroke="black" stroke-width="0.264583"/>
<path d="M159.996 123.766H150.294V230.447H159.996V123.766Z" fill="#CCCCCC"/>
<path d="M189.495 124.684H179.793V231.365H189.495V124.684Z" fill="#CCCCCC"/>
<path d="M217.027 124.422H207.326V231.102H217.027V124.422Z" fill="#CCCCCC"/>
<path d="M244.035 124.16H234.333V230.84H244.035V124.16Z" fill="#CCCCCC"/>
<path d="M269.732 124.684H260.03V231.365H269.732V124.684Z" fill="#CCCCCC"/>
<path d="M298.051 124.422H288.349V231.102H298.051V124.422Z" fill="#CCCCCC"/>
<path d="M305 118H144.001V128.485H305V118Z" fill="#6A7371"/>
<path d="M304.999 226.515H144V237H304.999V226.515Z" fill="#6A7371"/>
</g>
<g clip-path="url(#clip2_262_205)">
<path d="M180.327 107.847L176.391 109.613L180.544 109.178L180.327 107.847Z" fill="#171E1E" stroke="black" stroke-width="0.264583"/>
<path d="M181.603 102.305L180.164 106.896L180.653 109.504L183.991 103.826L181.603 102.305Z" fill="#025B9A" stroke="black" stroke-width="0.264583"/>
<path d="M181.331 108.363L186.081 110.944L180.789 109.667L181.331 108.363Z" fill="#171E1E" stroke="black" stroke-width="0.264583"/>
<path d="M180.49 108.2L176.174 110.59L180.653 109.613L180.49 108.2Z" fill="#171E1E" stroke="black" stroke-width="0.264583"/>
<path d="M183.376 80.6152L184.489 88.0301L177.35 90.3352L176.505 86.1091L177.427 83.1893L177.887 78.1948L183.376 80.6152Z" fill="#0272C1" stroke="black" stroke-width="0.264583"/>
<path d="M186.485 88.0301L183.299 80.5383L185.142 88.9137L186.485 88.0301Z" fill="#025B9A" stroke="black" stroke-width="0.264583"/>
<path d="M185.334 88.7985L177.043 92.1793L176.736 89.4132L183.837 82.8435L185.334 88.7985Z" fill="#0272C1" stroke="black" stroke-width="0.264583"/>
<path d="M183.107 80.5383L177.772 82.6898L181.918 82.9587L183.107 80.5383Z" fill="#F2F30D" stroke="black" stroke-width="0.264583"/>
<path d="M177.427 83.4198L181.687 84.8797L177.081 89.1827L176.429 86.0323L177.427 83.4198Z" fill="#F2F30D" stroke="black" stroke-width="0.264583"/>
<path d="M173.665 80.1158L172.053 84.4955L176.352 86.1091L173.665 80.1158Z" fill="#171E1E" stroke="black" stroke-width="0.264583"/>
<path d="M175.315 85.1871L172.245 84.5339L175.277 88.5679L175.315 85.1871Z" fill="#171E1E" stroke="black" stroke-width="0.264583"/>
<path d="M177.887 77.9643L177.58 83.0356L176.429 86.3396L173.665 80.0773L177.887 77.9643Z" fill="#171E1E" stroke="black" stroke-width="0.264583"/>
<path d="M177.58 82.8819L177.925 78.0795L183.338 80.4999L177.58 82.8819Z" fill="#0272C1" stroke="black" stroke-width="0.264583"/>
<path d="M190.518 110.517L191.475 140.626L192.934 137.668L192.588 112.004L190.518 110.517Z" fill="#025B9A" stroke="black" stroke-width="0.264583"/>
<path d="M195.714 114.78L191.245 125.066L192.281 112.119L195.714 114.78Z" fill="#0272C1" stroke="black" stroke-width="0.264583"/>
<path d="M195.63 114.791L195.659 124.567L191.325 124.935L195.63 114.791Z" fill="#0272C1" stroke="black" stroke-width="0.264583"/>
<path d="M186.293 87.7995L176.966 92.0641L176.889 95.3297L187.829 99.4021L186.293 87.7995Z" fill="#0272C1" stroke="black" stroke-width="0.264583"/>
<path d="M176.928 95.2145L176.835 97.8848L191.957 112.857L195.103 115.3L193.817 111.12L181.802 96.9049L176.928 95.2145Z" fill="#025B9A" stroke="black" stroke-width="0.264583"/>
<path d="M180.761 110.455L176.473 112.519L181.006 111.596L180.761 110.455Z" fill="#171E1E" stroke="black" stroke-width="0.264583"/>
<path d="M186.977 105.809L182.091 102.087L180.436 107.303L181.006 111.107L182.716 111.134L186.977 105.809Z" fill="#0272C1" stroke="black" stroke-width="0.264583"/>
<path d="M182.743 111.324L187.031 113.389L181.63 112.003L181.521 111.27L182.743 111.324Z" fill="#171E1E" stroke="black" stroke-width="0.264583"/>
<path d="M181.386 111.215L181.624 112.008L176.609 114.122L180.897 111.08L181.386 111.215Z" fill="#171E1E" stroke="black" stroke-width="0.264583"/>
<path d="M194.508 96.2518L199.421 119.803L185.718 105.818L194.508 96.2518Z" fill="#0272C1" stroke="black" stroke-width="0.264583"/>
<path d="M194.585 96.2902L185.756 105.933L181.687 102.322L181.534 92.2946L183.491 89.4516L186.524 87.8764L191.13 90.0279L194.585 96.2902Z" fill="#0272C1" stroke="black" stroke-width="0.264583"/>
<path d="M158.948 61.859H154.128V114.751H158.948V61.859Z" fill="#CCCCCC"/>
<path d="M173.606 62.3139H168.785V115.206H173.606V62.3139Z" fill="#CCCCCC"/>
<path d="M187.287 62.1839H182.466V115.076H187.287V62.1839Z" fill="#CCCCCC"/>
<path d="M200.707 62.0539H195.886V114.946H200.707V62.0539Z" fill="#CCCCCC"/>
<path d="M213.476 62.3139H208.655V115.206H213.476V62.3139Z" fill="#CCCCCC"/>
<path d="M227.547 62.1839H222.726V115.076H227.547V62.1839Z" fill="#CCCCCC"/>
<path d="M231 59H151.001V64.1982H231V59Z" fill="#6A7371"/>
<path d="M230.999 112.802H151V118H230.999V112.802Z" fill="#6A7371"/>
</g>
<defs>
<filter id="filter0_d_262_205" x="-1.00641" y="198.974" width="26.2476" height="44.3206" filterUnits="userSpaceOnUse" color-interpolation-filters="sRGB">
<feFlood flood-opacity="0" result="BackgroundImageFix"/>
<feColorMatrix in="SourceAlpha" type="matrix" values="0 0 0 0 0 0 0 0 0 0 0 0 0 0 0 0 0 0 127 0" result="hardAlpha"/>
<feOffset dy="4"/>
<feGaussianBlur stdDeviation="2"/>
<feComposite in2="hardAlpha" operator="out"/>
<feColorMatrix type="matrix" values="0 0 0 0 0 0 0 0 0 0 0 0 0 0 0 0 0 0 0.25 0"/>
<feBlend mode="normal" in2="BackgroundImageFix" result="effect1_dropShadow_262_205"/>
<feBlend mode="normal" in="SourceGraphic" in2="effect1_dropShadow_262_205" result="shape"/>
</filter>
<filter id="filter1_d_262_205" x="47.7654" y="193.251" width="36.441" height="41.0585" filterUnits="userSpaceOnUse" color-interpolation-filters="sRGB">
<feFlood flood-opacity="0" result="BackgroundImageFix"/>
<feColorMatrix in="SourceAlpha" type="matrix" values="0 0 0 0 0 0 0 0 0 0 0 0 0 0 0 0 0 0 127 0" result="hardAlpha"/>
<feOffset dy="4"/>
<feGaussianBlur stdDeviation="2"/>
<feComposite in2="hardAlpha" operator="out"/>
<feColorMatrix type="matrix" values="0 0 0 0 0 0 0 0 0 0 0 0 0 0 0 0 0 0 0.25 0"/>
<feBlend mode="normal" in2="BackgroundImageFix" result="effect1_dropShadow_262_205"/>
<feBlend mode="normal" in="SourceGraphic" in2="effect1_dropShadow_262_205" result="shape"/>
</filter>
<clipPath id="clip0_262_205">
<rect width="178" height="246" fill="white"/>
</clipPath>
<clipPath id="clip1_262_205">
<rect width="161" height="119" fill="white" transform="translate(144 118)"/>
</clipPath>
<clipPath id="clip2_262_205">
<rect width="80" height="59" fill="white" transform="translate(151 59)"/>
</clipPath>
</defs>
</svg>
