<svg width="203" height="84" viewBox="0 0 203 84" fill="none" xmlns="http://www.w3.org/2000/svg">
<g clip-path="url(#clip0_328_378)">
<g filter="url(#filter0_d_328_378)">
<path d="M5.25186 44.0874C35.202 60.7523 57.2381 44.0874 57.2381 44.0874C58.1652 29.2198 55.4069 10.3546 55.4069 10.3546C42.3732 20.75 26.6477 19.6622 5.25185 11.351C5.25185 11.351 5.25185 30.2769 5.25186 44.0874Z" fill="#624F29"/>
<path d="M30.3931 18.1825C44.266 18.1825 55.5123 15.0077 55.5123 11.0913C55.5123 7.17485 44.266 3.99994 30.3931 3.99994C16.5201 3.99994 5.27391 7.17485 5.27391 11.0913C5.27391 15.0077 16.5201 18.1825 30.3931 18.1825Z" fill="#B08E4A"/>
<path d="M30.5328 15.5827C40.7752 15.5827 49.0783 13.3117 49.0783 10.5103C49.0783 7.70895 40.7752 5.43799 30.5328 5.43799C20.2904 5.43799 11.9873 7.70895 11.9873 10.5103C11.9873 13.3117 20.2904 15.5827 30.5328 15.5827Z" fill="#9C7E42"/>
<path d="M31.0263 13.2321C38.7024 13.2321 44.9251 11.8105 44.9251 10.0568C44.9251 8.30306 38.7024 6.88141 31.0263 6.88141C23.3501 6.88141 17.1274 8.30306 17.1274 10.0568C17.1274 11.8105 23.3501 13.2321 31.0263 13.2321Z" fill="#BE9950"/>
</g>
</g>
<g clip-path="url(#clip1_328_378)">
<g filter="url(#filter1_d_328_378)">
<path d="M143 42.7544C172.95 59.4192 200.238 44.0875 200.238 44.0875C201.165 29.2199 198.407 10.3546 198.407 10.3546C185.373 20.75 169.648 19.6623 148.252 11.351C148.252 11.351 146.661 30.8685 143 42.7544V42.7544Z" fill="#624F29"/>
</g>
<path d="M173.393 18.1825C187.266 18.1825 198.512 15.0077 198.512 11.0913C198.512 7.17485 187.266 3.99994 173.393 3.99994C159.52 3.99994 148.274 7.17485 148.274 11.0913C148.274 15.0077 159.52 18.1825 173.393 18.1825Z" fill="#B08E4A"/>
<path d="M173.533 15.5827C183.775 15.5827 192.078 13.3118 192.078 10.5104C192.078 7.70901 183.775 5.43805 173.533 5.43805C163.29 5.43805 154.987 7.70901 154.987 10.5104C154.987 13.3118 163.29 15.5827 173.533 15.5827Z" fill="#9C7E42"/>
<path d="M174.026 13.2321C181.702 13.2321 187.925 11.8105 187.925 10.0568C187.925 8.30306 181.702 6.88141 174.026 6.88141C166.35 6.88141 160.127 8.30306 160.127 10.0568C160.127 11.8105 166.35 13.2321 174.026 13.2321Z" fill="#BE9950"/>
</g>
<g clip-path="url(#clip2_328_378)">
<g filter="url(#filter2_d_328_378)">
<path d="M73 38.657C103.574 55.28 131.431 39.9868 131.431 39.9868C132.377 25.1565 129.561 6.33862 129.561 6.33862C116.256 16.7079 100.203 15.6229 78.3613 7.33255C78.3613 7.33255 76.7376 26.801 73 38.657V38.657Z" fill="#624F29"/>
</g>
<path d="M104.026 14.1469C118.188 14.1469 129.669 10.98 129.669 7.07346C129.669 3.16688 118.188 -6.10352e-05 104.026 -6.10352e-05C89.8643 -6.10352e-05 78.3838 3.16688 78.3838 7.07346C78.3838 10.98 89.8643 14.1469 104.026 14.1469Z" fill="#B08E4A"/>
<path d="M104.169 11.5536C114.625 11.5536 123.101 9.28839 123.101 6.49405C123.101 3.69971 114.625 1.43445 104.169 1.43445C93.7131 1.43445 85.237 3.69971 85.237 6.49405C85.237 9.28839 93.7131 11.5536 104.169 11.5536Z" fill="#9C7E42"/>
<path d="M104.673 9.20898C112.509 9.20898 118.861 7.79089 118.861 6.04159C118.861 4.29229 112.509 2.87421 104.673 2.87421C96.8366 2.87421 90.4842 4.29229 90.4842 6.04159C90.4842 7.79089 96.8366 9.20898 104.673 9.20898Z" fill="#BE9950"/>
</g>
<g clip-path="url(#clip3_328_378)">
<g filter="url(#filter3_d_328_378)">
<path d="M171.625 65.7347C141.051 82.8211 113.194 67.1015 113.194 67.1015C112.248 51.8578 115.064 32.5153 115.064 32.5153C128.369 43.1737 144.422 42.0584 166.264 33.537C166.264 33.537 167.887 53.5482 171.625 65.7347V65.7347Z" fill="#624F29"/>
</g>
<path d="M140.599 40.5413C126.437 40.5413 114.956 37.2862 114.956 33.2707C114.956 29.2552 126.437 25.9999 140.599 25.9999C154.761 25.9999 166.241 29.2552 166.241 33.2707C166.241 37.2862 154.761 40.5413 140.599 40.5413Z" fill="#B08E4A"/>
<path d="M140.456 37.8757C130 37.8757 121.524 35.5473 121.524 32.6751C121.524 29.8028 130 27.4744 140.456 27.4744C150.912 27.4744 159.388 29.8028 159.388 32.6751C159.388 35.5473 150.912 37.8757 140.456 37.8757Z" fill="#9C7E42"/>
<path d="M139.952 35.4657C132.116 35.4657 125.764 34.0081 125.764 32.21C125.764 30.412 132.116 28.9543 139.952 28.9543C147.788 28.9543 154.141 30.412 154.141 32.21C154.141 34.0081 147.788 35.4657 139.952 35.4657Z" fill="#BE9950"/>
</g>
<g clip-path="url(#clip4_328_378)">
<g filter="url(#filter4_d_328_378)">
<path d="M36 65.5302C66.5741 82.5288 94.4306 66.8901 94.4306 66.8901C95.3769 51.7248 92.5612 32.4818 92.5612 32.4818C79.2559 43.0853 63.2029 41.9758 41.3613 33.4982C41.3613 33.4982 39.7376 53.4065 36 65.5302V65.5302Z" fill="#624F29"/>
</g>
<path d="M67.0263 40.4665C81.1882 40.4665 92.6688 37.2281 92.6688 33.2332C92.6688 29.2384 81.1882 25.9999 67.0263 25.9999C52.8643 25.9999 41.3838 29.2384 41.3838 33.2332C41.3838 37.2281 52.8643 40.4665 67.0263 40.4665Z" fill="#B08E4A"/>
<path d="M67.1689 37.8146C77.6247 37.8146 86.1008 35.4982 86.1008 32.6408C86.1008 29.7833 77.6247 27.4669 67.1689 27.4669C56.7131 27.4669 48.237 29.7833 48.237 32.6408C48.237 35.4982 56.7131 37.8146 67.1689 37.8146Z" fill="#9C7E42"/>
<path d="M67.6727 35.417C75.5087 35.417 81.8611 33.9669 81.8611 32.1781C81.8611 30.3893 75.5087 28.9391 67.6727 28.9391C59.8366 28.9391 53.4842 30.3893 53.4842 32.1781C53.4842 33.9669 59.8366 35.417 67.6727 35.417Z" fill="#BE9950"/>
</g>
<defs>
<filter id="filter0_d_328_378" x="1.25185" y="3.99994" width="60.1767" height="55.4941" filterUnits="userSpaceOnUse" color-interpolation-filters="sRGB">
<feFlood flood-opacity="0" result="BackgroundImageFix"/>
<feColorMatrix in="SourceAlpha" type="matrix" values="0 0 0 0 0 0 0 0 0 0 0 0 0 0 0 0 0 0 127 0" result="hardAlpha"/>
<feOffset dy="4"/>
<feGaussianBlur stdDeviation="2"/>
<feComposite in2="hardAlpha" operator="out"/>
<feColorMatrix type="matrix" values="0 0 0 0 0 0 0 0 0 0 0 0 0 0 0 0 0 0 0.25 0"/>
<feBlend mode="normal" in2="BackgroundImageFix" result="effect1_dropShadow_328_378"/>
<feBlend mode="normal" in="SourceGraphic" in2="effect1_dropShadow_328_378" result="shape"/>
</filter>
<filter id="filter1_d_328_378" x="139" y="10.3546" width="65.4286" height="48.1685" filterUnits="userSpaceOnUse" color-interpolation-filters="sRGB">
<feFlood flood-opacity="0" result="BackgroundImageFix"/>
<feColorMatrix in="SourceAlpha" type="matrix" values="0 0 0 0 0 0 0 0 0 0 0 0 0 0 0 0 0 0 127 0" result="hardAlpha"/>
<feOffset dy="4"/>
<feGaussianBlur stdDeviation="2"/>
<feComposite in2="hardAlpha" operator="out"/>
<feColorMatrix type="matrix" values="0 0 0 0 0 0 0 0 0 0 0 0 0 0 0 0 0 0 0.25 0"/>
<feBlend mode="normal" in2="BackgroundImageFix" result="effect1_dropShadow_328_378"/>
<feBlend mode="normal" in="SourceGraphic" in2="effect1_dropShadow_328_378" result="shape"/>
</filter>
<filter id="filter2_d_328_378" x="69" y="6.33862" width="66.625" height="48.0676" filterUnits="userSpaceOnUse" color-interpolation-filters="sRGB">
<feFlood flood-opacity="0" result="BackgroundImageFix"/>
<feColorMatrix in="SourceAlpha" type="matrix" values="0 0 0 0 0 0 0 0 0 0 0 0 0 0 0 0 0 0 127 0" result="hardAlpha"/>
<feOffset dy="4"/>
<feGaussianBlur stdDeviation="2"/>
<feComposite in2="hardAlpha" operator="out"/>
<feColorMatrix type="matrix" values="0 0 0 0 0 0 0 0 0 0 0 0 0 0 0 0 0 0 0.25 0"/>
<feBlend mode="normal" in2="BackgroundImageFix" result="effect1_dropShadow_328_378"/>
<feBlend mode="normal" in="SourceGraphic" in2="effect1_dropShadow_328_378" result="shape"/>
</filter>
<filter id="filter3_d_328_378" x="109" y="32.5153" width="66.625" height="49.1846" filterUnits="userSpaceOnUse" color-interpolation-filters="sRGB">
<feFlood flood-opacity="0" result="BackgroundImageFix"/>
<feColorMatrix in="SourceAlpha" type="matrix" values="0 0 0 0 0 0 0 0 0 0 0 0 0 0 0 0 0 0 127 0" result="hardAlpha"/>
<feOffset dy="4"/>
<feGaussianBlur stdDeviation="2"/>
<feComposite in2="hardAlpha" operator="out"/>
<feColorMatrix type="matrix" values="0 0 0 0 0 0 0 0 0 0 0 0 0 0 0 0 0 0 0.25 0"/>
<feBlend mode="normal" in2="BackgroundImageFix" result="effect1_dropShadow_328_378"/>
<feBlend mode="normal" in="SourceGraphic" in2="effect1_dropShadow_328_378" result="shape"/>
</filter>
<filter id="filter4_d_328_378" x="32" y="32.4818" width="66.625" height="48.9727" filterUnits="userSpaceOnUse" color-interpolation-filters="sRGB">
<feFlood flood-opacity="0" result="BackgroundImageFix"/>
<feColorMatrix in="SourceAlpha" type="matrix" values="0 0 0 0 0 0 0 0 0 0 0 0 0 0 0 0 0 0 127 0" result="hardAlpha"/>
<feOffset dy="4"/>
<feGaussianBlur stdDeviation="2"/>
<feComposite in2="hardAlpha" operator="out"/>
<feColorMatrix type="matrix" values="0 0 0 0 0 0 0 0 0 0 0 0 0 0 0 0 0 0 0.25 0"/>
<feBlend mode="normal" in2="BackgroundImageFix" result="effect1_dropShadow_328_378"/>
<feBlend mode="normal" in="SourceGraphic" in2="effect1_dropShadow_328_378" result="shape"/>
</filter>
<clipPath id="clip0_328_378">
<rect width="60" height="56" fill="white" transform="translate(0 4)"/>
</clipPath>
<clipPath id="clip1_328_378">
<rect width="60" height="56" fill="white" transform="translate(143 4)"/>
</clipPath>
<clipPath id="clip2_328_378">
<rect width="63" height="55" fill="white" transform="translate(73)"/>
</clipPath>
<clipPath id="clip3_328_378">
<rect width="63" height="53" fill="white" transform="matrix(-1 0 0 1 176 26)"/>
</clipPath>
<clipPath id="clip4_328_378">
<rect width="63" height="58" fill="white" transform="translate(36 26)"/>
</clipPath>
</defs>
</svg>
