<svg width="136" height="136" viewBox="0 0 136 136" fill="none" xmlns="http://www.w3.org/2000/svg">
<g clip-path="url(#clip0_328_381)">
<g filter="url(#filter0_d_328_381)">
<path d="M58.9325 31.3709C57.6981 31.3709 56.6142 31.9406 56.0723 32.8102C54.4766 32.9902 52.8809 33.0501 51.2551 32.9902C51.0744 32.9902 49.9604 32.9302 48.9669 32.8402C48.8765 31.3709 48.6056 29.9616 48.1238 28.6122C48.997 28.2523 49.8701 27.9525 50.7733 27.6826C51.4658 28.1624 52.4293 28.2523 53.3626 27.8625C54.7174 27.2928 55.4099 25.9434 54.9282 24.8039C54.4465 23.6645 52.9712 23.2147 51.6465 23.7844C50.7131 24.1742 50.1109 24.9539 49.9604 25.7635C49.1475 26.2133 48.3346 26.6331 47.4615 26.9929C46.8894 25.7635 46.1367 24.594 45.2937 23.5745C45.926 22.7949 46.7088 21.9553 46.8292 21.8053C47.9131 20.6059 49.0873 19.5264 50.3518 18.5368C51.3454 18.7467 52.5196 18.4169 53.3927 17.5473C54.6572 16.2879 54.8078 14.3988 53.754 13.3493C52.7002 12.2997 50.8034 12.4497 49.5389 13.7091C48.6658 14.5787 48.3346 15.7481 48.5454 16.7377C47.5518 17.9971 46.4679 19.1666 45.2636 20.2461C45.1131 20.366 44.3002 21.1157 43.5174 21.7454C42.4335 20.7858 41.2292 19.9762 39.9345 19.3465C40.2958 18.4769 40.6872 17.6373 41.1388 16.8276C41.9517 16.6777 42.7345 16.048 43.0958 15.1184C43.6378 13.7691 43.1862 12.2997 42.0421 11.8499C40.898 11.4002 39.5431 12.0898 39.0012 13.4392C38.6098 14.3688 38.7302 15.3583 39.2119 16.018C38.9711 16.9176 38.67 17.7872 38.3087 18.6268C37.0442 18.177 35.7194 17.8772 34.3345 17.7272C34.2442 16.7377 34.1839 15.5982 34.1538 15.3883C34.0936 13.7691 34.1538 12.1798 34.3345 10.5905C35.1775 10.0508 35.7797 8.97128 35.7797 7.74185C35.7797 5.97267 34.5753 4.53333 33.07 4.53333C31.5646 4.53333 30.3603 5.97267 30.3603 7.74185C30.3603 8.97128 30.9323 10.0508 31.8054 10.5905C31.9861 12.1798 32.0463 13.7691 31.9861 15.3883C31.9861 15.5682 31.9259 16.6777 31.8355 17.6673C30.3603 17.7572 28.9452 18.0271 27.5903 18.5069C27.2291 17.6373 26.928 16.7677 26.657 15.8681C27.1387 15.1784 27.2291 14.2188 26.8377 13.2893C26.2656 11.9399 24.9108 11.2502 23.7667 11.73C22.6226 12.2098 22.171 13.6791 22.743 14.9985C23.1344 15.9281 23.9172 16.5278 24.7301 16.6777C25.1817 17.4873 25.6032 18.297 25.9645 19.1666C24.7301 19.7363 23.5559 20.4859 22.5322 21.3256C21.7494 20.6958 20.9064 19.9162 20.7559 19.7963C19.5516 18.7168 18.4677 17.5473 17.4741 16.2879C17.6849 15.2983 17.3537 14.1289 16.4806 13.2593C15.2161 11.9999 13.3193 11.8499 12.2655 12.8995C11.2117 13.949 11.3623 15.8381 12.6268 17.0975C13.4999 17.9671 14.6741 18.297 15.6677 18.0871C16.9322 19.0766 18.1064 20.1561 19.1903 21.3555C19.3107 21.5055 20.0634 22.3151 20.6957 23.0947C19.7322 24.1742 18.9193 25.3737 18.287 26.6631C17.4139 26.3033 16.5709 25.9134 15.758 25.4636C15.6075 24.654 14.9752 23.8744 14.0419 23.5145C12.687 22.9748 11.2117 23.4246 10.7601 24.5641C10.3085 25.7035 11.001 27.0529 12.3558 27.5927C13.2892 27.9825 14.2827 27.8625 14.9451 27.3828C15.8483 27.6226 16.7214 27.9225 17.5645 28.2823C17.1128 29.5418 16.8118 30.8611 16.6612 32.2405C15.6677 32.3305 14.5236 32.3904 14.3128 32.4204C12.687 32.4804 11.0913 32.4204 9.49559 32.2405C8.95365 31.4009 7.86977 30.8012 6.63535 30.8012C4.85899 30.8012 3.41382 32.0006 3.41382 33.4999C3.41382 34.9992 4.85899 36.1987 6.63535 36.1987C7.86977 36.1987 8.95365 35.6289 9.49559 34.7593C11.0913 34.5794 12.687 34.5194 14.3128 34.5794C14.4935 34.5794 15.6075 34.6394 16.601 34.7294C16.6913 36.1987 16.9623 37.608 17.444 38.9574C16.5709 39.3172 15.6978 39.6171 14.7945 39.887C14.1021 39.4072 13.1386 39.3172 12.2053 39.707C10.8504 40.2768 10.158 41.6262 10.6397 42.7656C11.1214 43.9051 12.5967 44.3549 13.9214 43.7852C14.8548 43.3953 15.4569 42.6157 15.6075 41.8061C16.4204 41.3563 17.2333 40.9365 18.1064 40.5766C18.6784 41.8061 19.4311 42.9755 20.2742 43.9951C19.6419 44.7747 18.8591 45.6143 18.7387 45.7642C17.6548 46.9637 16.4806 48.0432 15.2161 49.0327C14.2225 48.8228 13.0483 49.1527 12.1752 50.0223C10.9107 51.2817 10.7601 53.1708 11.8139 54.2203C12.8677 55.2698 14.7644 55.1199 16.029 53.8605C16.9021 52.9909 17.2333 51.8214 17.0225 50.8319C18.0161 49.5725 19.1 48.403 20.3043 47.3235C20.4548 47.2036 21.2677 46.4539 22.0505 45.8242C23.1344 46.7838 24.3387 47.5934 25.6333 48.2231C25.272 49.0927 24.8806 49.9323 24.429 50.7419C23.6161 50.8919 22.8333 51.5216 22.472 52.4511C21.9301 53.8005 22.3817 55.2698 23.5258 55.7196C24.6699 56.1694 26.0247 55.4797 26.5667 54.1304C26.9581 53.2008 26.8377 52.2113 26.3559 51.5516C26.5968 50.652 26.8979 49.7824 27.2592 48.9428C28.5237 49.3926 29.8484 49.6924 31.2334 49.8424C31.3237 50.8319 31.3839 51.9714 31.414 52.1813C31.4742 53.8005 31.414 55.3898 31.2334 56.979C30.3904 57.5188 29.7882 58.5983 29.7882 59.8277C29.7882 61.5969 30.9925 63.0362 32.4979 63.0362C34.0033 63.0362 35.2076 61.5969 35.2076 59.8277C35.2076 58.5983 34.6356 57.5188 33.7624 56.979C33.5818 55.3898 33.5216 53.8005 33.5818 52.1813C33.5818 52.0013 33.642 50.8919 33.7323 49.9023C35.2076 49.8124 36.6227 49.5425 37.9775 49.0627C38.3388 49.9323 38.6399 50.8019 38.9109 51.7015C38.4291 52.3912 38.3388 53.3507 38.7302 54.2803C39.3023 55.6297 40.6571 56.3194 41.8012 55.8396C42.9453 55.3598 43.3969 53.8905 42.8249 52.5711C42.4335 51.6415 41.6507 51.0418 40.8378 50.8919C40.3861 50.0822 39.9646 49.2726 39.6033 48.403C40.8378 47.8333 42.012 47.0836 43.0356 46.244C43.8184 46.8737 44.6614 47.6534 44.812 47.7733C46.0163 48.8528 47.1002 50.0223 48.0937 51.2817C47.883 52.2712 48.2142 53.4407 49.0873 54.3103C50.3518 55.5697 52.2486 55.7196 53.3024 54.6701C54.3561 53.6206 54.2056 51.7315 52.9411 50.4721C52.068 49.6025 50.8938 49.2726 49.9002 49.4825C48.6357 48.493 47.4615 47.4135 46.3776 46.214C46.2572 46.0641 45.5045 45.2545 44.8722 44.4748C45.8357 43.3953 46.6486 42.1959 47.2808 40.9065C48.1539 41.2663 48.997 41.6561 49.8099 42.1059C49.9604 42.9156 50.5927 43.6952 51.526 44.055C52.8809 44.5948 54.3561 44.145 54.8078 43.0055C55.2594 41.866 54.5669 40.5167 53.2121 39.9769C52.2787 39.5871 51.2851 39.707 50.6228 40.1868C49.7195 39.9469 48.8464 39.6471 48.0034 39.2872C48.455 38.0278 48.7561 36.7084 48.9066 35.3291C49.9002 35.2391 51.0443 35.1791 51.2551 35.1492C52.8809 35.0892 54.4766 35.1492 56.0723 35.3291C56.6142 36.1687 57.6981 36.7684 58.9325 36.7684C60.7089 36.7684 62.154 35.569 62.154 34.0697C62.154 32.5704 60.7089 31.3709 58.9325 31.3709ZM27.8914 43.3054C26.9882 43.3054 26.2355 42.5857 26.2355 41.6561C26.2355 40.7566 26.9581 40.0069 27.8914 40.0069C28.7947 40.0069 29.5473 40.7266 29.5473 41.6561C29.5172 42.5857 28.7947 43.3054 27.8914 43.3054ZM25.8742 37.7579C23.1946 37.7579 21.0269 35.5989 21.0269 32.9302C21.0269 30.2614 23.1946 28.1024 25.8742 28.1024C28.5538 28.1024 30.7216 30.2614 30.7216 32.9302C30.6915 35.5989 28.5237 37.7579 25.8742 37.7579ZM41.1087 30.4413C41.1087 31.3409 40.3861 32.0906 39.4528 32.0906C38.5496 32.0906 37.7969 31.3709 37.7969 30.4413C37.7969 29.5418 38.5195 28.7921 39.4528 28.7921C40.3861 28.8221 41.1087 29.5418 41.1087 30.4413ZM38.9711 23.2147C39.6937 23.2147 40.2657 23.7844 40.2657 24.5041C40.2657 25.2238 39.6937 25.7935 38.9711 25.7935C38.2485 25.7935 37.6764 25.2238 37.6764 24.5041C37.7066 23.7844 38.2786 23.2147 38.9711 23.2147ZM33.1904 27.7426C32.2872 27.7426 31.5345 27.0229 31.5345 26.0933C31.5345 25.1938 32.257 24.4441 33.1904 24.4441C34.0936 24.4441 34.8463 25.1638 34.8463 26.0933C34.8162 27.0229 34.0936 27.7426 33.1904 27.7426ZM37.827 43.9351C35.7495 43.9351 34.0936 42.2559 34.0936 40.2168C34.0936 38.1478 35.7797 36.4985 37.827 36.4985C39.9044 36.4985 41.5604 38.1778 41.5604 40.2168C41.5604 42.2859 39.9044 43.9351 37.827 43.9351Z" fill="#FC3030"/>
<path d="M58.9325 31.3709C57.6981 31.3709 56.6142 31.9406 56.0723 32.8102C54.4766 32.9902 52.8809 33.0501 51.2551 32.9902C51.0744 32.9902 49.9604 32.9302 48.9669 32.8402C48.8765 31.3709 48.6056 29.9616 48.1238 28.6122C48.997 28.2523 49.8701 27.9525 50.7733 27.6826C51.4658 28.1624 52.4293 28.2523 53.3626 27.8625C54.7174 27.2928 55.4099 25.9434 54.9282 24.8039C54.4465 23.6645 52.9712 23.2147 51.6465 23.7844C50.7131 24.1742 50.1109 24.9539 49.9604 25.7635C49.1475 26.2133 48.3346 26.6331 47.4615 26.9929C46.8894 25.7635 46.1367 24.594 45.2937 23.5745C45.926 22.7949 46.7088 21.9553 46.8292 21.8053C47.9131 20.6059 49.0873 19.5264 50.3518 18.5368C51.3454 18.7467 52.5196 18.4169 53.3927 17.5473C54.6572 16.2879 54.8078 14.3988 53.754 13.3493C52.7002 12.2997 50.8034 12.4497 49.5389 13.7091C48.6658 14.5787 48.3346 15.7481 48.5454 16.7377C47.5518 17.9971 46.4679 19.1666 45.2636 20.2461C45.1131 20.366 44.3002 21.1157 43.5174 21.7454C42.4335 20.7858 41.2292 19.9762 39.9345 19.3465C40.2958 18.4769 40.6872 17.6373 41.1388 16.8276C41.9517 16.6777 42.7345 16.048 43.0958 15.1184C43.6378 13.7691 43.1862 12.2997 42.0421 11.8499C40.898 11.4002 39.5431 12.0898 39.0012 13.4392C38.6098 14.3688 38.7302 15.3583 39.2119 16.018C38.9711 16.9176 38.67 17.7872 38.3087 18.6268C37.0442 18.177 35.7194 17.8772 34.3345 17.7272C34.2442 16.7377 34.1839 15.5982 34.1538 15.3883C34.0936 13.7691 34.1538 12.1798 34.3345 10.5905C35.1775 10.0508 35.7797 8.97128 35.7797 7.74185C35.7797 5.97267 34.5753 4.53333 33.07 4.53333C31.5646 4.53333 30.3603 5.97267 30.3603 7.74185C30.3603 8.97128 30.9323 10.0508 31.8054 10.5905C31.9861 12.1798 32.0463 13.7691 31.9861 15.3883C31.9861 15.5682 31.9259 16.6777 31.8355 17.6673C30.3603 17.7572 28.9452 18.0271 27.5903 18.5069C27.2291 17.6373 26.928 16.7677 26.657 15.8681C27.1387 15.1784 27.2291 14.2188 26.8377 13.2893C26.2656 11.9399 24.9108 11.2502 23.7667 11.73C22.6226 12.2098 22.171 13.6791 22.743 14.9985C23.1344 15.9281 23.9172 16.5278 24.7301 16.6777C25.1817 17.4873 25.6032 18.297 25.9645 19.1666C24.7301 19.7363 23.5559 20.4859 22.5322 21.3256C21.7494 20.6958 20.9064 19.9162 20.7559 19.7963C19.5516 18.7168 18.4677 17.5473 17.4741 16.2879C17.6849 15.2983 17.3537 14.1289 16.4806 13.2593C15.2161 11.9999 13.3193 11.8499 12.2655 12.8995C11.2117 13.949 11.3623 15.8381 12.6268 17.0975C13.4999 17.9671 14.6741 18.297 15.6677 18.0871C16.9322 19.0766 18.1064 20.1561 19.1903 21.3555C19.3107 21.5055 20.0634 22.3151 20.6957 23.0947C19.7322 24.1742 18.9193 25.3737 18.287 26.6631C17.4139 26.3033 16.5709 25.9134 15.758 25.4636C15.6075 24.654 14.9752 23.8744 14.0419 23.5145C12.687 22.9748 11.2117 23.4246 10.7601 24.5641C10.3085 25.7035 11.001 27.0529 12.3558 27.5927C13.2892 27.9825 14.2827 27.8625 14.9451 27.3828C15.8483 27.6226 16.7214 27.9225 17.5645 28.2823C17.1128 29.5418 16.8118 30.8611 16.6612 32.2405C15.6677 32.3305 14.5236 32.3904 14.3128 32.4204C12.687 32.4804 11.0913 32.4204 9.49559 32.2405C8.95365 31.4009 7.86977 30.8012 6.63535 30.8012C4.85899 30.8012 3.41382 32.0006 3.41382 33.4999C3.41382 34.9992 4.85899 36.1987 6.63535 36.1987C7.86977 36.1987 8.95365 35.6289 9.49559 34.7593C11.0913 34.5794 12.687 34.5194 14.3128 34.5794C14.4935 34.5794 15.6075 34.6394 16.601 34.7294C16.6913 36.1987 16.9623 37.608 17.444 38.9574C16.5709 39.3172 15.6978 39.6171 14.7945 39.887C14.1021 39.4072 13.1386 39.3172 12.2053 39.707C10.8504 40.2768 10.158 41.6262 10.6397 42.7656C11.1214 43.9051 12.5967 44.3549 13.9214 43.7852C14.8548 43.3953 15.4569 42.6157 15.6075 41.8061C16.4204 41.3563 17.2333 40.9365 18.1064 40.5766C18.6784 41.8061 19.4311 42.9755 20.2742 43.9951C19.6419 44.7747 18.8591 45.6143 18.7387 45.7642C17.6548 46.9637 16.4806 48.0432 15.2161 49.0327C14.2225 48.8228 13.0483 49.1527 12.1752 50.0223C10.9107 51.2817 10.7601 53.1708 11.8139 54.2203C12.8677 55.2698 14.7644 55.1199 16.029 53.8605C16.9021 52.9909 17.2333 51.8214 17.0225 50.8319C18.0161 49.5725 19.1 48.403 20.3043 47.3235C20.4548 47.2036 21.2677 46.4539 22.0505 45.8242C23.1344 46.7838 24.3387 47.5934 25.6333 48.2231C25.272 49.0927 24.8806 49.9323 24.429 50.7419C23.6161 50.8919 22.8333 51.5216 22.472 52.4511C21.9301 53.8005 22.3817 55.2698 23.5258 55.7196C24.6699 56.1694 26.0247 55.4797 26.5667 54.1304C26.9581 53.2008 26.8377 52.2113 26.3559 51.5516C26.5968 50.652 26.8979 49.7824 27.2592 48.9428C28.5237 49.3926 29.8484 49.6924 31.2334 49.8424C31.3237 50.8319 31.3839 51.9714 31.414 52.1813C31.4742 53.8005 31.414 55.3898 31.2334 56.979C30.3904 57.5188 29.7882 58.5983 29.7882 59.8277C29.7882 61.5969 30.9925 63.0362 32.4979 63.0362C34.0033 63.0362 35.2076 61.5969 35.2076 59.8277C35.2076 58.5983 34.6356 57.5188 33.7624 56.979C33.5818 55.3898 33.5216 53.8005 33.5818 52.1813C33.5818 52.0013 33.642 50.8919 33.7323 49.9023C35.2076 49.8124 36.6227 49.5425 37.9775 49.0627C38.3388 49.9323 38.6399 50.8019 38.9109 51.7015C38.4291 52.3912 38.3388 53.3507 38.7302 54.2803C39.3023 55.6297 40.6571 56.3194 41.8012 55.8396C42.9453 55.3598 43.3969 53.8905 42.8249 52.5711C42.4335 51.6415 41.6507 51.0418 40.8378 50.8919C40.3861 50.0822 39.9646 49.2726 39.6033 48.403C40.8378 47.8333 42.012 47.0836 43.0356 46.244C43.8184 46.8737 44.6614 47.6534 44.812 47.7733C46.0163 48.8528 47.1002 50.0223 48.0937 51.2817C47.883 52.2712 48.2142 53.4407 49.0873 54.3103C50.3518 55.5697 52.2486 55.7196 53.3024 54.6701C54.3561 53.6206 54.2056 51.7315 52.9411 50.4721C52.068 49.6025 50.8938 49.2726 49.9002 49.4825C48.6357 48.493 47.4615 47.4135 46.3776 46.214C46.2572 46.0641 45.5045 45.2545 44.8722 44.4748C45.8357 43.3953 46.6486 42.1959 47.2808 40.9065C48.1539 41.2663 48.997 41.6561 49.8099 42.1059C49.9604 42.9156 50.5927 43.6952 51.526 44.055C52.8809 44.5948 54.3561 44.145 54.8078 43.0055C55.2594 41.866 54.5669 40.5167 53.2121 39.9769C52.2787 39.5871 51.2851 39.707 50.6228 40.1868C49.7195 39.9469 48.8464 39.6471 48.0034 39.2872C48.455 38.0278 48.7561 36.7084 48.9066 35.3291C49.9002 35.2391 51.0443 35.1791 51.2551 35.1492C52.8809 35.0892 54.4766 35.1492 56.0723 35.3291C56.6142 36.1687 57.6981 36.7684 58.9325 36.7684C60.7089 36.7684 62.154 35.569 62.154 34.0697C62.154 32.5704 60.7089 31.3709 58.9325 31.3709ZM27.8914 43.3054C26.9882 43.3054 26.2355 42.5857 26.2355 41.6561C26.2355 40.7566 26.9581 40.0069 27.8914 40.0069C28.7947 40.0069 29.5473 40.7266 29.5473 41.6561C29.5172 42.5857 28.7947 43.3054 27.8914 43.3054ZM25.8742 37.7579C23.1946 37.7579 21.0269 35.5989 21.0269 32.9302C21.0269 30.2614 23.1946 28.1024 25.8742 28.1024C28.5538 28.1024 30.7216 30.2614 30.7216 32.9302C30.6915 35.5989 28.5237 37.7579 25.8742 37.7579ZM41.1087 30.4413C41.1087 31.3409 40.3861 32.0906 39.4528 32.0906C38.5496 32.0906 37.7969 31.3709 37.7969 30.4413C37.7969 29.5418 38.5195 28.7921 39.4528 28.7921C40.3861 28.8221 41.1087 29.5418 41.1087 30.4413ZM38.9711 23.2147C39.6937 23.2147 40.2657 23.7844 40.2657 24.5041C40.2657 25.2238 39.6937 25.7935 38.9711 25.7935C38.2485 25.7935 37.6764 25.2238 37.6764 24.5041C37.7066 23.7844 38.2786 23.2147 38.9711 23.2147ZM33.1904 27.7426C32.2872 27.7426 31.5345 27.0229 31.5345 26.0933C31.5345 25.1938 32.257 24.4441 33.1904 24.4441C34.0936 24.4441 34.8463 25.1638 34.8463 26.0933C34.8162 27.0229 34.0936 27.7426 33.1904 27.7426ZM37.827 43.9351C35.7495 43.9351 34.0936 42.2559 34.0936 40.2168C34.0936 38.1478 35.7797 36.4985 37.827 36.4985C39.9044 36.4985 41.5604 38.1778 41.5604 40.2168C41.5604 42.2859 39.9044 43.9351 37.827 43.9351Z" stroke="black" stroke-width="0.264583"/>
</g>
</g>
<g clip-path="url(#clip1_328_381)">
<g filter="url(#filter1_d_328_381)">
<path d="M128.933 31.3709C127.698 31.3709 126.614 31.9406 126.072 32.8102C124.477 32.9902 122.881 33.0501 121.255 32.9902C121.074 32.9902 119.96 32.9302 118.967 32.8402C118.877 31.3709 118.606 29.9616 118.124 28.6122C118.997 28.2523 119.87 27.9525 120.773 27.6826C121.466 28.1624 122.429 28.2523 123.363 27.8625C124.717 27.2928 125.41 25.9434 124.928 24.8039C124.446 23.6645 122.971 23.2147 121.646 23.7844C120.713 24.1742 120.111 24.9539 119.96 25.7635C119.147 26.2133 118.335 26.6331 117.461 26.9929C116.889 25.7635 116.137 24.594 115.294 23.5745C115.926 22.7949 116.709 21.9553 116.829 21.8053C117.913 20.6059 119.087 19.5264 120.352 18.5368C121.345 18.7467 122.52 18.4169 123.393 17.5473C124.657 16.2879 124.808 14.3988 123.754 13.3493C122.7 12.2997 120.803 12.4497 119.539 13.7091C118.666 14.5787 118.335 15.7481 118.545 16.7377C117.552 17.9971 116.468 19.1666 115.264 20.2461C115.113 20.366 114.3 21.1157 113.517 21.7454C112.433 20.7858 111.229 19.9762 109.935 19.3465C110.296 18.4769 110.687 17.6373 111.139 16.8276C111.952 16.6777 112.735 16.048 113.096 15.1184C113.638 13.7691 113.186 12.2997 112.042 11.8499C110.898 11.4002 109.543 12.0898 109.001 13.4392C108.61 14.3688 108.73 15.3583 109.212 16.018C108.971 16.9176 108.67 17.7872 108.309 18.6268C107.044 18.177 105.719 17.8772 104.334 17.7272C104.244 16.7377 104.184 15.5982 104.154 15.3883C104.094 13.7691 104.154 12.1798 104.334 10.5905C105.178 10.0508 105.78 8.97128 105.78 7.74185C105.78 5.97267 104.575 4.53333 103.07 4.53333C101.565 4.53333 100.36 5.97267 100.36 7.74185C100.36 8.97128 100.932 10.0508 101.805 10.5905C101.986 12.1798 102.046 13.7691 101.986 15.3883C101.986 15.5682 101.926 16.6777 101.836 17.6673C100.36 17.7572 98.9452 18.0271 97.5903 18.5069C97.2291 17.6373 96.928 16.7677 96.657 15.8681C97.1387 15.1784 97.2291 14.2188 96.8377 13.2893C96.2656 11.9399 94.9108 11.2502 93.7667 11.73C92.6226 12.2098 92.171 13.6791 92.743 14.9985C93.1344 15.9281 93.9172 16.5278 94.7301 16.6777C95.1817 17.4873 95.6032 18.297 95.9645 19.1666C94.7301 19.7363 93.5559 20.4859 92.5322 21.3256C91.7494 20.6958 90.9064 19.9162 90.7559 19.7963C89.5516 18.7168 88.4677 17.5473 87.4741 16.2879C87.6849 15.2983 87.3537 14.1289 86.4806 13.2593C85.2161 11.9999 83.3193 11.8499 82.2655 12.8995C81.2117 13.949 81.3623 15.8381 82.6268 17.0975C83.4999 17.9671 84.6741 18.297 85.6677 18.0871C86.9322 19.0766 88.1064 20.1561 89.1903 21.3555C89.3107 21.5055 90.0634 22.3151 90.6957 23.0947C89.7322 24.1742 88.9193 25.3737 88.287 26.6631C87.4139 26.3033 86.5709 25.9134 85.758 25.4636C85.6075 24.654 84.9752 23.8744 84.0419 23.5145C82.687 22.9748 81.2117 23.4246 80.7601 24.5641C80.3085 25.7035 81.001 27.0529 82.3558 27.5927C83.2892 27.9825 84.2827 27.8625 84.9451 27.3828C85.8483 27.6226 86.7214 27.9225 87.5645 28.2823C87.1128 29.5418 86.8118 30.8611 86.6612 32.2405C85.6677 32.3305 84.5236 32.3904 84.3128 32.4204C82.687 32.4804 81.0913 32.4204 79.4956 32.2405C78.9536 31.4009 77.8698 30.8012 76.6354 30.8012C74.859 30.8012 73.4138 32.0006 73.4138 33.4999C73.4138 34.9992 74.859 36.1987 76.6354 36.1987C77.8698 36.1987 78.9536 35.6289 79.4956 34.7593C81.0913 34.5794 82.687 34.5194 84.3128 34.5794C84.4935 34.5794 85.6075 34.6394 86.601 34.7294C86.6913 36.1987 86.9623 37.608 87.444 38.9574C86.5709 39.3172 85.6978 39.6171 84.7945 39.887C84.1021 39.4072 83.1386 39.3172 82.2053 39.707C80.8504 40.2768 80.158 41.6262 80.6397 42.7656C81.1214 43.9051 82.5967 44.3549 83.9214 43.7852C84.8548 43.3953 85.4569 42.6157 85.6075 41.8061C86.4204 41.3563 87.2333 40.9365 88.1064 40.5766C88.6784 41.8061 89.4311 42.9755 90.2742 43.9951C89.6419 44.7747 88.8591 45.6143 88.7387 45.7642C87.6548 46.9637 86.4806 48.0432 85.2161 49.0327C84.2225 48.8228 83.0483 49.1527 82.1752 50.0223C80.9107 51.2817 80.7601 53.1708 81.8139 54.2203C82.8677 55.2698 84.7644 55.1199 86.029 53.8605C86.9021 52.9909 87.2333 51.8214 87.0225 50.8319C88.0161 49.5725 89.1 48.403 90.3043 47.3235C90.4548 47.2036 91.2677 46.4539 92.0505 45.8242C93.1344 46.7838 94.3387 47.5934 95.6333 48.2231C95.272 49.0927 94.8806 49.9323 94.429 50.7419C93.6161 50.8919 92.8333 51.5216 92.472 52.4511C91.9301 53.8005 92.3817 55.2698 93.5258 55.7196C94.6699 56.1694 96.0247 55.4797 96.5667 54.1304C96.9581 53.2008 96.8377 52.2113 96.3559 51.5516C96.5968 50.652 96.8979 49.7824 97.2592 48.9428C98.5237 49.3926 99.8484 49.6924 101.233 49.8424C101.324 50.8319 101.384 51.9714 101.414 52.1813C101.474 53.8005 101.414 55.3898 101.233 56.979C100.39 57.5188 99.7882 58.5983 99.7882 59.8277C99.7882 61.5969 100.993 63.0362 102.498 63.0362C104.003 63.0362 105.208 61.5969 105.208 59.8277C105.208 58.5983 104.636 57.5188 103.762 56.979C103.582 55.3898 103.522 53.8005 103.582 52.1813C103.582 52.0013 103.642 50.8919 103.732 49.9023C105.208 49.8124 106.623 49.5425 107.978 49.0627C108.339 49.9323 108.64 50.8019 108.911 51.7015C108.429 52.3912 108.339 53.3507 108.73 54.2803C109.302 55.6297 110.657 56.3194 111.801 55.8396C112.945 55.3598 113.397 53.8905 112.825 52.5711C112.433 51.6415 111.651 51.0418 110.838 50.8919C110.386 50.0822 109.965 49.2726 109.603 48.403C110.838 47.8333 112.012 47.0836 113.036 46.244C113.818 46.8737 114.661 47.6534 114.812 47.7733C116.016 48.8528 117.1 50.0223 118.094 51.2817C117.883 52.2712 118.214 53.4407 119.087 54.3103C120.352 55.5697 122.249 55.7196 123.302 54.6701C124.356 53.6206 124.206 51.7315 122.941 50.4721C122.068 49.6025 120.894 49.2726 119.9 49.4825C118.636 48.493 117.461 47.4135 116.378 46.214C116.257 46.0641 115.504 45.2545 114.872 44.4748C115.836 43.3953 116.649 42.1959 117.281 40.9065C118.154 41.2663 118.997 41.6561 119.81 42.1059C119.96 42.9156 120.593 43.6952 121.526 44.055C122.881 44.5948 124.356 44.145 124.808 43.0055C125.259 41.866 124.567 40.5167 123.212 39.9769C122.279 39.5871 121.285 39.707 120.623 40.1868C119.72 39.9469 118.846 39.6471 118.003 39.2872C118.455 38.0278 118.756 36.7084 118.907 35.3291C119.9 35.2391 121.044 35.1791 121.255 35.1492C122.881 35.0892 124.477 35.1492 126.072 35.3291C126.614 36.1687 127.698 36.7684 128.933 36.7684C130.709 36.7684 132.154 35.569 132.154 34.0697C132.154 32.5704 130.709 31.3709 128.933 31.3709ZM97.8914 43.3054C96.9882 43.3054 96.2355 42.5857 96.2355 41.6561C96.2355 40.7566 96.9581 40.0069 97.8914 40.0069C98.7947 40.0069 99.5473 40.7266 99.5473 41.6561C99.5172 42.5857 98.7947 43.3054 97.8914 43.3054ZM95.8742 37.7579C93.1946 37.7579 91.0269 35.5989 91.0269 32.9302C91.0269 30.2614 93.1946 28.1024 95.8742 28.1024C98.5538 28.1024 100.722 30.2614 100.722 32.9302C100.691 35.5989 98.5237 37.7579 95.8742 37.7579ZM111.109 30.4413C111.109 31.3409 110.386 32.0906 109.453 32.0906C108.55 32.0906 107.797 31.3709 107.797 30.4413C107.797 29.5418 108.519 28.7921 109.453 28.7921C110.386 28.8221 111.109 29.5418 111.109 30.4413ZM108.971 23.2147C109.694 23.2147 110.266 23.7844 110.266 24.5041C110.266 25.2238 109.694 25.7935 108.971 25.7935C108.248 25.7935 107.676 25.2238 107.676 24.5041C107.707 23.7844 108.279 23.2147 108.971 23.2147ZM103.19 27.7426C102.287 27.7426 101.534 27.0229 101.534 26.0933C101.534 25.1938 102.257 24.4441 103.19 24.4441C104.094 24.4441 104.846 25.1638 104.846 26.0933C104.816 27.0229 104.094 27.7426 103.19 27.7426ZM107.827 43.9351C105.75 43.9351 104.094 42.2559 104.094 40.2168C104.094 38.1478 105.78 36.4985 107.827 36.4985C109.904 36.4985 111.56 38.1778 111.56 40.2168C111.56 42.2859 109.904 43.9351 107.827 43.9351Z" fill="#AFADA7"/>
<path d="M128.933 31.3709C127.698 31.3709 126.614 31.9406 126.072 32.8102C124.477 32.9902 122.881 33.0501 121.255 32.9902C121.074 32.9902 119.96 32.9302 118.967 32.8402C118.877 31.3709 118.606 29.9616 118.124 28.6122C118.997 28.2523 119.87 27.9525 120.773 27.6826C121.466 28.1624 122.429 28.2523 123.363 27.8625C124.717 27.2928 125.41 25.9434 124.928 24.8039C124.446 23.6645 122.971 23.2147 121.646 23.7844C120.713 24.1742 120.111 24.9539 119.96 25.7635C119.147 26.2133 118.335 26.6331 117.461 26.9929C116.889 25.7635 116.137 24.594 115.294 23.5745C115.926 22.7949 116.709 21.9553 116.829 21.8053C117.913 20.6059 119.087 19.5264 120.352 18.5368C121.345 18.7467 122.52 18.4169 123.393 17.5473C124.657 16.2879 124.808 14.3988 123.754 13.3493C122.7 12.2997 120.803 12.4497 119.539 13.7091C118.666 14.5787 118.335 15.7481 118.545 16.7377C117.552 17.9971 116.468 19.1666 115.264 20.2461C115.113 20.366 114.3 21.1157 113.517 21.7454C112.433 20.7858 111.229 19.9762 109.935 19.3465C110.296 18.4769 110.687 17.6373 111.139 16.8276C111.952 16.6777 112.735 16.048 113.096 15.1184C113.638 13.7691 113.186 12.2997 112.042 11.8499C110.898 11.4002 109.543 12.0898 109.001 13.4392C108.61 14.3688 108.73 15.3583 109.212 16.018C108.971 16.9176 108.67 17.7872 108.309 18.6268C107.044 18.177 105.719 17.8772 104.334 17.7272C104.244 16.7377 104.184 15.5982 104.154 15.3883C104.094 13.7691 104.154 12.1798 104.334 10.5905C105.178 10.0508 105.78 8.97128 105.78 7.74185C105.78 5.97267 104.575 4.53333 103.07 4.53333C101.565 4.53333 100.36 5.97267 100.36 7.74185C100.36 8.97128 100.932 10.0508 101.805 10.5905C101.986 12.1798 102.046 13.7691 101.986 15.3883C101.986 15.5682 101.926 16.6777 101.836 17.6673C100.36 17.7572 98.9452 18.0271 97.5903 18.5069C97.2291 17.6373 96.928 16.7677 96.657 15.8681C97.1387 15.1784 97.2291 14.2188 96.8377 13.2893C96.2656 11.9399 94.9108 11.2502 93.7667 11.73C92.6226 12.2098 92.171 13.6791 92.743 14.9985C93.1344 15.9281 93.9172 16.5278 94.7301 16.6777C95.1817 17.4873 95.6032 18.297 95.9645 19.1666C94.7301 19.7363 93.5559 20.4859 92.5322 21.3256C91.7494 20.6958 90.9064 19.9162 90.7559 19.7963C89.5516 18.7168 88.4677 17.5473 87.4741 16.2879C87.6849 15.2983 87.3537 14.1289 86.4806 13.2593C85.2161 11.9999 83.3193 11.8499 82.2655 12.8995C81.2117 13.949 81.3623 15.8381 82.6268 17.0975C83.4999 17.9671 84.6741 18.297 85.6677 18.0871C86.9322 19.0766 88.1064 20.1561 89.1903 21.3555C89.3107 21.5055 90.0634 22.3151 90.6957 23.0947C89.7322 24.1742 88.9193 25.3737 88.287 26.6631C87.4139 26.3033 86.5709 25.9134 85.758 25.4636C85.6075 24.654 84.9752 23.8744 84.0419 23.5145C82.687 22.9748 81.2117 23.4246 80.7601 24.5641C80.3085 25.7035 81.001 27.0529 82.3558 27.5927C83.2892 27.9825 84.2827 27.8625 84.9451 27.3828C85.8483 27.6226 86.7214 27.9225 87.5645 28.2823C87.1128 29.5418 86.8118 30.8611 86.6612 32.2405C85.6677 32.3305 84.5236 32.3904 84.3128 32.4204C82.687 32.4804 81.0913 32.4204 79.4956 32.2405C78.9536 31.4009 77.8698 30.8012 76.6354 30.8012C74.859 30.8012 73.4138 32.0006 73.4138 33.4999C73.4138 34.9992 74.859 36.1987 76.6354 36.1987C77.8698 36.1987 78.9536 35.6289 79.4956 34.7593C81.0913 34.5794 82.687 34.5194 84.3128 34.5794C84.4935 34.5794 85.6075 34.6394 86.601 34.7294C86.6913 36.1987 86.9623 37.608 87.444 38.9574C86.5709 39.3172 85.6978 39.6171 84.7945 39.887C84.1021 39.4072 83.1386 39.3172 82.2053 39.707C80.8504 40.2768 80.158 41.6262 80.6397 42.7656C81.1214 43.9051 82.5967 44.3549 83.9214 43.7852C84.8548 43.3953 85.4569 42.6157 85.6075 41.8061C86.4204 41.3563 87.2333 40.9365 88.1064 40.5766C88.6784 41.8061 89.4311 42.9755 90.2742 43.9951C89.6419 44.7747 88.8591 45.6143 88.7387 45.7642C87.6548 46.9637 86.4806 48.0432 85.2161 49.0327C84.2225 48.8228 83.0483 49.1527 82.1752 50.0223C80.9107 51.2817 80.7601 53.1708 81.8139 54.2203C82.8677 55.2698 84.7644 55.1199 86.029 53.8605C86.9021 52.9909 87.2333 51.8214 87.0225 50.8319C88.0161 49.5725 89.1 48.403 90.3043 47.3235C90.4548 47.2036 91.2677 46.4539 92.0505 45.8242C93.1344 46.7838 94.3387 47.5934 95.6333 48.2231C95.272 49.0927 94.8806 49.9323 94.429 50.7419C93.6161 50.8919 92.8333 51.5216 92.472 52.4511C91.9301 53.8005 92.3817 55.2698 93.5258 55.7196C94.6699 56.1694 96.0247 55.4797 96.5667 54.1304C96.9581 53.2008 96.8377 52.2113 96.3559 51.5516C96.5968 50.652 96.8979 49.7824 97.2592 48.9428C98.5237 49.3926 99.8484 49.6924 101.233 49.8424C101.324 50.8319 101.384 51.9714 101.414 52.1813C101.474 53.8005 101.414 55.3898 101.233 56.979C100.39 57.5188 99.7882 58.5983 99.7882 59.8277C99.7882 61.5969 100.993 63.0362 102.498 63.0362C104.003 63.0362 105.208 61.5969 105.208 59.8277C105.208 58.5983 104.636 57.5188 103.762 56.979C103.582 55.3898 103.522 53.8005 103.582 52.1813C103.582 52.0013 103.642 50.8919 103.732 49.9023C105.208 49.8124 106.623 49.5425 107.978 49.0627C108.339 49.9323 108.64 50.8019 108.911 51.7015C108.429 52.3912 108.339 53.3507 108.73 54.2803C109.302 55.6297 110.657 56.3194 111.801 55.8396C112.945 55.3598 113.397 53.8905 112.825 52.5711C112.433 51.6415 111.651 51.0418 110.838 50.8919C110.386 50.0822 109.965 49.2726 109.603 48.403C110.838 47.8333 112.012 47.0836 113.036 46.244C113.818 46.8737 114.661 47.6534 114.812 47.7733C116.016 48.8528 117.1 50.0223 118.094 51.2817C117.883 52.2712 118.214 53.4407 119.087 54.3103C120.352 55.5697 122.249 55.7196 123.302 54.6701C124.356 53.6206 124.206 51.7315 122.941 50.4721C122.068 49.6025 120.894 49.2726 119.9 49.4825C118.636 48.493 117.461 47.4135 116.378 46.214C116.257 46.0641 115.504 45.2545 114.872 44.4748C115.836 43.3953 116.649 42.1959 117.281 40.9065C118.154 41.2663 118.997 41.6561 119.81 42.1059C119.96 42.9156 120.593 43.6952 121.526 44.055C122.881 44.5948 124.356 44.145 124.808 43.0055C125.259 41.866 124.567 40.5167 123.212 39.9769C122.279 39.5871 121.285 39.707 120.623 40.1868C119.72 39.9469 118.846 39.6471 118.003 39.2872C118.455 38.0278 118.756 36.7084 118.907 35.3291C119.9 35.2391 121.044 35.1791 121.255 35.1492C122.881 35.0892 124.477 35.1492 126.072 35.3291C126.614 36.1687 127.698 36.7684 128.933 36.7684C130.709 36.7684 132.154 35.569 132.154 34.0697C132.154 32.5704 130.709 31.3709 128.933 31.3709ZM97.8914 43.3054C96.9882 43.3054 96.2355 42.5857 96.2355 41.6561C96.2355 40.7566 96.9581 40.0069 97.8914 40.0069C98.7947 40.0069 99.5473 40.7266 99.5473 41.6561C99.5172 42.5857 98.7947 43.3054 97.8914 43.3054ZM95.8742 37.7579C93.1946 37.7579 91.0269 35.5989 91.0269 32.9302C91.0269 30.2614 93.1946 28.1024 95.8742 28.1024C98.5538 28.1024 100.722 30.2614 100.722 32.9302C100.691 35.5989 98.5237 37.7579 95.8742 37.7579ZM111.109 30.4413C111.109 31.3409 110.386 32.0906 109.453 32.0906C108.55 32.0906 107.797 31.3709 107.797 30.4413C107.797 29.5418 108.519 28.7921 109.453 28.7921C110.386 28.8221 111.109 29.5418 111.109 30.4413ZM108.971 23.2147C109.694 23.2147 110.266 23.7844 110.266 24.5041C110.266 25.2238 109.694 25.7935 108.971 25.7935C108.248 25.7935 107.676 25.2238 107.676 24.5041C107.707 23.7844 108.279 23.2147 108.971 23.2147ZM103.19 27.7426C102.287 27.7426 101.534 27.0229 101.534 26.0933C101.534 25.1938 102.257 24.4441 103.19 24.4441C104.094 24.4441 104.846 25.1638 104.846 26.0933C104.816 27.0229 104.094 27.7426 103.19 27.7426ZM107.827 43.9351C105.75 43.9351 104.094 42.2559 104.094 40.2168C104.094 38.1478 105.78 36.4985 107.827 36.4985C109.904 36.4985 111.56 38.1778 111.56 40.2168C111.56 42.2859 109.904 43.9351 107.827 43.9351Z" stroke="black" stroke-width="0.264583"/>
</g>
</g>
<g clip-path="url(#clip2_328_381)">
<g filter="url(#filter2_d_328_381)">
<path d="M91.9325 99.3709C90.6981 99.3709 89.6142 99.9406 89.0723 100.81C87.4766 100.99 85.8809 101.05 84.2551 100.99C84.0744 100.99 82.9604 100.93 81.9669 100.84C81.8765 99.3709 81.6056 97.9616 81.1238 96.6122C81.997 96.2523 82.8701 95.9525 83.7733 95.6826C84.4658 96.1624 85.4293 96.2523 86.3626 95.8625C87.7174 95.2928 88.4099 93.9434 87.9282 92.8039C87.4465 91.6645 85.9712 91.2147 84.6465 91.7844C83.7131 92.1742 83.1109 92.9539 82.9604 93.7635C82.1475 94.2133 81.3346 94.6331 80.4615 94.9929C79.8894 93.7635 79.1367 92.594 78.2937 91.5745C78.926 90.7949 79.7088 89.9553 79.8292 89.8053C80.9131 88.6059 82.0873 87.5264 83.3518 86.5368C84.3454 86.7467 85.5196 86.4169 86.3927 85.5473C87.6572 84.2879 87.8078 82.3988 86.754 81.3493C85.7002 80.2997 83.8034 80.4497 82.5389 81.7091C81.6658 82.5787 81.3346 83.7481 81.5454 84.7377C80.5518 85.9971 79.4679 87.1666 78.2636 88.2461C78.1131 88.366 77.3002 89.1157 76.5174 89.7454C75.4335 88.7858 74.2292 87.9762 72.9345 87.3465C73.2958 86.4769 73.6872 85.6373 74.1388 84.8276C74.9517 84.6777 75.7345 84.048 76.0958 83.1184C76.6378 81.7691 76.1862 80.2997 75.0421 79.8499C73.898 79.4002 72.5431 80.0898 72.0012 81.4392C71.6098 82.3688 71.7302 83.3583 72.2119 84.018C71.9711 84.9176 71.67 85.7872 71.3087 86.6268C70.0442 86.177 68.7194 85.8772 67.3345 85.7272C67.2442 84.7377 67.1839 83.5982 67.1538 83.3883C67.0936 81.7691 67.1538 80.1798 67.3345 78.5905C68.1775 78.0508 68.7797 76.9713 68.7797 75.7418C68.7797 73.9727 67.5753 72.5333 66.07 72.5333C64.5646 72.5333 63.3603 73.9727 63.3603 75.7418C63.3603 76.9713 63.9323 78.0508 64.8054 78.5905C64.9861 80.1798 65.0463 81.7691 64.9861 83.3883C64.9861 83.5682 64.9259 84.6777 64.8355 85.6673C63.3603 85.7572 61.9452 86.0271 60.5903 86.5069C60.2291 85.6373 59.928 84.7677 59.657 83.8681C60.1387 83.1784 60.2291 82.2188 59.8377 81.2893C59.2656 79.9399 57.9108 79.2502 56.7667 79.73C55.6226 80.2098 55.171 81.6791 55.743 82.9985C56.1344 83.9281 56.9172 84.5278 57.7301 84.6777C58.1817 85.4873 58.6032 86.297 58.9645 87.1666C57.7301 87.7363 56.5559 88.4859 55.5322 89.3256C54.7494 88.6958 53.9064 87.9162 53.7559 87.7963C52.5516 86.7168 51.4677 85.5473 50.4741 84.2879C50.6849 83.2983 50.3537 82.1289 49.4806 81.2593C48.2161 79.9999 46.3193 79.8499 45.2655 80.8995C44.2117 81.949 44.3623 83.8381 45.6268 85.0975C46.4999 85.9671 47.6741 86.297 48.6677 86.0871C49.9322 87.0766 51.1064 88.1561 52.1903 89.3555C52.3107 89.5055 53.0634 90.3151 53.6957 91.0947C52.7322 92.1742 51.9193 93.3737 51.287 94.6631C50.4139 94.3033 49.5709 93.9134 48.758 93.4636C48.6075 92.654 47.9752 91.8744 47.0419 91.5145C45.687 90.9748 44.2117 91.4246 43.7601 92.5641C43.3085 93.7035 44.001 95.0529 45.3558 95.5927C46.2892 95.9825 47.2827 95.8625 47.9451 95.3828C48.8483 95.6226 49.7214 95.9225 50.5645 96.2823C50.1128 97.5418 49.8118 98.8611 49.6612 100.241C48.6677 100.33 47.5236 100.39 47.3128 100.42C45.687 100.48 44.0913 100.42 42.4956 100.241C41.9536 99.4009 40.8698 98.8012 39.6354 98.8012C37.859 98.8012 36.4138 100.001 36.4138 101.5C36.4138 102.999 37.859 104.199 39.6354 104.199C40.8698 104.199 41.9536 103.629 42.4956 102.759C44.0913 102.579 45.687 102.519 47.3128 102.579C47.4935 102.579 48.6075 102.639 49.601 102.729C49.6913 104.199 49.9623 105.608 50.444 106.957C49.5709 107.317 48.6978 107.617 47.7945 107.887C47.1021 107.407 46.1386 107.317 45.2053 107.707C43.8504 108.277 43.158 109.626 43.6397 110.766C44.1214 111.905 45.5967 112.355 46.9214 111.785C47.8548 111.395 48.4569 110.616 48.6075 109.806C49.4204 109.356 50.2333 108.936 51.1064 108.577C51.6784 109.806 52.4311 110.976 53.2742 111.995C52.6419 112.775 51.8591 113.614 51.7387 113.764C50.6548 114.964 49.4806 116.043 48.2161 117.033C47.2225 116.823 46.0483 117.153 45.1752 118.022C43.9107 119.282 43.7601 121.171 44.8139 122.22C45.8677 123.27 47.7644 123.12 49.029 121.86C49.9021 120.991 50.2333 119.821 50.0225 118.832C51.0161 117.572 52.1 116.403 53.3043 115.324C53.4548 115.204 54.2677 114.454 55.0505 113.824C56.1344 114.784 57.3387 115.593 58.6333 116.223C58.272 117.093 57.8806 117.932 57.429 118.742C56.6161 118.892 55.8333 119.522 55.472 120.451C54.9301 121.801 55.3817 123.27 56.5258 123.72C57.6699 124.169 59.0247 123.48 59.5667 122.13C59.9581 121.201 59.8377 120.211 59.3559 119.552C59.5968 118.652 59.8979 117.782 60.2592 116.943C61.5237 117.393 62.8484 117.692 64.2334 117.842C64.3237 118.832 64.3839 119.971 64.414 120.181C64.4742 121.801 64.414 123.39 64.2334 124.979C63.3904 125.519 62.7882 126.598 62.7882 127.828C62.7882 129.597 63.9925 131.036 65.4979 131.036C67.0033 131.036 68.2076 129.597 68.2076 127.828C68.2076 126.598 67.6356 125.519 66.7624 124.979C66.5818 123.39 66.5216 121.801 66.5818 120.181C66.5818 120.001 66.642 118.892 66.7323 117.902C68.2076 117.812 69.6227 117.542 70.9775 117.063C71.3388 117.932 71.6399 118.802 71.9109 119.701C71.4291 120.391 71.3388 121.351 71.7302 122.28C72.3023 123.63 73.6571 124.319 74.8012 123.84C75.9453 123.36 76.3969 121.89 75.8249 120.571C75.4335 119.642 74.6507 119.042 73.8378 118.892C73.3861 118.082 72.9646 117.273 72.6033 116.403C73.8378 115.833 75.012 115.084 76.0356 114.244C76.8184 114.874 77.6614 115.653 77.812 115.773C79.0163 116.853 80.1002 118.022 81.0937 119.282C80.883 120.271 81.2142 121.441 82.0873 122.31C83.3518 123.57 85.2486 123.72 86.3024 122.67C87.3561 121.621 87.2056 119.731 85.9411 118.472C85.068 117.602 83.8938 117.273 82.9002 117.483C81.6357 116.493 80.4615 115.413 79.3776 114.214C79.2572 114.064 78.5045 113.254 77.8722 112.475C78.8357 111.395 79.6486 110.196 80.2808 108.906C81.1539 109.266 81.997 109.656 82.8099 110.106C82.9604 110.916 83.5927 111.695 84.526 112.055C85.8809 112.595 87.3561 112.145 87.8078 111.006C88.2594 109.866 87.5669 108.517 86.2121 107.977C85.2787 107.587 84.2851 107.707 83.6228 108.187C82.7195 107.947 81.8464 107.647 81.0034 107.287C81.455 106.028 81.7561 104.708 81.9066 103.329C82.9002 103.239 84.0443 103.179 84.2551 103.149C85.8809 103.089 87.4766 103.149 89.0723 103.329C89.6142 104.169 90.6981 104.768 91.9325 104.768C93.7089 104.768 95.154 103.569 95.154 102.07C95.154 100.57 93.7089 99.3709 91.9325 99.3709ZM60.8914 111.305C59.9882 111.305 59.2355 110.586 59.2355 109.656C59.2355 108.757 59.9581 108.007 60.8914 108.007C61.7947 108.007 62.5473 108.727 62.5473 109.656C62.5172 110.586 61.7947 111.305 60.8914 111.305ZM58.8742 105.758C56.1946 105.758 54.0269 103.599 54.0269 100.93C54.0269 98.2614 56.1946 96.1024 58.8742 96.1024C61.5538 96.1024 63.7216 98.2614 63.7216 100.93C63.6915 103.599 61.5237 105.758 58.8742 105.758ZM74.1087 98.4413C74.1087 99.3409 73.3861 100.091 72.4528 100.091C71.5496 100.091 70.7969 99.3709 70.7969 98.4413C70.7969 97.5418 71.5195 96.7921 72.4528 96.7921C73.3861 96.8221 74.1087 97.5418 74.1087 98.4413ZM71.9711 91.2147C72.6937 91.2147 73.2657 91.7844 73.2657 92.5041C73.2657 93.2238 72.6937 93.7935 71.9711 93.7935C71.2485 93.7935 70.6764 93.2238 70.6764 92.5041C70.7066 91.7844 71.2786 91.2147 71.9711 91.2147ZM66.1904 95.7426C65.2872 95.7426 64.5345 95.0229 64.5345 94.0933C64.5345 93.1938 65.257 92.4441 66.1904 92.4441C67.0936 92.4441 67.8463 93.1638 67.8463 94.0933C67.8162 95.0229 67.0936 95.7426 66.1904 95.7426ZM70.827 111.935C68.7495 111.935 67.0936 110.256 67.0936 108.217C67.0936 106.148 68.7797 104.499 70.827 104.499C72.9044 104.499 74.5604 106.178 74.5604 108.217C74.5604 110.286 72.9044 111.935 70.827 111.935Z" fill="#44BD32"/>
<path d="M91.9325 99.3709C90.6981 99.3709 89.6142 99.9406 89.0723 100.81C87.4766 100.99 85.8809 101.05 84.2551 100.99C84.0744 100.99 82.9604 100.93 81.9669 100.84C81.8765 99.3709 81.6056 97.9616 81.1238 96.6122C81.997 96.2523 82.8701 95.9525 83.7733 95.6826C84.4658 96.1624 85.4293 96.2523 86.3626 95.8625C87.7174 95.2928 88.4099 93.9434 87.9282 92.8039C87.4465 91.6645 85.9712 91.2147 84.6465 91.7844C83.7131 92.1742 83.1109 92.9539 82.9604 93.7635C82.1475 94.2133 81.3346 94.6331 80.4615 94.9929C79.8894 93.7635 79.1367 92.594 78.2937 91.5745C78.926 90.7949 79.7088 89.9553 79.8292 89.8053C80.9131 88.6059 82.0873 87.5264 83.3518 86.5368C84.3454 86.7467 85.5196 86.4169 86.3927 85.5473C87.6572 84.2879 87.8078 82.3988 86.754 81.3493C85.7002 80.2997 83.8034 80.4497 82.5389 81.7091C81.6658 82.5787 81.3346 83.7481 81.5454 84.7377C80.5518 85.9971 79.4679 87.1666 78.2636 88.2461C78.1131 88.366 77.3002 89.1157 76.5174 89.7454C75.4335 88.7858 74.2292 87.9762 72.9345 87.3465C73.2958 86.4769 73.6872 85.6373 74.1388 84.8276C74.9517 84.6777 75.7345 84.048 76.0958 83.1184C76.6378 81.7691 76.1862 80.2997 75.0421 79.8499C73.898 79.4002 72.5431 80.0898 72.0012 81.4392C71.6098 82.3688 71.7302 83.3583 72.2119 84.018C71.9711 84.9176 71.67 85.7872 71.3087 86.6268C70.0442 86.177 68.7194 85.8772 67.3345 85.7272C67.2442 84.7377 67.1839 83.5982 67.1538 83.3883C67.0936 81.7691 67.1538 80.1798 67.3345 78.5905C68.1775 78.0508 68.7797 76.9713 68.7797 75.7418C68.7797 73.9727 67.5753 72.5333 66.07 72.5333C64.5646 72.5333 63.3603 73.9727 63.3603 75.7418C63.3603 76.9713 63.9323 78.0508 64.8054 78.5905C64.9861 80.1798 65.0463 81.7691 64.9861 83.3883C64.9861 83.5682 64.9259 84.6777 64.8355 85.6673C63.3603 85.7572 61.9452 86.0271 60.5903 86.5069C60.2291 85.6373 59.928 84.7677 59.657 83.8681C60.1387 83.1784 60.2291 82.2188 59.8377 81.2893C59.2656 79.9399 57.9108 79.2502 56.7667 79.73C55.6226 80.2098 55.171 81.6791 55.743 82.9985C56.1344 83.9281 56.9172 84.5278 57.7301 84.6777C58.1817 85.4873 58.6032 86.297 58.9645 87.1666C57.7301 87.7363 56.5559 88.4859 55.5322 89.3256C54.7494 88.6958 53.9064 87.9162 53.7559 87.7963C52.5516 86.7168 51.4677 85.5473 50.4741 84.2879C50.6849 83.2983 50.3537 82.1289 49.4806 81.2593C48.2161 79.9999 46.3193 79.8499 45.2655 80.8995C44.2117 81.949 44.3623 83.8381 45.6268 85.0975C46.4999 85.9671 47.6741 86.297 48.6677 86.0871C49.9322 87.0766 51.1064 88.1561 52.1903 89.3555C52.3107 89.5055 53.0634 90.3151 53.6957 91.0947C52.7322 92.1742 51.9193 93.3737 51.287 94.6631C50.4139 94.3033 49.5709 93.9134 48.758 93.4636C48.6075 92.654 47.9752 91.8744 47.0419 91.5145C45.687 90.9748 44.2117 91.4246 43.7601 92.5641C43.3085 93.7035 44.001 95.0529 45.3558 95.5927C46.2892 95.9825 47.2827 95.8625 47.9451 95.3828C48.8483 95.6226 49.7214 95.9225 50.5645 96.2823C50.1128 97.5418 49.8118 98.8611 49.6612 100.241C48.6677 100.33 47.5236 100.39 47.3128 100.42C45.687 100.48 44.0913 100.42 42.4956 100.241C41.9536 99.4009 40.8698 98.8012 39.6354 98.8012C37.859 98.8012 36.4138 100.001 36.4138 101.5C36.4138 102.999 37.859 104.199 39.6354 104.199C40.8698 104.199 41.9536 103.629 42.4956 102.759C44.0913 102.579 45.687 102.519 47.3128 102.579C47.4935 102.579 48.6075 102.639 49.601 102.729C49.6913 104.199 49.9623 105.608 50.444 106.957C49.5709 107.317 48.6978 107.617 47.7945 107.887C47.1021 107.407 46.1386 107.317 45.2053 107.707C43.8504 108.277 43.158 109.626 43.6397 110.766C44.1214 111.905 45.5967 112.355 46.9214 111.785C47.8548 111.395 48.4569 110.616 48.6075 109.806C49.4204 109.356 50.2333 108.936 51.1064 108.577C51.6784 109.806 52.4311 110.976 53.2742 111.995C52.6419 112.775 51.8591 113.614 51.7387 113.764C50.6548 114.964 49.4806 116.043 48.2161 117.033C47.2225 116.823 46.0483 117.153 45.1752 118.022C43.9107 119.282 43.7601 121.171 44.8139 122.22C45.8677 123.27 47.7644 123.12 49.029 121.86C49.9021 120.991 50.2333 119.821 50.0225 118.832C51.0161 117.572 52.1 116.403 53.3043 115.324C53.4548 115.204 54.2677 114.454 55.0505 113.824C56.1344 114.784 57.3387 115.593 58.6333 116.223C58.272 117.093 57.8806 117.932 57.429 118.742C56.6161 118.892 55.8333 119.522 55.472 120.451C54.9301 121.801 55.3817 123.27 56.5258 123.72C57.6699 124.169 59.0247 123.48 59.5667 122.13C59.9581 121.201 59.8377 120.211 59.3559 119.552C59.5968 118.652 59.8979 117.782 60.2592 116.943C61.5237 117.393 62.8484 117.692 64.2334 117.842C64.3237 118.832 64.3839 119.971 64.414 120.181C64.4742 121.801 64.414 123.39 64.2334 124.979C63.3904 125.519 62.7882 126.598 62.7882 127.828C62.7882 129.597 63.9925 131.036 65.4979 131.036C67.0033 131.036 68.2076 129.597 68.2076 127.828C68.2076 126.598 67.6356 125.519 66.7624 124.979C66.5818 123.39 66.5216 121.801 66.5818 120.181C66.5818 120.001 66.642 118.892 66.7323 117.902C68.2076 117.812 69.6227 117.542 70.9775 117.063C71.3388 117.932 71.6399 118.802 71.9109 119.701C71.4291 120.391 71.3388 121.351 71.7302 122.28C72.3023 123.63 73.6571 124.319 74.8012 123.84C75.9453 123.36 76.3969 121.89 75.8249 120.571C75.4335 119.642 74.6507 119.042 73.8378 118.892C73.3861 118.082 72.9646 117.273 72.6033 116.403C73.8378 115.833 75.012 115.084 76.0356 114.244C76.8184 114.874 77.6614 115.653 77.812 115.773C79.0163 116.853 80.1002 118.022 81.0937 119.282C80.883 120.271 81.2142 121.441 82.0873 122.31C83.3518 123.57 85.2486 123.72 86.3024 122.67C87.3561 121.621 87.2056 119.731 85.9411 118.472C85.068 117.602 83.8938 117.273 82.9002 117.483C81.6357 116.493 80.4615 115.413 79.3776 114.214C79.2572 114.064 78.5045 113.254 77.8722 112.475C78.8357 111.395 79.6486 110.196 80.2808 108.906C81.1539 109.266 81.997 109.656 82.8099 110.106C82.9604 110.916 83.5927 111.695 84.526 112.055C85.8809 112.595 87.3561 112.145 87.8078 111.006C88.2594 109.866 87.5669 108.517 86.2121 107.977C85.2787 107.587 84.2851 107.707 83.6228 108.187C82.7195 107.947 81.8464 107.647 81.0034 107.287C81.455 106.028 81.7561 104.708 81.9066 103.329C82.9002 103.239 84.0443 103.179 84.2551 103.149C85.8809 103.089 87.4766 103.149 89.0723 103.329C89.6142 104.169 90.6981 104.768 91.9325 104.768C93.7089 104.768 95.154 103.569 95.154 102.07C95.154 100.57 93.7089 99.3709 91.9325 99.3709ZM60.8914 111.305C59.9882 111.305 59.2355 110.586 59.2355 109.656C59.2355 108.757 59.9581 108.007 60.8914 108.007C61.7947 108.007 62.5473 108.727 62.5473 109.656C62.5172 110.586 61.7947 111.305 60.8914 111.305ZM58.8742 105.758C56.1946 105.758 54.0269 103.599 54.0269 100.93C54.0269 98.2614 56.1946 96.1024 58.8742 96.1024C61.5538 96.1024 63.7216 98.2614 63.7216 100.93C63.6915 103.599 61.5237 105.758 58.8742 105.758ZM74.1087 98.4413C74.1087 99.3409 73.3861 100.091 72.4528 100.091C71.5496 100.091 70.7969 99.3709 70.7969 98.4413C70.7969 97.5418 71.5195 96.7921 72.4528 96.7921C73.3861 96.8221 74.1087 97.5418 74.1087 98.4413ZM71.9711 91.2147C72.6937 91.2147 73.2657 91.7844 73.2657 92.5041C73.2657 93.2238 72.6937 93.7935 71.9711 93.7935C71.2485 93.7935 70.6764 93.2238 70.6764 92.5041C70.7066 91.7844 71.2786 91.2147 71.9711 91.2147ZM66.1904 95.7426C65.2872 95.7426 64.5345 95.0229 64.5345 94.0933C64.5345 93.1938 65.257 92.4441 66.1904 92.4441C67.0936 92.4441 67.8463 93.1638 67.8463 94.0933C67.8162 95.0229 67.0936 95.7426 66.1904 95.7426ZM70.827 111.935C68.7495 111.935 67.0936 110.256 67.0936 108.217C67.0936 106.148 68.7797 104.499 70.827 104.499C72.9044 104.499 74.5604 106.178 74.5604 108.217C74.5604 110.286 72.9044 111.935 70.827 111.935Z" stroke="black" stroke-width="0.264583"/>
</g>
</g>
<defs>
<filter id="filter0_d_328_381" x="-0.718445" y="4.40104" width="67.0048" height="66.7675" filterUnits="userSpaceOnUse" color-interpolation-filters="sRGB">
<feFlood flood-opacity="0" result="BackgroundImageFix"/>
<feColorMatrix in="SourceAlpha" type="matrix" values="0 0 0 0 0 0 0 0 0 0 0 0 0 0 0 0 0 0 127 0" result="hardAlpha"/>
<feOffset dy="4"/>
<feGaussianBlur stdDeviation="2"/>
<feComposite in2="hardAlpha" operator="out"/>
<feColorMatrix type="matrix" values="0 0 0 0 0 0 0 0 0 0 0 0 0 0 0 0 0 0 0.25 0"/>
<feBlend mode="normal" in2="BackgroundImageFix" result="effect1_dropShadow_328_381"/>
<feBlend mode="normal" in="SourceGraphic" in2="effect1_dropShadow_328_381" result="shape"/>
</filter>
<filter id="filter1_d_328_381" x="69.2816" y="4.40104" width="67.0048" height="66.7675" filterUnits="userSpaceOnUse" color-interpolation-filters="sRGB">
<feFlood flood-opacity="0" result="BackgroundImageFix"/>
<feColorMatrix in="SourceAlpha" type="matrix" values="0 0 0 0 0 0 0 0 0 0 0 0 0 0 0 0 0 0 127 0" result="hardAlpha"/>
<feOffset dy="4"/>
<feGaussianBlur stdDeviation="2"/>
<feComposite in2="hardAlpha" operator="out"/>
<feColorMatrix type="matrix" values="0 0 0 0 0 0 0 0 0 0 0 0 0 0 0 0 0 0 0.25 0"/>
<feBlend mode="normal" in2="BackgroundImageFix" result="effect1_dropShadow_328_381"/>
<feBlend mode="normal" in="SourceGraphic" in2="effect1_dropShadow_328_381" result="shape"/>
</filter>
<filter id="filter2_d_328_381" x="32.2816" y="72.401" width="67.0048" height="66.7675" filterUnits="userSpaceOnUse" color-interpolation-filters="sRGB">
<feFlood flood-opacity="0" result="BackgroundImageFix"/>
<feColorMatrix in="SourceAlpha" type="matrix" values="0 0 0 0 0 0 0 0 0 0 0 0 0 0 0 0 0 0 127 0" result="hardAlpha"/>
<feOffset dy="4"/>
<feGaussianBlur stdDeviation="2"/>
<feComposite in2="hardAlpha" operator="out"/>
<feColorMatrix type="matrix" values="0 0 0 0 0 0 0 0 0 0 0 0 0 0 0 0 0 0 0.25 0"/>
<feBlend mode="normal" in2="BackgroundImageFix" result="effect1_dropShadow_328_381"/>
<feBlend mode="normal" in="SourceGraphic" in2="effect1_dropShadow_328_381" result="shape"/>
</filter>
<clipPath id="clip0_328_381">
<rect width="66" height="68" fill="white"/>
</clipPath>
<clipPath id="clip1_328_381">
<rect width="66" height="68" fill="white" transform="translate(70)"/>
</clipPath>
<clipPath id="clip2_328_381">
<rect width="66" height="68" fill="white" transform="translate(33 68)"/>
</clipPath>
</defs>
</svg>
