<svg width="370" height="348" viewBox="0 0 370 348" fill="none" xmlns="http://www.w3.org/2000/svg">
<path d="M154.093 61.7749L207.513 31.1328L204.662 190.81L186.99 203.926L154.093 61.7749Z" fill="#93A0A5"/>
<path d="M159.478 66.3338L207.399 37.7279L339.364 113.917L291.061 144.115L159.478 66.3338Z" fill="#77DDFF"/>
<path d="M266.2 124.905C266.2 124.905 291.798 125.208 293.813 124.804C295.829 124.401 317.596 113.513 317.596 113.513L329.69 101.013L370 124.804L316.639 157.014L263.127 126.669L266.2 124.905Z" fill="#2BB53A"/>
<path d="M317.087 156.795C309.025 153.165 154.339 62.7046 154.339 62.7046L135.998 73.1386L301.165 166.457L317.087 156.795Z" fill="#D6D1D5"/>
<path d="M136.098 73.1458L138.818 166.003L234.591 227.022L252.549 138.915L136.098 73.1458Z" fill="#A4A4A4"/>
<path d="M84.8037 185.962L48.4614 191.665L9.9812 202.5L196.254 310.71L197.251 265.801L226.753 261.096L205.517 249.12L197.821 218.325L151.645 191.237L99.4832 204.354L106.467 196.512L84.8037 185.962Z" fill="#55CDFF"/>
<path d="M52.1517 66.9387L102.338 94.561L207.75 31.2515L161.192 3.42761L52.1517 66.9387Z" fill="#C0C8BF"/>
<path d="M9.76233 202.535L49.8865 210.769L89.2218 193.946L139.103 165.432L136.233 73.215L101.159 93.8456L38.7701 143.192L9.77962 179.943L9.76233 202.535Z" fill="#108223"/>
<path d="M0 183.577L9.92646 179.847L38.7485 143.152L101.532 93.7544L52.3533 67.1403L22.1204 122.385L0 183.577Z" fill="#2FB640"/>
<path d="M130.757 34.0742L131.06 54.3372L167.037 33.3685L166.936 13.9119L130.757 34.0742Z" fill="#800505"/>
<path d="M108.99 20.7672L131.06 33.7718L131.261 54.4381L108.99 40.1229V20.7672Z" fill="#9B0606"/>
<path d="M130.947 34.4428L167.049 13.9832L146.277 0L108.99 20.8679L130.947 34.4428Z" fill="#D70F17"/>
<path d="M66.9054 53.4958L96.9596 68.5764L97.0431 79.8516L66.8147 64.1511L66.9054 53.4958Z" fill="#820403"/>
<path d="M96.866 68.8321L115.588 58.506L115.31 69.9604L97.0136 79.9769L96.866 68.8321Z" fill="#990307"/>
<path d="M66.8047 53.6974L96.7459 69.2302L115.731 58.5059L84.4476 43.465L66.8047 53.6974Z" fill="#BD0203"/>
<path d="M71.7633 203.783L91.6448 215.331L160.054 199.792L193.546 219.609L171.822 264.436L193.533 278.929L235.589 244.701L235.732 221.034L139.531 165.147L71.7633 203.783Z" fill="#C4C4C4"/>
<path d="M211.319 348L369.194 253.681L370 124.805L301.069 166.273L282.526 194.731L241.813 230.507L211.58 288.237L211.319 348Z" fill="#108223"/>
<path d="M143.88 180.141L208.286 217.913L207.362 208.89L143.497 170.499L143.88 180.141Z" fill="#990307"/>
<path d="M143.379 170.565L151.075 164.862L216.336 202.314L207.329 209.302" fill="#BD0203"/>
<path d="M208.076 217.863L216.431 209.794L216.352 202.13L207.311 209.024" fill="#990307"/>
<path d="M195.419 338.358L211.319 348L211.77 288.118L196.165 267.838L195.419 338.358Z" fill="#239A37"/>
<path d="M211.705 288.563L241.646 231.798L283.058 195.153L301.728 166.211L252.809 138.838L241.717 176.268L227.75 205.922L213.213 234.436L196.111 267.797L211.705 288.563Z" fill="#29B232"/>
<path d="M9.62488 225.097L9.83865 202.358L195.826 310.496L195.541 331.525L9.62488 225.097Z" fill="#3CAFE4"/>
<path d="M9.7249 224.91L9.72485 231.009L195.405 338.423L195.657 331.367L9.7249 224.91Z" fill="#BA9869"/>
<path d="M1.43008 225.596L9.83868 231.014L9.98122 179.689L0.00488281 183.396L1.43008 225.596Z" fill="#239C33"/>
<path d="M150.355 14.0813C150.63 14.5104 150.851 14.9513 151.013 15.4024C151.772 17.4944 151.308 19.7742 149.442 21.7482C147.575 23.7221 144.662 25.0151 141.457 25.5102C138.252 26.0052 134.759 25.702 131.737 24.4843C130.352 23.9262 129.187 23.2246 128.255 22.4275L131.044 21.9006C131.646 22.3201 132.343 22.694 133.13 23.0109C135.53 23.9779 138.305 24.2187 140.847 23.8248C143.392 23.4317 145.703 22.4052 147.184 20.8387C148.665 19.2722 149.034 17.4612 148.432 15.8022C148.306 15.4549 148.137 15.1154 147.929 14.7852L150.355 14.0813ZM126.137 19.6772C126.078 19.5427 126.022 19.4077 125.973 19.2717C125.214 17.1797 125.678 14.8999 127.545 12.9259C129.411 10.952 132.325 9.65901 135.529 9.16393C138.048 8.7748 140.744 8.87858 143.251 9.53301L140.088 10.7506C138.764 10.6138 137.421 10.6513 136.139 10.8493C133.594 11.2424 131.281 12.2681 129.8 13.8346C128.354 15.3635 127.969 17.1231 128.51 18.7506L126.137 19.6772Z" fill="#393939"/>
<path fill-rule="evenodd" clip-rule="evenodd" d="M147.112 17.7924L141.606 15.5742L152.321 12.4674L145.895 9.95513L132.563 15.0889L136.718 16.8022L122.428 22.3734L147.112 17.7924Z" fill="#F6C32E"/>
</svg>
