<svg width="91" height="112" viewBox="0 0 91 112" fill="none" xmlns="http://www.w3.org/2000/svg">
<g clip-path="url(#clip0_260_79)">
<path d="M83.9621 0.27832H7.36725V111.748H83.9621V0.27832Z" fill="#6DA66B"/>
<path d="M45.6951 79.0264C58.4834 79.0264 68.8503 68.6402 68.8503 55.8282C68.8503 43.0162 58.4834 32.6301 45.6951 32.6301C32.9069 32.6301 22.54 43.0162 22.54 55.8282C22.54 68.6402 32.9069 79.0264 45.6951 79.0264Z" fill="#EFD703"/>
<path d="M46.5 80C60.031 80 71 69.2548 71 56C71 42.7452 60.031 32 46.5 32C32.969 32 22 42.7452 22 56C22 69.2548 32.969 80 46.5 80Z" fill="#52586D"/>
<path d="M86.3654 0.0205078H4.47284V9.4319H86.3654V0.0205078Z" fill="#40903D"/>
<path d="M86.6584 9.41663C89.0561 9.41663 90.9999 7.30864 90.9999 4.70831C90.9999 2.10798 89.0561 0 86.6584 0C84.2606 0 82.3168 2.10798 82.3168 4.70831C82.3168 7.30864 84.2606 9.41663 86.6584 9.41663Z" fill="#40903D"/>
<path d="M4.67313 9.43964C7.07093 9.43964 9.01473 7.33165 9.01473 4.73132C9.01473 2.13099 7.07093 0.0230103 4.67313 0.0230103C2.27534 0.0230103 0.331543 2.13099 0.331543 4.73132C0.331543 7.33165 2.27534 9.43964 4.67313 9.43964Z" fill="#40903D"/>
<path d="M86.2119 18.2852H4.3194V27.6965H86.2119V18.2852Z" fill="#40903D"/>
<path d="M86.5049 27.6813C88.9027 27.6813 90.8465 25.5733 90.8465 22.973C90.8465 20.3726 88.9027 18.2646 86.5049 18.2646C84.1071 18.2646 82.1633 20.3726 82.1633 22.973C82.1633 25.5733 84.1071 27.6813 86.5049 27.6813Z" fill="#40903D"/>
<path d="M4.51969 27.7043C6.91749 27.7043 8.86128 25.5964 8.86128 22.996C8.86128 20.3957 6.91749 18.2877 4.51969 18.2877C2.1219 18.2877 0.178101 20.3957 0.178101 22.996C0.178101 25.5964 2.1219 27.7043 4.51969 27.7043Z" fill="#40903D"/>
<path d="M86.151 84.461H4.25842V93.8724H86.151V84.461Z" fill="#40903D"/>
<path d="M86.444 93.8572C88.8418 93.8572 90.7856 91.7492 90.7856 89.1489C90.7856 86.5485 88.8418 84.4406 86.444 84.4406C84.0462 84.4406 82.1024 86.5485 82.1024 89.1489C82.1024 91.7492 84.0462 93.8572 86.444 93.8572Z" fill="#40903D"/>
<path d="M4.45878 93.8802C6.85657 93.8802 8.80037 91.7722 8.80037 89.1719C8.80037 86.5715 6.85657 84.4636 4.45878 84.4636C2.06098 84.4636 0.117188 86.5715 0.117188 89.1719C0.117188 91.7722 2.06098 93.8802 4.45878 93.8802Z" fill="#40903D"/>
<path d="M86.0338 102.581H4.1413V111.992H86.0338V102.581Z" fill="#40903D"/>
<path d="M86.3268 111.977C88.7246 111.977 90.6684 109.869 90.6684 107.269C90.6684 104.668 88.7246 102.56 86.3268 102.56C83.929 102.56 81.9852 104.668 81.9852 107.269C81.9852 109.869 83.929 111.977 86.3268 111.977Z" fill="#40903D"/>
<path d="M4.34159 112C6.73939 112 8.68318 109.892 8.68318 107.292C8.68318 104.691 6.73939 102.583 4.34159 102.583C1.9438 102.583 0 104.691 0 107.292C0 109.892 1.9438 112 4.34159 112Z" fill="#40903D"/>
<path d="M45.4436 39.3454C43.8886 39.4814 42.4104 40.1513 41.1398 41.2857C39.905 42.3944 38.952 43.978 38.5626 45.5744C38.4012 46.2392 38.3705 46.5035 38.3705 47.2735C38.3705 48.1153 38.3961 48.2924 38.6497 49.1856C38.7368 49.4961 38.8982 50.1249 39.0084 50.5844C39.2953 51.7932 39.4285 52.2218 39.6796 52.7326C39.8999 53.1843 40.1945 53.4974 40.5045 53.6129C40.5788 53.6411 40.7273 53.6771 40.8324 53.6925C41.1757 53.7412 42.2106 54.1082 42.3387 54.2289C42.4591 54.3418 42.8946 55.2581 43.0535 55.7303C43.1687 56.0665 43.1739 56.0768 43.2763 56.1281C43.4403 56.2128 44.1602 56.3874 44.6443 56.4592C45.4026 56.5747 46.3735 56.5798 47.1805 56.4746C47.5827 56.4233 48.4486 56.2539 48.692 56.1769C48.9405 56.0999 48.9866 56.0434 49.1019 55.6764C49.1531 55.5096 49.2428 55.2555 49.2991 55.1143C49.4349 54.7704 49.7193 54.2366 49.791 54.1904C49.9012 54.1185 50.2906 53.9722 50.6569 53.867C50.9413 53.7874 51.0924 53.7592 51.3358 53.7412C51.7482 53.713 51.8917 53.6514 52.1325 53.3973C52.527 52.9789 52.7601 52.3527 53.0829 50.8667C53.2955 49.8939 53.3673 49.5937 53.4877 49.1727C53.7285 48.3361 53.7925 47.8587 53.7695 47.0553C53.6901 44.3681 52.007 41.6425 49.5681 40.2565C48.3 39.5353 46.8654 39.217 45.4436 39.3454ZM42.9536 45.4615C43.8322 45.7207 44.5368 46.3495 44.7007 47.0271C44.7366 47.176 44.7391 47.2401 44.7161 47.4223C44.6904 47.62 44.6674 47.6841 44.4804 48.0614C43.6094 49.8118 42.8895 50.4612 42.0134 50.2918C41.1936 50.1327 40.4046 49.3498 40.1432 48.4413C40.092 48.2616 40.0843 48.1821 40.0869 47.8125C40.0895 47.4685 40.0997 47.3531 40.1432 47.1914C40.3943 46.2623 41.063 45.5898 41.916 45.4102C42.1825 45.3537 42.6692 45.3794 42.9536 45.4615ZM50.1983 45.4102C51.0975 45.5821 51.8097 46.3341 52.0146 47.3248C52.0812 47.6456 52.0684 48.1641 51.9864 48.4541C51.7738 49.1933 51.1667 49.8965 50.4904 50.1788C49.4375 50.6229 48.6408 50.0325 47.6596 48.0794C47.3906 47.5481 47.3496 47.3377 47.447 46.9732C47.6314 46.27 48.4358 45.6181 49.3734 45.4127C49.5912 45.3665 49.9601 45.3665 50.1983 45.4102ZM46.2762 50.6023C46.9499 51.2542 47.4393 52.0678 47.7313 53.0354C47.7825 53.2099 47.7825 53.2151 47.7364 53.2767C47.6698 53.3691 47.5366 53.4281 47.3061 53.4743C47.0319 53.5282 46.9269 53.5077 46.5657 53.3357C46.2813 53.1997 46.2455 53.1894 46.079 53.1894C45.9048 53.1894 45.8919 53.1946 45.6434 53.3434L45.3898 53.4974L45.1439 53.4948C44.8698 53.4923 44.6699 53.4563 44.5137 53.3793C44.36 53.3075 44.342 53.2484 44.4009 53.0046C44.5342 52.4502 44.8134 51.8907 45.2515 51.3107C45.4308 51.0746 45.938 50.492 45.9995 50.4509C46.0585 50.4098 46.102 50.4355 46.2762 50.6023Z" fill="white"/>
<path d="M50.7824 54.9963C50.539 55.0682 50.2803 55.2093 49.9806 55.4352L49.7116 55.6379L49.5758 56.0178C49.3273 56.7159 49.0583 57.2035 48.8405 57.3447C48.7406 57.4089 48.5101 57.473 47.9849 57.5783C47.2394 57.7297 46.3172 57.8118 45.6562 57.7862C44.6956 57.7451 43.5453 57.5295 43.2814 57.337C43.0611 57.1779 42.8075 56.7287 42.5539 56.0563C42.4719 55.8381 42.4002 55.6559 42.3976 55.6508C42.3797 55.6354 41.7111 55.3736 41.5702 55.3274C41.3165 55.2453 41.0783 55.2042 40.8631 55.2042C40.6837 55.2042 40.6607 55.2093 40.6607 55.2504C40.6607 55.33 40.8964 56.1179 41.1731 56.9623C41.3165 57.3986 41.5138 58.0403 41.6137 58.3867C41.9493 59.5699 42.1337 59.7727 43.0175 59.9498C44.342 60.2141 45.71 60.268 47.411 60.1192C48.3717 60.0345 49.7423 59.842 49.9165 59.7675C50.1855 59.652 50.3085 59.4057 50.5339 58.5253C50.6261 58.1711 50.7696 57.645 50.8567 57.3575C51.387 55.5738 51.5432 55.0091 51.5125 54.9809C51.5022 54.9706 51.3716 54.9578 51.2205 54.9552C51.013 54.9501 50.9054 54.9604 50.7824 54.9963Z" fill="white" stroke="white" stroke-width="0.00434159"/>
<path d="M33.0599 55.3043C32.7166 55.3993 32.4937 55.5507 32.3323 55.7996C32.1991 56.0075 32.1735 56.141 32.2196 56.4182C32.2759 56.7749 32.2375 56.8468 31.8994 56.9879C31.8071 57.0264 31.6944 57.0803 31.6457 57.1111C31.5535 57.1676 31.3716 57.432 31.2999 57.6168C31.2051 57.858 31.2205 58.2122 31.3383 58.533C31.4613 58.8564 31.8353 59.3081 32.1658 59.5263C32.8857 60.0037 33.4646 60.0088 34.4048 59.5494C34.7968 59.3569 34.7404 59.3569 35.0914 59.5673C35.2067 59.6366 36.0034 60.0986 36.859 60.5965C37.7172 61.0919 38.5626 61.5821 38.7394 61.6848C40.0331 62.4342 41.4446 63.2504 41.7239 63.4121C41.9083 63.5173 42.3464 63.7714 42.6974 63.9767C43.0509 64.1795 43.5376 64.4618 43.781 64.6029C44.0244 64.7441 44.2216 64.8647 44.2165 64.8673C44.2114 64.8724 43.9603 65.0187 43.658 65.1932C42.4104 65.9145 40.4916 67.0258 39.6872 67.4929C39.1954 67.7803 38.8009 67.9934 38.765 67.9934C38.7291 67.9934 38.6036 67.9446 38.4832 67.8856C37.9631 67.6289 37.4943 67.5032 37.1562 67.534C36.6797 67.5776 36.2544 67.7983 35.8445 68.2141C35.5448 68.5195 35.368 68.8352 35.304 69.1843C35.2092 69.6847 35.4449 70.1852 35.8292 70.311C36.029 70.3752 36.1673 70.465 36.2032 70.5522C36.2262 70.6087 36.2314 70.6908 36.2134 70.8551C36.1827 71.1888 36.1929 71.2658 36.2954 71.4711C36.5311 71.9536 36.9999 72.1923 37.6378 72.1615C38.186 72.1333 38.7701 71.8843 39.1185 71.5275C39.3132 71.3299 39.4311 71.1349 39.5258 70.8602C39.6181 70.5882 39.6565 70.3598 39.6821 69.9157L39.7 69.6154L39.9434 69.4717C40.0766 69.3922 41.0527 68.8275 42.1081 68.2167C43.1662 67.6058 44.4394 66.8667 44.9389 66.5792C45.4385 66.2892 45.897 66.0223 45.9585 65.9889L46.0661 65.9273L46.1763 65.9889C46.3428 66.0839 49.2505 67.7675 49.5118 67.9215C49.6399 67.9959 50.3085 68.3835 50.9976 68.7813C51.6893 69.1791 52.2964 69.5333 52.3502 69.5667C52.445 69.6283 52.445 69.6308 52.445 69.7977C52.445 70.0466 52.4911 70.4342 52.5526 70.6806C52.7217 71.3787 53.1982 71.8381 54.0026 72.0845C54.1973 72.1435 54.2716 72.1512 54.5841 72.1538C54.9095 72.1538 54.9607 72.1461 55.1324 72.0845C55.4756 71.9613 55.6959 71.7662 55.8625 71.4326C55.9368 71.2811 55.947 71.1785 55.9162 70.8448C55.8855 70.4932 55.8907 70.4881 56.3825 70.2699C56.5542 70.1929 56.6515 70.0928 56.7489 69.8798C56.982 69.3793 56.8078 68.7428 56.2877 68.2141C55.9752 67.8984 55.6882 67.7136 55.3347 67.6058C54.8505 67.4544 54.415 67.5263 53.667 67.8753L53.3673 68.0165L53.2699 67.9677C53.2187 67.9395 52.6218 67.5981 51.9455 67.2054C51.2692 66.8128 50.2265 66.207 49.627 65.8606C48.3769 65.1393 47.926 64.8776 47.9158 64.8673C47.9132 64.8647 48.113 64.7415 48.3641 64.5978C48.6151 64.4515 49.1019 64.1692 49.4477 63.969C50.1753 63.5455 51.0642 63.0322 52.2401 62.3521C52.6987 62.0877 53.1367 61.8362 53.2135 61.79C53.2904 61.7438 53.5158 61.6129 53.7131 61.5C53.9104 61.3845 54.4355 61.0816 54.8787 60.825C55.3219 60.5683 55.9163 60.2244 56.1981 60.0601C56.4799 59.8984 56.8206 59.6982 56.9538 59.6187C57.087 59.5366 57.2407 59.4493 57.292 59.4236L57.3867 59.38L57.7275 59.5468C58.6343 59.9934 59.2236 60.0011 59.8845 59.575C60.5506 59.1464 60.9374 58.5048 60.8913 57.9016C60.8785 57.7374 60.858 57.6706 60.7555 57.4679C60.6146 57.1907 60.5378 57.1163 60.2611 57.0008C60.1535 56.9546 60.0356 56.8955 59.9972 56.8673C59.9024 56.8006 59.8717 56.6748 59.9024 56.4926C59.9485 56.2205 59.9357 56.0614 59.8589 55.9023C59.6488 55.4711 59.1595 55.2324 58.5447 55.2632C58.1988 55.2786 57.9298 55.3505 57.607 55.5122C57.2996 55.6636 57.0665 55.8484 56.9154 56.0537C56.6592 56.4028 56.5465 56.7801 56.5029 57.4448C56.4927 57.5885 56.4747 57.7271 56.4645 57.7502C56.4389 57.799 56.3646 57.8426 55.596 58.2841C55.2938 58.456 54.994 58.6305 54.93 58.669C54.8659 58.7075 54.2511 59.0643 53.5594 59.4647C52.8703 59.8625 52.1607 60.2731 51.9839 60.3758C51.8071 60.4785 51.3921 60.7172 51.0616 60.9097C50.4545 61.2587 50.1189 61.4538 49.5118 61.8054C49.3299 61.9106 48.961 62.1262 48.692 62.2802C48.4256 62.4342 47.7236 62.8397 47.137 63.1811L46.0661 63.7996L45.5102 63.4788C45.2028 63.3017 44.7263 63.0245 44.4522 62.8654C44.1781 62.7062 43.658 62.406 43.2994 62.1981C42.9407 61.9902 42.5308 61.7541 42.3899 61.6719C42.249 61.5898 41.6163 61.2228 40.981 60.8558C38.3884 59.3595 36.0264 57.9915 35.865 57.8965C35.7702 57.84 35.6806 57.7759 35.6678 57.7502C35.6575 57.7271 35.6396 57.5911 35.6293 57.4499C35.573 56.6184 35.3808 56.141 34.9581 55.7868C34.7506 55.6097 34.3587 55.4121 34.0641 55.3299C33.7669 55.2504 33.3058 55.2376 33.0599 55.3043Z" fill="white" stroke="white" stroke-width="0.00434159"/>
</g>
<defs>
<clipPath id="clip0_260_79">
<rect width="91" height="112" fill="white"/>
</clipPath>
</defs>
</svg>
