<svg width="183" height="394" viewBox="0 0 183 394" fill="none" xmlns="http://www.w3.org/2000/svg">
<g clip-path="url(#clip0_243_47)">
<g filter="url(#filter0_d_243_47)">
<path d="M91.5 179.712C142.034 179.712 183 139.482 183 89.8559C183 40.2299 142.034 0 91.5 0C40.9659 0 0 40.2299 0 89.8559C0 139.482 40.9659 179.712 91.5 179.712Z" fill="#8CBF58"/>
</g>
<g filter="url(#filter1_d_243_47)">
<path d="M57.7948 363.189C57.7948 363.189 69.4276 375.338 85.2362 376.227C101.045 377.115 113.274 364.078 113.274 364.078L96.5707 172.078L128.486 151.634L124.907 146.3L94.4827 164.671L94.1845 86.7447L113.572 68.078L108.8 60.9669L93.5879 77.2632L84.9379 58.0039L78.3759 62.7447L88.219 81.7077L84.6397 131.485L66.7431 108.967L58.0931 114.597L82.85 143.337L57.7948 363.189Z" fill="#5F5225"/>
</g>
<g filter="url(#filter2_d_243_47)">
<path d="M119.544 334.409C119.348 333.214 119.124 331.97 118.859 330.708C118.413 328.568 117.81 326.463 117.055 324.409C116.91 324.018 116.797 323.607 116.645 323.227C116.167 322.066 115.592 320.945 114.926 319.876C114.462 319.123 114.069 318.33 113.751 317.508C113.525 316.93 113.331 316.342 113.168 315.744L113.091 315.454C112.924 314.826 112.79 314.191 112.689 313.55V313.529C112.591 312.889 112.529 312.244 112.503 311.597V311.383C112.448 310.089 112.566 308.794 112.854 307.53C112.854 307.498 112.854 307.467 112.875 307.437C113.145 306.254 113.653 305.136 114.369 304.147C114.375 304.138 114.38 304.129 114.387 304.121C114.737 303.649 115.15 303.225 115.617 302.862C116.182 302.422 116.821 302.081 117.506 301.854C116.448 302.222 115.421 302.666 114.431 303.184L114.173 303.325C113.72 303.565 113.251 303.829 112.759 304.132L112.625 304.22C112.192 304.492 111.751 304.794 111.308 305.119C111.176 305.215 111.05 305.308 110.921 305.409C110.431 305.784 109.944 306.182 109.473 306.623C109.429 306.666 109.39 306.712 109.346 306.754C108.913 307.168 108.505 307.606 108.122 308.065C108.009 308.201 107.895 308.337 107.785 308.478C107.359 309.012 106.973 309.575 106.63 310.163C106.612 310.196 106.599 310.234 106.581 310.267C106.257 310.854 105.983 311.466 105.759 312.096C105.697 312.27 105.635 312.448 105.579 312.63C105.345 313.349 105.18 314.088 105.086 314.837C105.031 315.328 104.939 315.815 104.811 316.293C104.774 316.429 104.728 316.545 104.689 316.671C104.603 316.939 104.501 317.202 104.383 317.457C104.323 317.573 104.267 317.684 104.205 317.787C104.092 317.982 103.96 318.165 103.813 318.337C103.749 318.412 103.684 318.495 103.617 318.561C103.451 318.722 103.263 318.859 103.058 318.969C103.019 318.989 102.986 319.022 102.947 319.04C102.72 319.142 102.475 319.202 102.226 319.216C102.14 319.222 102.054 319.222 101.968 319.216C101.799 319.208 101.631 319.183 101.468 319.14C101.359 319.108 101.252 319.07 101.148 319.024C100.993 318.958 100.843 318.879 100.7 318.79C100.586 318.723 100.476 318.65 100.37 318.571C100.217 318.445 100.071 318.311 99.9345 318.168C99.834 318.067 99.731 317.981 99.633 317.868C99.4013 317.592 99.1919 317.299 99.0068 316.991C98.9114 316.835 98.8264 316.651 98.749 316.487C98.6382 316.276 98.53 316.064 98.432 315.83C98.3341 315.595 98.2645 315.399 98.1743 315.172C98.0841 314.945 98.012 314.683 97.9398 314.416C97.8676 314.149 97.8032 313.912 97.7465 313.66C97.6898 313.408 97.6357 313.058 97.5867 312.746C97.5455 312.494 97.4965 312.224 97.4656 311.945C97.2663 309.755 97.3869 307.55 97.8238 305.394C98.0248 304.326 98.2829 303.27 98.597 302.229C99.3474 299.734 99.6645 297.133 99.5351 294.535C99.4547 293.101 99.2469 291.677 98.914 290.279C98.8908 290.176 98.8753 290.073 98.8495 289.969C98.7026 289.365 98.5274 288.76 98.3341 288.155C98.2748 287.971 98.2207 287.79 98.1588 287.608C97.963 287.032 97.7474 286.455 97.512 285.878C97.4295 285.676 97.3445 285.474 97.2543 285.27C96.9966 284.698 96.7388 284.126 96.4579 283.557C96.3651 283.368 96.262 283.182 96.1641 282.993C95.8548 282.403 95.5379 281.814 95.1874 281.229C95.1307 281.133 95.0637 281.038 95.0044 280.942C93.7776 278.94 92.3993 277.031 90.8809 275.23C90.685 274.996 90.4969 274.759 90.2933 274.522C89.8887 274.056 89.4609 273.59 89.0331 273.124C88.7418 272.809 88.4558 272.496 88.1568 272.184C87.7419 271.753 87.3141 271.322 86.8682 270.894C86.5246 270.548 86.1698 270.204 85.8038 269.861C85.376 269.458 84.943 269.052 84.4998 268.651C84.0565 268.251 83.6648 267.911 83.2395 267.543C82.8143 267.175 82.3685 266.787 81.9174 266.412C81.4664 266.036 80.9252 265.605 80.4227 265.205C79.9974 264.867 79.5851 264.53 79.147 264.197C78.3326 263.572 77.4967 262.951 76.6393 262.335C76.4899 262.227 76.3507 262.116 76.1987 262.01C76.29 262.074 76.3614 262.161 76.4048 262.262C76.4377 262.312 76.4678 262.363 76.495 262.416C76.5549 262.53 76.6082 262.648 76.6548 262.768C76.6754 262.819 76.6986 262.869 76.7167 262.92C76.7863 263.106 76.8533 263.29 76.9048 263.446L77.0208 263.789C77.4391 264.81 77.7954 265.854 78.0877 266.916C78.2759 267.588 78.4614 268.263 78.5851 268.931C78.7527 269.879 78.8944 270.828 79.0361 271.778C79.165 272.655 79.2526 273.542 79.3403 274.409C79.4202 275.215 79.5206 276.021 79.5464 276.832C79.5645 277.402 79.5464 277.931 79.5129 278.452C79.4593 279.289 79.3465 280.121 79.1753 280.942C78.9466 282.013 78.6584 283.071 78.312 284.111C78.0542 284.902 77.8249 285.643 77.5903 286.379C77.214 287.606 76.7347 288.801 76.1574 289.952C75.0209 292.149 73.4793 294.01 72.8041 296.386C72.0155 299.158 72.2272 302.559 72.9024 305.389C73.0236 305.82 73.1796 306.241 73.3689 306.649C73.9771 308.105 74.9152 309.498 75.7863 310.881C76.1574 311.468 76.5079 312.055 76.8172 312.645C75.5286 310.904 70.0082 309.07 67.6836 307.354L67.761 307.412L67.6733 307.359C67.64 307.296 67.5731 307.257 67.5007 307.258C66.7996 306.792 66.1259 306.287 65.4827 305.747C61.456 302.392 59.16 297.464 59.215 292.292C58.8589 293.088 58.5568 293.906 58.3104 294.741C58.2202 295.031 58.1326 295.346 58.0527 295.678C58.0114 295.837 57.9728 296.009 57.9316 296.182C57.8723 296.434 57.813 296.686 57.7589 296.938C57.7203 297.117 57.6842 297.294 57.6481 297.48C57.5862 297.805 57.5295 298.143 57.478 298.488C57.4574 298.634 57.4316 298.767 57.411 298.914C57.3465 299.397 57.2976 299.904 57.2589 300.425C57.2589 300.582 57.2435 300.738 57.2357 300.896C57.2125 301.302 57.2022 301.715 57.2022 302.136V302.68C57.2022 303.184 57.2383 303.688 57.2847 304.215C57.2847 304.303 57.2847 304.391 57.3027 304.479C57.3646 305.081 57.4599 305.696 57.5759 306.318C57.6068 306.49 57.6507 306.659 57.6867 306.822C57.7898 307.299 57.9109 307.78 58.0501 308.261C58.1068 308.455 58.1609 308.644 58.2228 308.835C58.4161 309.438 58.6351 310.037 58.8928 310.642C58.916 310.69 58.9315 310.738 58.9496 310.786C59.2454 311.446 59.5748 312.092 59.9366 312.721C60.0423 312.905 60.1608 313.088 60.2742 313.272C60.568 313.756 60.8927 314.237 61.2407 314.716C61.3798 314.908 61.5164 315.097 61.6633 315.288C62.1719 315.95 62.7165 316.585 63.2947 317.19C64.7328 318.689 66.4563 320.466 68.482 322.355C70.0747 323.852 72.1241 325.429 72.4849 327.039C72.6301 327.683 72.7275 328.337 72.7761 328.994C72.9308 331.035 72.5958 333.24 71.1835 334.671C64.1993 341.799 62.7947 328.211 61.2871 324.761C60.844 323.736 60.3012 322.755 59.666 321.831C57.7202 319.024 54.9369 317.044 51.1613 316.696C53.7571 318.764 55.4672 321.707 55.9549 324.945C56.225 326.95 56.0492 328.987 55.4394 330.919C55.1508 331.888 54.8716 332.858 54.6019 333.827C54.473 334.288 54.3441 334.749 54.2307 335.21C54.1173 335.671 53.973 336.188 53.8622 336.674C53.3241 338.832 52.9179 341.019 52.6458 343.225C52.6458 343.335 52.6174 343.449 52.6045 343.56C52.5659 343.902 52.5117 344.247 52.4808 344.59C52.3619 345.895 52.3189 347.206 52.3519 348.516C52.4353 352.155 53.2606 355.741 54.7797 359.065C57.228 364.401 59.9005 367.863 65.1632 370.723C67.4203 371.928 69.7944 372.91 72.2504 373.655C74.6264 374.393 77.0711 374.899 79.549 375.167C80.4536 375.265 81.353 375.394 82.2628 375.419C94.2467 375.847 105.514 370.695 112.573 361.851C115.169 358.614 117.141 354.944 118.395 351.017C120.076 345.641 120.469 339.958 119.544 334.409Z" fill="#F36B2A"/>
</g>
<g filter="url(#filter3_d_243_47)">
<path d="M82.0229 374.279C82.0229 374.279 45.9915 365.885 58.3362 337.485C58.3362 337.485 57.9651 353.862 68.998 351.07C76.7666 343.241 81.7344 328.508 71.4618 318.745C71.4618 318.745 82.2679 321.501 85.5667 325.406C85.5667 325.406 81.8155 318.785 86.0962 311.126C90.3769 303.466 90.8293 300.579 85.5667 296.117C85.5667 296.117 96.5713 300.015 94.2879 314.802C92.0045 329.589 106.272 328.301 109.411 318.745C109.411 318.745 111.384 328.564 104.527 333.779C97.6687 338.994 112.152 348.696 115.502 335.617C115.502 335.617 122.676 367.45 93.5019 374.185C93.5148 374.185 86.7237 374.824 82.0229 374.279Z" fill="#FDB619"/>
</g>
<g filter="url(#filter4_d_243_47)">
<path d="M88.2305 374.466C88.2305 374.466 71.3963 372.796 78.5274 359.964C85.6585 347.132 88.9625 344.539 84.1766 333.005C84.1766 333.005 99.4192 336.203 93.9994 351.085C88.5795 365.968 101.64 363.962 99.9387 353.741C99.9284 353.728 112.196 373.345 88.2305 374.466Z" fill="#FEF3B4"/>
</g>
<g clip-path="url(#clip1_243_47)">
<g filter="url(#filter5_d_243_47)">
<path d="M155.88 90.291C154.677 89.8589 153.162 92.2861 152.735 93.1725C151.696 95.323 151.343 98.9875 152.104 101.127C153.369 104.692 155.92 107.358 155.347 111.23C154.849 114.61 153.068 117.811 150.37 119.806C144.628 124.053 136.81 121.788 132.301 116.703C129.008 112.989 126.778 106.748 128.497 101.776C130.081 97.2001 133.243 95.5433 133.266 95.5316C132.408 95.9785 131.572 97.6598 131.296 98.5345C130.836 99.9891 132.646 102.242 134.821 101.035C135.34 100.747 134.704 101.633 134.821 101.035C135.097 99.6188 135.008 97.9822 135.041 96.5318C135.143 92.0148 135.929 88.5852 139.37 85.6026C142.567 82.836 146.608 81.5122 150.752 81.5122C150.399 81.5122 149.883 81.8485 149.573 81.9943C148.327 82.5827 146.659 83.468 145.92 84.7013C144.657 86.8061 144.557 89.4067 144.894 91.7967C145.045 92.8799 145.656 97.7981 147.522 96.9937C147.856 96.85 148.082 96.5138 148.2 96.1594C148.318 95.8051 148.346 95.4273 148.394 95.056C148.495 94.3445 148.717 93.6574 149.05 93.0267C150.377 90.5005 153.271 89.3426 155.889 90.291H155.88Z" fill="#F36B2A"/>
</g>
<g filter="url(#filter6_d_243_47)">
<path d="M151.6 110.199C151.6 110.199 154.274 120.714 143.938 122.026C141.021 122.396 137.894 121.927 135.735 119.697C131.553 115.382 132.372 107.904 137.128 104.487C136.717 104.783 136.472 105.74 136.371 106.199C136.082 107.502 136.413 109.195 137.416 110.101C137.187 109.076 137.067 108.116 137.431 107.095C137.963 105.563 138.759 104.145 139.779 102.908C140.333 102.269 140.952 101.694 141.625 101.194C143.152 100.023 144.793 100.28 144.336 97.8744C144.063 96.4464 142.905 94.2536 141.523 94.0238C143.01 94.2402 144.377 94.9937 145.382 96.152C147.265 98.3408 147.816 101.561 147.475 104.402C147.301 105.851 146.83 107.096 146.231 108.401C145.526 109.938 144.969 111.822 145.924 113.379C147.114 115.323 150.747 115.442 151.6 110.199Z" fill="#FDB619"/>
</g>
<g filter="url(#filter7_d_243_47)">
<path d="M140.591 121.976C138.157 121.514 136.947 118.798 137.823 116.47C138.12 115.688 138.625 115.009 139.28 114.514C139.916 114.033 140.737 113.815 141.207 113.116C141.604 112.524 142.153 110.881 141.608 110.259C141.608 110.259 143.269 112.179 142.58 114.67C141.891 117.161 144.502 118.869 145.979 115.309C145.98 115.311 147.976 123.375 140.591 121.976Z" fill="#FEF3B4"/>
</g>
</g>
<g filter="url(#filter8_d_243_47)">
<path d="M51.6676 30.9594C51.6676 30.9594 56.0607 31.8997 54.7203 38.7466C53.3798 45.5934 59.2799 54.346 68.1929 55.4895C77.1059 56.6329 85.7073 50.0805 87.5981 43.5999C89.489 37.1193 85.7158 28.819 82.5799 26.7708C82.9521 27.0131 83.2447 27.8535 83.4133 28.2306C83.8784 29.2659 84.1695 30.442 83.9685 31.5831C83.5408 34.0185 81.7719 35.9147 79.3488 35.3911C76.4678 34.7723 76.9935 31.698 77.1284 29.1336C77.3313 25.2851 76.4967 19.9435 71.9829 18.119C71.9829 18.119 74.0852 19.9307 72.7906 22.5907C72.7906 22.5907 70.2072 25.2707 70.2364 27.8014C70.2364 27.8014 70.5412 15.8711 60.5756 11.0318C61.7917 12.4932 61.7391 14.9891 61.4986 16.7303C61.2015 18.8671 60.2566 20.6709 59.6802 22.7122C59.1019 24.7709 59 26.9308 59.3824 29.0297C59.5952 30.1885 61.8736 34.5775 59.7795 35.1397C57.1185 35.8553 55.0979 30.2357 51.6676 30.9594Z" fill="#F36B2A"/>
</g>
<g filter="url(#filter9_d_243_47)">
<path d="M59.6935 42.0883C59.6935 42.0883 59.9866 58.8423 75.3178 54.8653C79.5569 53.7655 83.9893 51.1066 83.9343 45.7472C83.9058 43.9932 83.3833 42.2845 82.426 40.815C81.5133 39.4172 80.2967 37.906 78.769 37.3381C79.5749 38.0174 79.906 39.2906 79.5325 40.2762C78.5685 42.8218 74.5156 41.9863 74.9152 38.939C75.0078 38.2319 75.2111 37.5496 75.2889 36.8395C75.5348 34.5633 73.7937 32.3935 72.4596 30.7747C72.4596 30.7747 73.7489 33.4103 70.7712 34.139C67.7935 34.8677 65.2338 30.371 66.3477 26.3093C66.3477 26.3093 61.3178 32.4167 64.2686 39.0801C67.2195 45.7435 61.09 46.8253 59.6935 42.0883Z" fill="#FDB619"/>
</g>
<g filter="url(#filter10_d_243_47)">
<path d="M74.6861 55.0245C74.6861 55.0245 82.1948 53.6791 78.4463 46.3978C78.4463 46.3978 78.349 50.6241 75.1564 49.706C71.9639 48.788 75.0123 44.8832 73.006 41.3586C70.9997 37.834 68.953 38.141 68.953 38.141C68.953 38.141 72.9441 42.351 69.6657 46.3187C66.3874 50.2863 66.3863 57.3944 74.6861 55.0245Z" fill="#FEF3B4"/>
</g>
<g clip-path="url(#clip2_243_47)">
<g filter="url(#filter11_d_243_47)">
<path d="M34.7423 134.882C35.6342 134.377 37.1916 135.992 37.6607 136.6C38.7999 138.075 39.6155 140.798 39.3242 142.531C38.8414 145.416 37.2056 147.811 38.226 150.659C39.1158 153.145 40.9981 155.307 43.4317 156.419C48.6122 158.789 54.4884 155.921 57.325 151.406C59.3964 148.108 60.2549 143.054 58.1626 139.542C56.2366 136.31 53.4834 135.522 53.4638 135.516C54.2098 135.729 55.12 136.878 55.4669 137.5C56.0443 138.534 54.9365 140.506 53.0332 139.913C52.5791 139.771 53.2135 140.349 53.0332 139.913C52.6072 138.881 52.4388 137.629 52.2007 136.536C51.4589 133.13 50.3339 130.649 47.1654 128.898C44.2223 127.274 40.8209 126.867 37.5299 127.478C37.8108 127.426 38.2695 127.605 38.5367 127.67C39.612 127.932 41.0661 128.356 41.8334 129.181C43.1434 130.589 43.6034 132.543 43.6849 134.402C43.7235 135.245 43.9573 139.059 42.3579 138.725C42.0722 138.666 41.8432 138.444 41.6977 138.193C41.5523 137.942 41.4751 137.661 41.3825 137.386C41.1983 136.863 40.9214 136.375 40.5648 135.947C39.1421 134.229 36.6747 133.779 34.735 134.883L34.7423 134.882Z" fill="#F36B2A"/>
</g>
<g filter="url(#filter12_d_243_47)">
<path d="M41.0511 149.326C41.0511 149.326 40.4649 157.682 48.8629 157.152C51.2333 157.002 53.6481 156.186 55.0359 154.179C57.7254 150.295 55.9824 144.753 51.7067 142.867C52.0756 143.031 52.4102 143.72 52.5579 144.052C52.9779 144.996 52.9624 146.326 52.2987 147.161C52.3304 146.351 52.2852 145.606 51.847 144.887C51.2007 143.805 50.3615 142.848 49.3704 142.062C48.8371 141.66 48.2617 141.316 47.6542 141.036C46.2708 140.375 45.0058 140.812 45.0164 138.922C45.0242 137.801 45.6236 135.97 46.6875 135.592C45.5379 135.975 44.563 136.747 43.934 137.772C42.7591 139.707 42.7926 142.227 43.4783 144.328C43.8286 145.4 44.3843 146.273 45.0505 147.173C45.8354 148.233 46.5529 149.577 46.0224 150.897C45.3613 152.544 42.4941 153.17 41.0511 149.326Z" fill="#FDB619"/>
</g>
<g filter="url(#filter13_d_243_47)">
<path d="M51.5131 156.621C53.3785 155.913 53.9421 153.677 52.9064 152.043C52.5561 151.495 52.0557 151.056 51.4635 150.777C50.8884 150.506 50.2044 150.462 49.7293 150.002C49.3277 149.613 48.6511 148.45 48.9933 147.898C48.9933 147.898 47.955 149.597 48.8663 151.382C49.7776 153.167 47.9536 154.845 46.2606 152.366C46.2601 152.368 45.8545 158.768 51.5131 156.621Z" fill="#FEF3B4"/>
</g>
</g>
</g>
<defs>
<filter id="filter0_d_243_47" x="-4" y="0" width="191" height="187.712" filterUnits="userSpaceOnUse" color-interpolation-filters="sRGB">
<feFlood flood-opacity="0" result="BackgroundImageFix"/>
<feColorMatrix in="SourceAlpha" type="matrix" values="0 0 0 0 0 0 0 0 0 0 0 0 0 0 0 0 0 0 127 0" result="hardAlpha"/>
<feOffset dy="4"/>
<feGaussianBlur stdDeviation="2"/>
<feComposite in2="hardAlpha" operator="out"/>
<feColorMatrix type="matrix" values="0 0 0 0 0 0 0 0 0 0 0 0 0 0 0 0 0 0 0.25 0"/>
<feBlend mode="normal" in2="BackgroundImageFix" result="effect1_dropShadow_243_47"/>
<feBlend mode="normal" in="SourceGraphic" in2="effect1_dropShadow_243_47" result="shape"/>
</filter>
<filter id="filter1_d_243_47" x="53.7948" y="58.0039" width="78.6913" height="326.266" filterUnits="userSpaceOnUse" color-interpolation-filters="sRGB">
<feFlood flood-opacity="0" result="BackgroundImageFix"/>
<feColorMatrix in="SourceAlpha" type="matrix" values="0 0 0 0 0 0 0 0 0 0 0 0 0 0 0 0 0 0 127 0" result="hardAlpha"/>
<feOffset dy="4"/>
<feGaussianBlur stdDeviation="2"/>
<feComposite in2="hardAlpha" operator="out"/>
<feColorMatrix type="matrix" values="0 0 0 0 0 0 0 0 0 0 0 0 0 0 0 0 0 0 0.25 0"/>
<feBlend mode="normal" in2="BackgroundImageFix" result="effect1_dropShadow_243_47"/>
<feBlend mode="normal" in="SourceGraphic" in2="effect1_dropShadow_243_47" result="shape"/>
</filter>
<filter id="filter2_d_243_47" x="47.1613" y="262.01" width="76.871" height="121.434" filterUnits="userSpaceOnUse" color-interpolation-filters="sRGB">
<feFlood flood-opacity="0" result="BackgroundImageFix"/>
<feColorMatrix in="SourceAlpha" type="matrix" values="0 0 0 0 0 0 0 0 0 0 0 0 0 0 0 0 0 0 127 0" result="hardAlpha"/>
<feOffset dy="4"/>
<feGaussianBlur stdDeviation="2"/>
<feComposite in2="hardAlpha" operator="out"/>
<feColorMatrix type="matrix" values="0 0 0 0 0 0 0 0 0 0 0 0 0 0 0 0 0 0 0.25 0"/>
<feBlend mode="normal" in2="BackgroundImageFix" result="effect1_dropShadow_243_47"/>
<feBlend mode="normal" in="SourceGraphic" in2="effect1_dropShadow_243_47" result="shape"/>
</filter>
<filter id="filter3_d_243_47" x="51.7601" y="296.117" width="68.5216" height="86.382" filterUnits="userSpaceOnUse" color-interpolation-filters="sRGB">
<feFlood flood-opacity="0" result="BackgroundImageFix"/>
<feColorMatrix in="SourceAlpha" type="matrix" values="0 0 0 0 0 0 0 0 0 0 0 0 0 0 0 0 0 0 127 0" result="hardAlpha"/>
<feOffset dy="4"/>
<feGaussianBlur stdDeviation="2"/>
<feComposite in2="hardAlpha" operator="out"/>
<feColorMatrix type="matrix" values="0 0 0 0 0 0 0 0 0 0 0 0 0 0 0 0 0 0 0.25 0"/>
<feBlend mode="normal" in2="BackgroundImageFix" result="effect1_dropShadow_243_47"/>
<feBlend mode="normal" in="SourceGraphic" in2="effect1_dropShadow_243_47" result="shape"/>
</filter>
<filter id="filter4_d_243_47" x="72.7668" y="333.005" width="34.3022" height="49.4614" filterUnits="userSpaceOnUse" color-interpolation-filters="sRGB">
<feFlood flood-opacity="0" result="BackgroundImageFix"/>
<feColorMatrix in="SourceAlpha" type="matrix" values="0 0 0 0 0 0 0 0 0 0 0 0 0 0 0 0 0 0 127 0" result="hardAlpha"/>
<feOffset dy="4"/>
<feGaussianBlur stdDeviation="2"/>
<feComposite in2="hardAlpha" operator="out"/>
<feColorMatrix type="matrix" values="0 0 0 0 0 0 0 0 0 0 0 0 0 0 0 0 0 0 0.25 0"/>
<feBlend mode="normal" in2="BackgroundImageFix" result="effect1_dropShadow_243_47"/>
<feBlend mode="normal" in="SourceGraphic" in2="effect1_dropShadow_243_47" result="shape"/>
</filter>
<filter id="filter5_d_243_47" x="123.902" y="81.5122" width="35.987" height="48.5212" filterUnits="userSpaceOnUse" color-interpolation-filters="sRGB">
<feFlood flood-opacity="0" result="BackgroundImageFix"/>
<feColorMatrix in="SourceAlpha" type="matrix" values="0 0 0 0 0 0 0 0 0 0 0 0 0 0 0 0 0 0 127 0" result="hardAlpha"/>
<feOffset dy="4"/>
<feGaussianBlur stdDeviation="2"/>
<feComposite in2="hardAlpha" operator="out"/>
<feColorMatrix type="matrix" values="0 0 0 0 0 0 0 0 0 0 0 0 0 0 0 0 0 0 0.25 0"/>
<feBlend mode="normal" in2="BackgroundImageFix" result="effect1_dropShadow_243_47"/>
<feBlend mode="normal" in="SourceGraphic" in2="effect1_dropShadow_243_47" result="shape"/>
</filter>
<filter id="filter6_d_243_47" x="129.029" y="94.0238" width="26.882" height="36.1162" filterUnits="userSpaceOnUse" color-interpolation-filters="sRGB">
<feFlood flood-opacity="0" result="BackgroundImageFix"/>
<feColorMatrix in="SourceAlpha" type="matrix" values="0 0 0 0 0 0 0 0 0 0 0 0 0 0 0 0 0 0 127 0" result="hardAlpha"/>
<feOffset dy="4"/>
<feGaussianBlur stdDeviation="2"/>
<feComposite in2="hardAlpha" operator="out"/>
<feColorMatrix type="matrix" values="0 0 0 0 0 0 0 0 0 0 0 0 0 0 0 0 0 0 0.25 0"/>
<feBlend mode="normal" in2="BackgroundImageFix" result="effect1_dropShadow_243_47"/>
<feBlend mode="normal" in="SourceGraphic" in2="effect1_dropShadow_243_47" result="shape"/>
</filter>
<filter id="filter7_d_243_47" x="133.538" y="110.259" width="16.687" height="19.8806" filterUnits="userSpaceOnUse" color-interpolation-filters="sRGB">
<feFlood flood-opacity="0" result="BackgroundImageFix"/>
<feColorMatrix in="SourceAlpha" type="matrix" values="0 0 0 0 0 0 0 0 0 0 0 0 0 0 0 0 0 0 127 0" result="hardAlpha"/>
<feOffset dy="4"/>
<feGaussianBlur stdDeviation="2"/>
<feComposite in2="hardAlpha" operator="out"/>
<feColorMatrix type="matrix" values="0 0 0 0 0 0 0 0 0 0 0 0 0 0 0 0 0 0 0.25 0"/>
<feBlend mode="normal" in2="BackgroundImageFix" result="effect1_dropShadow_243_47"/>
<feBlend mode="normal" in="SourceGraphic" in2="effect1_dropShadow_243_47" result="shape"/>
</filter>
<filter id="filter8_d_243_47" x="47.6676" y="11.0318" width="44.4383" height="52.5885" filterUnits="userSpaceOnUse" color-interpolation-filters="sRGB">
<feFlood flood-opacity="0" result="BackgroundImageFix"/>
<feColorMatrix in="SourceAlpha" type="matrix" values="0 0 0 0 0 0 0 0 0 0 0 0 0 0 0 0 0 0 127 0" result="hardAlpha"/>
<feOffset dy="4"/>
<feGaussianBlur stdDeviation="2"/>
<feComposite in2="hardAlpha" operator="out"/>
<feColorMatrix type="matrix" values="0 0 0 0 0 0 0 0 0 0 0 0 0 0 0 0 0 0 0.25 0"/>
<feBlend mode="normal" in2="BackgroundImageFix" result="effect1_dropShadow_243_47"/>
<feBlend mode="normal" in="SourceGraphic" in2="effect1_dropShadow_243_47" result="shape"/>
</filter>
<filter id="filter9_d_243_47" x="55.6935" y="26.3093" width="32.2413" height="37.1665" filterUnits="userSpaceOnUse" color-interpolation-filters="sRGB">
<feFlood flood-opacity="0" result="BackgroundImageFix"/>
<feColorMatrix in="SourceAlpha" type="matrix" values="0 0 0 0 0 0 0 0 0 0 0 0 0 0 0 0 0 0 127 0" result="hardAlpha"/>
<feOffset dy="4"/>
<feGaussianBlur stdDeviation="2"/>
<feComposite in2="hardAlpha" operator="out"/>
<feColorMatrix type="matrix" values="0 0 0 0 0 0 0 0 0 0 0 0 0 0 0 0 0 0 0.25 0"/>
<feBlend mode="normal" in2="BackgroundImageFix" result="effect1_dropShadow_243_47"/>
<feBlend mode="normal" in="SourceGraphic" in2="effect1_dropShadow_243_47" result="shape"/>
</filter>
<filter id="filter10_d_243_47" x="63.6232" y="38.1343" width="19.8714" height="25.363" filterUnits="userSpaceOnUse" color-interpolation-filters="sRGB">
<feFlood flood-opacity="0" result="BackgroundImageFix"/>
<feColorMatrix in="SourceAlpha" type="matrix" values="0 0 0 0 0 0 0 0 0 0 0 0 0 0 0 0 0 0 127 0" result="hardAlpha"/>
<feOffset dy="4"/>
<feGaussianBlur stdDeviation="2"/>
<feComposite in2="hardAlpha" operator="out"/>
<feColorMatrix type="matrix" values="0 0 0 0 0 0 0 0 0 0 0 0 0 0 0 0 0 0 0.25 0"/>
<feBlend mode="normal" in2="BackgroundImageFix" result="effect1_dropShadow_243_47"/>
<feBlend mode="normal" in="SourceGraphic" in2="effect1_dropShadow_243_47" result="shape"/>
</filter>
<filter id="filter11_d_243_47" x="30.735" y="127.209" width="32.6333" height="38.0619" filterUnits="userSpaceOnUse" color-interpolation-filters="sRGB">
<feFlood flood-opacity="0" result="BackgroundImageFix"/>
<feColorMatrix in="SourceAlpha" type="matrix" values="0 0 0 0 0 0 0 0 0 0 0 0 0 0 0 0 0 0 127 0" result="hardAlpha"/>
<feOffset dy="4"/>
<feGaussianBlur stdDeviation="2"/>
<feComposite in2="hardAlpha" operator="out"/>
<feColorMatrix type="matrix" values="0 0 0 0 0 0 0 0 0 0 0 0 0 0 0 0 0 0 0.25 0"/>
<feBlend mode="normal" in2="BackgroundImageFix" result="effect1_dropShadow_243_47"/>
<feBlend mode="normal" in="SourceGraphic" in2="effect1_dropShadow_243_47" result="shape"/>
</filter>
<filter id="filter12_d_243_47" x="37.0423" y="135.592" width="23.2766" height="29.5846" filterUnits="userSpaceOnUse" color-interpolation-filters="sRGB">
<feFlood flood-opacity="0" result="BackgroundImageFix"/>
<feColorMatrix in="SourceAlpha" type="matrix" values="0 0 0 0 0 0 0 0 0 0 0 0 0 0 0 0 0 0 127 0" result="hardAlpha"/>
<feOffset dy="4"/>
<feGaussianBlur stdDeviation="2"/>
<feComposite in2="hardAlpha" operator="out"/>
<feColorMatrix type="matrix" values="0 0 0 0 0 0 0 0 0 0 0 0 0 0 0 0 0 0 0.25 0"/>
<feBlend mode="normal" in2="BackgroundImageFix" result="effect1_dropShadow_243_47"/>
<feBlend mode="normal" in="SourceGraphic" in2="effect1_dropShadow_243_47" result="shape"/>
</filter>
<filter id="filter13_d_243_47" x="42.2541" y="147.898" width="15.1659" height="17.1637" filterUnits="userSpaceOnUse" color-interpolation-filters="sRGB">
<feFlood flood-opacity="0" result="BackgroundImageFix"/>
<feColorMatrix in="SourceAlpha" type="matrix" values="0 0 0 0 0 0 0 0 0 0 0 0 0 0 0 0 0 0 127 0" result="hardAlpha"/>
<feOffset dy="4"/>
<feGaussianBlur stdDeviation="2"/>
<feComposite in2="hardAlpha" operator="out"/>
<feColorMatrix type="matrix" values="0 0 0 0 0 0 0 0 0 0 0 0 0 0 0 0 0 0 0.25 0"/>
<feBlend mode="normal" in2="BackgroundImageFix" result="effect1_dropShadow_243_47"/>
<feBlend mode="normal" in="SourceGraphic" in2="effect1_dropShadow_243_47" result="shape"/>
</filter>
<clipPath id="clip0_243_47">
<rect width="183" height="394" fill="white"/>
</clipPath>
<clipPath id="clip1_243_47">
<rect width="39.3548" height="57.13" fill="white" transform="matrix(-1 0 0 1 159.387 78.8)"/>
</clipPath>
<clipPath id="clip2_243_47">
<rect width="33.4529" height="47.2781" fill="white" transform="matrix(0.982508 -0.186222 0.18581 0.982586 27.5484 126.4)"/>
</clipPath>
</defs>
</svg>
