<svg width="80" height="319" viewBox="0 0 80 319" fill="none" xmlns="http://www.w3.org/2000/svg">
<g clip-path="url(#clip0_328_379)">
<path d="M21.0313 298.801C21.0313 298.801 21.0443 307.001 37.8437 307.947C54.6428 308.892 54.3402 296.913 54.3402 296.913L49.8884 90.7766L80 63.3545L47.6696 82.8967L47.3527 0L37.2098 47.5946L9 29.6284L35.308 60.2025L21.0313 298.801Z" fill="#3F1D0B"/>
<g filter="url(#filter0_d_328_379)">
<path d="M21.1306 34.4244C21.1306 34.4244 22.9945 35.3996 21.5672 38.3838C20.1399 41.3681 21.7419 46.1234 25.6155 47.7503C29.4891 49.3772 34.1487 47.4252 35.7796 44.6774C37.4105 41.9296 36.7113 37.6451 35.5465 36.3155C35.6849 36.473 35.7154 36.8957 35.7459 37.09C35.8306 37.6238 35.8201 38.2008 35.5923 38.7009C35.1067 39.7684 34.0824 40.4223 33.055 39.8821C31.8329 39.2416 32.4394 37.8923 32.8088 36.7292C33.3633 34.9838 33.6305 32.4233 31.8187 31.0265C31.8187 31.0265 32.5468 32.1196 31.644 33.1834C31.644 33.1834 30.1588 34.0972 29.8674 35.2651C29.8674 35.2651 31.4404 29.8143 27.5378 26.3572C27.9093 27.1797 27.5852 28.3214 27.2674 29.0927C26.8765 30.039 26.2342 30.7521 25.7291 31.62C25.2211 32.4957 24.9153 33.4767 24.8348 34.4895C24.7911 35.0489 25.2883 37.3494 24.2782 37.3494C22.9945 37.35 22.7614 34.5152 21.1306 34.4244Z" fill="#F36B2A"/>
</g>
<g filter="url(#filter1_d_328_379)">
<path d="M23.4022 40.5343C23.4022 40.5343 21.5178 48.2781 28.8962 48.3422C30.9364 48.3598 33.2512 47.6841 33.8715 45.2117C34.0698 44.4012 34.0402 43.5507 33.7862 42.7564C33.5437 42.0006 33.1781 41.1551 32.5589 40.7051C32.8398 41.1172 32.8356 41.7438 32.5489 42.1511C31.8087 43.2031 30.0852 42.3182 30.6318 40.9656C30.7586 40.6518 30.9322 40.363 31.0527 40.046C31.4372 39.0291 30.9148 37.8159 30.5092 36.9064C30.5092 36.9064 30.7723 38.2781 29.3444 38.2456C27.9166 38.213 27.3058 35.8282 28.2959 34.0972C28.2959 34.0972 25.2972 36.2856 25.8233 39.7156C26.3494 43.1455 23.4606 42.8861 23.4022 40.5343Z" fill="#FDB619"/>
</g>
<g filter="url(#filter2_d_328_379)">
<path d="M28.5921 48.3364C28.5921 48.3364 32.1333 48.6449 31.3225 44.8322C31.3225 44.8322 30.7702 46.7644 29.4439 45.9478C28.1176 45.1311 29.9594 43.7113 29.4807 41.8421C29.002 39.9729 28.0439 39.8613 28.0439 39.8613C28.0439 39.8613 29.3334 42.291 27.3805 43.7113C25.4277 45.1317 24.5717 48.4015 28.5921 48.3364Z" fill="#FEF3B4"/>
</g>
<g clip-path="url(#clip1_328_379)">
<g filter="url(#filter3_d_328_379)">
<path d="M47.7128 76.2972C47.7128 76.2972 48.279 77.1842 46.9186 78.1233C45.5581 79.0624 45.0716 81.5239 46.3477 83.194C47.6237 84.8641 50.1298 85.1775 51.5199 84.3916C52.9099 83.6058 53.671 81.5733 53.4961 80.7065C53.517 80.8093 53.4252 81.0003 53.3902 81.0921C53.2943 81.3447 53.1464 81.5924 52.9234 81.7526C52.4475 82.0948 51.8408 82.1234 51.5293 81.6333C51.1583 81.0512 51.7567 80.6169 52.2058 80.2044C52.8799 79.5853 53.6319 78.5412 53.193 77.4842C53.193 77.4842 53.2373 78.1397 52.5814 78.3764C52.5814 78.3764 51.7102 78.403 51.2937 78.837C51.2937 78.837 53.3301 76.8643 52.4962 74.3931C52.4529 74.8423 52.0287 75.2569 51.6993 75.5123C51.2946 75.8255 50.8389 75.9749 50.4042 76.2256C49.9663 76.4789 49.5899 76.8284 49.3034 77.2476C49.1455 77.4794 48.7896 78.601 48.3515 78.3496C47.7945 78.0302 48.3977 76.7425 47.7128 76.2972Z" fill="#F36B2A"/>
</g>
<g filter="url(#filter4_d_328_379)">
<path d="M47.1803 79.513C47.1803 79.513 44.4391 82.4028 47.6237 84.2675C48.5043 84.7831 49.6762 85.0663 50.5595 84.1483C50.8468 83.8462 51.0453 83.4699 51.1325 83.0621C51.215 82.6739 51.2665 82.2161 51.1097 81.8668C51.1291 82.1154 50.9717 82.3862 50.7461 82.4915C50.1637 82.7635 49.6359 81.9506 50.2091 81.5C50.342 81.3954 50.4891 81.3134 50.6201 81.2058C51.0395 80.8605 51.1143 80.2042 51.1643 79.7087C51.1643 79.7087 50.9376 80.3692 50.3264 79.9996C49.7151 79.63 50.0427 78.4435 50.9022 77.9392C50.9022 77.9392 49.0578 78.1418 48.4339 79.7606C47.81 81.3793 46.6214 80.5476 47.1803 79.513Z" fill="#FDB619"/>
</g>
<g filter="url(#filter5_d_328_379)">
<path d="M47.4932 84.1893C47.4932 84.1893 48.9526 85.2047 49.5481 83.3491C49.5481 83.3491 48.8285 84.0497 48.4561 83.3653C48.0837 82.6809 49.2353 82.5236 49.492 81.5936C49.7487 80.6636 49.3609 80.3767 49.3609 80.3767C49.3609 80.3767 49.3166 81.7516 48.1167 81.8815C46.9167 82.0114 45.7332 83.2166 47.4932 84.1893Z" fill="#FEF3B4"/>
</g>
</g>
</g>
<g filter="url(#filter6_d_328_379)">
<path d="M67.4059 270.846C67.2336 269.791 67.0364 268.692 66.8029 267.578C66.4108 265.689 65.8805 263.831 65.2161 262.017C65.0892 261.672 64.9894 261.309 64.8557 260.973C64.4355 259.948 63.9298 258.958 63.3437 258.015C62.9359 257.349 62.59 256.65 62.31 255.924C62.1113 255.414 61.9403 254.894 61.7977 254.366L61.7297 254.11C61.5827 253.556 61.4647 252.995 61.3761 252.429V252.411C61.2902 251.845 61.2357 251.276 61.2129 250.705V250.516C61.1643 249.373 61.2679 248.23 61.5212 247.114C61.5212 247.085 61.5212 247.059 61.5393 247.032C61.7773 245.988 62.2242 245 62.8541 244.127C62.8586 244.119 62.8638 244.111 62.8699 244.104C63.1772 243.687 63.541 243.313 63.9512 242.992C64.4486 242.604 65.0107 242.303 65.6128 242.102C64.6827 242.427 63.7787 242.82 62.9085 243.277L62.6818 243.401C62.2828 243.613 61.8703 243.846 61.4373 244.113L61.3194 244.191C60.9386 244.431 60.551 244.698 60.1611 244.985C60.0455 245.07 59.9344 245.152 59.8211 245.241C59.3904 245.573 58.9619 245.924 58.5471 246.313C58.5086 246.351 58.4746 246.391 58.436 246.429C58.0552 246.794 57.6957 247.181 57.3593 247.586C57.2596 247.706 57.1598 247.826 57.0624 247.951C56.6877 248.422 56.3483 248.919 56.0468 249.439C56.0309 249.468 56.0196 249.501 56.0037 249.53C55.7191 250.049 55.4773 250.589 55.2806 251.145C55.2262 251.299 55.1718 251.457 55.1219 251.617C54.9163 252.252 54.7713 252.904 54.689 253.565C54.6407 253.999 54.5597 254.429 54.4464 254.851C54.4147 254.971 54.3739 255.074 54.3399 255.185C54.2642 255.421 54.1741 255.653 54.0701 255.879C54.018 255.981 53.9681 256.079 53.9137 256.17C53.814 256.342 53.6987 256.504 53.5692 256.655C53.5125 256.722 53.4558 256.796 53.3969 256.853C53.2509 256.995 53.0853 257.117 52.905 257.214C52.871 257.232 52.8415 257.26 52.8075 257.276C52.6078 257.367 52.3925 257.42 52.1728 257.432C52.0974 257.437 52.0216 257.437 51.9461 257.432C51.7976 257.425 51.6502 257.402 51.5064 257.365C51.4106 257.337 51.3167 257.303 51.2253 257.263C51.0886 257.204 50.9567 257.135 50.8309 257.056C50.7305 256.997 50.6337 256.932 50.5407 256.862C50.4058 256.751 50.2779 256.632 50.1576 256.506C50.0692 256.417 49.9785 256.342 49.8924 256.242C49.6886 255.998 49.5044 255.739 49.3416 255.467C49.2577 255.33 49.1829 255.167 49.1149 255.023C49.0174 254.836 48.9222 254.649 48.8361 254.442C48.7499 254.235 48.6887 254.062 48.6094 253.861C48.53 253.661 48.4666 253.43 48.4031 253.194C48.3396 252.958 48.283 252.749 48.2331 252.527C48.1832 252.304 48.1356 251.995 48.0925 251.719C48.0563 251.497 48.0132 251.259 47.986 251.012C47.8107 249.079 47.9168 247.131 48.3011 245.228C48.4778 244.285 48.7048 243.353 48.9811 242.434C49.6412 240.23 49.9201 237.934 49.8063 235.64C49.7356 234.374 49.5528 233.117 49.26 231.883C49.2396 231.791 49.226 231.7 49.2033 231.609C49.0741 231.075 48.9199 230.541 48.7499 230.007C48.6978 229.845 48.6502 229.685 48.5958 229.525C48.4235 229.016 48.2338 228.507 48.0268 227.996C47.9543 227.818 47.8795 227.64 47.8001 227.46C47.5735 226.955 47.3468 226.45 47.0997 225.948C47.0181 225.781 46.9274 225.616 46.8413 225.449C46.5692 224.929 46.2904 224.408 45.9821 223.892C45.9323 223.807 45.8733 223.723 45.8212 223.638C44.7422 221.871 43.5298 220.185 42.1943 218.595C42.022 218.388 41.8565 218.179 41.6775 217.97C41.3216 217.559 40.9453 217.147 40.569 216.736C40.3128 216.458 40.0612 216.182 39.7983 215.906C39.4333 215.525 39.057 215.145 38.6648 214.767C38.3626 214.461 38.0505 214.157 37.7287 213.855C37.3524 213.499 36.9715 213.141 36.5816 212.787C36.1917 212.433 35.8472 212.133 35.4732 211.808C35.0992 211.483 34.707 211.141 34.3103 210.809C33.9136 210.478 33.4376 210.098 32.9955 209.744C32.6215 209.446 32.2588 209.148 31.8735 208.854C31.1572 208.302 30.4219 207.754 29.6678 207.21C29.5364 207.114 29.414 207.017 29.2802 206.923C29.3606 206.979 29.4234 207.056 29.4616 207.146C29.4904 207.189 29.5169 207.235 29.5409 207.281C29.5935 207.382 29.6404 207.486 29.6814 207.593C29.6996 207.637 29.72 207.682 29.7358 207.726C29.7971 207.891 29.856 208.053 29.9013 208.191L30.0033 208.494C30.3713 209.395 30.6847 210.317 30.9418 211.254C31.1073 211.848 31.2705 212.444 31.3793 213.034C31.5266 213.87 31.6513 214.709 31.776 215.548C31.8893 216.322 31.9664 217.105 32.0435 217.87C32.1138 218.582 32.2021 219.294 32.2248 220.01C32.2407 220.513 32.2248 220.98 32.1953 221.441C32.1481 222.179 32.0489 222.913 31.8984 223.638C31.6972 224.584 31.4438 225.518 31.139 226.437C30.9123 227.135 30.7106 227.789 30.5043 228.439C30.1733 229.523 29.7517 230.578 29.2439 231.593C28.2443 233.533 26.8884 235.177 26.2945 237.275C25.6008 239.722 25.787 242.725 26.3809 245.223C26.4875 245.604 26.6247 245.976 26.7913 246.336C27.3262 247.621 28.1513 248.852 28.9175 250.073C29.2439 250.591 29.5522 251.11 29.8243 251.63C28.6908 250.093 23.8353 248.473 21.7906 246.959L21.8587 247.01L21.7816 246.963C21.7523 246.907 21.6934 246.873 21.6297 246.874C21.0131 246.462 20.4205 246.016 19.8548 245.539C16.313 242.578 14.2935 238.226 14.3419 233.66C14.0287 234.363 13.7629 235.085 13.5462 235.822C13.4669 236.078 13.3898 236.356 13.3195 236.65C13.2833 236.79 13.2493 236.941 13.213 237.095C13.1609 237.317 13.1087 237.54 13.0611 237.762C13.0271 237.92 12.9954 238.076 12.9637 238.24C12.9093 238.527 12.8594 238.826 12.814 239.13C12.7959 239.259 12.7732 239.377 12.7551 239.506C12.6984 239.933 12.6554 240.38 12.6214 240.841C12.6214 240.979 12.6078 241.117 12.601 241.257C12.5806 241.615 12.5715 241.98 12.5715 242.351V242.832C12.5715 243.277 12.6032 243.722 12.644 244.187C12.644 244.265 12.644 244.342 12.6599 244.42C12.7143 244.952 12.7982 245.495 12.9002 246.044C12.9274 246.195 12.9659 246.345 12.9977 246.489C13.0883 246.91 13.1949 247.334 13.3173 247.759C13.3671 247.931 13.4147 248.097 13.4692 248.267C13.6392 248.798 13.8318 249.328 14.0585 249.862C14.0789 249.904 14.0925 249.946 14.1084 249.988C14.3686 250.572 14.6583 251.142 14.9766 251.697C15.0695 251.859 15.1738 252.022 15.2735 252.184C15.5319 252.611 15.8176 253.036 16.1236 253.459C16.246 253.628 16.3661 253.795 16.4954 253.964C16.9427 254.548 17.4217 255.109 17.9303 255.643C19.1951 256.967 20.7112 258.535 22.4929 260.204C23.8938 261.525 25.6964 262.918 26.0137 264.339C26.1414 264.908 26.2271 265.485 26.2699 266.065C26.4059 267.867 26.1112 269.814 24.869 271.077C18.7259 277.371 17.4905 265.373 16.1644 262.328C15.7747 261.423 15.2972 260.556 14.7386 259.741C13.0271 257.263 10.579 255.514 7.25806 255.207C9.54129 257.033 11.0454 259.631 11.4744 262.49C11.7119 264.26 11.5573 266.059 11.021 267.765C10.7671 268.621 10.5216 269.476 10.2843 270.332C10.1709 270.739 10.0576 271.146 9.95785 271.553C9.85811 271.96 9.73116 272.416 9.63369 272.846C9.1604 274.751 8.80313 276.683 8.56375 278.63C8.56375 278.727 8.53884 278.828 8.5275 278.925C8.4935 279.228 8.44588 279.533 8.41867 279.835C8.31413 280.988 8.27627 282.145 8.30533 283.301C8.37862 286.514 9.1046 289.681 10.4407 292.615C12.5942 297.327 14.9449 300.384 19.5737 302.908C21.559 303.972 23.6472 304.84 25.8075 305.498C27.8973 306.149 30.0476 306.596 32.2271 306.833C33.0227 306.919 33.8139 307.033 34.614 307.055C45.1548 307.433 55.0653 302.884 61.2741 295.076C63.557 292.218 65.2921 288.977 66.3948 285.51C67.8733 280.763 68.2192 275.745 67.4059 270.846Z" fill="#F36B2A"/>
</g>
<g filter="url(#filter7_d_328_379)">
<path d="M34.4031 306.049C34.4031 306.049 2.71085 298.637 13.5689 273.562C13.5689 273.562 13.2425 288.022 22.9467 285.557C29.7797 278.644 34.1493 265.636 25.1138 257.016C25.1138 257.016 34.6186 259.449 37.5201 262.897C37.5201 262.897 34.2207 257.051 37.9859 250.289C41.751 243.526 42.1489 240.977 37.5201 237.037C37.5201 237.037 47.1994 240.478 45.191 253.534C43.1826 266.59 55.7317 265.454 58.4927 257.016C58.4927 257.016 60.2287 265.685 54.1967 270.29C48.1647 274.895 60.9036 283.46 63.8504 271.912C63.8504 271.912 70.16 300.019 44.4996 305.965C44.511 305.965 38.5378 306.529 34.4031 306.049Z" fill="#FDB619"/>
</g>
<g filter="url(#filter8_d_328_379)">
<path d="M39.8631 306.214C39.8631 306.214 25.0562 304.739 31.3285 293.409C37.6008 282.08 40.5069 279.79 36.2974 269.606C36.2974 269.606 49.7043 272.43 44.9372 285.57C40.1701 298.711 51.6574 296.94 50.1613 287.915C50.1522 287.903 60.9423 305.224 39.8631 306.214Z" fill="#FEF3B4"/>
</g>
<defs>
<filter id="filter0_d_328_379" x="17.0525" y="26.3572" width="23.6871" height="29.9858" filterUnits="userSpaceOnUse" color-interpolation-filters="sRGB">
<feFlood flood-opacity="0" result="BackgroundImageFix"/>
<feColorMatrix in="SourceAlpha" type="matrix" values="0 0 0 0 0 0 0 0 0 0 0 0 0 0 0 0 0 0 127 0" result="hardAlpha"/>
<feOffset dy="4"/>
<feGaussianBlur stdDeviation="2"/>
<feComposite in2="hardAlpha" operator="out"/>
<feColorMatrix type="matrix" values="0 0 0 0 0 0 0 0 0 0 0 0 0 0 0 0 0 0 0.25 0"/>
<feBlend mode="normal" in2="BackgroundImageFix" result="effect1_dropShadow_328_379"/>
<feBlend mode="normal" in="SourceGraphic" in2="effect1_dropShadow_328_379" result="shape"/>
</filter>
<filter id="filter1_d_328_379" x="19.1868" y="34.0972" width="18.8144" height="22.2453" filterUnits="userSpaceOnUse" color-interpolation-filters="sRGB">
<feFlood flood-opacity="0" result="BackgroundImageFix"/>
<feColorMatrix in="SourceAlpha" type="matrix" values="0 0 0 0 0 0 0 0 0 0 0 0 0 0 0 0 0 0 127 0" result="hardAlpha"/>
<feOffset dy="4"/>
<feGaussianBlur stdDeviation="2"/>
<feComposite in2="hardAlpha" operator="out"/>
<feColorMatrix type="matrix" values="0 0 0 0 0 0 0 0 0 0 0 0 0 0 0 0 0 0 0.25 0"/>
<feBlend mode="normal" in2="BackgroundImageFix" result="effect1_dropShadow_328_379"/>
<feBlend mode="normal" in="SourceGraphic" in2="effect1_dropShadow_328_379" result="shape"/>
</filter>
<filter id="filter2_d_328_379" x="21.7444" y="39.8613" width="13.6988" height="16.481" filterUnits="userSpaceOnUse" color-interpolation-filters="sRGB">
<feFlood flood-opacity="0" result="BackgroundImageFix"/>
<feColorMatrix in="SourceAlpha" type="matrix" values="0 0 0 0 0 0 0 0 0 0 0 0 0 0 0 0 0 0 127 0" result="hardAlpha"/>
<feOffset dy="4"/>
<feGaussianBlur stdDeviation="2"/>
<feComposite in2="hardAlpha" operator="out"/>
<feColorMatrix type="matrix" values="0 0 0 0 0 0 0 0 0 0 0 0 0 0 0 0 0 0 0.25 0"/>
<feBlend mode="normal" in2="BackgroundImageFix" result="effect1_dropShadow_328_379"/>
<feBlend mode="normal" in="SourceGraphic" in2="effect1_dropShadow_328_379" result="shape"/>
</filter>
<filter id="filter3_d_328_379" x="41.6055" y="74.3931" width="15.9154" height="18.4088" filterUnits="userSpaceOnUse" color-interpolation-filters="sRGB">
<feFlood flood-opacity="0" result="BackgroundImageFix"/>
<feColorMatrix in="SourceAlpha" type="matrix" values="0 0 0 0 0 0 0 0 0 0 0 0 0 0 0 0 0 0 127 0" result="hardAlpha"/>
<feOffset dy="4"/>
<feGaussianBlur stdDeviation="2"/>
<feComposite in2="hardAlpha" operator="out"/>
<feColorMatrix type="matrix" values="0 0 0 0 0 0 0 0 0 0 0 0 0 0 0 0 0 0 0.25 0"/>
<feBlend mode="normal" in2="BackgroundImageFix" result="effect1_dropShadow_328_379"/>
<feBlend mode="normal" in="SourceGraphic" in2="effect1_dropShadow_328_379" result="shape"/>
</filter>
<filter id="filter4_d_328_379" x="42.0835" y="77.9392" width="13.1277" height="14.8081" filterUnits="userSpaceOnUse" color-interpolation-filters="sRGB">
<feFlood flood-opacity="0" result="BackgroundImageFix"/>
<feColorMatrix in="SourceAlpha" type="matrix" values="0 0 0 0 0 0 0 0 0 0 0 0 0 0 0 0 0 0 127 0" result="hardAlpha"/>
<feOffset dy="4"/>
<feGaussianBlur stdDeviation="2"/>
<feComposite in2="hardAlpha" operator="out"/>
<feColorMatrix type="matrix" values="0 0 0 0 0 0 0 0 0 0 0 0 0 0 0 0 0 0 0.25 0"/>
<feBlend mode="normal" in2="BackgroundImageFix" result="effect1_dropShadow_328_379"/>
<feBlend mode="normal" in="SourceGraphic" in2="effect1_dropShadow_328_379" result="shape"/>
</filter>
<filter id="filter5_d_328_379" x="42.6001" y="80.3767" width="10.9797" height="12.0899" filterUnits="userSpaceOnUse" color-interpolation-filters="sRGB">
<feFlood flood-opacity="0" result="BackgroundImageFix"/>
<feColorMatrix in="SourceAlpha" type="matrix" values="0 0 0 0 0 0 0 0 0 0 0 0 0 0 0 0 0 0 127 0" result="hardAlpha"/>
<feOffset dy="4"/>
<feGaussianBlur stdDeviation="2"/>
<feComposite in2="hardAlpha" operator="out"/>
<feColorMatrix type="matrix" values="0 0 0 0 0 0 0 0 0 0 0 0 0 0 0 0 0 0 0.25 0"/>
<feBlend mode="normal" in2="BackgroundImageFix" result="effect1_dropShadow_328_379"/>
<feBlend mode="normal" in="SourceGraphic" in2="effect1_dropShadow_328_379" result="shape"/>
</filter>
<filter id="filter6_d_328_379" x="3.25806" y="206.923" width="68.5769" height="108.154" filterUnits="userSpaceOnUse" color-interpolation-filters="sRGB">
<feFlood flood-opacity="0" result="BackgroundImageFix"/>
<feColorMatrix in="SourceAlpha" type="matrix" values="0 0 0 0 0 0 0 0 0 0 0 0 0 0 0 0 0 0 127 0" result="hardAlpha"/>
<feOffset dy="4"/>
<feGaussianBlur stdDeviation="2"/>
<feComposite in2="hardAlpha" operator="out"/>
<feColorMatrix type="matrix" values="0 0 0 0 0 0 0 0 0 0 0 0 0 0 0 0 0 0 0.25 0"/>
<feBlend mode="normal" in2="BackgroundImageFix" result="effect1_dropShadow_328_379"/>
<feBlend mode="normal" in="SourceGraphic" in2="effect1_dropShadow_328_379" result="shape"/>
</filter>
<filter id="filter7_d_328_379" x="7.30302" y="237.037" width="61.2331" height="77.2056" filterUnits="userSpaceOnUse" color-interpolation-filters="sRGB">
<feFlood flood-opacity="0" result="BackgroundImageFix"/>
<feColorMatrix in="SourceAlpha" type="matrix" values="0 0 0 0 0 0 0 0 0 0 0 0 0 0 0 0 0 0 127 0" result="hardAlpha"/>
<feOffset dy="4"/>
<feGaussianBlur stdDeviation="2"/>
<feComposite in2="hardAlpha" operator="out"/>
<feColorMatrix type="matrix" values="0 0 0 0 0 0 0 0 0 0 0 0 0 0 0 0 0 0 0.25 0"/>
<feBlend mode="normal" in2="BackgroundImageFix" result="effect1_dropShadow_328_379"/>
<feBlend mode="normal" in="SourceGraphic" in2="effect1_dropShadow_328_379" result="shape"/>
</filter>
<filter id="filter8_d_328_379" x="25.7799" y="269.606" width="31.1347" height="44.6074" filterUnits="userSpaceOnUse" color-interpolation-filters="sRGB">
<feFlood flood-opacity="0" result="BackgroundImageFix"/>
<feColorMatrix in="SourceAlpha" type="matrix" values="0 0 0 0 0 0 0 0 0 0 0 0 0 0 0 0 0 0 127 0" result="hardAlpha"/>
<feOffset dy="4"/>
<feGaussianBlur stdDeviation="2"/>
<feComposite in2="hardAlpha" operator="out"/>
<feColorMatrix type="matrix" values="0 0 0 0 0 0 0 0 0 0 0 0 0 0 0 0 0 0 0.25 0"/>
<feBlend mode="normal" in2="BackgroundImageFix" result="effect1_dropShadow_328_379"/>
<feBlend mode="normal" in="SourceGraphic" in2="effect1_dropShadow_328_379" result="shape"/>
</filter>
<clipPath id="clip0_328_379">
<rect width="71" height="308" fill="white" transform="translate(9)"/>
</clipPath>
<clipPath id="clip1_328_379">
<rect width="9.86376" height="13.8168" fill="white" transform="matrix(0.867292 0.4978 -0.496989 0.867757 49.3946 71.0769)"/>
</clipPath>
</defs>
</svg>
