<svg width="139" height="81" viewBox="0 0 139 81" fill="none" xmlns="http://www.w3.org/2000/svg">
<path d="M111.249 28.7203L120.515 28.1475L110.979 24.9971L111.249 28.7203Z" fill="#483E37" stroke="black" stroke-width="0.264583"/>
<path d="M101.696 49.8071C102.028 49.979 111.959 57.2453 111.959 57.2453L138.261 51.7219L110.234 33.7197L101.696 49.8071Z" fill="#483E37" stroke="black" stroke-width="0.264583"/>
<path d="M94.8812 47.9414L102.153 54.2995L114.494 30.3156L109.694 26.7725L94.8812 47.9414Z" fill="#483E37" stroke="black" stroke-width="0.264583"/>
<path d="M4.31067 25.529L25.2943 33.6218L36.118 32.12L29.678 22.5504L4.31067 25.529Z" fill="#483E37" stroke="black" stroke-width="0.264583"/>
<path d="M110.071 22.9235L118.514 15.456L102.004 14.3782L110.071 22.9235Z" fill="#483E37" stroke="black" stroke-width="0.264583"/>
<path d="M44.0843 48.0806L27.2559 80.7873L56.0512 72.3754L59.8947 59.3401L44.0843 48.0806Z" fill="#483E37" stroke="black" stroke-width="0.264583"/>
<path d="M39.3059 44.1528L59.2507 66.7701C59.2507 66.7701 71.4669 51.01 71.1138 51.1C70.7606 51.19 39.3059 44.1528 39.3059 44.1528Z" fill="#483E37" stroke="black" stroke-width="0.264583"/>
<path d="M6.96188 35.0281L2.35614 37.2847L0.750244 40.4215L4.94969 42.6764L6.96188 35.0281Z" fill="#AA8800" stroke="black" stroke-width="0.264583"/>
<path d="M4.51965 46.5229L6.24455 40.896L25.6984 43.7176L26.1946 52.1442L4.51965 46.5229Z" fill="#FFCC00" stroke="black" stroke-width="0.264583"/>
<path d="M26.1803 52.1427L25.6542 43.6414L38.623 41.4746L42.1476 47.4552L26.1803 52.1427Z" fill="#FFCC00" stroke="black" stroke-width="0.264583"/>
<path d="M16.0153 35.6575L14.1776 41.9837L25.6806 43.7301L24.1911 35.7843L16.0153 35.6575Z" fill="#782121" stroke="black" stroke-width="0.264583"/>
<path d="M24.1724 35.8464L25.6414 43.5779L38.6479 41.509L34.8891 31.2224L24.1724 35.8464Z" fill="#483E37" stroke="black" stroke-width="0.264583"/>
<path d="M7.38072 47.2828L6.6344 50.2224L7.8605 50.6035L8.66013 47.555L7.38072 47.2828Z" fill="#FFCC00" stroke="black" stroke-width="0.264583"/>
<path d="M2.84939 41.5126L1.99646 43.9622L2.95601 44.2888L3.64902 42.0569L2.84939 41.5126Z" fill="#AA8800" stroke="black" stroke-width="0.264583"/>
<path d="M3.84412 40.0179L6.94903 35.0091L20.9712 34.3929L16.1909 41.6896L3.84412 40.0179Z" fill="#A02C2C" stroke="black" stroke-width="0.264583"/>
<path d="M3.87994 40.0417L4.39337 46.497L13.5174 45.2429L16.0931 41.6686C16.0931 41.6686 3.85055 40.1922 3.87994 40.0417Z" fill="#FFCC00" stroke="black" stroke-width="0.264583"/>
<path d="M32.7822 26.8868C32.7822 26.8868 37.997 45.0854 38.3917 44.9954C38.7864 44.9053 73.2536 53.5464 73.2536 53.5464L86.0307 50.0687L77.5484 2.15332L32.7822 26.8868Z" fill="#917C6F" stroke="black" stroke-width="0.264583"/>
<path d="M77.6843 2.18713L85.9069 49.3304L99.0928 50.486L114.514 29.4183L113.166 14.1454L77.6843 2.18713Z" fill="#917C6F" stroke="black" stroke-width="0.264583"/>
<path d="M32.8885 31.6512L28.6626 26.4012L29.7228 21.4133L41.5704 9.25281L47.2012 19.024L32.8885 31.6512Z" fill="#664F3F" stroke="black" stroke-width="0.264583"/>
<path d="M41.5511 9.3046L62.9491 1.16278L77.6298 2.15436L47.0968 18.9248L41.5511 9.3046Z" fill="#664F3F" stroke="black" stroke-width="0.264583"/>
<path d="M77.5996 2.23051L82.7284 0.268433L99.5233 5.05074L110.848 9.80599C110.848 9.80599 113.432 14.1877 113.1 14.1468C112.767 14.1059 77.5996 2.23051 77.5996 2.23051Z" fill="#664F3F" stroke="black" stroke-width="0.264583"/>
<path d="M82.6409 0.326782L62.8367 1.15394L77.7388 2.06258L82.6409 0.326782Z" fill="#664F3F" stroke="black" stroke-width="0.264583"/>
<path d="M32.7822 31.7064L47.032 19.1285L62.536 46.501L36.2726 42.4423L32.7822 31.7064Z" fill="#664F3F" stroke="black" stroke-width="0.264583"/>
<path d="M77.6283 2.31653C77.6283 2.31653 105.48 36.9708 105.023 36.8644C104.566 36.758 83.4753 34.8895 83.4753 34.8895L77.6283 2.31653Z" fill="#664F3F" stroke="black" stroke-width="0.264583"/>
<path d="M77.4856 2.28625C77.4856 2.28625 105.373 37.5407 105.581 37.1725C105.789 36.8042 115.657 25.3565 115.657 25.3565L113.164 14.2197L77.4856 2.28625Z" fill="#664F3F" stroke="black" stroke-width="0.264583"/>
<path d="M77.5753 2.2478L83.4718 35.0875L62.8665 46.9422L47.0186 19.0218C47.0186 19.0218 77.7516 2.29409 77.5753 2.2478Z" fill="#664F3F" stroke="black" stroke-width="0.264583"/>
</svg>
