<svg width="82" height="102" viewBox="0 0 82 102" fill="none" xmlns="http://www.w3.org/2000/svg">
<path d="M36.1565 76.9921L38.5757 83.3493L42.3163 77.2471L36.1565 76.9921Z" fill="#6C5D53" stroke="black" stroke-width="0.264583"/>
<path d="M44.1075 81.9627L47.0411 76.7568L57.8137 74.6282L67.3167 101.743L48.7821 92.8712L44.1075 81.9627Z" fill="#6C5D53" stroke="black" stroke-width="0.264583"/>
<path d="M44.2911 81.8165C45.0166 81.4594 55.3674 79.2067 55.3674 79.2067L61.7076 71.4156L48.3155 74.4575L44.2911 81.8165Z" fill="#483E37" stroke="black" stroke-width="0.264583"/>
<path d="M20.9413 74.4064L12.0032 101.228L31.6984 92.614L35.5255 83.5334L31.7365 75.7459L20.9413 74.4064Z" fill="#6C5D53" stroke="black" stroke-width="0.264583"/>
<path d="M22.4417 78.6007L35.46 83.4973L30.6828 73.4138L20.5312 72.2584L22.4417 78.6007Z" fill="#483E37" stroke="black" stroke-width="0.264583"/>
<path d="M53.6643 24.2118L81.1724 20.642L78.1256 31.4135L58.8294 33.8992L53.6643 24.2118Z" fill="#6C5D53" stroke="black" stroke-width="0.264583"/>
<path d="M26.1853 23.8088L0.940552 16.7633L2.57275 29.2708L17.9154 33.2661L26.1853 23.8088Z" fill="#6C5D53" stroke="black" stroke-width="0.264583"/>
<path d="M19.7651 23.2659L58.5027 23.8088L69.4203 39.5946L69.8193 65.0719L55.1295 78.5378L21.8326 78.1092L8.84753 63.6234L9.06668 38.4566L19.7651 23.2659Z" fill="#502D16" stroke="black" stroke-width="0.264583"/>
<path d="M26.6716 23.3466L39.9655 11.5373L51.321 23.6342L36.8793 23.4657L26.6716 23.3466Z" fill="#483E37" stroke="black" stroke-width="0.264583"/>
<path d="M30.9571 21.5034L29.7759 9.93727L40.2945 0.194336L49.725 9.99441L48.6369 21.6088L30.9571 21.5034Z" fill="#6C5D53" stroke="black" stroke-width="0.264583"/>
<path d="M40.2945 0.194336L29.7759 9.93727L30.9338 21.4321L40.2945 0.194336Z" fill="#782121" stroke="black" stroke-width="0.264583"/>
<path d="M40.2946 0.194336L49.7251 9.99441L48.6369 21.6088L40.2946 0.194336Z" fill="#782121" stroke="black" stroke-width="0.264583"/>
</svg>
