<svg width="94" height="88" viewBox="0 0 94 88" fill="none" xmlns="http://www.w3.org/2000/svg">
<path d="M28.0518 21.1759L47.9852 62.2474L36.3917 73.8606L28.0518 21.1759Z" fill="#0B1728" stroke="black" stroke-width="0.264583"/>
<path d="M27.9753 20.6904L26.5261 83.8052L28.6442 87.186L43.9163 67.2088L27.9753 20.6904Z" fill="#71C837" stroke="black" stroke-width="0.264583"/>
<path d="M60.243 4.98846L26.972 19.4611L40.3491 57.6812L78.5788 18.9293L60.243 4.98846Z" fill="#71C837" stroke="black" stroke-width="0.264583"/>
<path d="M78.1436 0.791321L60.218 4.9484L76.8096 19.1022L78.1436 0.791321Z" fill="#FF2A2A" stroke="black" stroke-width="0.264583"/>
<path d="M81.7054 22.9024L86.9527 15.069L93.4158 25.7299L81.7054 22.9024Z" fill="#241F1C" stroke="black" stroke-width="0.264583"/>
<path d="M76.0076 21.6054L76.9908 18.9535L84.277 23.5208C84.277 23.5208 75.7568 21.6054 76.0076 21.6054Z" fill="#2A7FFF" stroke="black" stroke-width="0.264583"/>
<path d="M83.3165 22.8177L76.8484 18.879L77.4469 10.1982L85.6631 20.0223L83.3165 22.8177Z" fill="#FF2A2A" stroke="black" stroke-width="0.264583"/>
<path d="M85.7865 20.1833L77.3354 10.1872L78.1994 1.12061L88.083 16.772L85.7865 20.1833Z" fill="#2A7FFF" stroke="black" stroke-width="0.264583"/>
<path d="M78.0981 0.82135L68.7423 2.9313L77.3808 10.4055L78.0981 0.82135Z" fill="#2A7FFF" stroke="black" stroke-width="0.264583"/>
<path d="M81.6849 22.8454L86.9502 14.9181L88.26 16.9817L84.1912 23.5237L81.6849 22.8454Z" fill="black" stroke="black" stroke-width="0.264583"/>
<path d="M60.2201 4.94342L52.3826 41.139L26.9486 19.1428L60.2201 4.94342Z" fill="#76A02C" stroke="black" stroke-width="0.264583"/>
<path d="M52.4332 41.139L1.05957 46.6122L26.8475 19.1945L52.4332 41.139Z" fill="#76A02C" stroke="black" stroke-width="0.264583"/>
<path d="M60.119 5.09833L48.2111 10.1069L57.2116 19.0912L60.119 5.09833Z" fill="#FFCC00" stroke="black" stroke-width="0.264583"/>
<path d="M60.1443 5.07251L47.9077 10.1843L57.6667 16.7935L60.1443 5.07251Z" fill="black" stroke="black" stroke-width="0.264583"/>
</svg>
