<svg width="117" height="79" viewBox="0 0 117 79" fill="none" xmlns="http://www.w3.org/2000/svg">
<path d="M18.8133 55.9616L11.2557 64.3591L13.7565 64.5672L20.6504 56.7021L18.8133 55.9616Z" fill="#FF683C" stroke="black" stroke-width="0.264583"/>
<path d="M20.8102 56.6054L12.1958 66.3944L18.2848 65.7724L18.1497 63.713L21.9223 58.0889L20.8102 56.6054Z" fill="#FF683C" stroke="black" stroke-width="0.264583"/>
<path d="M21.9285 58.1155L18.1436 63.6113L18.5491 67.3067L30.2233 65.3997L31.4214 61.5834L21.9285 58.1155Z" fill="#FF683C" stroke="black" stroke-width="0.264583"/>
<path d="M28.2755 45.1176C28.0543 45.5048 15.6427 59.5118 15.6427 59.5118L30.3154 65.378L34.3215 59.144L35.5012 48.9509L28.2755 45.1176Z" fill="#AAD400" stroke="black" stroke-width="0.264583"/>
<path d="M18.8248 36.8091L19.046 39.6938L45.098 59.2185L46.1548 54.5237L44.1641 39.6551L45.5158 34.5343L18.8248 36.8091Z" fill="#1A1A1A" stroke="black" stroke-width="0.264583"/>
<path d="M45.1846 18.8138L64.7482 25.8222L82.0015 49.6836L70.9417 53.5944C70.9417 53.5944 69.9094 52.4908 68.8772 52.1714C67.8449 51.852 51.034 48.6188 51.034 48.6188L44.5702 57.2341L36.0419 40.9425L45.1846 18.8138Z" fill="#DDFF55" stroke="black" stroke-width="0.264583"/>
<path d="M85.2703 61.6221L86.6246 65.2686L75.636 66.617L63.0278 62.8127L65.1906 60.3734L85.2703 61.6221Z" fill="#FF683C" stroke="black" stroke-width="0.264583"/>
<path d="M63.1016 62.503C63.1016 62.503 71.8265 51.5161 72.2443 51.4289C72.6621 51.3418 80.871 48.9896 80.871 48.9896L88.7357 53.7328L86.7449 63.0741L63.1016 62.503Z" fill="#1A1A1A" stroke="black" stroke-width="0.264583"/>
<path d="M75.5416 48.6774L78.4043 37.5844L83.862 37.606L98.8493 52.9593L81.3717 49.4035L75.5416 48.6774Z" fill="#DDFF55" stroke="black" stroke-width="0.264583"/>
<path d="M76.5111 48.8115L81.1094 49.3275L102.157 53.6738L107.11 60.5597L110.569 68.4723L116.043 78.3084L108.118 78.1988L83.5795 69.9303L80.5903 64.9678L76.5111 48.8115Z" fill="#DDFF55" stroke="black" stroke-width="0.264583"/>
<path d="M83.5796 69.9303L110.569 68.4724L116.043 78.3084L108.118 78.1989L83.5796 69.9303Z" fill="#FF683C" stroke="black" stroke-width="0.264583"/>
<path d="M50.2287 57.2459L37.9349 76.0822L53.7873 72.6797L50.2287 57.2459Z" fill="#FF683C" stroke="black" stroke-width="0.264583"/>
<path d="M50.2288 57.2459L32.528 74.0978L39.1495 74.0879L50.2288 57.2459Z" fill="#FF683C" stroke="black" stroke-width="0.264583"/>
<path d="M31.6309 68.0526L37.2125 69.7872L50.2288 57.2459L31.6309 68.0526Z" fill="#FF683C" stroke="black" stroke-width="0.264583"/>
<path d="M37.5433 64.6763L53.7873 72.6796L57.1913 71.126L71.2003 52.7096L64.9331 48.9876L51.9809 47.4146L37.5433 64.6763Z" fill="#DDFF55" stroke="black" stroke-width="0.264583"/>
<path d="M1.20239 5.01123L11.5495 32.1542L19.021 38.3881L48.44 35.0679L1.20239 5.01123Z" fill="#1A1A1A" stroke="black" stroke-width="0.264583"/>
<path d="M11.2795 5.4303L15.8509 1.83899L21.6266 5.36254L11.2795 5.4303Z" fill="#AAD400" stroke="black" stroke-width="0.264583"/>
<path d="M1.20789 4.9269L25.3865 4.07227L38.8549 9.95775L48.5578 34.976L43.7927 33.6438L5.15647 10.4164L1.20789 4.9269Z" fill="#DDFF55" stroke="black" stroke-width="0.264583"/>
<path d="M34.8247 0.735413L42.542 6.9597L48.2622 25.4965L35.2426 13.3389L33.1289 7.16299L34.8247 0.735413Z" fill="#A0892C" stroke="black" stroke-width="0.264583"/>
<path d="M25.9031 6.34986L34.628 0.832214L33.1288 7.16298L35.2425 13.3389L48.2621 25.4965L50.2101 34.8286L48.7108 35.0416L25.9031 6.34986Z" fill="#DDFF55" stroke="black" stroke-width="0.264583"/>
</svg>
