<svg width="80" height="87" viewBox="0 0 80 87" fill="none" xmlns="http://www.w3.org/2000/svg">
<path d="M36.4724 19.9565L35.1329 12.9978L38.4403 2.12238L36.8693 8.97009L39.3663 18.6444L36.4724 19.9565Z" fill="#8EB900" stroke="#699500" stroke-width="0.264583"/>
<path d="M39.3663 18.6444L43.5666 17.1495L45.7494 12.7301L40.7223 4.97504L37.1173 7.89951L36.8693 8.97008L39.3663 18.6444Z" fill="#B7EE00" stroke="#94D200" stroke-width="0.264583"/>
<path d="M38.4404 2.12235L42.343 0.562195L43.9801 0.640529L44.7078 1.57401L37.1174 7.89951L38.4404 2.12235Z" fill="#D8FF00" stroke="#7AAE00" stroke-width="0.264583"/>
<path d="M40.7224 4.97501L44.592 1.76331L45.2204 2.65109L41.5327 6.22836L40.7224 4.97501Z" fill="#F75400" stroke="#A33200" stroke-width="0.264583"/>
<path d="M9.23846 55.9364L10.9748 53.4232L16.7296 37.2668L1.16858 38.5397L9.23846 55.9364Z" fill="#8EB900" stroke="#699500" stroke-width="0.264583"/>
<path d="M1.16858 38.5397L9.45344 23.3168L16.1012 37.2733L1.16858 38.5397Z" fill="#F75400" stroke="#A33200" stroke-width="0.264583"/>
<path d="M62.4019 44.1629L63.3941 40.5856L74.5067 41.7019L69.2646 44.5219L62.4019 44.1629Z" fill="#8EB900" stroke="#699500" stroke-width="0.264583"/>
<path d="M63.394 40.5856L64.3862 36.4078L69.0826 33.6008L76.1438 36.9757L74.5067 41.7019L63.394 40.5856Z" fill="#B7EE00" stroke="#94D200" stroke-width="0.264583"/>
<path d="M76.1438 36.9757L77.7314 33.4347L77.5495 32.6252L78.7897 33.4804L79.137 34.4073L79.0874 38.7222L74.5067 41.7019L76.1438 36.9757Z" fill="#D8FF00" stroke="#87C200" stroke-width="0.264583"/>
<path d="M74.4156 36.1242L76.3587 32.808L75.9453 32.2662L77.5493 32.6253L77.7312 33.4347L76.1437 36.9757L74.4156 36.1242Z" fill="#F75400" stroke="#A33200" stroke-width="0.264583"/>
<path d="M75.135 34.8806L75.1019 33.7807L75.9453 32.2662L76.3587 32.808L75.135 34.8806Z" fill="#F75400" stroke="#A33200" stroke-width="0.264583"/>
<path d="M29.7399 75.5584L47.6889 66.8205L48.4723 66.2851L48.028 85.9349L29.7399 75.5584Z" fill="#8EB900" stroke="#699500" stroke-width="0.264583"/>
<path d="M48.028 85.9349L62.621 76.8647L48.4138 68.2792L48.028 85.9349Z" fill="#F75400" stroke="#A33200" stroke-width="0.264583"/>
<path d="M9.2384 55.9364L10.9748 53.4232L16.7295 37.2668L22.4859 26.9378L36.4724 19.9564L43.5666 17.1495L70.5745 7.73285L64.3862 36.4078L62.4018 44.1629L57.3452 59.6684L48.4723 66.2851L29.7398 75.5584L21.1299 65.2562L9.2384 55.9364Z" fill="#D8FF00" stroke="#87C200" stroke-width="0.264583"/>
<path d="M70.5744 7.73286L57.279 5.33061L50.3997 5.14783L45.7494 12.7301L43.5665 17.1495L70.5744 7.73286Z" fill="#D8FF00" stroke="#87C200" stroke-width="0.264583"/>
<path d="M43.5665 17.1495L47.6546 12.4851L50.3997 5.14783L45.7494 12.7301L43.5665 17.1495Z" fill="#8EB900" stroke="#699500" stroke-width="0.264583"/>
<path d="M64.3862 36.4079L70.5745 7.73291L74.7086 21.0367L75.7339 28.374L69.0826 33.6009L64.3862 36.4079Z" fill="#D8FF00" stroke="#87C200" stroke-width="0.264583"/>
<path d="M64.3862 36.4078L69.913 30.6848L75.7339 28.3739L69.0826 33.6008L64.3862 36.4078Z" fill="#8EB900" stroke="#699500" stroke-width="0.264583"/>
<path d="M48.4723 66.2851L21.1299 65.2562L16.7295 37.2668L10.9748 53.4232L9.2384 55.9364L21.1299 65.2562L29.7398 75.5584L48.4723 66.2851Z" fill="#B7EE00" stroke="#94D200" stroke-width="0.264583"/>
<path d="M21.1299 65.2563L37.2016 43.0345L70.5745 7.73291" stroke="#699500" stroke-width="0.264583"/>
</svg>
