<svg width="123" height="159" viewBox="0 0 123 159" fill="none" xmlns="http://www.w3.org/2000/svg">
<path d="M114.293 69.1218L51.0641 158.353L122.322 86.5484L114.293 69.1218Z" fill="#FF9955" stroke="black" stroke-width="0.264583"/>
<path d="M64.8413 27.7908L114.11 69.3044L87.4684 106.53L47.8708 105.8L64.8413 27.7908Z" fill="#E3E2DB" stroke="black" stroke-width="0.264583"/>
<path d="M0.335449 21.404L34.185 15.291L47.1409 101.42L0.791643 25.236L0.335449 21.404Z" fill="#E3E2DB" stroke="black" stroke-width="0.264583"/>
<path d="M34.1851 14.561L68.0346 10.2728L68.7645 13.01L47.6884 105.8L34.1851 14.561Z" fill="#E3E2DB" stroke="black" stroke-width="0.264583"/>
<path d="M10.098 32.4439L26.7946 61.0016L38.4732 57.717L34.9149 26.6959L10.098 32.4439Z" fill="#6C5353" stroke="black" stroke-width="0.264583"/>
<path d="M34.8237 26.8783L38.4733 57.717L50.973 57.2608L61.7391 22.6813L34.8237 26.8783Z" fill="#6C5353" stroke="black" stroke-width="0.264583"/>
<path d="M3.16384 33.9037L34.9149 26.9696L33.7288 0.966553L2.79889 18.2107L3.16384 33.9037Z" fill="#E3E2DB" stroke="black" stroke-width="0.264583"/>
<path d="M33.8201 1.0578L64.4763 5.80221L67.7609 21.8602L34.9149 26.9696L33.8201 1.0578Z" fill="#E3E2DB" stroke="black" stroke-width="0.264583"/>
</svg>
