<svg width="173" height="80" viewBox="0 0 173 80" fill="none" xmlns="http://www.w3.org/2000/svg">
<path d="M113.023 1.05738L86.443 19.6049L95.7898 63.272L130.651 47.5509L113.023 1.05738Z" fill="#544642" stroke="black" stroke-width="0.264583"/>
<path d="M113.023 0.619247L87.9034 28.0754L98.1265 42.6798L113.023 0.619247Z" fill="#766764" stroke="black" stroke-width="0.264583"/>
<path d="M113.023 0.619247L86.297 20.043L88.3416 28.8057L113.023 0.619247Z" fill="#D99497" stroke="black" stroke-width="0.264583"/>
<path d="M112.923 0.661217L172.171 38.1525L130.548 47.6453L112.923 0.661217Z" fill="#766764" stroke="black" stroke-width="0.264583"/>
<path d="M59.7135 30.1167L61.7081 49.2776L68.991 46.4377L63.8815 30.0094L59.7135 30.1167Z" fill="#544642" stroke="black" stroke-width="0.264583"/>
<path d="M39.7242 15.9079L66.4351 27.0531L61.0315 32.6028L39.7242 15.9079Z" fill="#D99497" stroke="black" stroke-width="0.264583"/>
<path d="M39.6752 15.9288L71.2545 54.8014L61.7617 32.0186L39.6752 15.9288Z" fill="#766764" stroke="black" stroke-width="0.264583"/>
<path d="M39.5631 16.0268L1.00757 72.4727L43.0681 64.4403L39.5631 16.0268Z" fill="#766764" stroke="black" stroke-width="0.264583"/>
<path d="M39.7117 16.0748L43.0681 64.4403L81.3315 64.1482L39.7117 16.0748Z" fill="#544642" stroke="black" stroke-width="0.264583"/>
<path d="M62.9301 30.5582L78.2646 28.9517L94.0373 21.7956L100.463 47.9374L99.8791 59.0367L96.228 71.4504L93.1611 79.3368L84.8366 74.2252L80.1632 66.777L71.4006 57.7223L62.9301 30.5582Z" fill="#E5CAAC" stroke="black" stroke-width="0.264583"/>
<path d="M71.4188 57.704L77.2886 62.9129L82.938 66.923L84.8183 74.207L78.64 68.2045L71.4188 57.704Z" fill="#D99497" stroke="black" stroke-width="0.264583"/>
<path d="M100.445 47.8279L97.9805 56.4079L94.4755 62.3957L96.228 71.4504L100.171 59.3288L100.445 47.8279Z" fill="#D99497" stroke="black" stroke-width="0.264583"/>
<path d="M70.6033 28.5895L76.9495 25.8324L79.1586 32.5851L75.3865 33.8567L70.6033 28.5895Z" fill="#AC825A" stroke="black" stroke-width="0.264583"/>
<path d="M83.5222 25.0085L77.0181 25.7889L79.2869 33.0409L83.5222 32.3107V25.0085Z" fill="#AC825A" stroke="black" stroke-width="0.264583"/>
<path d="M75.6113 33.8014L78.1186 29.5359L83.264 32.3277L75.6113 33.8014Z" fill="#D99497" stroke="black" stroke-width="0.264583"/>
<path d="M66.9483 18.2444L62.3458 31.1424L75.3017 33.7615L66.9483 18.2444Z" fill="#CC9F76" stroke="black" stroke-width="0.264583"/>
<path d="M83.9603 15.0776L83.5135 32.0448L94.055 21.7358L83.9603 15.0776Z" fill="#CC9F76" stroke="black" stroke-width="0.264583"/>
</svg>
