<svg width="317" height="519" viewBox="0 0 317 519" fill="none" xmlns="http://www.w3.org/2000/svg">
<g clip-path="url(#clip0_225_51)">
<g filter="url(#filter0_d_225_51)">
<path d="M114.32 119.611C114.32 119.611 101.125 160.017 81.6468 152.887C62.1685 145.756 41.1195 108.915 45.832 86.3347C50.5444 63.7546 66.2527 30.875 73.7926 39.9862C81.3326 49.0975 81.3326 48.3052 81.3326 48.3052C81.3326 48.3052 81.0185 18.9907 92.6425 18.1984C104.267 17.4061 113.377 6.71026 125.002 27.7058C136.626 48.7012 126.572 33.6479 126.572 33.6479C126.572 33.6479 130.028 17.8023 138.196 13.4447C146.365 9.0871 159.245 -2.40102 166.157 8.69097C173.069 19.783 176.839 44.7398 182.494 45.5321C188.149 46.3244 215.795 55.8319 209.826 79.6003C203.857 103.369 191.919 122.78 186.892 123.176C181.865 123.572 159.56 127.137 152.962 117.234C146.365 107.33 129.714 111.688 129.714 120.799C129.714 129.91 118.09 120.403 115.577 120.007C113.063 119.611 114.32 119.611 114.32 119.611V119.611Z" fill="#F4C630"/>
</g>
<g filter="url(#filter1_d_225_51)">
<path d="M115.778 105.835C115.778 105.835 105.097 131.584 90.6453 122.473C76.1937 113.362 72.1096 103.854 69.9104 90.3856C67.7113 76.9168 79.9637 54.7328 89.3886 56.3174C98.8136 57.9019 101.013 55.9215 101.013 55.9215C101.013 55.9215 97.8711 42.4527 106.354 40.472C114.836 38.4913 117.663 34.1337 129.602 42.0565C141.54 49.9794 132.743 46.018 132.743 46.018C132.743 46.018 139.655 27.3993 150.337 36.5106C161.018 45.6218 164.788 57.9022 164.788 57.9022C164.788 57.9022 183.324 54.3369 185.209 68.5981C187.094 82.8591 186.151 117.72 181.125 119.304C176.098 120.889 150.965 120.889 150.651 110.985C150.337 101.082 150.965 112.966 141.854 114.947C132.743 116.927 115.778 105.835 115.778 105.835V105.835Z" fill="#E3B53F"/>
</g>
<g filter="url(#filter2_d_225_51)">
<path d="M76.0779 208.308C76.0779 208.308 79.2196 236.83 49.6881 239.207C20.1566 241.584 -2.46327 233.661 1.30671 207.515C5.07668 181.37 18.8999 178.201 18.8999 178.201C18.8999 178.201 0.678379 150.471 10.7317 128.287C20.7849 106.103 40.2631 91.0497 49.0598 98.1803C57.8564 105.311 77.3346 124.326 81.1046 125.91C84.8745 127.495 93.6712 103.726 104.981 111.649C116.291 119.572 138.911 136.21 137.654 163.148C136.398 190.085 121.318 209.1 113.149 213.062C104.981 217.023 76.0779 208.308 76.0779 208.308Z" fill="#F4C630"/>
</g>
<g filter="url(#filter3_d_225_51)">
<path d="M28.9532 188.501C27.0682 191.67 23.9266 201.97 30.2099 213.854C36.4932 225.738 65.3963 205.931 65.3963 205.931C65.3963 205.931 72.3079 205.139 74.1929 196.424C76.0779 187.709 79.8479 195.631 79.8479 195.631C79.8479 195.631 103.724 198.8 110.636 180.578C117.548 162.355 100.583 132.249 100.583 132.249C100.583 132.249 91.1578 120.364 79.8479 130.664C68.538 140.964 66.653 140.171 66.653 140.171C66.653 140.171 54.7147 117.988 44.6614 125.91C34.6082 133.833 31.4665 163.94 31.4665 163.94C31.4665 163.94 31.4665 180.578 36.4932 182.162C41.5198 183.747 35.2365 182.955 35.2365 182.955L28.9532 188.501Z" fill="#E3B53F"/>
</g>
<g filter="url(#filter4_d_225_51)">
<path d="M173.256 141.021C178.597 118.441 188.65 113.291 188.65 113.291C188.65 113.291 205.615 110.122 211.27 116.46C216.925 122.799 226.978 101.803 226.978 101.803C226.978 101.803 235.146 85.9573 243.629 89.5226C252.111 93.0878 270.647 80.4113 281.014 107.349C291.382 134.287 280.386 146.171 280.386 146.171C280.386 146.171 314.63 174.693 303.32 212.723C292.01 250.752 249.912 246.395 249.912 246.395C249.912 246.395 235.775 248.772 222.894 228.172C210.013 207.573 219.752 198.065 219.752 198.065C219.752 198.065 187.707 190.539 180.796 172.712C173.884 154.886 173.256 141.021 173.256 141.021Z" fill="#F4C630"/>
</g>
<g filter="url(#filter5_d_225_51)">
<path d="M219.133 186.155C219.133 186.155 199.026 170.706 199.969 149.71C200.911 128.715 223.217 137.034 223.217 137.034C223.217 137.034 227.301 119.604 237.355 120C247.408 120.396 254.319 120.396 254.319 120.396C254.319 120.396 272.855 130.695 270.342 145.353C267.829 160.01 266.886 154.068 266.886 154.068C266.886 154.068 284.793 162.783 283.851 186.551C282.908 210.32 253.063 216.658 253.063 216.658C253.063 216.658 246.779 228.939 232.956 207.547C219.133 186.155 219.133 186.155 219.133 186.155Z" fill="#E3B53F"/>
</g>
<g filter="url(#filter6_d_225_51)">
<path d="M109.379 487.5C109.379 487.5 126.939 498.432 138.249 496.847C149.559 495.263 156.504 491.5 156.504 491.5L144.566 334C144.566 334 150.849 277.237 156.504 262.183C162.159 247.13 160.658 227.253 174.481 217.745C188.305 208.238 210.93 193.742 210.93 193.742C210.93 193.742 217.034 187.543 228.972 191.505C240.91 195.466 258.965 187.371 258.965 187.371V181C258.965 181 222.314 180.352 223.571 177.183C224.828 174.013 249.74 142.344 249.74 142.344L244.415 138.027L210.93 176.617C210.93 176.617 154.462 217 151.949 225.715C149.436 234.43 142.053 262.183 142.053 262.183L137.026 160.771C137.026 160.771 139.539 133.041 144.566 129.079C149.593 125.118 163.416 79.1656 163.416 79.1656L154.619 76.7888L137.026 125.91L130.114 127.495L109.379 77.581L98.6978 76.7888L121.318 133.833C121.318 133.833 130.743 166.317 129.486 175.824C128.229 185.332 129.486 262.975 126.973 263.768C124.459 264.56 110.636 229.177 109.379 216.5C108.123 203.824 77.9629 187.709 77.9629 187.709L101.839 159.186L81.7329 160.771L71.6796 179.786L55.0524 171L37.1215 151.263L33.9799 166.317L66.653 189.293C66.653 189.293 96.8128 213.662 101.839 220C106.866 226.338 113.778 266.145 118.176 276.444C122.574 286.744 125.088 362.011 125.088 362.011V426.5L109.379 487.5Z" fill="#624F29"/>
</g>
</g>
<defs>
<filter id="filter0_d_225_51" x="41.1628" y="4" width="173.502" height="157.73" filterUnits="userSpaceOnUse" color-interpolation-filters="sRGB">
<feFlood flood-opacity="0" result="BackgroundImageFix"/>
<feColorMatrix in="SourceAlpha" type="matrix" values="0 0 0 0 0 0 0 0 0 0 0 0 0 0 0 0 0 0 127 0" result="hardAlpha"/>
<feOffset dy="4"/>
<feGaussianBlur stdDeviation="2"/>
<feComposite in2="hardAlpha" operator="out"/>
<feColorMatrix type="matrix" values="0 0 0 0 0 0 0 0 0 0 0 0 0 0 0 0 0 0 0.25 0"/>
<feBlend mode="normal" in2="BackgroundImageFix" result="effect1_dropShadow_225_51"/>
<feBlend mode="normal" in="SourceGraphic" in2="effect1_dropShadow_225_51" result="shape"/>
</filter>
<filter id="filter1_d_225_51" x="65.6512" y="34" width="124.458" height="98.4248" filterUnits="userSpaceOnUse" color-interpolation-filters="sRGB">
<feFlood flood-opacity="0" result="BackgroundImageFix"/>
<feColorMatrix in="SourceAlpha" type="matrix" values="0 0 0 0 0 0 0 0 0 0 0 0 0 0 0 0 0 0 127 0" result="hardAlpha"/>
<feOffset dy="4"/>
<feGaussianBlur stdDeviation="2"/>
<feComposite in2="hardAlpha" operator="out"/>
<feColorMatrix type="matrix" values="0 0 0 0 0 0 0 0 0 0 0 0 0 0 0 0 0 0 0.25 0"/>
<feBlend mode="normal" in2="BackgroundImageFix" result="effect1_dropShadow_225_51"/>
<feBlend mode="normal" in="SourceGraphic" in2="effect1_dropShadow_225_51" result="shape"/>
</filter>
<filter id="filter2_d_225_51" x="-3.10461" y="96.3931" width="144.809" height="151.214" filterUnits="userSpaceOnUse" color-interpolation-filters="sRGB">
<feFlood flood-opacity="0" result="BackgroundImageFix"/>
<feColorMatrix in="SourceAlpha" type="matrix" values="0 0 0 0 0 0 0 0 0 0 0 0 0 0 0 0 0 0 127 0" result="hardAlpha"/>
<feOffset dy="4"/>
<feGaussianBlur stdDeviation="2"/>
<feComposite in2="hardAlpha" operator="out"/>
<feColorMatrix type="matrix" values="0 0 0 0 0 0 0 0 0 0 0 0 0 0 0 0 0 0 0.25 0"/>
<feBlend mode="normal" in2="BackgroundImageFix" result="effect1_dropShadow_225_51"/>
<feBlend mode="normal" in="SourceGraphic" in2="effect1_dropShadow_225_51" result="shape"/>
</filter>
<filter id="filter3_d_225_51" x="22.4795" y="124.201" width="93.8121" height="101.451" filterUnits="userSpaceOnUse" color-interpolation-filters="sRGB">
<feFlood flood-opacity="0" result="BackgroundImageFix"/>
<feColorMatrix in="SourceAlpha" type="matrix" values="0 0 0 0 0 0 0 0 0 0 0 0 0 0 0 0 0 0 127 0" result="hardAlpha"/>
<feOffset dy="4"/>
<feGaussianBlur stdDeviation="2"/>
<feComposite in2="hardAlpha" operator="out"/>
<feColorMatrix type="matrix" values="0 0 0 0 0 0 0 0 0 0 0 0 0 0 0 0 0 0 0.25 0"/>
<feBlend mode="normal" in2="BackgroundImageFix" result="effect1_dropShadow_225_51"/>
<feBlend mode="normal" in="SourceGraphic" in2="effect1_dropShadow_225_51" result="shape"/>
</filter>
<filter id="filter4_d_225_51" x="169.256" y="89" width="140.355" height="165.546" filterUnits="userSpaceOnUse" color-interpolation-filters="sRGB">
<feFlood flood-opacity="0" result="BackgroundImageFix"/>
<feColorMatrix in="SourceAlpha" type="matrix" values="0 0 0 0 0 0 0 0 0 0 0 0 0 0 0 0 0 0 127 0" result="hardAlpha"/>
<feOffset dy="4"/>
<feGaussianBlur stdDeviation="2"/>
<feComposite in2="hardAlpha" operator="out"/>
<feColorMatrix type="matrix" values="0 0 0 0 0 0 0 0 0 0 0 0 0 0 0 0 0 0 0.25 0"/>
<feBlend mode="normal" in2="BackgroundImageFix" result="effect1_dropShadow_225_51"/>
<feBlend mode="normal" in="SourceGraphic" in2="effect1_dropShadow_225_51" result="shape"/>
</filter>
<filter id="filter5_d_225_51" x="195.937" y="119.993" width="91.9501" height="108.173" filterUnits="userSpaceOnUse" color-interpolation-filters="sRGB">
<feFlood flood-opacity="0" result="BackgroundImageFix"/>
<feColorMatrix in="SourceAlpha" type="matrix" values="0 0 0 0 0 0 0 0 0 0 0 0 0 0 0 0 0 0 127 0" result="hardAlpha"/>
<feOffset dy="4"/>
<feGaussianBlur stdDeviation="2"/>
<feComposite in2="hardAlpha" operator="out"/>
<feColorMatrix type="matrix" values="0 0 0 0 0 0 0 0 0 0 0 0 0 0 0 0 0 0 0.25 0"/>
<feBlend mode="normal" in2="BackgroundImageFix" result="effect1_dropShadow_225_51"/>
<feBlend mode="normal" in="SourceGraphic" in2="effect1_dropShadow_225_51" result="shape"/>
</filter>
<filter id="filter6_d_225_51" x="29.9799" y="76.7888" width="232.985" height="428.216" filterUnits="userSpaceOnUse" color-interpolation-filters="sRGB">
<feFlood flood-opacity="0" result="BackgroundImageFix"/>
<feColorMatrix in="SourceAlpha" type="matrix" values="0 0 0 0 0 0 0 0 0 0 0 0 0 0 0 0 0 0 127 0" result="hardAlpha"/>
<feOffset dy="4"/>
<feGaussianBlur stdDeviation="2"/>
<feComposite in2="hardAlpha" operator="out"/>
<feColorMatrix type="matrix" values="0 0 0 0 0 0 0 0 0 0 0 0 0 0 0 0 0 0 0.25 0"/>
<feBlend mode="normal" in2="BackgroundImageFix" result="effect1_dropShadow_225_51"/>
<feBlend mode="normal" in="SourceGraphic" in2="effect1_dropShadow_225_51" result="shape"/>
</filter>
<clipPath id="clip0_225_51">
<rect width="315.523" height="519" fill="white" transform="translate(0.895386)"/>
</clipPath>
</defs>
</svg>
