<svg width="210" height="286" viewBox="0 0 210 286" fill="none" xmlns="http://www.w3.org/2000/svg">
<g clip-path="url(#clip0_223_44)">
<g filter="url(#filter0_d_223_44)">
<g filter="url(#filter1_d_223_44)">
<path d="M29.0226 96.6011C29.0226 96.6011 25.1033 106.383 19.8008 102.922C14.4983 99.4603 12.9998 95.8486 12.1929 90.732C11.386 85.6154 15.8816 77.1881 19.3397 77.79C22.7979 78.392 23.6048 77.6397 23.6048 77.6397C23.6048 77.6397 22.4521 72.5231 25.5644 71.7706C28.6768 71.0182 29.7142 69.3628 34.0945 72.3726C38.4749 75.3823 35.2472 73.8775 35.2472 73.8775C35.2472 73.8775 37.7832 66.8045 41.7025 70.2658C45.6217 73.727 47.005 78.3921 47.005 78.3921C47.005 78.3921 53.806 77.0377 54.4977 82.4553C55.1893 87.8729 54.8435 101.116 52.9991 101.718C51.1548 102.32 41.933 102.32 41.8177 98.5575C41.7025 94.7953 41.933 99.31 38.5901 100.062C35.2472 100.815 29.0226 96.6012 29.0226 96.6012V96.6011Z" fill="#86BC55"/>
<path d="M3.13591 89.5465C1.45952 91.0109 -1.86535 96.1492 1.34763 103.338C4.5606 110.526 27.2197 103.551 27.2197 103.551C27.2197 103.551 32.2209 104.004 34.484 99.5574C36.7472 95.1113 38.5912 99.8503 38.5912 99.8503C38.5912 99.8503 55.2431 104.589 62.0884 95.6706C68.9337 86.7517 60.0491 68.4079 60.0491 68.4079C60.0491 68.4079 54.601 60.82 45.4647 64.92C36.3284 69.02 35.0711 68.3544 35.0711 68.3544C35.0711 68.3544 28.9245 54.9093 20.9338 57.8911C12.943 60.8728 7.52256 76.6607 7.52256 76.6607C7.52256 76.6607 5.76227 85.6063 9.17088 87.0972C12.5795 88.5882 8.193 87.3634 8.193 87.3634L3.13591 89.5465Z" fill="#85B754"/>
<path d="M89.3088 97.743C89.3088 97.743 87.2839 105.866 77.5939 102.307C72.8539 100.565 68.9042 98.396 66.5718 95.8729C64.136 93.2381 63.4641 90.2178 65.4979 86.8969C69.4792 80.3959 74.2333 81.5087 74.2333 81.5087C74.2333 81.5087 71.3549 71.4539 76.9236 66.9127C82.4922 62.3715 90.3156 61.0898 92.3695 64.2599C94.4235 67.43 98.6289 75.3178 99.6654 76.2804C100.702 77.243 106.037 72.0966 108.81 75.8374C111.583 79.5782 117.045 87.2729 113.783 94.3445C110.521 101.416 103.682 104.39 100.651 104.294C97.62 104.199 89.3088 97.743 89.3088 97.743Z" fill="#75A24A"/>
<path d="M159.506 130.205C161.806 125.51 160.211 122.893 160.211 122.893C160.211 122.893 156.645 119.396 154.284 119.462C151.923 119.527 152.841 114.271 152.841 114.271C152.841 114.271 153.394 110.203 150.795 109.312C148.195 108.421 145.76 103.066 139.002 105.737C132.245 108.407 132.997 112.311 132.997 112.311C132.997 112.311 120.262 111.066 116.945 119.378C113.628 127.69 124.415 134.334 124.415 134.334C124.415 134.334 127.428 137.204 133.783 136.028C140.139 134.853 139.311 131.565 139.311 131.565C139.311 131.565 148.189 135.921 152.673 134.162C157.157 132.404 159.506 130.205 159.506 130.205Z" fill="#89C453"/>
<path d="M121.307 112.437C121.307 112.437 110.824 112.897 107.054 106.096C103.285 99.2947 113.183 96.0314 113.183 96.0314C113.183 96.0314 111.277 89.5178 115.081 87.0004C118.885 84.4829 121.446 82.6671 121.446 82.6671C121.446 82.6671 130.336 81.0125 132.281 86.2479C134.225 91.4832 132.71 89.876 132.71 89.876C132.71 89.876 141.056 87.8919 145.37 95.5585C149.684 103.225 139.866 113.044 139.866 113.044C139.866 113.044 139.946 118.528 130.627 115.483C121.307 112.437 121.307 112.437 121.307 112.437L121.307 112.437Z" fill="#85B754"/>
</g>
<path d="M79.4674 195.989C88.4569 199.171 95.5735 196.386 95.5735 196.386C94.3422 183.005 99.1347 164.215 88.8599 156.253C77.8686 146.998 71.5622 141.453 73.4612 133.14C76.196 125.956 82.9428 122.636 98.0082 126.179C104.897 127.799 115.595 129.592 124.415 134.333C124.415 134.333 134.34 135.129 136.588 130.356C138.835 125.582 143.001 126.111 143.001 126.111C143.001 126.111 142.6 119.742 139.772 120.014C139.772 120.014 128.717 129.892 125.164 128.765C120.82 127.387 96.1354 120.809 96.1354 120.809L112.429 114.246C112.429 114.246 126.475 113.052 129.846 107.086C133.217 101.119 130.782 98.1359 130.782 98.1359L125.72 97.3204C125.72 97.3204 131.531 106.489 124.415 106.489C117.298 106.489 92.2025 118.224 92.2025 118.224C88.4035 119.193 87.7126 117.932 84.3367 115.24C77.2358 110.321 72.4651 98.2933 81.5275 94.556C87.3387 92.1595 96.1354 84.2138 96.1354 84.2138L92.2025 83.0205C89.5235 84.7363 77.6407 90.8752 74.5982 91.7715C69.2428 93.3493 75.5643 113.422 81.5824 118.047C81.5824 118.047 73.0324 122.873 65.9833 118.82C60.5906 115.72 50.9432 118.298 50.1193 118.587C50.1193 118.587 44.0435 122.265 39.7641 104.5C35.7286 87.7488 31.3542 85.3669 31.5731 85.2507C30.761 87.0719 28.7736 87.8401 27.8424 89.5938C28.4729 89.7155 37.2622 104.373 38.3908 110.734C38.9921 114.123 47.2648 126.056 52.1018 122.231C60.2189 115.813 67.8561 127.571 67.8561 127.571C61.925 132.212 68.2732 149.656 75.7559 155.435C79.4762 158.309 84.4009 157.042 83.6548 171.13C82.9532 184.377 79.4674 195.989 79.4674 195.989Z" fill="#624F29"/>
</g>
</g>
<defs>
<filter id="filter0_d_223_44" x="-4" y="57.4595" width="168.749" height="148.054" filterUnits="userSpaceOnUse" color-interpolation-filters="sRGB">
<feFlood flood-opacity="0" result="BackgroundImageFix"/>
<feColorMatrix in="SourceAlpha" type="matrix" values="0 0 0 0 0 0 0 0 0 0 0 0 0 0 0 0 0 0 127 0" result="hardAlpha"/>
<feOffset dy="4"/>
<feGaussianBlur stdDeviation="2"/>
<feComposite in2="hardAlpha" operator="out"/>
<feColorMatrix type="matrix" values="0 0 0 0 0 0 0 0 0 0 0 0 0 0 0 0 0 0 0.25 0"/>
<feBlend mode="normal" in2="BackgroundImageFix" result="effect1_dropShadow_223_44"/>
<feBlend mode="normal" in="SourceGraphic" in2="effect1_dropShadow_223_44" result="shape"/>
</filter>
<filter id="filter1_d_223_44" x="-4" y="57.4595" width="168.749" height="86.8516" filterUnits="userSpaceOnUse" color-interpolation-filters="sRGB">
<feFlood flood-opacity="0" result="BackgroundImageFix"/>
<feColorMatrix in="SourceAlpha" type="matrix" values="0 0 0 0 0 0 0 0 0 0 0 0 0 0 0 0 0 0 127 0" result="hardAlpha"/>
<feOffset dy="4"/>
<feGaussianBlur stdDeviation="2"/>
<feComposite in2="hardAlpha" operator="out"/>
<feColorMatrix type="matrix" values="0 0 0 0 0 0 0 0 0 0 0 0 0 0 0 0 0 0 0.25 0"/>
<feBlend mode="normal" in2="BackgroundImageFix" result="effect1_dropShadow_223_44"/>
<feBlend mode="normal" in="SourceGraphic" in2="effect1_dropShadow_223_44" result="shape"/>
</filter>
<clipPath id="clip0_223_44">
<rect width="210" height="286" fill="white"/>
</clipPath>
</defs>
</svg>
