<svg width="518" height="426" viewBox="0 0 518 426" fill="none" xmlns="http://www.w3.org/2000/svg">
<g clip-path="url(#clip0_224_53)" filter="url(#filter0_d_224_53)">
<g filter="url(#filter1_d_224_53)">
<g filter="url(#filter2_d_224_53)">
<path d="M13.9491 95.7656C8.63052 100.136 -1.91809 115.472 8.27554 136.926C18.4691 158.38 90.3583 137.562 90.3583 137.562C90.3583 137.562 106.225 138.913 113.405 125.644C120.586 112.374 126.436 126.518 126.436 126.518C126.436 126.518 179.267 140.662 200.984 114.043C222.702 87.4243 194.514 32.6761 194.514 32.6761C194.514 32.6761 177.229 10.0297 148.243 22.2663C119.257 34.503 115.268 32.5164 115.268 32.5164C115.268 32.5164 95.7672 -7.61121 70.4153 1.28816C45.0635 10.1874 27.8664 57.3071 27.8664 57.3071C27.8664 57.3071 22.2816 84.0057 33.0959 88.4556C43.9103 92.9054 29.9935 89.2501 29.9935 89.2501L13.9491 95.7656Z" fill="#85B754"/>
</g>
<g filter="url(#filter3_d_224_53)">
<path d="M37.281 100C33.3932 102.891 33.1391 105.573 40.5905 119.765C48.0418 133.958 93.1346 127.65 93.1346 127.65C93.1346 127.65 104.733 128.544 109.982 119.765C115.23 110.987 122.591 102.15 122.591 102.15C122.591 102.15 158.125 129.701 174 112.091C189.875 94.482 169.271 58.2643 169.271 58.2643C169.271 58.2643 156.636 43.283 135.447 51.3778C114.259 59.4728 111.343 58.1586 111.343 58.1586C111.343 58.1586 97.0884 31.6129 78.5567 37.5001C60.025 43.3872 47.4543 74.5585 47.4543 74.5585C47.4543 74.5585 43.3719 92.2205 51.2769 95.1643C59.182 98.108 49.0091 95.6898 49.0091 95.6898L37.281 100Z" fill="#5D922A"/>
</g>
<g filter="url(#filter4_d_224_53)">
<path d="M287.345 120.228C287.345 120.228 280.92 144.473 250.178 133.849C235.139 128.652 222.608 122.177 215.208 114.647C207.481 106.783 205.349 97.7688 211.801 87.8574C224.433 68.455 239.516 71.7761 239.516 71.7761C239.516 71.7761 230.384 41.7671 248.051 28.2136C265.718 14.6602 290.539 10.8348 297.055 20.2962C303.572 29.7576 316.914 53.2991 320.203 56.172C323.491 59.0449 340.418 43.6852 349.216 54.8497C358.014 66.0143 375.342 88.9798 364.992 110.085C354.642 131.191 332.946 140.065 323.33 139.781C313.713 139.496 287.345 120.228 287.345 120.228Z" fill="#5D922A"/>
</g>
<g filter="url(#filter5_d_224_53)">
<path d="M510.056 217.112C517.351 203.101 512.292 195.29 512.292 195.29C512.292 195.29 500.978 184.852 493.487 185.048C485.996 185.243 488.908 169.558 488.908 169.558C488.908 169.558 490.664 157.416 482.417 154.756C474.169 152.097 466.443 136.114 445.004 144.085C423.565 152.056 425.953 163.706 425.953 163.706C425.953 163.706 385.55 159.992 375.025 184.8C364.5 209.608 398.723 229.434 398.723 229.434C398.723 229.434 408.284 238.001 428.447 234.493C448.61 230.984 445.982 221.172 445.982 221.172C445.982 221.172 474.15 234.172 488.377 228.923C502.603 223.675 510.056 217.112 510.056 217.112Z" fill="#5D922A"/>
</g>
<g filter="url(#filter6_d_224_53)">
<path d="M488.608 200.075C491.378 189.776 487.2 185.129 487.2 185.129C487.2 185.129 478.763 179.467 474.092 180.497C469.42 181.528 469.227 170.628 469.227 170.628C469.227 170.628 468.765 162.251 463.251 161.452C457.738 160.653 450.836 150.83 438.42 158.764C426.005 166.698 429.002 174.248 429.002 174.248C429.002 174.248 403.191 176.598 399.786 194.546C396.381 212.495 420.39 221.723 420.39 221.723C420.39 221.723 427.488 226.338 439.678 221.558C451.868 216.779 448.957 210.495 448.957 210.495C448.957 210.495 468.292 215.858 476.536 210.62C484.78 205.383 488.608 200.075 488.608 200.075Z" fill="#89C453"/>
</g>
<g filter="url(#filter7_d_224_53)">
<path d="M388.863 164.084C388.863 164.084 355.605 165.456 343.645 145.158C331.685 124.86 363.09 115.12 363.09 115.12C363.09 115.12 357.044 95.6802 369.111 88.1668C381.178 80.6531 389.305 75.2339 389.305 75.2339C389.305 75.2339 417.511 70.2956 423.679 85.9208C429.847 101.546 425.04 96.7493 425.04 96.7493C425.04 96.7493 451.52 90.8274 465.206 113.709C478.892 136.59 447.744 165.896 447.744 165.896C447.744 165.896 448 182.263 418.431 173.173C388.863 164.083 388.863 164.083 388.863 164.083L388.863 164.084Z" fill="#85B754"/>
</g>
<g filter="url(#filter8_d_224_53)">
<path d="M405.521 149.317C405.521 149.317 384.227 153.513 374.564 142.192C364.902 130.871 384.196 121.7 384.196 121.7C384.196 121.7 378.425 110.313 385.475 104.462C392.525 98.6108 397.238 94.4488 397.238 94.4488C397.238 94.4488 414.933 88.5619 420.414 97.5823C425.894 106.603 422.335 104.127 422.335 104.127C422.335 104.127 438.823 97.8068 449.847 110.548C460.871 123.289 443.63 144.508 443.63 144.508C443.63 144.508 445.372 154.581 425.446 151.949C405.521 149.317 405.521 149.317 405.521 149.317L405.521 149.317Z" fill="#5D922A"/>
</g>
<g filter="url(#filter9_d_224_53)">
<path d="M238.617 82.5394C234.916 83.9413 226.507 90.2472 228.826 103.332C231.145 116.417 275.048 117.693 275.048 117.693C275.048 117.693 283.787 121.119 289.963 115.33C296.139 109.541 297.177 118.018 297.177 118.018C297.177 118.018 324.729 134.523 341.246 124.16C357.763 113.797 350.619 80.0348 350.619 80.0348C350.619 80.0348 344.489 65.108 326.172 66.625C307.854 68.1421 305.921 66.4102 305.921 66.4102C305.921 66.4102 301.339 41.8622 285.607 42.2357C269.875 42.6092 252.627 64.5838 252.627 64.5838C252.627 64.5838 245.202 77.7454 250.592 81.9459C255.983 86.1464 248.714 81.8359 248.714 81.8359L238.617 82.5394Z" fill="#68A52D"/>
<path d="M238.617 82.5394C234.916 83.9413 226.507 90.2472 228.826 103.332C231.145 116.417 275.048 117.693 275.048 117.693C275.048 117.693 283.787 121.119 289.963 115.33C296.139 109.541 297.177 118.018 297.177 118.018C297.177 118.018 324.729 134.523 341.246 124.16C357.763 113.797 350.619 80.0348 350.619 80.0348C350.619 80.0348 344.489 65.108 326.172 66.625C307.854 68.1421 305.921 66.4102 305.921 66.4102C305.921 66.4102 301.339 41.8622 285.607 42.2357C269.875 42.6092 252.627 64.5838 252.627 64.5838C252.627 64.5838 245.202 77.7454 250.592 81.9459C255.983 86.1464 248.714 81.8359 248.714 81.8359L238.617 82.5394Z" fill="#88BA57"/>
</g>
<path d="M256.122 413.447C284.642 422.945 307.22 414.635 307.22 414.635C303.314 374.696 318.519 318.618 285.921 294.855C251.049 267.231 231.041 250.684 237.066 225.873C245.742 204.431 267.148 194.523 314.945 205.097C336.801 209.933 370.743 215.283 398.723 229.434C398.723 229.434 430.214 231.809 437.344 217.563C444.474 203.316 457.69 204.894 457.69 204.894C457.69 204.894 456.419 185.884 447.445 186.696C447.445 186.696 412.371 216.178 401.1 212.814C387.319 208.701 309.003 189.07 309.003 189.07L360.696 169.482C360.696 169.482 402.305 165.123 413 147.315C423.695 129.507 413 121.703 413 121.703L402.865 118.967C402.865 118.967 409.5 136.5 401.1 144C378.521 144 296.525 181.354 296.525 181.354C284.472 184.248 282.28 180.482 271.57 172.45C249.041 157.769 233.906 121.87 262.657 110.716C281.094 103.564 309.003 79.8496 309.003 79.8496L296.525 76.2881C288.026 81.409 250.326 99.7308 240.673 102.406C223.682 107.115 243.738 167.024 262.831 180.826C262.831 180.826 235.706 195.23 213.341 183.134C196.232 173.881 165.624 181.576 163.01 182.439C163.01 182.439 143.734 193.415 130.157 140.396C117.354 90.4 103.476 83.2909 104.17 82.9441C101.594 88.3796 95.2883 90.6725 92.3339 95.9064C94.3342 96.2697 122.219 140.015 125.8 159.001C127.708 169.116 153.954 204.73 169.3 193.315C195.053 174.159 219.283 209.252 219.283 209.252C200.466 223.104 220.606 275.167 244.346 292.415C256.149 300.99 271.774 297.21 269.406 339.255C267.181 378.791 256.122 413.447 256.122 413.447Z" fill="#624F29"/>
</g>
</g>
<defs>
<filter id="filter0_d_224_53" x="0" y="0" width="518" height="426" filterUnits="userSpaceOnUse" color-interpolation-filters="sRGB">
<feFlood flood-opacity="0" result="BackgroundImageFix"/>
<feColorMatrix in="SourceAlpha" type="matrix" values="0 0 0 0 0 0 0 0 0 0 0 0 0 0 0 0 0 0 127 0" result="hardAlpha"/>
<feOffset dy="4"/>
<feGaussianBlur stdDeviation="2"/>
<feComposite in2="hardAlpha" operator="out"/>
<feColorMatrix type="matrix" values="0 0 0 0 0 0 0 0 0 0 0 0 0 0 0 0 0 0 0.25 0"/>
<feBlend mode="normal" in2="BackgroundImageFix" result="effect1_dropShadow_224_53"/>
<feBlend mode="normal" in="SourceGraphic" in2="effect1_dropShadow_224_53" result="shape"/>
</filter>
<filter id="filter1_d_224_53" x="0" y="0" width="518" height="426" filterUnits="userSpaceOnUse" color-interpolation-filters="sRGB">
<feFlood flood-opacity="0" result="BackgroundImageFix"/>
<feColorMatrix in="SourceAlpha" type="matrix" values="0 0 0 0 0 0 0 0 0 0 0 0 0 0 0 0 0 0 127 0" result="hardAlpha"/>
<feOffset dy="4"/>
<feGaussianBlur stdDeviation="2"/>
<feComposite in2="hardAlpha" operator="out"/>
<feColorMatrix type="matrix" values="0 0 0 0 0 0 0 0 0 0 0 0 0 0 0 0 0 0 0.25 0"/>
<feBlend mode="normal" in2="BackgroundImageFix" result="effect1_dropShadow_224_53"/>
<feBlend mode="normal" in="SourceGraphic" in2="effect1_dropShadow_224_53" result="shape"/>
</filter>
<filter id="filter2_d_224_53" x="0" y="0" width="213.204" height="154.629" filterUnits="userSpaceOnUse" color-interpolation-filters="sRGB">
<feFlood flood-opacity="0" result="BackgroundImageFix"/>
<feColorMatrix in="SourceAlpha" type="matrix" values="0 0 0 0 0 0 0 0 0 0 0 0 0 0 0 0 0 0 127 0" result="hardAlpha"/>
<feOffset dy="4"/>
<feGaussianBlur stdDeviation="2"/>
<feComposite in2="hardAlpha" operator="out"/>
<feColorMatrix type="matrix" values="0 0 0 0 0 0 0 0 0 0 0 0 0 0 0 0 0 0 0.25 0"/>
<feBlend mode="normal" in2="BackgroundImageFix" result="effect1_dropShadow_224_53"/>
<feBlend mode="normal" in="SourceGraphic" in2="effect1_dropShadow_224_53" result="shape"/>
</filter>
<filter id="filter3_d_224_53" x="30.6051" y="36.6479" width="153.403" height="100.399" filterUnits="userSpaceOnUse" color-interpolation-filters="sRGB">
<feFlood flood-opacity="0" result="BackgroundImageFix"/>
<feColorMatrix in="SourceAlpha" type="matrix" values="0 0 0 0 0 0 0 0 0 0 0 0 0 0 0 0 0 0 127 0" result="hardAlpha"/>
<feOffset dy="4"/>
<feGaussianBlur stdDeviation="2"/>
<feComposite in2="hardAlpha" operator="out"/>
<feColorMatrix type="matrix" values="0 0 0 0 0 0 0 0 0 0 0 0 0 0 0 0 0 0 0.25 0"/>
<feBlend mode="normal" in2="BackgroundImageFix" result="effect1_dropShadow_224_53"/>
<feBlend mode="normal" in="SourceGraphic" in2="effect1_dropShadow_224_53" result="shape"/>
</filter>
<filter id="filter4_d_224_53" x="203.987" y="15.0698" width="168.203" height="132.717" filterUnits="userSpaceOnUse" color-interpolation-filters="sRGB">
<feFlood flood-opacity="0" result="BackgroundImageFix"/>
<feColorMatrix in="SourceAlpha" type="matrix" values="0 0 0 0 0 0 0 0 0 0 0 0 0 0 0 0 0 0 127 0" result="hardAlpha"/>
<feOffset dy="4"/>
<feGaussianBlur stdDeviation="2"/>
<feComposite in2="hardAlpha" operator="out"/>
<feColorMatrix type="matrix" values="0 0 0 0 0 0 0 0 0 0 0 0 0 0 0 0 0 0 0.25 0"/>
<feBlend mode="normal" in2="BackgroundImageFix" result="effect1_dropShadow_224_53"/>
<feBlend mode="normal" in="SourceGraphic" in2="effect1_dropShadow_224_53" result="shape"/>
</filter>
<filter id="filter5_d_224_53" x="369.014" y="141.878" width="148.986" height="101.458" filterUnits="userSpaceOnUse" color-interpolation-filters="sRGB">
<feFlood flood-opacity="0" result="BackgroundImageFix"/>
<feColorMatrix in="SourceAlpha" type="matrix" values="0 0 0 0 0 0 0 0 0 0 0 0 0 0 0 0 0 0 127 0" result="hardAlpha"/>
<feOffset dy="4"/>
<feGaussianBlur stdDeviation="2"/>
<feComposite in2="hardAlpha" operator="out"/>
<feColorMatrix type="matrix" values="0 0 0 0 0 0 0 0 0 0 0 0 0 0 0 0 0 0 0.25 0"/>
<feBlend mode="normal" in2="BackgroundImageFix" result="effect1_dropShadow_224_53"/>
<feBlend mode="normal" in="SourceGraphic" in2="effect1_dropShadow_224_53" result="shape"/>
</filter>
<filter id="filter6_d_224_53" x="395.455" y="155.688" width="98.1011" height="76.0386" filterUnits="userSpaceOnUse" color-interpolation-filters="sRGB">
<feFlood flood-opacity="0" result="BackgroundImageFix"/>
<feColorMatrix in="SourceAlpha" type="matrix" values="0 0 0 0 0 0 0 0 0 0 0 0 0 0 0 0 0 0 127 0" result="hardAlpha"/>
<feOffset dy="4"/>
<feGaussianBlur stdDeviation="2"/>
<feComposite in2="hardAlpha" operator="out"/>
<feColorMatrix type="matrix" values="0 0 0 0 0 0 0 0 0 0 0 0 0 0 0 0 0 0 0.25 0"/>
<feBlend mode="normal" in2="BackgroundImageFix" result="effect1_dropShadow_224_53"/>
<feBlend mode="normal" in="SourceGraphic" in2="effect1_dropShadow_224_53" result="shape"/>
</filter>
<filter id="filter7_d_224_53" x="336.928" y="74.4932" width="135.754" height="109.429" filterUnits="userSpaceOnUse" color-interpolation-filters="sRGB">
<feFlood flood-opacity="0" result="BackgroundImageFix"/>
<feColorMatrix in="SourceAlpha" type="matrix" values="0 0 0 0 0 0 0 0 0 0 0 0 0 0 0 0 0 0 127 0" result="hardAlpha"/>
<feOffset dy="4"/>
<feGaussianBlur stdDeviation="2"/>
<feComposite in2="hardAlpha" operator="out"/>
<feColorMatrix type="matrix" values="0 0 0 0 0 0 0 0 0 0 0 0 0 0 0 0 0 0 0.25 0"/>
<feBlend mode="normal" in2="BackgroundImageFix" result="effect1_dropShadow_224_53"/>
<feBlend mode="normal" in="SourceGraphic" in2="effect1_dropShadow_224_53" result="shape"/>
</filter>
<filter id="filter8_d_224_53" x="367.855" y="92.5615" width="89.6737" height="67.8262" filterUnits="userSpaceOnUse" color-interpolation-filters="sRGB">
<feFlood flood-opacity="0" result="BackgroundImageFix"/>
<feColorMatrix in="SourceAlpha" type="matrix" values="0 0 0 0 0 0 0 0 0 0 0 0 0 0 0 0 0 0 127 0" result="hardAlpha"/>
<feOffset dy="4"/>
<feGaussianBlur stdDeviation="2"/>
<feComposite in2="hardAlpha" operator="out"/>
<feColorMatrix type="matrix" values="0 0 0 0 0 0 0 0 0 0 0 0 0 0 0 0 0 0 0.25 0"/>
<feBlend mode="normal" in2="BackgroundImageFix" result="effect1_dropShadow_224_53"/>
<feBlend mode="normal" in="SourceGraphic" in2="effect1_dropShadow_224_53" result="shape"/>
</filter>
<filter id="filter9_d_224_53" x="224.428" y="42.2314" width="131.728" height="93.3472" filterUnits="userSpaceOnUse" color-interpolation-filters="sRGB">
<feFlood flood-opacity="0" result="BackgroundImageFix"/>
<feColorMatrix in="SourceAlpha" type="matrix" values="0 0 0 0 0 0 0 0 0 0 0 0 0 0 0 0 0 0 127 0" result="hardAlpha"/>
<feOffset dy="4"/>
<feGaussianBlur stdDeviation="2"/>
<feComposite in2="hardAlpha" operator="out"/>
<feColorMatrix type="matrix" values="0 0 0 0 0 0 0 0 0 0 0 0 0 0 0 0 0 0 0.25 0"/>
<feBlend mode="normal" in2="BackgroundImageFix" result="effect1_dropShadow_224_53"/>
<feBlend mode="normal" in="SourceGraphic" in2="effect1_dropShadow_224_53" result="shape"/>
</filter>
<clipPath id="clip0_224_53">
<rect width="510" height="418" fill="white" transform="translate(4)"/>
</clipPath>
</defs>
</svg>
