<svg width="184" height="119" viewBox="0 0 184 119" fill="none" xmlns="http://www.w3.org/2000/svg">
<path d="M110.861 49.115L174.894 117.994L175.902 115.036L126.137 41.6044L110.861 49.115Z" fill="#9EAC22" stroke="black" stroke-width="0.264583"/>
<path d="M68.8148 52.6375L66.2957 61.6842L68.3669 68.0104L79.3387 55.2932L68.8148 52.6375Z" fill="#363637" stroke="black" stroke-width="0.264583"/>
<path d="M68.3484 68.1018L73.181 70.4718L74.8604 66.6717L71.1277 64.784L68.3484 68.1018Z" fill="#363637" stroke="black" stroke-width="0.264583"/>
<path d="M65.5512 1.44411L101.388 2.39566L136.955 0.841103L135.381 2.87731L75.868 15.9965L62.5451 6.19416L65.5512 1.44411Z" fill="#5C6514" stroke="black" stroke-width="0.264583"/>
<path d="M54.9008 11.5412L56.0325 7.47709L66.0677 7.2598L98.3629 22.1582L59.068 17.7324L54.9008 11.5412Z" fill="#9EAC22" stroke="black" stroke-width="0.264583"/>
<path d="M56.1783 7.38861L65.4716 1.47959L65.9276 7.26176L56.1783 7.38861Z" fill="#9EAC22" stroke="black" stroke-width="0.264583"/>
<path d="M65.7885 6.13455L56.2726 7.31955L65.573 3.01046L65.7885 6.13455Z" fill="#86921D" stroke="black" stroke-width="0.264583"/>
<path d="M58.4348 13.9111L76.8183 18.38L81.795 47.9358L48.8876 43.5684L58.4348 13.9111Z" fill="#86921D" stroke="black" stroke-width="0.264583"/>
<path d="M0.88092 25.4735L12.4246 9.56371L51.2074 7.19156L9.25341 29.9854L0.88092 25.4735Z" fill="#86921D" stroke="black" stroke-width="0.264583"/>
<path d="M11.4905 34.5043L20.953 42.7457L26.103 41.8821L15.0752 45.0776L7.12097 37.2673L11.4905 34.5043Z" fill="#BF7B20" stroke="black" stroke-width="0.264583"/>
<path d="M0.775879 25.5388L4.71919 41.1912L15.747 46.3298L26.7462 42.3216L26.1855 41.9507L19.2589 43.7398L8.3578 34.2604L0.775879 25.5388Z" fill="#F6A12E" stroke="black" stroke-width="0.264583"/>
<path d="M8.40846 34.3718L9.83543 35.5323L23.0983 26.8301L11.0321 14.9296L0.763 25.5499L8.40846 34.3718Z" fill="#F6A12E" stroke="black" stroke-width="0.264583"/>
<path d="M11.1151 15.0319L41.6835 45.2135L52.9127 48.0204L68.3812 16.0911L51.5576 7.12194L11.1151 15.0319Z" fill="#9EAC22" stroke="black" stroke-width="0.264583"/>
<path d="M18.8194 22.7245L51.7122 7.14L11.2067 14.9682L18.8194 22.7245Z" fill="#FF0000" stroke="black" stroke-width="0.264583"/>
<path d="M60.9218 23.5966L58.6266 44.7991L67.5832 53.8889L78.1632 57.9481L183.002 38.9223L70.3262 15.8022L60.9218 23.5966Z" fill="#9EAC22" stroke="black" stroke-width="0.264583"/>
<path d="M60.9218 23.5966L78.1632 57.9481L67.5832 53.8889L60.9218 23.5966Z" fill="#D40000" stroke="black" stroke-width="0.264583"/>
<path d="M70.3262 15.8022L160.712 42.8575L183.002 38.9223L70.3262 15.8022Z" fill="#0000FF" stroke="black" stroke-width="0.264583"/>
<path d="M70.3262 15.8022L60.9218 23.5966L58.6266 44.7991L67.5832 53.8889L70.3262 15.8022Z" fill="#D40000" stroke="black" stroke-width="0.264583"/>
<path d="M154.861 41.0005L164.395 35.2209L178.723 37.9859L159.188 42.4027L154.861 41.0005Z" fill="#1A1A1A" stroke="black" stroke-width="0.264583"/>
<path d="M147.554 38.9914L153.443 32.8868L162.025 34.6823L152.868 40.4996L147.554 38.9914Z" fill="#1A1A1A" stroke="black" stroke-width="0.264583"/>
<path d="M141.629 37.0523L145.974 38.4527L151.719 32.4918L146.979 31.5582L141.629 37.0523Z" fill="#1A1A1A" stroke="black" stroke-width="0.264583"/>
<path d="M139.869 36.5855L144.968 31.1273L140.013 30.0859L135.201 35.185L139.869 36.5855Z" fill="#1A1A1A" stroke="black" stroke-width="0.264583"/>
<path d="M129.455 33.4614L133.387 34.6823L138.271 29.7448L133.513 28.7573L129.455 33.4614Z" fill="#1A1A1A" stroke="black" stroke-width="0.264583"/>
<path d="M123.099 31.5582L127.373 32.815L131.61 28.3623L127.283 27.5005L123.099 31.5582Z" fill="#1A1A1A" stroke="black" stroke-width="0.264583"/>
<path d="M160.712 42.8575L159.188 42.4027L178.723 37.9859L183.002 38.9223L160.712 42.8575Z" fill="#6AB023" stroke="black" stroke-width="0.264583"/>
<path d="M154.861 41.0005L152.868 40.4995L162.025 34.6823L164.395 35.2209L154.861 41.0005Z" fill="#23B3A1" stroke="black" stroke-width="0.264583"/>
<path d="M147.554 38.9914L145.974 38.4527L151.719 32.4918L153.443 32.8868L147.554 38.9914Z" fill="#23B3A1" stroke="black" stroke-width="0.264583"/>
<path d="M141.628 37.0523L139.869 36.5855L144.968 31.1273L146.979 31.5582L141.628 37.0523Z" fill="#23B3A1" stroke="black" stroke-width="0.264583"/>
<path d="M135.201 35.185L133.387 34.6823L138.271 29.7448L140.013 30.0859L135.201 35.185Z" fill="#6D27C9" stroke="black" stroke-width="0.264583"/>
<path d="M129.455 33.4614L127.373 32.815L131.61 28.3623L133.513 28.7573L129.455 33.4614Z" fill="#6D27C9" stroke="black" stroke-width="0.264583"/>
</svg>
