<svg width="316" height="564" viewBox="0 0 316 564" fill="none" xmlns="http://www.w3.org/2000/svg">
<g clip-path="url(#clip0_218_151)">
<path d="M47.187 108.132C47.187 108.132 15.992 128.491 3.24984 115.843C-9.49224 103.195 19.3464 75.8607 19.3464 75.8607C19.3464 75.8607 12.2315 60.6513 23.0363 46.5261C33.8408 32.4008 41.091 22.5431 41.091 22.5431C41.091 22.5431 67.2704 1.65187 74.2196 13.1279C81.1688 24.6038 76.2941 22.7489 76.2941 22.7489C76.2941 22.7489 100.778 1.90063 115.334 16.0417C129.889 30.1827 102.727 76.1625 102.727 76.1625C102.727 76.1625 104.167 91.7358 75.677 99.9341C47.1869 108.132 47.1869 108.132 47.1869 108.132L47.187 108.132Z" fill="#85B754"/>
<path d="M220.261 93.7594C220.261 93.7594 186.713 103.206 169.51 85.7648C152.306 68.324 181.897 50.9416 181.897 50.9416C181.897 50.9416 170.931 32.9256 181.369 22.4669C191.807 12.0082 198.748 4.60466 198.748 4.60466C198.748 4.60466 226.266 -7.18955 236.413 6.97355C246.56 21.1366 240.477 17.4959 240.477 17.4959C240.477 17.4959 265.994 5.13475 285.595 24.7458C305.196 44.3569 280.704 81.2869 280.704 81.2869C280.704 81.2869 285.01 97.6281 252.635 95.6937C220.261 93.7592 220.261 93.7591 220.261 93.7591L220.261 93.7594Z" fill="#6FA33D"/>
<path d="M313.661 68.5214C313.661 68.5214 320.517 94.7255 306.439 107.757C292.361 120.788 279.168 97.5084 279.168 97.5084C279.168 97.5084 264.748 105.69 256.678 97.3986C248.608 89.1082 242.887 83.5871 242.887 83.5871C242.887 83.5871 234.069 62.0188 245.433 54.4036C256.797 46.7885 253.813 51.4424 253.813 51.4424C253.813 51.4424 244.511 31.4163 260.346 16.5647C276.18 1.71294 304.898 21.3924 304.898 21.3924C304.898 21.3924 317.876 18.3491 315.768 43.4352C313.661 68.5213 313.661 68.5214 313.661 68.5214H313.661Z" fill="#5C6D4B"/>
<path d="M131.085 94.2961C131.085 94.2961 105.051 101.757 91.7009 87.9814C78.3503 74.2056 101.314 60.4758 101.314 60.4758C101.314 60.4758 92.8037 46.2457 100.904 37.9848C109.004 29.7238 114.391 23.876 114.391 23.876C114.391 23.876 135.745 14.5603 143.62 25.7472C151.494 36.9341 146.773 34.0583 146.773 34.0583C146.773 34.0583 166.575 24.2947 181.786 39.7848C196.997 55.2749 177.99 84.4444 177.99 84.4444C177.99 84.4444 181.332 97.3518 156.208 95.8239C131.085 94.2959 131.085 94.2958 131.085 94.2958L131.085 94.2961Z" fill="#537D2A"/>
<path d="M123.241 555.541C123.241 555.541 140.225 565.299 153.233 563.854C166.241 562.408 174.913 554.096 174.913 554.096L159.014 227.019C159.014 227.019 153.414 172.807 159.918 159.074C166.422 145.34 179.249 143.895 195.149 135.221C211.048 126.547 212.132 126.547 212.132 126.547C212.132 126.547 215.265 124.575 226.271 118.384C242.931 109.012 277.364 65.8848 277.364 65.8848L269.089 62.0483C269.089 62.0483 229.837 107.754 231.283 104.862C232.728 101.971 233.26 54.6155 233.26 54.6155L227.355 56.1231L219.539 104.32C219.539 104.32 189.006 130.161 171.119 136.847C163.196 139.809 157.388 130.884 157.388 130.884L154.916 125.424C154.916 125.424 151.488 101.477 157.27 97.8633C163.051 94.2492 195.303 72.7701 195.303 72.7701L186.718 62.9349L160.862 85.2609L150.357 82.6176L127.531 61.6133L123.421 68.5571L142.284 94.0225C142.284 94.0225 146.481 119.569 145.035 128.243C143.59 136.917 134.027 132.684 131.136 133.407C128.245 134.13 111.337 129.397 103.93 119.639C96.8834 110.357 81.6871 92.5742 81.6871 92.5742L98.9288 61.9526L88.0672 58.4626L74.4602 82.4548L34.7125 59.3244L31.0991 73.058L68.6787 94.0198C68.6787 94.0198 97.4878 127.456 103.269 133.238C109.051 139.021 133.08 146.068 138.139 155.465C143.198 164.862 138.598 246.535 138.598 246.535L123.241 555.541Z" fill="#624F29"/>
</g>
<defs>
<clipPath id="clip0_218_151">
<rect width="316" height="564" fill="white"/>
</clipPath>
</defs>
</svg>
