<svg width="119" height="102" viewBox="0 0 119 102" fill="none" xmlns="http://www.w3.org/2000/svg">
<path d="M22.7689 100.654C22.7693 100.552 22.869 99.3485 22.9903 97.9793C24.1081 85.3689 26.4115 73.2318 29.5464 63.4346C33.823 50.0691 39.811 41.2159 46.8978 37.7808C47.8319 37.328 49.3491 36.7468 49.5972 36.7468C49.6603 36.7468 49.4501 36.9733 49.1301 37.25C47.7145 38.4743 46.6668 39.6822 45.4199 41.5278C40.0274 49.5089 36.1569 65.0556 34.3196 86.1142C34.0077 89.6885 33.7916 93.2441 33.5388 98.9592C33.5008 99.8186 33.4625 100.876 33.4537 100.878C33.4072 100.889 23.6267 100.834 23.2333 100.836C22.8618 100.839 22.7683 100.802 22.7689 100.654V100.654Z" fill="#6DA66B"/>
<path d="M40.6484 100.281C40.6481 100.172 40.5677 98.8857 40.4698 97.4227C39.5683 83.9494 37.7103 70.9818 35.1818 60.5141C31.7323 46.2339 26.9024 36.7749 21.1864 33.1047C20.4329 32.6209 19.2091 32 19.009 32C18.9581 32 19.1277 32.242 19.3858 32.5377C20.5276 33.8457 21.3726 35.1363 22.3784 37.1082C26.7279 45.6354 29.8498 62.246 31.3318 84.7456C31.5833 88.5645 31.7576 92.3635 31.9615 98.4697C31.9922 99.3879 32.0231 100.846 32.0302 100.848C32.0677 100.86 40.0359 100.922 40.3532 100.925C40.6528 100.927 40.6489 100.439 40.6484 100.281Z" fill="#40903D"/>
<path d="M36.4717 100.771C36.472 100.684 36.548 99.6536 36.6405 98.4817C37.4928 87.6888 39.2493 77.301 41.6397 68.9158C44.9008 57.4766 49.4668 49.8994 54.8707 46.9594C55.583 46.5718 56.74 46.0745 56.9291 46.0745C56.9773 46.0745 56.817 46.2683 56.5729 46.5051C55.4935 47.553 54.6946 48.5868 53.7438 50.1664C49.6319 56.9972 46.6805 70.3032 45.2794 88.3267C45.0417 91.3858 44.8768 94.429 44.6841 99.3204C44.6551 100.056 44.8197 100.924 44.813 100.925C44.7775 100.934 37.1257 100.925 36.8258 100.927C36.5425 100.929 36.4712 100.898 36.4717 100.771L36.4717 100.771Z" fill="#65CE61"/>
<path d="M56.5595 100.668C56.5718 100.573 56.6196 99.4365 56.6657 98.1428C57.0903 86.2282 56.2313 74.5907 54.2209 65.02C51.4784 51.9633 46.4039 42.8775 39.5167 38.6918C38.6089 38.1401 37.1151 37.3879 36.8589 37.3535C36.7938 37.3448 36.9825 37.5851 37.2782 37.8875C38.5866 39.2254 39.5171 40.4971 40.5736 42.3909C45.1423 50.581 47.1925 65.6153 46.4534 85.5078C46.3279 88.8842 46.106 92.2299 45.6515 97.5945C45.5832 98.4012 44.6535 100.932 44.6623 100.935C44.709 100.951 55.8628 100.858 56.2687 100.915C56.652 100.968 56.5416 100.806 56.5595 100.668V100.668Z" fill="#40903D"/>
<path d="M56.1867 100.662C56.1871 100.566 56.2779 99.4331 56.3884 98.1448C57.4065 86.2797 59.5047 74.86 62.3601 65.6418C66.2556 53.0661 71.7098 44.7362 78.1649 41.5041C79.0158 41.078 80.3978 40.5312 80.6238 40.5312C80.6812 40.5312 80.4898 40.7443 80.1983 41.0047C78.9089 42.1566 77.9546 43.2932 76.8188 45.0297C71.907 52.5391 68.3814 67.167 66.7079 86.9809C66.4238 90.344 66.2269 93.6894 65.9967 99.0668C65.9621 99.8755 65.9624 100.926 65.9544 100.928C65.912 100.938 56.7566 100.831 56.3982 100.833C56.0599 100.835 56.1862 100.801 56.1867 100.662H56.1867Z" fill="#6DA66B"/>
<path d="M75.2644 100.759C75.264 100.663 75.1727 99.5325 75.0614 98.2465C74.0366 86.4027 71.9246 75.0035 69.0503 65.8019C65.1291 53.2489 59.6388 44.9339 53.1411 41.7076C52.2846 41.2824 50.8935 40.7366 50.666 40.7366C50.6082 40.7366 50.8009 40.9493 51.0943 41.2092C52.3922 42.359 53.3528 43.4935 54.4961 45.2269C59.4404 52.7228 62.9892 67.3244 64.6738 87.1027C64.9597 90.4597 65.1579 93.7991 65.3897 99.1668C65.4245 99.974 65.1777 100.883 65.1858 100.885C65.2285 100.895 74.478 100.928 74.8387 100.93C75.1793 100.932 75.265 100.898 75.2644 100.759V100.759Z" fill="#40903D"/>
<path d="M44.297 100.81C44.2973 100.732 44.3741 99.809 44.4676 98.7592C45.3289 89.0907 47.1039 79.7851 49.5195 72.2735C52.815 62.026 57.4291 55.2382 62.8899 52.6045C63.6098 52.2573 64.7789 51.8118 64.97 51.8118C65.0187 51.8118 64.8567 51.9854 64.6101 52.1976C63.5193 53.1362 62.712 54.0624 61.7511 55.4774C57.5959 61.5966 54.6134 73.5163 53.1976 89.6621C52.9573 92.4025 52.7907 95.1286 52.5959 99.5105C52.5667 100.169 52.6252 100.921 52.6185 100.923C52.5826 100.931 44.9579 100.948 44.6548 100.95C44.3686 100.952 44.2965 100.924 44.297 100.81V100.81Z" fill="#3FB73A"/>
<path d="M71.1582 100.752C71.1586 100.646 71.2415 99.3976 71.3424 97.9773C72.2725 84.8962 74.1892 72.3061 76.7976 62.1432C80.3562 48.2787 85.3387 39.0951 91.2355 35.5318C92.0128 35.0621 93.2752 34.4592 93.4816 34.4592C93.5341 34.4592 93.3592 34.6941 93.093 34.9812C91.9151 36.2512 91.0433 37.5042 90.0058 39.4187C85.5188 47.6977 82.2982 63.8247 80.7693 85.6693C80.5099 89.377 80.33 93.0653 80.1197 98.9938C80.0881 99.8853 80.3028 100.898 80.2956 100.9C80.2568 100.912 71.8719 100.938 71.5446 100.941C71.2355 100.943 71.1577 100.906 71.1582 100.752V100.752Z" fill="#40903D"/>
<path d="M98.9537 100.804C98.9533 100.712 98.8495 99.6203 98.723 98.3788C97.5586 86.9451 95.1589 75.9407 91.8931 67.0577C87.4377 54.9394 81.1995 46.9124 73.8167 43.7978C72.8435 43.3873 71.2629 42.8604 71.0045 42.8604C70.9387 42.8604 71.1577 43.0657 71.4911 43.3166C72.9658 44.4266 74.0573 45.5218 75.3563 47.1952C80.9741 54.4315 85.0063 68.5274 86.9204 87.6209C87.2453 90.8616 87.118 94.1207 87.3814 99.3025C87.421 100.082 87.5314 100.967 87.5406 100.969C87.589 100.979 98.0601 100.967 98.47 100.969C98.857 100.971 98.9543 100.938 98.9537 100.804H98.9537Z" fill="#40903D"/>
<path d="M79.3184 100.755C79.3187 100.668 79.3955 99.6405 79.489 98.4714C80.3503 87.7046 82.1252 77.342 84.5409 68.977C87.8363 57.5655 92.4505 50.0066 97.9113 47.0737C98.6311 46.6871 99.8003 46.1909 99.9914 46.1909C100.04 46.1909 99.8781 46.3843 99.6315 46.6206C98.5407 47.6658 97.7334 48.6972 96.7725 50.2729C92.6172 57.0873 89.6347 70.361 88.219 88.3409C87.9787 91.3927 87.8121 94.4285 87.6173 99.3081C87.588 100.042 87.6642 100.926 87.6575 100.927C87.6216 100.937 79.9793 100.909 79.6762 100.911C79.3899 100.913 79.3179 100.882 79.3184 100.755Z" fill="#3FB73A"/>
</svg>
