<svg width="92" height="96" viewBox="0 0 92 96" fill="none" xmlns="http://www.w3.org/2000/svg">
<path d="M72.5156 42.7454C72.5156 42.7454 77.79 25.353 77.7736 26.2666C77.7572 27.1802 87.0613 40.2279 86.7173 40.1941C86.3733 40.1602 74.3993 44.8839 74.3993 44.8839L72.5156 42.7454Z" fill="#C8B7B7" stroke="black" stroke-width="0.264583"/>
<path d="M74.432 44.2545L81.7868 60.1581L91.7951 55.096L86.1439 39.876L74.432 44.2545Z" fill="#C8B7B7" stroke="black" stroke-width="0.264583"/>
<path d="M81.7213 58.8744C81.3445 59.0503 82.6877 70.9002 82.6877 70.9002L91.5822 69.8106L91.5003 54.6379L81.7213 58.8744Z" fill="#C8B7B7" stroke="black" stroke-width="0.264583"/>
<path d="M82.9171 70.0339L78.3961 81.0581L85.1612 83.9005L91.4185 69.7835L82.9171 70.0339Z" fill="#C8B7B7" stroke="black" stroke-width="0.264583"/>
<path d="M78.9202 80.9431L69.8783 88.8746L74.989 91.5748L85.0628 83.7584L78.9202 80.9431Z" fill="#C8B7B7" stroke="black" stroke-width="0.264583"/>
<path d="M70.5008 88.6445C70.1732 88.6919 61.7209 92.0283 61.7209 92.0283L64.1452 94.9315L74.9562 91.3786L70.5008 88.6445Z" fill="#C8B7B7" stroke="black" stroke-width="0.264583"/>
<path d="M62.1141 92.265L51.6799 93.8283L51.7126 94.5186L64.1453 94.7284L62.1141 92.265Z" fill="#C8B7B7" stroke="black" stroke-width="0.264583"/>
<path d="M56.0317 39.001L62.8886 32.3973L67.4638 36.7471L65.1473 40.652L56.0317 39.001Z" fill="#F4E3D7" stroke="black" stroke-width="0.264583"/>
<path d="M29.541 34.2105L23.8571 39.0357L32.9973 38.6297L29.541 34.2105Z" fill="#F4E3D7" stroke="black" stroke-width="0.264583"/>
<path d="M39.0995 8.03322L63.8012 0.406067L75.8407 6.85547L68.83 37.3565L36.0366 31.3943L39.0995 8.03322Z" fill="#C8BEB7" stroke="black" stroke-width="0.264583"/>
<path d="M18.0674 4.39893L39.1325 8.03306L33.3338 31.5094L27.0274 30.8192L19.1157 18.543L18.0674 4.39893Z" fill="#C8BEB7" stroke="black" stroke-width="0.264583"/>
<path d="M65.8562 37.046L58.9437 45.4783L73.1192 45.0071L65.8562 37.046Z" fill="#F4E3D7" stroke="black" stroke-width="0.264583"/>
<path d="M73.4895 5.07648L63.4648 18.07L63.1371 34.8128L73.0145 44.9775L81.565 20.2153L82.4823 11.262L81.0408 9.00838L73.4895 5.07648Z" fill="#C8BEB7" stroke="black" stroke-width="0.264583"/>
<path d="M23.6114 42.1555L31.6541 36.5114L33.6198 42.1149L23.6114 42.1555Z" fill="#F4E3D7" stroke="black" stroke-width="0.264583"/>
<path d="M26.9531 30.6711L39.1812 7.99799L39.9754 32.4171L33.7837 42.2097L26.9531 30.6711Z" fill="#C8BEB7" stroke="black" stroke-width="0.264583"/>
<path d="M14.029 5.83447L11.6375 2.26801L16.9446 2.41012L18.0585 3.81776L14.029 5.83447Z" fill="#AC9393" stroke="black" stroke-width="0.264583"/>
<path d="M0.621094 16.5655L14.1927 5.05621L20.925 13.8336L20.1715 20.3101L16.5514 20.7365L3.43082 18.3137L0.621094 16.5655Z" fill="#C8BEB7" stroke="black" stroke-width="0.264583"/>
<path d="M20.9906 13.9487L19.2542 5.62471L18.0748 2.98539L13.7177 2.63348L14.635 6.53832L20.9906 13.9487Z" fill="#C8B7B7" stroke="black" stroke-width="0.264583"/>
<path d="M0.621582 16.5647L2.0901 15.3179L3.30103 18.177L0.621582 16.5647Z" fill="#E9AFC6" stroke="black" stroke-width="0.264583"/>
</svg>
