<svg width="118" height="68" viewBox="0 0 118 68" fill="none" xmlns="http://www.w3.org/2000/svg">
<path d="M39.0658 35.8583L48.3866 45.5519L54.1034 38.5924L45.5282 28.0288L39.0658 35.8583Z" fill="#352827" stroke="black" stroke-width="0.264583"/>
<path d="M48.5109 45.3966L59.5716 45.3034L57.3346 40.3323L54.1034 38.6235L48.5109 45.3966Z" fill="#352827" stroke="black" stroke-width="0.264583"/>
<path d="M67.8982 54.2514L84.7999 54.4999L79.8538 44.9305L69.8866 49.156L67.8982 54.2514Z" fill="#352827" stroke="black" stroke-width="0.264583"/>
<path d="M84.7189 54.4924L81.8724 48.6074L86.0395 49.5082L88.0744 54.3951L84.7189 54.4924Z" fill="#352827" stroke="black" stroke-width="0.264583"/>
<path d="M72.617 59.7304H74.9458L75.7806 65.1349L71.6504 64.7394L71.0352 60.0819L72.617 59.7304Z" fill="#352827" stroke="black" stroke-width="0.264583"/>
<path d="M72.435 59.2245L74.6759 59.6199L74.6319 65.8592L71.3805 64.6289L70.985 59.0048L72.435 59.2245Z" fill="#5D4543" stroke="black" stroke-width="0.264583"/>
<path d="M73.2292 60.3847L74.2838 66.0088L69.9338 65.3498L71.2985 60.1722L73.2292 60.3847Z" fill="#352827" stroke="black" stroke-width="0.264583"/>
<path d="M69.3593 59.1367L72.9183 60.0154L72.1714 67.2214L69.0078 65.0684L69.3593 59.1367Z" fill="#5D4543" stroke="black" stroke-width="0.264583"/>
<path d="M71.1608 60.8942L71.9077 67.0017L67.8654 65.8593L69.2301 60.6818L71.1608 60.8942Z" fill="#352827" stroke="black" stroke-width="0.264583"/>
<path d="M61.7464 38.406L58.7016 45.3034L57.2103 56.1156L69.8866 60.0924L70.8808 51.8901L80.9473 45.8005L61.7464 38.406Z" fill="#5D4543" stroke="black" stroke-width="0.264583"/>
<path d="M57.1225 55.9784L56.9982 58.8057L58.7381 62.1612L69.1774 67.5051L70.5156 60.3849L57.1225 55.9784Z" fill="#5D4543" stroke="black" stroke-width="0.264583"/>
<path d="M70.8658 52.3672L72.3394 59.1798L70.0247 59.9983L70.8658 52.3672Z" fill="#352827" stroke="black" stroke-width="0.264583"/>
<path d="M49.0388 52.8954L46.0949 48.0182L40.8662 47.8424L41.4374 53.3348L49.0388 52.8954Z" fill="#5D4543" stroke="black" stroke-width="0.264583"/>
<path d="M45.7837 48.9275L49.3588 54.3541L44.6576 54.2915L44.1241 49.1268L45.7837 48.9275Z" fill="#352827" stroke="black" stroke-width="0.264583"/>
<path d="M42.1163 54.289L42.0015 47.5599L45.1492 48.7631L48.5962 55.0999L42.1163 54.289Z" fill="#5D4543" stroke="black" stroke-width="0.264583"/>
<path d="M44.1901 49.3556L47.4577 55.8807L43.108 55.2468L42.7941 49.2473L44.1901 49.3556Z" fill="#352827" stroke="black" stroke-width="0.264583"/>
<path d="M45.237 56.7199L43.787 48.9428L40.1401 47.0095L40.6673 53.9078L45.237 56.7199Z" fill="#5D4543" stroke="black" stroke-width="0.264583"/>
<path d="M26.8866 42.1964L28.875 48.0375L33.4733 52.5115L43.2912 47.9132L40.3086 35.9825L26.8866 42.1964Z" fill="#5D4543" stroke="black" stroke-width="0.264583"/>
<path d="M33.5044 52.4803L45.1554 56.7368L41.9238 48.5411L33.5044 52.4803Z" fill="#5D4543" stroke="black" stroke-width="0.264583"/>
<path d="M22.2883 25.2947L15.7016 28.1531L1.03687 34.3669L18.3114 33.497H27.0109L22.2883 25.2947Z" fill="#D9B162" stroke="black" stroke-width="0.264583"/>
<path d="M1.2854 34.1184L24.8981 28.0288L23.1582 33.7456L1.2854 34.1184Z" fill="#5D4543" stroke="black" stroke-width="0.264583"/>
<path d="M80.5745 32.3785L62.1814 38.5924L80.2017 41.9478L80.5745 32.3785Z" fill="#D9B162" stroke="black" stroke-width="0.264583"/>
<path d="M23.7797 42.5693L34.4675 41.575L38.3201 37.3496L42.1106 35.5476L40.6814 10.0085L22.4126 20.6964C22.4126 20.6964 20.4242 29.7687 21.2941 33.497C22.1641 37.2253 23.7797 42.5693 23.7797 42.5693Z" fill="#D9B162" stroke="black" stroke-width="0.264583"/>
<path d="M40.4329 9.94644L39.3144 20.6964L39.1901 35.1126L43.7884 34.367L47.2682 5.78314L40.4329 9.94644Z" fill="#D9B162" stroke="black" stroke-width="0.264583"/>
<path d="M44.0368 28.0289L42.0484 36.7904L47.8894 36.1069L48.5108 26.6618L44.0368 28.0289Z" fill="#B7975B" stroke="black" stroke-width="0.264583"/>
<path d="M55.719 1.43341L47.2681 5.9074L44.7826 16.5953L42.1727 33.1242L46.771 32.6892L55.719 1.43341Z" fill="#D9B162" stroke="black" stroke-width="0.264583"/>
<path d="M47.206 27.5317L44.5961 35.9204L49.9401 36.4175L53.2334 28.6502L47.206 27.5317Z" fill="#B7975B" stroke="black" stroke-width="0.264583"/>
<path d="M63.797 0.998413L55.0976 1.06055L48.4678 17.2856L45.2175 30.9493L51.4314 31.3221L63.797 0.998413Z" fill="#D9B162" stroke="black" stroke-width="0.264583"/>
<path d="M50.1265 27.5317L47.2681 34.6776L61.8085 38.3438L50.1265 27.5317Z" fill="#B7975B" stroke="black" stroke-width="0.264583"/>
<path d="M63.5484 0.749878L52.0693 18.6877L47.8895 29.2716L61.8085 38.3438L80.9473 32.3785L81.693 28.1531L86.5398 15.8496L67.8981 1.80624L63.5484 0.749878Z" fill="#D9B162" stroke="black" stroke-width="0.264583"/>
<path d="M86.5398 15.8496L80.8231 28.7745L90.5788 25.419L86.5398 15.8496Z" fill="#B7975B" stroke="black" stroke-width="0.264583"/>
<path d="M88.1555 25.916L89.2887 24.3375L90.6667 23.7198L92.9401 25.5432L89.7711 30.0172L88.1555 25.916Z" fill="#D9B162" stroke="black" stroke-width="0.264583"/>
<path d="M89.723 28.5552L99.459 21.3223L93.9696 31.4286L89.723 28.5552Z" fill="#352827" stroke="black" stroke-width="0.215671"/>
<path d="M89.3982 26.5374L117.236 48.286L113.757 50.2744L89.0254 45.3033L89.3982 26.5374Z" fill="#5D4543" stroke="black" stroke-width="0.264583"/>
<path d="M76.3491 40.0837L92.1323 23.5548L90.2681 46.5462L76.3491 40.0837Z" fill="#5D4543" stroke="black" stroke-width="0.264583"/>
<path d="M61.8086 38.406L81.1338 45.8626L84.1566 31.5161L87.534 28.0803L88.6865 26.9605L87.964 25.5739L85.4043 25.0593L61.8086 38.406Z" fill="#D9B162" stroke="black" stroke-width="0.264583"/>
<path d="M91.7595 28.4638L106.549 39.7731L91.2002 34.1806L91.7595 28.4638Z" fill="#D9B162" stroke="black" stroke-width="0.264583"/>
</svg>
