<svg width="115" height="157" viewBox="0 0 115 157" fill="none" xmlns="http://www.w3.org/2000/svg">
<path d="M27.7704 119.223L20.0884 117.539L1.23285 120.188L1.46564 136.349L19.2155 133.274L29.749 134.868L27.7704 119.223Z" fill="#C89237" stroke="black" stroke-width="0.264583"/>
<path d="M1.69836 120.121L4.43359 119.694L7.51799 125.575L7.45979 131.972L5.59751 135.586L1 136.103L1.69836 120.121Z" fill="#28220B" stroke="black" stroke-width="0.264583"/>
<path d="M94.1963 140.771L96.0628 131.271C96.861 136.829 97.8661 142.677 98.7938 148.224L94.1963 140.771Z" fill="#28220B" stroke="black" stroke-width="0.264583"/>
<path d="M88.9004 55.2728L94.72 61.5803L96.4659 65.8451L93.3524 93.9593L94.4581 126.361L95.8839 131.703L94.5454 138.751L81.5095 111.905L88.9004 55.2728Z" fill="#B38231" stroke="black" stroke-width="0.264583"/>
<path d="M70.2973 20.5845L67.0674 37.0266L91.6262 65.5448L100.152 49.013L70.2973 20.5845Z" fill="#C89237" stroke="black" stroke-width="0.264583"/>
<path d="M95.5253 15.175C97.0675 14.6587 111.238 8.20532 111.238 8.20532L103.731 21.8416L95.5253 15.175Z" fill="#B38231" stroke="black" stroke-width="0.264583"/>
<path d="M69.6862 20.1468L99.3663 1L96.5729 17.5655L69.6862 20.1468Z" fill="#C89237" stroke="black" stroke-width="0.264583"/>
<path d="M97.0966 15.5453L109.376 22.9077L112.169 31.3588L111.442 41.9199L114.555 45.5113L112.46 51.224L107.63 54.4675L97.0675 54.3328L97.0966 15.5453Z" fill="#B38231" stroke="black" stroke-width="0.264583"/>
<path d="M69.4825 20.5284L97.0676 16.4993L98.9008 18.6317L85.5738 36.4767L69.4825 20.5284Z" fill="#C89237" stroke="black" stroke-width="0.264583"/>
<path d="M96.9801 16.286L106.088 23.3791L110.236 31.1264L111.587 40.7078L114.497 45.7358L110.889 50.8648L104.808 53.6706L96.1654 54.894L80.8889 44.6359L85.8646 36.1287L98.3186 18.4297L96.9801 16.286Z" fill="#C89237" stroke="black" stroke-width="0.264583"/>
<path d="M66.8005 37.9479L53.8756 49.8419C53.8756 49.8419 65.0627 91.1062 65.6057 91.0953C66.1488 91.0843 88.9303 63.0961 88.9303 63.0961L66.8005 37.9479Z" fill="#C89237" stroke="black" stroke-width="0.251671"/>
<path d="M53.5364 49.1156L34.6785 74.4355L33.6308 78.1923L62.1797 107.093C62.1797 107.093 77.1089 87.3535 76.556 87.3425C76.0031 87.3315 53.5364 49.1156 53.5364 49.1156Z" fill="#C89237" stroke="black" stroke-width="0.261773"/>
<path d="M50.5396 111.182L61.5678 142.933L73.0907 137.512L63.9539 97.434L52.3437 103.663L50.5396 111.182Z" fill="#B38231" stroke="black" stroke-width="0.264583"/>
<path d="M53.2712 151.953L59.7251 138.171L68.5095 156.069L53.2712 151.953Z" fill="#28220B" stroke="black" stroke-width="0.274447"/>
<path d="M32.9597 76.9679L59.0329 104.116L65.1004 127.391L53.2802 152.435L30.1835 146.28L27.4073 118.675L32.9597 76.9679Z" fill="#C89237" stroke="black" stroke-width="0.26132"/>
<path d="M84.8848 133.398L94.0216 153.925L84.4483 150.884L84.8848 133.398Z" fill="#28220B" stroke="black" stroke-width="0.264583"/>
<path d="M67.1058 36.9453L91.6356 65.4972L92.5085 70.716L85.6995 98.0109L84.4192 149.75L64.9817 124.498L56.194 77.1357L67.1058 36.9453Z" fill="#C89237" stroke="black" stroke-width="0.264583"/>
<path d="M81.6008 145.735L84.7162 132.103L79.0933 142.675L81.6008 145.735Z" fill="#28220B"/>
<path d="M84.4318 131.588C84.8845 131.151 84.9447 128.223 84.5949 128.286C84.2451 128.35 77.1487 140.051 77.1487 140.051L84.4318 131.588Z" fill="#28220B"/>
<path d="M75.5368 137.869L73.6523 135.615L84.7831 126.701L75.5368 137.869Z" fill="#28220B"/>
<path d="M92.8568 134.91L95.4268 130.508L92.153 133.385L92.8568 134.91Z" fill="#28220B"/>
<path d="M91.5098 132.085L95.2291 129.824L94.7295 127.903L91.5098 132.085Z" fill="#28220B"/>
<path d="M94.4726 127.181L89.9795 128.923L90.8231 130.734L94.4726 127.181Z" fill="#28220B"/>
</svg>
