<svg width="231" height="121" viewBox="0 0 231 121" fill="none" xmlns="http://www.w3.org/2000/svg">
<path d="M186.182 83.8989L214.178 68.6128L213.319 108.632L203.357 119.624L186.182 83.8989Z" fill="#665344" stroke="black" stroke-width="0.264583"/>
<path d="M197.861 108.288L183.09 111.895L183.606 118.937L203.357 119.28L197.861 108.288Z" fill="#503F31" stroke="black" stroke-width="0.264583"/>
<path d="M89.9995 12.7926L212.976 18.4605L214.693 68.0975L159.56 98.8415L91.3735 75.6547L89.9995 12.7926Z" fill="#665344" stroke="black" stroke-width="0.264583"/>
<path d="M213.29 20.9743L230.323 53.4984L213.708 42.5981L213.29 20.9743Z" fill="#665344" stroke="black" stroke-width="0.264583"/>
<path d="M213.29 20.9743L230.323 53.4984L213.708 42.5981L213.29 20.9743Z" fill="#665344" stroke="black" stroke-width="0.264583"/>
<path d="M92.4372 15.6621L130.521 59.0276L109.923 120.139L90.9468 107.136L92.4372 15.6621Z" fill="#665344" stroke="black" stroke-width="0.264583"/>
<path d="M91.0891 107.379L77.118 112.754L78.1486 120.139L109.751 119.967L91.0891 107.379Z" fill="#503F31" stroke="black" stroke-width="0.264583"/>
<path d="M91.8888 15.1971L126.927 61.5708L87.1803 73.0036L91.8888 15.1971Z" fill="#6E5949" stroke="black" stroke-width="0.264583"/>
<path d="M72.1581 21.8575L65.9541 3.3461L82.099 17.2582L72.1581 21.8575Z" fill="#503F31" stroke="black" stroke-width="0.264583"/>
<path d="M22.5297 79.7855L4.93099 79.9572L1.45422 73.8747L24.2178 73.0784L22.5297 79.7855Z" fill="#665344" stroke="black" stroke-width="0.264583"/>
<path d="M1.20264 73.9371L87.2516 71.0173L88.9691 14.5101L17.004 42.5061L1.20264 73.9371Z" fill="#665344" stroke="black" stroke-width="0.264583"/>
<path d="M87.1925 72.709L88.8023 15.5529L99.2829 33.5749L87.1925 72.709Z" fill="#503F31" stroke="black" stroke-width="0.264583"/>
<path d="M82.0989 24.4719L67.328 0.42627L90.3431 15.3689L82.0989 24.4719Z" fill="#665344" stroke="black" stroke-width="0.264583"/>
<path d="M99.4462 33.5749L82.1371 24.6645L90.7578 14.2881L99.4462 33.5749Z" fill="#6E5949" stroke="black" stroke-width="0.264583"/>
</svg>
