<svg width="162" height="86" viewBox="0 0 162 86" fill="none" xmlns="http://www.w3.org/2000/svg">
<path d="M13.1995 17.1216L0.948975 53.8731L16.2621 47.7478L13.1995 17.1216Z" fill="#9E7936" stroke="black" stroke-width="0.264583"/>
<path d="M99.3357 62.8695L108.236 63.6351L109.289 67.942L99.3357 70.3346V62.8695Z" fill="#32230B" stroke="black" stroke-width="0.264583"/>
<path d="M104.504 59.0412L76.366 30.1377L78.6629 16.356L103.738 14.2504L104.504 59.0412Z" fill="#9E7936" stroke="black" stroke-width="0.264583"/>
<path d="M103.93 14.6332L134.939 11.762L147.763 24.9696L136.47 46.9822L103.93 14.6332Z" fill="#9E7936" stroke="black" stroke-width="0.264583"/>
<path d="M146.615 27.2665L160.588 35.8801L154.08 44.4938L137.427 45.4508L146.615 27.2665Z" fill="#9E7936" stroke="black" stroke-width="0.264583"/>
<path d="M158.482 39.3256L157.334 33.5832L161.545 36.6458L158.482 39.3256Z" fill="#4D3B1A" stroke="black" stroke-width="0.264583"/>
<path d="M109.432 14.0686L123.645 1.04285L125.751 12.7191L109.432 14.0686Z" fill="#87621E" stroke="black" stroke-width="0.264583"/>
<path d="M116.659 13.5688L131.741 1.75045L134.364 11.9534L116.659 13.5688Z" fill="#9E7936" stroke="black" stroke-width="0.264583"/>
<path d="M96.8473 75.9185L106.418 77.4169L107.566 81.8195L97.2301 83.0965L96.8473 75.9185Z" fill="#4A3513" stroke="black" stroke-width="0.264583"/>
<path d="M90.3394 58.8498V76.8427L97.2302 83.3507L108.524 54.4473L90.3394 58.8498Z" fill="#4A3513" stroke="black" stroke-width="0.264583"/>
<path d="M33.1067 17.1216L103.451 13.2933L104.313 58.6584L33.6809 61.3382L33.1067 17.1216Z" fill="#9E7936" stroke="black" stroke-width="0.264583"/>
<path d="M104.289 57.0246L124.503 55.4492L136.662 46.5993L103.547 13.4848L104.289 57.0246Z" fill="#9E7936" stroke="black" stroke-width="0.264583"/>
<path d="M21.4303 84.8821L28.0341 76.6513L36.1692 83.925L21.4303 84.8821Z" fill="#4A3513" stroke="black" stroke-width="0.264583"/>
<path d="M30.1397 17.0259L46.1227 16.2602L43.8258 59.8069L25.8329 54.2559L30.1397 17.0259Z" fill="#9E7936" stroke="black" stroke-width="0.264583"/>
<path d="M24.6844 53.6816L43.8258 59.8069L22.196 83.1594L24.6844 53.6816Z" fill="#9E7936" stroke="black" stroke-width="0.264583"/>
<path d="M14.1566 61.721L13.391 64.7836L21.239 84.8821L29.5655 75.3114L14.1566 61.721Z" fill="#4A3513" stroke="black" stroke-width="0.264583"/>
<path d="M13.0478 17.1052L11.995 60.1733L26.0639 72.4238L29.9879 16.9138L13.0478 17.1052Z" fill="#9E7936" stroke="black" stroke-width="0.264583"/>
</svg>
