<svg width="144" height="146" viewBox="0 0 144 146" fill="none" xmlns="http://www.w3.org/2000/svg">
<path d="M1.10718 60.5289L23.6354 61.2013L10.2061 109.348L0.434692 76.7526L1.10718 60.5289Z" fill="#FDF9EF" stroke="black" stroke-width="0.264583"/>
<path d="M11.0264 106.426L1.94788 128.618L2.28412 131.98L13.7164 108.78L11.0264 106.426Z" fill="#E1BC7E" stroke="black" stroke-width="0.264583"/>
<path d="M4.13342 128.198H7.91615L15.8179 114.328L12.2873 111.301L4.13342 128.198Z" fill="#E5E1D5" stroke="black" stroke-width="0.264583"/>
<path d="M68.8602 104.409L82.1418 103.904L93.7422 104.745L104.838 106.762L118.624 110.965L132.242 119.371L136.277 123.742L141.321 133.494L143.338 142.404L141.657 145.094L139.807 144.253L139.135 137.528L136.781 134.502L132.914 130.299L127.871 126.601L120.305 123.911L117.279 122.902L106.351 121.053L96.9365 121.389L91.5566 122.229L85.6724 123.742L73.2314 127.777L68.8602 104.409Z" fill="#E1BC7E" stroke="black" stroke-width="0.264583"/>
<path d="M47.1725 63.3869L67.7254 77.1729L47.6769 59.8564L47.1725 63.3869Z" fill="#CEA55D" stroke="black" stroke-width="0.264583"/>
<path d="M35.0678 114.16L26.5776 125.592L39.4389 129.627L35.0678 114.16Z" fill="#E5E1D5" stroke="black" stroke-width="0.264583"/>
<path d="M11.0264 58.6795L15.2294 73.6423L33.2184 59.1839L11.0264 58.6795Z" fill="#FDF9EF" stroke="black" stroke-width="0.264583"/>
<path d="M24.8123 35.4788L0.770996 60.5289L34.2271 62.0419L39.4389 42.2036L24.8123 35.4788Z" fill="#FDF9EF" stroke="black" stroke-width="0.264583"/>
<path d="M34.059 48.256L27.3341 58.5114L47.1724 67.0856L57.9322 47.0791L34.059 48.256Z" fill="#E1BC7E" stroke="black" stroke-width="0.264583"/>
<path d="M31.0329 51.9546L73.3995 81.2078L74.2401 129.29L71.382 131.476L40.9521 140.555L30.1923 106.258L17.2469 66.245L31.0329 51.9546Z" fill="#E1BC7E" stroke="black" stroke-width="0.264583"/>
<path d="M6.52698 92.6986L13.7163 122.061L6.48706 138.705L9.00888 141.395L17.2468 133.494L28.8472 106.09L11.8669 90.6226L6.52698 92.6986Z" fill="#E1BC7E" stroke="black" stroke-width="0.264583"/>
<path d="M17.2468 66.4131L8.16827 76.5004L6.48706 92.4719L20.6093 115.841L30.9487 108.696L17.2468 66.4131Z" fill="#E1BC7E" stroke="black" stroke-width="0.264583"/>
<path d="M20.4411 115.673L9.177 141.731L15.9019 139.882L33.4705 116.429L30.6965 108.191L20.4411 115.673Z" fill="#E1BC7E" stroke="black" stroke-width="0.264583"/>
<path d="M41.1202 7.8228L64.6572 0.845764L59.7816 17.4898L41.1202 7.8228Z" fill="#262015" stroke="black" stroke-width="0.264583"/>
<path d="M11.5308 22.1972L37.2533 4.04006L63.3121 15.9767L66.1702 26.7364L60.4541 49.0966L32.8822 51.2822L17.5831 32.6207L11.5308 22.1972Z" fill="#E1BC7E" stroke="black" stroke-width="0.264583"/>
<path d="M11.8671 22.8696L45.9957 20.5159L65.834 27.577L60.4541 49.0966L33.2185 51.6184L17.5832 32.9569L11.8671 22.8696Z" fill="#E1BC7E" stroke="black" stroke-width="0.264583"/>
<path d="M46.416 20.5159L66.5906 26.5683L66.1703 34.1338L48.7697 26.064L46.416 20.5159Z" fill="#262015" stroke="black" stroke-width="0.264583"/>
<path d="M48.6856 26.2321L72.2226 15.6404L66.3384 34.47L48.6856 26.2321Z" fill="#EEB185" stroke="black" stroke-width="0.264583"/>
<path d="M57.0917 10.2606C58.2059 10.2606 59.1091 9.2444 59.1091 7.99092C59.1091 6.73743 58.2059 5.72128 57.0917 5.72128C55.9775 5.72128 55.0742 6.73743 55.0742 7.99092C55.0742 9.2444 55.9775 10.2606 57.0917 10.2606Z" fill="#FDF9EF" stroke="black" stroke-width="0.264583"/>
<path d="M82.9012 103.897C89.5585 109.009 87.6564 123.274 87.6564 123.274L78.7404 125.652C83.0201 114.002 77.0761 104.253 77.0761 104.253L82.9012 103.897Z" fill="#262015" stroke="black" stroke-width="0.264583"/>
<path d="M102.319 106.322C108.977 111.434 103.716 121.152 103.716 121.152L95.0975 121.687C99.3772 110.037 94.1465 104.984 94.1465 104.984L102.319 106.322Z" fill="#262015" stroke="black" stroke-width="0.264583"/>
<path d="M118.754 110.869C120.775 114.465 117.268 122.876 117.268 122.876L111.681 121.746C115.158 112.058 112.276 108.997 112.276 108.997L118.754 110.869Z" fill="#262015" stroke="black" stroke-width="0.264583"/>
<path d="M132.277 119.399C133.585 125.729 129.305 127.572 129.305 127.572L125.115 125.61C129.394 117.229 126.63 115.981 126.63 115.981L132.277 119.399Z" fill="#262015" stroke="black" stroke-width="0.264583"/>
<path d="M140.072 130.996C138.809 133.359 136.595 134.31 136.595 134.31L133.385 130.863C137.041 128.648 137.427 126.033 137.427 126.033L140.072 130.996Z" fill="#262015" stroke="black" stroke-width="0.264583"/>
<path d="M139.191 137.569L141.331 133.825L143.381 142.354C143.381 142.354 141.925 145.148 141.776 145.118C141.628 145.089 139.756 144.108 139.756 144.108L139.191 137.569Z" fill="#262015" stroke="black" stroke-width="0.264583"/>
<path d="M34.2793 65.142C35.5924 65.142 36.6569 64.0775 36.6569 62.7644C36.6569 61.4513 35.5924 60.3868 34.2793 60.3868C32.9662 60.3868 31.9017 61.4513 31.9017 62.7644C31.9017 64.0775 32.9662 65.142 34.2793 65.142Z" fill="#262015" stroke="#262015" stroke-width="0.264583"/>
<path d="M38.3213 66.2119C39.7658 66.2119 40.9367 65.1208 40.9367 63.7749C40.9367 62.4289 39.7658 61.3378 38.3213 61.3378C36.8769 61.3378 35.706 62.4289 35.706 63.7749C35.706 65.1208 36.8769 66.2119 38.3213 66.2119Z" fill="#262015" stroke="#262015" stroke-width="0.264583"/>
<path d="M58.7092 80.3586C59.8582 80.3586 60.7896 79.3207 60.7896 78.0404C60.7896 76.7601 59.8582 75.7223 58.7092 75.7223C57.5602 75.7223 56.6288 76.7601 56.6288 78.0404C56.6288 79.3207 57.5602 80.3586 58.7092 80.3586Z" fill="#262015" stroke="#262015" stroke-width="0.264583"/>
<path d="M52.7059 77.3866C53.9533 77.3866 54.9646 76.3487 54.9646 75.0684C54.9646 73.7881 53.9533 72.7503 52.7059 72.7503C51.4584 72.7503 50.4471 73.7881 50.4471 75.0684C50.4471 76.3487 51.4584 77.3866 52.7059 77.3866Z" fill="#262015" stroke="#262015" stroke-width="0.264583"/>
<path d="M55.4995 79.7642C56.7798 79.7642 57.8176 78.5933 57.8176 77.1488C57.8176 75.7044 56.7798 74.5335 55.4995 74.5335C54.2192 74.5335 53.1813 75.7044 53.1813 77.1488C53.1813 78.5933 54.2192 79.7642 55.4995 79.7642Z" fill="#262015" stroke="#262015" stroke-width="0.264583"/>
<path d="M39.3318 77.3866C40.8747 77.3866 42.1254 76.189 42.1254 74.7118C42.1254 73.2345 40.8747 72.037 39.3318 72.037C37.7889 72.037 36.5381 73.2345 36.5381 74.7118C36.5381 76.189 37.7889 77.3866 39.3318 77.3866Z" fill="#262015" stroke="#262015" stroke-width="0.264583"/>
<path d="M43.4333 81.6663C45.009 81.6663 46.2864 80.5219 46.2864 79.1103C46.2864 77.6988 45.009 76.5544 43.4333 76.5544C41.8575 76.5544 40.5801 77.6988 40.5801 79.1103C40.5801 80.5219 41.8575 81.6663 43.4333 81.6663Z" fill="#262015" stroke="#262015" stroke-width="0.264583"/>
<path d="M41.4717 79.1698C42.4893 79.1698 43.3143 78.3448 43.3143 77.3272C43.3143 76.3095 42.4893 75.4845 41.4717 75.4845C40.454 75.4845 39.629 76.3095 39.629 77.3272C39.629 78.3448 40.454 79.1698 41.4717 79.1698Z" fill="#262015" stroke="#262015" stroke-width="0.264583"/>
<path d="M68.814 89.1557C69.766 89.1557 70.5378 88.171 70.5378 86.9564C70.5378 85.7418 69.766 84.7571 68.814 84.7571C67.862 84.7571 67.0903 85.7418 67.0903 86.9564C67.0903 88.171 67.862 89.1557 68.814 89.1557Z" fill="#262015" stroke="#262015" stroke-width="0.264583"/>
<path d="M69.2895 92.9599C70.0445 92.9599 70.6566 92.055 70.6566 90.9389C70.6566 89.8228 70.0445 88.9179 69.2895 88.9179C68.5344 88.9179 67.9224 89.8228 67.9224 90.9389C67.9224 92.055 68.5344 92.9599 69.2895 92.9599Z" fill="#262015" stroke="#262015" stroke-width="0.264583"/>
<path d="M54.7268 91.771C56.4338 91.771 57.8177 90.5469 57.8177 89.0368C57.8177 87.5267 56.4338 86.3026 54.7268 86.3026C53.0198 86.3026 51.6359 87.5267 51.6359 89.0368C51.6359 90.5469 53.0198 91.771 54.7268 91.771Z" fill="#262015" stroke="#262015" stroke-width="0.264583"/>
<path d="M58.4715 95.8129C60.2114 95.8129 61.6218 94.4291 61.6218 92.7221C61.6218 91.015 60.2114 89.6312 58.4715 89.6312C56.7316 89.6312 55.3212 91.015 55.3212 92.7221C55.3212 94.4291 56.7316 95.8129 58.4715 95.8129Z" fill="#262015" stroke="#262015" stroke-width="0.264583"/>
<path d="M67.0903 109.365C68.5347 109.365 69.7056 108.221 69.7056 106.809C69.7056 105.398 68.5347 104.253 67.0903 104.253C65.6458 104.253 64.4749 105.398 64.4749 106.809C64.4749 108.221 65.6458 109.365 67.0903 109.365Z" fill="#262015" stroke="#262015" stroke-width="0.264583"/>
<path d="M68.398 114.953C69.5798 114.953 70.5378 113.808 70.5378 112.397C70.5378 110.985 69.5798 109.841 68.398 109.841C67.2162 109.841 66.2581 110.985 66.2581 112.397C66.2581 113.808 67.2162 114.953 68.398 114.953Z" fill="#262015" stroke="#262015" stroke-width="0.264583"/>
<path d="M69.4084 111.03C70.2948 111.03 71.0133 110.364 71.0133 109.544C71.0133 108.723 70.2948 108.058 69.4084 108.058C68.5221 108.058 67.8035 108.723 67.8035 109.544C67.8035 110.364 68.5221 111.03 69.4084 111.03Z" fill="#262015" stroke="#262015" stroke-width="0.264583"/>
<path d="M67.5063 127.554C68.7866 127.554 69.8245 125.771 69.8245 123.571C69.8245 121.372 68.7866 119.589 67.5063 119.589C66.226 119.589 65.1882 121.372 65.1882 123.571C65.1882 125.771 66.226 127.554 67.5063 127.554Z" fill="#262015" stroke="#262015" stroke-width="0.264583"/>
<path d="M53.6568 106.393C54.9043 106.393 55.9156 105.302 55.9156 103.956C55.9156 102.61 54.9043 101.519 53.6568 101.519C52.4094 101.519 51.3981 102.61 51.3981 103.956C51.3981 105.302 52.4094 106.393 53.6568 106.393Z" fill="#262015" stroke="#262015" stroke-width="0.264583"/>
<path d="M56.6288 110.316C58.0076 110.316 59.1253 109.145 59.1253 107.701C59.1253 106.256 58.0076 105.086 56.6288 105.086C55.25 105.086 54.1323 106.256 54.1323 107.701C54.1323 109.145 55.25 110.316 56.6288 110.316Z" fill="#262015" stroke="#262015" stroke-width="0.264583"/>
<path d="M56.9855 109.127C58.3643 109.127 59.482 107.77 59.482 106.096C59.482 104.422 58.3643 103.065 56.9855 103.065C55.6067 103.065 54.489 104.422 54.489 106.096C54.489 107.77 55.6067 109.127 56.9855 109.127Z" fill="#262015" stroke="#262015" stroke-width="0.264583"/>
<path d="M55.4994 108.295C56.911 108.295 58.0553 106.858 58.0553 105.086C58.0553 103.313 56.911 101.876 55.4994 101.876C54.0878 101.876 52.9435 103.313 52.9435 105.086C52.9435 106.858 54.0878 108.295 55.4994 108.295Z" fill="#262015" stroke="#262015" stroke-width="0.264583"/>
<path d="M46.1079 92.4843C46.666 92.4843 47.1184 91.9255 47.1184 91.2361C47.1184 90.5467 46.666 89.9879 46.1079 89.9879C45.5498 89.9879 45.0974 90.5467 45.0974 91.2361C45.0974 91.9255 45.5498 92.4843 46.1079 92.4843Z" fill="#262015" stroke="#262015" stroke-width="0.264583"/>
<path d="M46.9401 93.6731C47.3012 93.6731 47.5939 93.4336 47.5939 93.1382C47.5939 92.8427 47.3012 92.6032 46.9401 92.6032C46.579 92.6032 46.2863 92.8427 46.2863 93.1382C46.2863 93.4336 46.579 93.6731 46.9401 93.6731Z" fill="#262015" stroke="#262015" stroke-width="0.264583"/>
<path d="M44.5625 90.4634C45.0549 90.4634 45.4541 90.144 45.4541 89.7501C45.4541 89.3562 45.0549 89.0368 44.5625 89.0368C44.0701 89.0368 43.6709 89.3562 43.6709 89.7501C43.6709 90.144 44.0701 90.4634 44.5625 90.4634Z" fill="#262015" stroke="#262015" stroke-width="0.264583"/>
<path d="M22.867 71.5615C24.1144 71.5615 25.1257 70.6567 25.1257 69.5405C25.1257 68.4244 24.1144 67.5196 22.867 67.5196C21.6195 67.5196 20.6083 68.4244 20.6083 69.5405C20.6083 70.6567 21.6195 71.5615 22.867 71.5615Z" fill="#262015" stroke="#262015" stroke-width="0.264583"/>
<path d="M25.8389 74.1768C27.0864 74.1768 28.0976 73.2188 28.0976 72.037C28.0976 70.8552 27.0864 69.8972 25.8389 69.8972C24.5915 69.8972 23.5802 70.8552 23.5802 72.037C23.5802 73.2188 24.5915 74.1768 25.8389 74.1768Z" fill="#262015" stroke="#262015" stroke-width="0.264583"/>
<path d="M26.4928 70.9671C27.2479 70.9671 27.86 70.4348 27.86 69.7783C27.86 69.1217 27.2479 68.5895 26.4928 68.5895C25.7378 68.5895 25.1257 69.1217 25.1257 69.7783C25.1257 70.4348 25.7378 70.9671 26.4928 70.9671Z" fill="#262015" stroke="#262015" stroke-width="0.264583"/>
<path d="M37.3108 66.2702C38.8859 66.2702 40.1628 65.4191 40.1628 64.3692C40.1628 63.3194 38.8859 62.4683 37.3108 62.4683C35.7357 62.4683 34.4589 63.3194 34.4589 64.3692C34.4589 65.4191 35.7357 66.2702 37.3108 66.2702Z" fill="#99653D"/>
<path d="M34.6055 65.4044C35.4644 65.4044 36.1607 64.5952 36.1607 63.5971C36.1607 62.5989 35.4644 61.7898 34.6055 61.7898C33.7467 61.7898 33.0504 62.5989 33.0504 63.5971C33.0504 64.5952 33.7467 65.4044 34.6055 65.4044Z" fill="#99653D"/>
<path d="M23.3832 72.8858C24.3117 72.8858 25.0645 72.0954 25.0645 71.1205C25.0645 70.1456 24.3117 69.3552 23.3832 69.3552C22.4547 69.3552 21.702 70.1456 21.702 71.1205C21.702 72.0954 22.4547 72.8858 23.3832 72.8858Z" fill="#99653D"/>
<path d="M24.9805 73.9785C25.6769 73.9785 26.2414 73.2635 26.2414 72.3814C26.2414 71.4993 25.6769 70.7842 24.9805 70.7842C24.2841 70.7842 23.7196 71.4993 23.7196 72.3814C23.7196 73.2635 24.2841 73.9785 24.9805 73.9785Z" fill="#99653D"/>
<path d="M38.9209 79.4575C40.2288 80.8404 41.9727 81.315 42.8159 80.5175C43.6591 79.72 43.2824 77.9524 41.9745 76.5695C40.6666 75.1866 38.9227 74.712 38.0795 75.5095C37.2363 76.307 37.613 78.0746 38.9209 79.4575Z" fill="#99653D"/>
<path d="M38.9767 77.425C40.207 77.425 41.2043 76.6159 41.2043 75.6177C41.2043 74.6196 40.207 73.8104 38.9767 73.8104C37.7464 73.8104 36.7491 74.6196 36.7491 75.6177C36.7491 76.6159 37.7464 77.425 38.9767 77.425Z" fill="#99653D"/>
<path d="M43.6 81.2918C44.5981 81.2918 45.4073 80.5391 45.4073 79.6106C45.4073 78.6821 44.5981 77.9294 43.6 77.9294C42.6018 77.9294 41.7927 78.6821 41.7927 79.6106C41.7927 80.5391 42.6018 81.2918 43.6 81.2918Z" fill="#99653D"/>
<path d="M57.0917 80.7875C58.6237 80.7875 59.8657 79.9783 59.8657 78.9802C59.8657 77.982 58.6237 77.1729 57.0917 77.1729C55.5597 77.1729 54.3177 77.982 54.3177 78.9802C54.3177 79.9783 55.5597 80.7875 57.0917 80.7875Z" fill="#99653D"/>
<path d="M53.2249 79.7787C54.5712 79.7787 55.6626 78.7061 55.6626 77.383C55.6626 76.0599 54.5712 74.9873 53.2249 74.9873C51.8785 74.9873 50.7871 76.0599 50.7871 77.383C50.7871 78.7061 51.8785 79.7787 53.2249 79.7787Z" fill="#99653D"/>
<path d="M68.3979 92.7241C69.4889 92.7241 70.3733 90.9929 70.3733 88.8573C70.3733 86.7217 69.4889 84.9905 68.3979 84.9905C67.3069 84.9905 66.4224 86.7217 66.4224 88.8573C66.4224 90.9929 67.3069 92.7241 68.3979 92.7241Z" fill="#99653D"/>
<path d="M52.2583 77.7613C53.3957 77.7613 54.3178 76.971 54.3178 75.996C54.3178 75.0211 53.3957 74.2307 52.2583 74.2307C51.1209 74.2307 50.1988 75.0211 50.1988 75.996C50.1988 76.971 51.1209 77.7613 52.2583 77.7613Z" fill="#99653D"/>
<path d="M55.5786 92.8922C56.7393 92.8922 57.6801 92.0643 57.6801 91.0429C57.6801 90.0215 56.7393 89.1936 55.5786 89.1936C54.418 89.1936 53.4771 90.0215 53.4771 91.0429C53.4771 92.0643 54.418 92.8922 55.5786 92.8922Z" fill="#99653D"/>
<path d="M54.3597 92.4719C55.7293 92.4719 56.8395 91.2676 56.8395 89.782C56.8395 88.2964 55.7293 87.092 54.3597 87.092C52.9902 87.092 51.8799 88.2964 51.8799 89.782C51.8799 91.2676 52.9902 92.4719 54.3597 92.4719Z" fill="#99653D"/>
<path d="M53.5612 89.9501C54.2576 89.9501 54.8221 89.8748 54.8221 89.782C54.8221 89.6891 54.2576 89.6138 53.5612 89.6138C52.8648 89.6138 52.3003 89.6891 52.3003 89.782C52.3003 89.8748 52.8648 89.9501 53.5612 89.9501Z" fill="#99653D"/>
<path d="M58.0164 95.8343C59.502 95.8343 60.7063 94.6865 60.7063 93.2705C60.7063 91.8545 59.502 90.7066 58.0164 90.7066C56.5307 90.7066 55.3264 91.8545 55.3264 93.2705C55.3264 94.6865 56.5307 95.8343 58.0164 95.8343Z" fill="#99653D"/>
<path d="M46.0567 93.1715C46.548 92.9623 46.6366 92.0656 46.2547 91.1686C45.8728 90.2715 45.165 89.7139 44.6738 89.923C44.1826 90.1321 44.0939 91.0289 44.4758 91.9259C44.8577 92.8229 45.5655 93.3806 46.0567 93.1715Z" fill="#99653D"/>
<path d="M66.7166 111.217C67.9933 111.217 69.0283 109.806 69.0283 108.065C69.0283 106.324 67.9933 104.913 66.7166 104.913C65.4399 104.913 64.405 106.324 64.405 108.065C64.405 109.806 65.4399 111.217 66.7166 111.217Z" fill="#99653D"/>
<path d="M68.1877 114.244C69.1163 114.244 69.869 113.227 69.869 111.974C69.869 110.721 69.1163 109.704 68.1877 109.704C67.2592 109.704 66.5065 110.721 66.5065 111.974C66.5065 113.227 67.2592 114.244 68.1877 114.244Z" fill="#99653D"/>
<path d="M66.6746 114.58C67.7424 114.58 68.608 113.507 68.608 112.184C68.608 110.861 67.7424 109.788 66.6746 109.788C65.6068 109.788 64.7412 110.861 64.7412 112.184C64.7412 113.507 65.6068 114.58 66.6746 114.58Z" fill="#99653D"/>
<path d="M55.0742 109.872C56.9777 109.872 58.5207 108.348 58.5207 106.468C58.5207 104.588 56.9777 103.064 55.0742 103.064C53.1708 103.064 51.6277 104.588 51.6277 106.468C51.6277 108.348 53.1708 109.872 55.0742 109.872Z" fill="#99653D"/>
<path d="M53.0147 106.342C53.7808 106.342 54.4017 105.57 54.4017 104.619C54.4017 103.667 53.7808 102.895 53.0147 102.895C52.2487 102.895 51.6277 103.667 51.6277 104.619C51.6277 105.57 52.2487 106.342 53.0147 106.342Z" fill="#99653D"/>
<path d="M67.3891 128.03C68.5729 128.03 69.5326 126.411 69.5326 124.415C69.5326 122.419 68.5729 120.8 67.3891 120.8C66.2052 120.8 65.2455 122.419 65.2455 124.415C65.2455 126.411 66.2052 128.03 67.3891 128.03Z" fill="#99653D"/>
<path d="M24.2239 73.1379C24.6882 73.1379 25.0645 72.7051 25.0645 72.1712C25.0645 71.6374 24.6882 71.2046 24.2239 71.2046C23.7597 71.2046 23.3833 71.6374 23.3833 72.1712C23.3833 72.7051 23.7597 73.1379 24.2239 73.1379Z" fill="#262015"/>
<path d="M36.5389 64.9841C37.3513 64.9841 38.0099 64.683 38.0099 64.3116C38.0099 63.9402 37.3513 63.6391 36.5389 63.6391C35.7264 63.6391 35.0678 63.9402 35.0678 64.3116C35.0678 64.683 35.7264 64.9841 36.5389 64.9841Z" fill="#262015"/>
<path d="M38.7244 79.2744C39.3512 79.2744 39.8592 78.9733 39.8592 78.6019C39.8592 78.2305 39.3512 77.9294 38.7244 77.9294C38.0977 77.9294 37.5896 78.2305 37.5896 78.6019C37.5896 78.9733 38.0977 79.2744 38.7244 79.2744Z" fill="#262015"/>
<path d="M62.7238 85.2427C63.4666 85.2427 63.5795 84.5464 62.976 83.6876C62.3724 82.8287 61.281 82.1324 60.5382 82.1324C59.7954 82.1324 59.6825 82.8287 60.286 83.6876C60.8896 84.5464 61.981 85.2427 62.7238 85.2427Z" fill="#262015"/>
<path d="M61.7127 117.826C62.3199 118.253 62.8132 117.749 62.8145 116.699C62.8157 115.65 62.3244 114.452 61.7172 114.024C61.1099 113.596 60.6167 114.101 60.6154 115.15C60.6142 116.2 61.1054 117.398 61.7127 117.826Z" fill="#262015"/>
<path d="M54.2756 90.4544C54.6702 90.4544 54.9901 90.191 54.9901 89.866C54.9901 89.541 54.6702 89.2776 54.2756 89.2776C53.881 89.2776 53.5611 89.541 53.5611 89.866C53.5611 90.191 53.881 90.4544 54.2756 90.4544Z" fill="#262015"/>
<path d="M66.8427 90.7907C67.2141 90.7907 67.5152 90.0568 67.5152 89.1515C67.5152 88.2462 67.2141 87.5123 66.8427 87.5123C66.4713 87.5123 66.1702 88.2462 66.1702 89.1515C66.1702 90.0568 66.4713 90.7907 66.8427 90.7907Z" fill="#262015"/>
<path d="M67.3051 128.03C67.9783 128.03 68.524 127.766 68.524 127.441C68.524 127.116 67.9783 126.853 67.3051 126.853C66.632 126.853 66.0862 127.116 66.0862 127.441C66.0862 127.766 66.632 128.03 67.3051 128.03Z" fill="#262015"/>
<path d="M65.3717 112.226C65.7199 112.226 66.0021 111.473 66.0021 110.545C66.0021 109.616 65.7199 108.864 65.3717 108.864C65.0235 108.864 64.7412 109.616 64.7412 110.545C64.7412 111.473 65.0235 112.226 65.3717 112.226Z" fill="#262015"/>
<path d="M67.2631 112.142C67.6345 112.142 67.9356 111.371 67.9356 110.419C67.9356 109.467 67.6345 108.696 67.2631 108.696C66.8917 108.696 66.5906 109.467 66.5906 110.419C66.5906 111.371 66.8917 112.142 67.2631 112.142Z" fill="#262015"/>
<path d="M66.2123 112.478C66.6534 112.478 67.0109 111.914 67.0109 111.217C67.0109 110.521 66.6534 109.957 66.2123 109.957C65.7713 109.957 65.4138 110.521 65.4138 111.217C65.4138 111.914 65.7713 112.478 66.2123 112.478Z" fill="#262015"/>
<path d="M52.6365 108.612C53.3793 108.612 53.9814 108.009 53.9814 107.267C53.9814 106.524 53.3793 105.922 52.6365 105.922C51.8937 105.922 51.2915 106.524 51.2915 107.267C51.2915 108.009 51.8937 108.612 52.6365 108.612Z" fill="#262015"/>
<path d="M50.6611 111.722C51.1485 111.722 51.5437 111.44 51.5437 111.091C51.5437 110.743 51.1485 110.461 50.6611 110.461C50.1736 110.461 49.7784 110.743 49.7784 111.091C49.7784 111.44 50.1736 111.722 50.6611 111.722Z" fill="#262015"/>
<path d="M45.9537 69.5233C46.5804 69.5233 47.0885 68.9776 47.0885 68.3044C47.0885 67.6313 46.5804 67.0856 45.9537 67.0856C45.3269 67.0856 44.8188 67.6313 44.8188 68.3044C44.8188 68.9776 45.3269 69.5233 45.9537 69.5233Z" fill="#262015"/>
<path d="M65.5818 98.6924C66.4639 98.6924 67.179 98.1279 67.179 97.4315C67.179 96.7351 66.4639 96.1706 65.5818 96.1706C64.6997 96.1706 63.9847 96.7351 63.9847 97.4315C63.9847 98.1279 64.6997 98.6924 65.5818 98.6924Z" fill="#262015"/>
<path d="M26.8299 63.7232C27.387 63.7232 27.8386 62.8576 27.8386 61.7898C27.8386 60.722 27.387 59.8564 26.8299 59.8564C26.2728 59.8564 25.8212 60.722 25.8212 61.7898C25.8212 62.8576 26.2728 63.7232 26.8299 63.7232Z" fill="#262015"/>
<path d="M33.6389 69.6074C34.0567 69.6074 34.3954 69.344 34.3954 69.019C34.3954 68.694 34.0567 68.4306 33.6389 68.4306C33.221 68.4306 32.8823 68.694 32.8823 69.019C32.8823 69.344 33.221 69.6074 33.6389 69.6074Z" fill="#262015"/>
<path d="M36.8331 82.7209C37.6223 82.7209 38.2621 82.0434 38.2621 81.2078C38.2621 80.3721 37.6223 79.6947 36.8331 79.6947C36.0439 79.6947 35.4041 80.3721 35.4041 81.2078C35.4041 82.0434 36.0439 82.7209 36.8331 82.7209Z" fill="#262015"/>
<path d="M48.4334 84.7383C49.037 84.7383 49.5262 84.2491 49.5262 83.6455C49.5262 83.042 49.037 82.5527 48.4334 82.5527C47.8299 82.5527 47.3406 83.042 47.3406 83.6455C47.3406 84.2491 47.8299 84.7383 48.4334 84.7383Z" fill="#262015"/>
<path d="M52.2161 94.9937C52.2161 95.0879 52.184 95.1811 52.1218 95.2671C52.0595 95.3532 51.9686 95.4303 51.8549 95.4933L51.1234 94.9937H52.2161Z" fill="#262015"/>
<path d="M55.057 99.3804C54.6279 99.6442 54.0981 99.7513 53.5802 99.6792C53.0622 99.607 52.5967 99.3612 52.2824 98.9938C51.9681 98.6264 51.8296 98.1664 51.8964 97.7112C51.9631 97.256 52.2299 96.8414 52.64 96.5554C53.0502 96.2693 53.5715 96.1343 54.0935 96.1789C54.6156 96.2236 55.0972 96.4443 55.4363 96.7944C55.7755 97.1445 55.9455 97.5963 55.9103 98.0542C55.8752 98.5121 55.6376 98.94 55.2479 99.2473" fill="#262015"/>
<path d="M20.8381 18.4853C20.5598 18.6534 20.197 18.7907 19.8266 18.868C19.4561 18.9454 19.1071 18.9568 18.8536 18.8997C18.6001 18.8427 18.4619 18.7218 18.4684 18.5626C18.475 18.4033 18.6257 18.2184 18.8886 18.0468C19.1515 17.8753 19.5059 17.7307 19.8768 17.6437C20.2476 17.5567 20.6057 17.5342 20.8752 17.5808C21.1446 17.6275 21.3042 17.7397 21.3201 17.8936C21.336 18.0476 21.207 18.2312 20.9604 18.4055" fill="#262015"/>
<path d="M25.3354 16.8041C25.0571 16.9722 24.6943 17.1095 24.3239 17.1868C23.9534 17.2642 23.6044 17.2756 23.3509 17.2185C23.0974 17.1615 22.9592 17.0406 22.9658 16.8814C22.9723 16.7221 23.123 16.5372 23.3859 16.3656C23.6488 16.1941 24.0032 16.0495 24.3741 15.9625C24.7449 15.8755 25.103 15.853 25.3725 15.8996C25.6419 15.9463 25.8015 16.0584 25.8174 16.2124C25.8333 16.3664 25.7043 16.55 25.4577 16.7243" fill="#262015"/>
<path d="M29.5682 14.8854C29.3394 15.1163 29.0211 15.338 28.6807 15.5035C28.3403 15.6689 28.0047 15.7652 27.7449 15.7718C27.4851 15.7784 27.3216 15.6948 27.2891 15.5388C27.2566 15.3828 27.3575 15.1667 27.5706 14.9361C27.7837 14.7056 28.0921 14.4789 28.4305 14.304C28.7689 14.1291 29.1106 14.0197 29.3833 13.9992C29.656 13.9786 29.8381 14.0485 29.8911 14.1939C29.9442 14.3393 29.8639 14.5488 29.6673 14.7781" fill="#262015"/>
<path d="M33.3493 12.5571C33.1348 12.8014 32.8305 13.0419 32.5007 13.2276C32.1709 13.4132 31.8417 13.5295 31.5828 13.5518C31.3239 13.574 31.1557 13.5004 31.1138 13.3467C31.0719 13.193 31.1596 12.9711 31.3584 12.7281C31.5572 12.4852 31.8514 12.2403 32.1787 12.0453C32.5059 11.8503 32.8404 11.7206 33.1114 11.6837C33.3823 11.6467 33.5684 11.7055 33.63 11.8474C33.6917 11.9894 33.6242 12.2034 33.4418 12.4441" fill="#262015"/>
<path d="M37.009 8.68538C36.8407 8.96346 36.5831 9.25355 36.291 9.49413C35.9989 9.73471 35.6951 9.90689 35.4441 9.97415C35.1931 10.0414 35.0146 9.99848 34.9464 9.85445C34.8782 9.71041 34.9257 9.47661 35.0789 9.20259C35.232 8.92858 35.4788 8.6359 35.7668 8.3866C36.0548 8.1373 36.3614 7.95098 36.6217 7.86714C36.882 7.78329 37.0754 7.80851 37.161 7.93746C37.2466 8.0664 37.2177 8.28894 37.0803 8.55788" fill="#262015"/>
<path d="M39.627 19.1922C39.9513 19.1689 40.3368 19.2115 40.702 19.3109C41.0671 19.4103 41.3832 19.5587 41.5831 19.7247C41.7831 19.8907 41.8512 20.0612 41.773 20.2001C41.6949 20.339 41.4766 20.4353 41.1645 20.4686C40.8523 20.502 40.4709 20.4697 40.101 20.3787C39.7311 20.2877 39.4018 20.1451 39.183 19.9811C38.9642 19.8172 38.873 19.6447 38.9288 19.5004C38.9845 19.356 39.1829 19.251 39.4818 19.2078" fill="#262015"/>
<path d="M34.8569 18.6466C35.1812 18.6233 35.5667 18.6658 35.9319 18.7652C36.2971 18.8646 36.6131 19.0131 36.8131 19.179C37.013 19.345 37.0811 19.5155 37.0029 19.6544C36.9248 19.7933 36.7065 19.8896 36.3944 19.9229C36.0822 19.9563 35.7008 19.924 35.3309 19.833C34.961 19.742 34.6318 19.5994 34.4129 19.4355C34.1941 19.2715 34.1029 19.099 34.1587 18.9547C34.2144 18.8103 34.4128 18.7053 34.7117 18.6621" fill="#262015"/>
<path d="M30.2144 18.4326C30.5231 18.3309 30.9074 18.278 31.2858 18.2853C31.6642 18.2925 32.0069 18.3593 32.2413 18.4714C32.4757 18.5836 32.5834 18.7323 32.5415 18.886C32.4996 19.0398 32.3115 19.1865 32.0169 19.295C31.7224 19.4036 31.3446 19.4654 30.9637 19.4675C30.5828 19.4695 30.2287 19.4116 29.9764 19.3061C29.7242 19.2005 29.5936 19.0555 29.6125 18.9019C29.6313 18.7483 29.798 18.5981 30.0773 18.4831" fill="#262015"/>
<path d="M25.7883 18.7888C26.0903 18.6686 26.4707 18.5927 26.8489 18.5771C27.227 18.5615 27.5731 18.6075 27.8139 18.7054C28.0546 18.8032 28.171 18.9451 28.1385 19.1011C28.1059 19.2571 27.927 19.4149 27.6395 19.541C27.352 19.6671 26.9787 19.7516 26.5986 19.7766C26.2185 19.8016 25.8615 19.7651 25.6034 19.675C25.3452 19.5848 25.2062 19.4479 25.2157 19.2934C25.2253 19.139 25.3827 18.979 25.6545 18.8474" fill="#262015"/>
<path d="M20.7689 20.575C21.0452 20.4037 21.4065 20.2623 21.776 20.1808C22.1456 20.0992 22.4944 20.0838 22.7486 20.1379C23.0027 20.1921 23.1422 20.3114 23.1375 20.4707C23.1328 20.63 22.9842 20.8167 22.7233 20.9912C22.4624 21.1657 22.1096 21.3143 21.7398 21.4055C21.3699 21.4968 21.0121 21.5234 20.7422 21.4799C20.4722 21.4363 20.3114 21.3259 20.2937 21.1722C20.276 21.0184 20.4029 20.8333 20.6475 20.6562" fill="#262015"/>
<path d="M23.6514 19.276C23.4491 19.356 23.1994 19.3885 22.9552 19.3666C22.711 19.3447 22.4916 19.2702 22.3434 19.1589C22.1952 19.0476 22.13 18.9081 22.1614 18.7702C22.1929 18.6322 22.3186 18.5066 22.512 18.4199C22.7053 18.3333 22.9511 18.2923 23.1972 18.3059C23.4433 18.3194 23.6703 18.3863 23.8302 18.4924C23.9901 18.5985 24.0702 18.7354 24.0536 18.8742C24.0371 19.0129 23.9251 19.1426 23.7414 19.2357" fill="#262015"/>
<path d="M29.2211 17.4929C29.0693 17.5728 28.882 17.6053 28.6989 17.5834C28.5158 17.5615 28.3512 17.487 28.2401 17.3757C28.1289 17.2644 28.08 17.125 28.1036 16.987C28.1272 16.8491 28.2215 16.7234 28.3665 16.6368C28.5115 16.5501 28.6958 16.5092 28.8804 16.5227C29.065 16.5362 29.2352 16.6031 29.3552 16.7092C29.4751 16.8153 29.5352 16.9522 29.5227 17.091C29.5103 17.2297 29.4263 17.3594 29.2885 17.4525" fill="#262015"/>
<path d="M33.3893 17.7414C33.3007 17.8125 33.1915 17.8413 33.0847 17.8219C32.9778 17.8025 32.8818 17.7363 32.817 17.6373C32.7522 17.5383 32.7236 17.4144 32.7374 17.2918C32.7512 17.1692 32.8062 17.0575 32.8908 16.9804C32.9754 16.9034 33.0829 16.867 33.1905 16.879C33.2982 16.8911 33.3975 16.9505 33.4675 17.0448C33.5374 17.1391 33.5725 17.2609 33.5652 17.3842C33.558 17.5076 33.509 17.6228 33.4286 17.7056" fill="#262015"/>
<path d="M37.975 17.8603C37.8612 17.9314 37.7207 17.9602 37.5833 17.9408C37.446 17.9214 37.3226 17.8551 37.2392 17.7562C37.1559 17.6572 37.1192 17.5333 37.1369 17.4107C37.1546 17.288 37.2253 17.1764 37.3341 17.0993C37.4428 17.0223 37.5811 16.9859 37.7195 16.9979C37.8579 17.0099 37.9856 17.0694 38.0755 17.1637C38.1655 17.258 38.2105 17.3797 38.2012 17.5031C38.1919 17.6264 38.1289 17.7417 38.0256 17.8245" fill="#262015"/>
<path d="M32.9821 15.2341C32.8683 15.3141 32.7278 15.3465 32.5905 15.3247C32.4531 15.3028 32.3297 15.2283 32.2464 15.117C32.163 15.0056 32.1263 14.8662 32.144 14.7283C32.1617 14.5903 32.2324 14.4647 32.3412 14.378C32.45 14.2913 32.5882 14.2504 32.7266 14.2639C32.865 14.2775 32.9927 14.3444 33.0827 14.4505C33.1726 14.5565 33.2177 14.6935 33.2084 14.8322C33.199 14.971 33.136 15.1007 33.0327 15.1938" fill="#262015"/>
<path d="M36.2854 12.8457C36.159 12.9346 36.0029 12.9707 35.8503 12.9464C35.6977 12.922 35.5605 12.8393 35.4679 12.7156C35.3753 12.5919 35.3345 12.437 35.3542 12.2837C35.3739 12.1304 35.4525 11.9908 35.5733 11.8945C35.6941 11.7982 35.8478 11.7527 36.0015 11.7678C36.1553 11.7828 36.2972 11.8571 36.3972 11.975C36.4971 12.0929 36.5472 12.245 36.5368 12.3992C36.5265 12.5534 36.4565 12.6975 36.3417 12.8009" fill="#262015"/>
<path d="M36.3107 15.7097C36.1969 15.7896 36.0564 15.8221 35.9191 15.8002C35.7818 15.7783 35.6583 15.7039 35.575 15.5925C35.4916 15.4812 35.4549 15.3418 35.4726 15.2038C35.4903 15.0659 35.561 14.9402 35.6698 14.8536C35.7786 14.7669 35.9168 14.726 36.0552 14.7395C36.1936 14.753 36.3214 14.8199 36.4113 14.926C36.5012 15.0321 36.5463 15.169 36.537 15.3078C36.5276 15.4466 36.4646 15.5762 36.3613 15.6693" fill="#262015"/>
<path d="M39.0196 11.203C38.8932 11.2741 38.7371 11.303 38.5845 11.2835C38.4319 11.2641 38.2947 11.1979 38.2021 11.0989C38.1095 11 38.0687 10.876 38.0884 10.7534C38.1081 10.6308 38.1866 10.5191 38.3075 10.4421C38.4283 10.365 38.5819 10.3287 38.7357 10.3407C38.8895 10.3527 39.0314 10.4122 39.1314 10.5065C39.2313 10.6008 39.2814 10.7225 39.271 10.8458C39.2607 10.9692 39.1906 11.0844 39.0759 11.1672" fill="#262015"/>
<path d="M41.3972 9.0308C41.2707 9.12851 41.1147 9.1682 40.9621 9.14147C40.8095 9.11475 40.6723 9.02369 40.5797 8.88762C40.4871 8.75154 40.4463 8.58115 40.466 8.41255C40.4856 8.24395 40.5642 8.0904 40.6851 7.98446C40.8059 7.87851 40.9595 7.82851 41.1133 7.84503C41.2671 7.86156 41.409 7.94332 41.5089 8.07299C41.6089 8.20265 41.6589 8.37002 41.6486 8.53962C41.6382 8.70922 41.5682 8.86772 41.4534 8.98151" fill="#262015"/>
<path d="M43.2488 18.325C43.0971 18.4049 42.9098 18.4374 42.7267 18.4156C42.5435 18.3937 42.379 18.3192 42.2678 18.2079C42.1567 18.0965 42.1077 17.9571 42.1314 17.8192C42.155 17.6812 42.2493 17.5556 42.3943 17.4689C42.5393 17.3822 42.7236 17.3413 42.9082 17.3548C43.0927 17.3684 43.263 17.4352 43.3829 17.5413C43.5028 17.6474 43.5629 17.7844 43.5505 17.9231C43.5381 18.0619 43.4541 18.1916 43.3163 18.2847" fill="#262015"/>
<path d="M46.9341 19.503C46.7823 19.5918 46.595 19.6279 46.4119 19.6036C46.2288 19.5793 46.0642 19.4966 45.9531 19.3728C45.8419 19.2491 45.793 19.0942 45.8166 18.941C45.8402 18.7877 45.9345 18.6481 46.0795 18.5518C46.2245 18.4555 46.4089 18.41 46.5934 18.425C46.778 18.4401 46.9483 18.5144 47.0682 18.6323C47.1881 18.7501 47.2482 18.9023 47.2357 19.0565C47.2233 19.2107 47.1393 19.3547 47.0015 19.4582" fill="#262015"/>
<path d="M40.7346 13.4834C40.6334 13.5367 40.5086 13.5583 40.3865 13.5437C40.2644 13.5291 40.1547 13.4795 40.0806 13.4053C40.0065 13.331 39.9739 13.2381 39.9896 13.1461C40.0053 13.0542 40.0682 12.9704 40.1649 12.9126C40.2616 12.8548 40.3844 12.8276 40.5075 12.8366C40.6305 12.8456 40.744 12.8902 40.824 12.9609C40.9039 13.0316 40.944 13.1229 40.9357 13.2154C40.9274 13.3079 40.8714 13.3944 40.7796 13.4565" fill="#262015"/>
<path d="M44.0632 11.1274C43.962 11.1629 43.8372 11.1773 43.7151 11.1676C43.593 11.1579 43.4833 11.1248 43.4092 11.0753C43.3351 11.0258 43.3025 10.9639 43.3182 10.9025C43.3339 10.8412 43.3968 10.7854 43.4935 10.7469C43.5902 10.7083 43.713 10.6902 43.8361 10.6962C43.9591 10.7022 44.0726 10.7319 44.1526 10.7791C44.2325 10.8262 44.2726 10.8871 44.2643 10.9487C44.256 11.0104 44.2 11.0681 44.1082 11.1094" fill="#262015"/>
<path d="M42.2546 15.6232C42.1408 15.6765 42.0004 15.6981 41.863 15.6836C41.7257 15.669 41.6022 15.6193 41.5189 15.5451C41.4355 15.4709 41.3988 15.3779 41.4165 15.286C41.4342 15.194 41.505 15.1102 41.6137 15.0525C41.7225 14.9947 41.8607 14.9674 41.9991 14.9764C42.1376 14.9854 42.2653 15.03 42.3552 15.1007C42.4451 15.1715 42.4902 15.2628 42.4809 15.3553C42.4716 15.4478 42.4086 15.5342 42.3052 15.5963" fill="#262015"/>
<path d="M45.9399 15.8609C45.8261 15.9142 45.6856 15.9359 45.5483 15.9213C45.4109 15.9067 45.2875 15.8571 45.2041 15.7828C45.1208 15.7086 45.0841 15.6157 45.1018 15.5237C45.1195 15.4317 45.1902 15.348 45.299 15.2902C45.4077 15.2324 45.546 15.2051 45.6844 15.2142C45.8228 15.2232 45.9505 15.2678 46.0404 15.3385C46.1304 15.4092 46.1755 15.5005 46.1661 15.593C46.1568 15.6855 46.0938 15.772 45.9905 15.834" fill="#262015"/>
<path d="M45.2266 13.3753C45.1128 13.4197 44.9723 13.4377 44.835 13.4256C44.6976 13.4134 44.5742 13.372 44.4909 13.3102C44.4075 13.2483 44.3708 13.1709 44.3885 13.0943C44.4062 13.0176 44.4769 12.9478 44.5857 12.8997C44.6945 12.8515 44.8327 12.8288 44.9711 12.8363C45.1095 12.8438 45.2373 12.881 45.3272 12.9399C45.4171 12.9988 45.4622 13.0749 45.4529 13.152C45.4435 13.2291 45.3805 13.3012 45.2772 13.3529" fill="#262015"/>
<path d="M48.7247 11.2462C48.6362 11.2818 48.5269 11.2962 48.4201 11.2865C48.3133 11.2768 48.2173 11.2436 48.1525 11.1942C48.0876 11.1447 48.0591 11.0827 48.0728 11.0214C48.0866 10.9601 48.1416 10.9043 48.2262 10.8657C48.3108 10.8272 48.4183 10.809 48.526 10.815C48.6336 10.821 48.733 10.8508 48.8029 10.8979C48.8729 10.9451 48.9079 11.0059 48.9007 11.0676C48.8934 11.1293 48.8444 11.1869 48.7641 11.2283" fill="#262015"/>
<path d="M53.098 12.8997C52.9968 12.9441 52.872 12.9622 52.7499 12.95C52.6278 12.9379 52.5181 12.8965 52.444 12.8346C52.3699 12.7728 52.3373 12.6953 52.353 12.6187C52.3687 12.5421 52.4316 12.4723 52.5283 12.4241C52.625 12.376 52.7478 12.3532 52.8709 12.3607C52.9939 12.3683 53.1074 12.4054 53.1874 12.4644C53.2673 12.5233 53.3074 12.5994 53.2991 12.6765C53.2908 12.7536 53.2348 12.8256 53.143 12.8773" fill="#262015"/>
<path d="M50.3741 15.1291C50.2715 15.1809 50.145 15.2019 50.0212 15.1878C49.8974 15.1736 49.7862 15.1254 49.711 15.0533C49.6359 14.9812 49.6028 14.8909 49.6188 14.8015C49.6347 14.7122 49.6985 14.6308 49.7965 14.5747C49.8945 14.5186 50.0191 14.4921 50.1439 14.5008C50.2686 14.5096 50.3837 14.5529 50.4647 14.6216C50.5458 14.6903 50.5864 14.779 50.578 14.8689C50.5696 14.9587 50.5128 15.0427 50.4197 15.103" fill="#262015"/>
<path d="M56.3078 15.8558C56.2066 15.9133 56.0818 15.9367 55.9597 15.9209C55.8376 15.9052 55.7279 15.8516 55.6538 15.7715C55.5797 15.6914 55.5471 15.5911 55.5628 15.4919C55.5786 15.3926 55.6414 15.3023 55.7381 15.2399C55.8348 15.1775 55.9577 15.1481 56.0807 15.1578C56.2037 15.1676 56.3173 15.2157 56.3972 15.292C56.4771 15.3683 56.5172 15.4669 56.5089 15.5667C56.5006 15.6665 56.4446 15.7598 56.3528 15.8268" fill="#262015"/>
<path d="M50.0072 17.8927C49.906 17.9371 49.7811 17.9551 49.659 17.943C49.537 17.9308 49.4272 17.8895 49.3532 17.8276C49.2791 17.7658 49.2464 17.6883 49.2622 17.6117C49.2779 17.535 49.3408 17.4652 49.4375 17.4171C49.5341 17.3689 49.657 17.3462 49.7801 17.3537C49.9031 17.3612 50.0166 17.3984 50.0965 17.4573C50.1765 17.5163 50.2166 17.5923 50.2083 17.6694C50.2 17.7465 50.144 17.8186 50.0521 17.8703" fill="#262015"/>
<path d="M54.6136 19.168C54.4975 19.239 54.3542 19.2679 54.214 19.2485C54.0739 19.229 53.948 19.1628 53.863 19.0638C53.7779 18.9649 53.7405 18.841 53.7585 18.7183C53.7766 18.5957 53.8488 18.4841 53.9597 18.407C54.0707 18.33 54.2117 18.2936 54.3529 18.3056C54.4941 18.3176 54.6244 18.3771 54.7162 18.4714C54.8079 18.5657 54.8539 18.6874 54.8444 18.8108C54.8349 18.9341 54.7706 19.0494 54.6652 19.1321" fill="#262015"/>
<path d="M61.164 16.6066C61.1135 16.6333 61.051 16.6441 60.99 16.6368C60.9289 16.6295 60.8741 16.6047 60.837 16.5676C60.8 16.5305 60.7837 16.484 60.7915 16.438C60.7994 16.392 60.8308 16.3501 60.8792 16.3213C60.9275 16.2924 60.989 16.2787 61.0505 16.2832C61.112 16.2877 61.1688 16.31 61.2087 16.3454C61.2487 16.3808 61.2687 16.4264 61.2646 16.4727C61.2604 16.5189 61.2324 16.5621 61.1865 16.5932" fill="#262015"/>
<path d="M59.2366 18.0332C59.1734 18.0598 59.0954 18.0706 59.0191 18.0633C58.9428 18.0561 58.8742 18.0312 58.8279 17.9941C58.7816 17.957 58.7612 17.9105 58.771 17.8645C58.7809 17.8186 58.8202 17.7767 58.8806 17.7478C58.941 17.7189 59.0178 17.7053 59.0947 17.7098C59.1716 17.7143 59.2426 17.7366 59.2925 17.7719C59.3425 17.8073 59.3675 17.8529 59.3623 17.8992C59.3572 17.9455 59.3222 17.9887 59.2648 18.0197" fill="#262015"/>
<path d="M59.4165 20.6053C59.2647 20.6675 59.0775 20.6928 58.8943 20.6757C58.7112 20.6587 58.5466 20.6008 58.4355 20.5142C58.3244 20.4276 58.2754 20.3192 58.299 20.2119C58.3226 20.1046 58.4169 20.0069 58.5619 19.9395C58.707 19.872 58.8913 19.8402 59.0758 19.8507C59.2604 19.8612 59.4307 19.9133 59.5506 19.9958C59.6705 20.0783 59.7306 20.1848 59.7182 20.2927C59.7057 20.4007 59.6217 20.5015 59.484 20.5739" fill="#262015"/>
<path d="M19.0124 76.1354C20.0927 76.3388 20.6297 76.8929 20.2117 77.3731C19.7938 77.8532 18.5793 78.0775 17.499 77.8741C16.4187 77.6707 15.8818 77.1165 16.2997 76.6364C16.7176 76.1563 17.9321 75.932 19.0124 76.1354Z" fill="#262015" stroke="#262015" stroke-width="0.236597"/>
<path d="M13.7434 74.9861C14.6588 75.5947 14.9372 76.3143 14.3652 76.5935C13.7932 76.8727 12.5873 76.6057 11.6718 75.9972C10.7563 75.3887 10.4779 74.6691 11.0499 74.3899C11.622 74.1107 12.8279 74.3776 13.7434 74.9861Z" fill="#262015" stroke="#262015" stroke-width="0.236597"/>
<path d="M20.7661 81.1841C21.5855 81.2545 22.0157 81.5856 21.727 81.9237C21.4383 82.2619 20.5401 82.479 19.7207 82.4087C18.9013 82.3384 18.4711 82.0072 18.7598 81.6691C19.0485 81.3309 19.9467 81.1138 20.7661 81.1841Z" fill="#262015" stroke="#262015" stroke-width="0.171032"/>
<path d="M16.7617 80.7385C17.4782 81.0832 17.7231 81.5375 17.3088 81.7532C16.8945 81.969 15.9779 81.8644 15.2614 81.5197C14.5449 81.1749 14.3 80.7206 14.7143 80.5049C15.1286 80.2892 16.0452 80.3937 16.7617 80.7385Z" fill="#262015" stroke="#262015" stroke-width="0.172366"/>
<path d="M14.2755 80.3222C15.0478 80.6049 15.3761 81.0373 15.0089 81.2879C14.6417 81.5385 13.7179 81.5126 12.9456 81.2299C12.1733 80.9472 11.845 80.5149 12.2122 80.2642C12.5794 80.0136 13.5032 80.0396 14.2755 80.3222Z" fill="#262015" stroke="#262015" stroke-width="0.171032"/>
<path d="M10.5281 79.0207C11.1292 79.5412 11.2464 80.0438 10.7901 80.1434C10.3337 80.2429 9.47653 79.9017 8.8755 79.3812C8.27446 78.8607 8.15718 78.358 8.61354 78.2585C9.0699 78.1589 9.92709 78.5002 10.5281 79.0207Z" fill="#262015" stroke="#262015" stroke-width="0.172366"/>
<path d="M21.0793 85.1169C21.9317 84.9725 22.4399 85.3457 22.2143 85.9504C21.9886 86.5551 21.1147 87.1624 20.2622 87.3068C19.4098 87.4512 18.9017 87.078 19.1273 86.4733C19.3529 85.8686 20.2268 85.2613 21.0793 85.1169Z" fill="#262015" stroke="#262015" stroke-width="0.211286"/>
<path d="M16.8921 85.6669C17.6958 85.9729 18.0398 86.5909 17.6605 87.0474C17.2813 87.5039 16.3223 87.6259 15.5186 87.3199C14.7149 87.014 14.3708 86.3959 14.7501 85.9394C15.1294 85.483 16.0884 85.361 16.8921 85.6669Z" fill="#262015" stroke="#262015" stroke-width="0.202061"/>
<path d="M21.4138 101.689C21.8656 102.102 21.9721 102.729 21.6518 103.089C21.3314 103.449 20.7055 103.406 20.2538 102.993C19.802 102.58 19.6955 101.953 20.0158 101.593C20.3362 101.233 20.9621 101.276 21.4138 101.689Z" fill="#262015" stroke="#262015" stroke-width="0.153642"/>
<path d="M25.0562 100.394C25.5079 100.807 25.6145 101.434 25.2941 101.794C24.9738 102.154 24.3479 102.111 23.8961 101.698C23.4443 101.285 23.3378 100.658 23.6582 100.298C23.9785 99.9378 24.6044 99.9809 25.0562 100.394Z" fill="#262015" stroke="#262015" stroke-width="0.153642"/>
<path d="M16.9864 99.8897C17.4381 100.303 17.5446 100.93 17.2243 101.29C16.9039 101.65 16.278 101.607 15.8263 101.194C15.3745 100.781 15.268 100.154 15.5883 99.7936C15.9087 99.4335 16.5346 99.4765 16.9864 99.8897Z" fill="#262015" stroke="#262015" stroke-width="0.153642"/>
<path d="M12.7834 97.3679C13.2351 97.7811 13.3416 98.408 13.0213 98.7681C12.7009 99.1282 12.075 99.0852 11.6233 98.672C11.1715 98.2588 11.065 97.6319 11.3853 97.2718C11.7057 96.9117 12.3316 96.9547 12.7834 97.3679Z" fill="#262015" stroke="#262015" stroke-width="0.153642"/>
<path d="M22.7824 108.558C23.0344 108.752 23.0938 109.046 22.9151 109.215C22.7364 109.384 22.3871 109.364 22.1351 109.17C21.883 108.976 21.8236 108.682 22.0023 108.513C22.1811 108.344 22.5303 108.364 22.7824 108.558Z" fill="#262015" stroke="#262015" stroke-width="0.0791114"/>
<path d="M10.1243 101.291C10.4038 101.615 10.4697 102.107 10.2715 102.39C10.0733 102.672 9.68612 102.638 9.40666 102.314C9.12719 101.99 9.06129 101.498 9.25947 101.216C9.45764 100.933 9.84485 100.967 10.1243 101.291Z" fill="#262015" stroke="#262015" stroke-width="0.108698"/>
<path d="M12.6962 58.665C12.9482 58.8589 13.0077 59.1532 12.8289 59.3222C12.6502 59.4912 12.301 59.471 12.0489 59.2771C11.7969 59.0831 11.7374 58.7889 11.9162 58.6199C12.0949 58.4509 12.4441 58.4711 12.6962 58.665Z" fill="#262015" stroke="#262015" stroke-width="0.0791114"/>
<path d="M15.9308 59.2365C16.2143 59.4944 16.2812 59.8857 16.0801 60.1105C15.8791 60.3353 15.4863 60.3084 15.2029 60.0505C14.9194 59.7926 14.8525 59.4013 15.0536 59.1765C15.2546 58.9518 15.6474 58.9786 15.9308 59.2365Z" fill="#262015" stroke="#262015" stroke-width="0.0961531"/>
<path d="M6.64638 55.5127C6.89843 55.7067 6.95787 56.0009 6.77913 56.1699C6.60039 56.3389 6.25117 56.3187 5.99911 56.1248C5.74706 55.9309 5.68762 55.6366 5.86636 55.4676C6.04509 55.2986 6.39432 55.3188 6.64638 55.5127Z" fill="#262015" stroke="#262015" stroke-width="0.0791114"/>
<path d="M9.79693 57.4293C10.0804 57.6872 10.1473 58.0785 9.94623 58.3032C9.74521 58.528 9.35244 58.5011 9.06895 58.2432C8.78547 57.9853 8.71863 57.594 8.91965 57.3693C9.12067 57.1445 9.51344 57.1713 9.79693 57.4293Z" fill="#262015" stroke="#262015" stroke-width="0.0961531"/>
<path d="M16.4802 105.784C16.7323 105.978 16.7917 106.272 16.613 106.441C16.4342 106.61 16.085 106.59 15.833 106.396C15.5809 106.202 15.5215 105.908 15.7002 105.739C15.879 105.57 16.2282 105.59 16.4802 105.784Z" fill="#262015" stroke="#262015" stroke-width="0.0791114"/>
<path d="M19.6308 107.7C19.9143 107.958 19.9811 108.349 19.7801 108.574C19.5791 108.799 19.1863 108.772 18.9028 108.514C18.6193 108.256 18.5525 107.865 18.7535 107.64C18.9545 107.415 19.3473 107.442 19.6308 107.7Z" fill="#262015" stroke="#262015" stroke-width="0.0961531"/>
<path d="M14.264 85.7955C15.112 85.9896 15.5368 86.5485 15.2128 87.0438C14.8888 87.5391 13.9387 87.7832 13.0907 87.5891C12.2427 87.395 11.8179 86.8361 12.1419 86.3408C12.4659 85.8455 13.416 85.6014 14.264 85.7955Z" fill="#262015" stroke="#262015" stroke-width="0.20295"/>
<path d="M10.0008 85.2768C10.7226 85.8864 10.946 86.6174 10.4998 86.9096C10.0536 87.2017 9.1067 86.9443 8.38487 86.3346C7.66304 85.725 7.43961 84.9939 7.88583 84.7018C8.33204 84.4097 9.27893 84.6671 10.0008 85.2768Z" fill="#262015" stroke="#262015" stroke-width="0.200779"/>
<path d="M11.7114 65.7275C12.8058 65.8307 13.3914 66.333 13.0195 66.8496C12.6475 67.3661 11.4587 67.7012 10.3643 67.598C9.26989 67.4949 8.68424 66.9925 9.05622 66.4759C9.4282 65.9594 10.6169 65.6243 11.7114 65.7275Z" fill="#262015" stroke="#262015" stroke-width="0.236597"/>
<path d="M6.35893 65.0678C7.32652 65.5895 7.66995 66.2805 7.12601 66.6111C6.58207 66.9418 5.35675 66.7869 4.38917 66.2652C3.42158 65.7435 3.07815 65.0525 3.62209 64.7219C4.16603 64.3912 5.39135 64.5461 6.35893 65.0678Z" fill="#262015" stroke="#262015" stroke-width="0.236597"/>
<path d="M11.4852 70.6058C12.2802 70.6209 12.6921 70.9319 12.4052 71.3006C12.1184 71.6692 11.2414 71.9558 10.4465 71.9407C9.65151 71.9256 9.23962 71.6145 9.52648 71.2459C9.81333 70.8772 10.6903 70.5907 11.4852 70.6058Z" fill="#262015" stroke="#262015" stroke-width="0.172366"/>
<path d="M7.67698 71.0456C8.47199 71.2561 8.83873 71.6564 8.4961 71.9397C8.15347 72.2231 7.23123 72.2822 6.43621 72.0718C5.64119 71.8613 5.27446 71.461 5.61709 71.1777C5.95971 70.8943 6.88196 70.8352 7.67698 71.0456Z" fill="#262015" stroke="#262015" stroke-width="0.171032"/>
<path d="M3.86862 69.8573C4.51498 70.3203 4.67801 70.81 4.23274 70.9512C3.78748 71.0923 2.90254 70.8313 2.25617 70.3683C1.6098 69.9053 1.44677 69.4156 1.89204 69.2745C2.3373 69.1334 3.22225 69.3943 3.86862 69.8573Z" fill="#262015" stroke="#262015" stroke-width="0.172366"/>
<path d="M5.36468 82.3219C6.19311 82.5526 6.59256 83.1364 6.25688 83.6258C5.9212 84.1152 4.9775 84.325 4.14906 84.0942C3.32063 83.8635 2.92117 83.2797 3.25685 82.7903C3.59254 82.3009 4.53624 82.0912 5.36468 82.3219Z" fill="#262015" stroke="#262015" stroke-width="0.202061"/>
<path d="M16.4533 91.7922C16.9412 92.1621 17.1049 92.7765 16.8191 93.1646C16.5332 93.5526 15.906 93.5674 15.4181 93.1975C14.9303 92.8276 14.7665 92.2132 15.0524 91.8251C15.3382 91.4371 15.9655 91.4223 16.4533 91.7922Z" fill="#262015" stroke="#262015" stroke-width="0.153642"/>
<path d="M21.6423 89.9997C22.1301 90.3696 22.2939 90.9841 22.008 91.3721C21.7222 91.7602 21.0949 91.7749 20.6071 91.405C20.1192 91.0351 19.9555 90.4207 20.2414 90.0326C20.5272 89.6446 21.1544 89.6299 21.6423 89.9997Z" fill="#262015" stroke="#262015" stroke-width="0.153642"/>
<path d="M10.0297 90.2399C10.5176 90.6098 10.6813 91.2242 10.3955 91.6123C10.1096 92.0004 9.48239 92.0151 8.99454 91.6452C8.50669 91.2753 8.34294 90.6609 8.6288 90.2728C8.91467 89.8848 9.54188 89.8701 10.0297 90.2399Z" fill="#262015" stroke="#262015" stroke-width="0.153642"/>
<path d="M18.448 97.6655C18.7168 97.8354 18.8031 98.1229 18.6407 98.3077C18.4782 98.4924 18.1286 98.5044 17.8598 98.3345C17.591 98.1646 17.5047 97.8771 17.6672 97.6923C17.8296 97.5076 18.1792 97.4956 18.448 97.6655Z" fill="#262015" stroke="#262015" stroke-width="0.0791114"/>
<path d="M22.2456 97.2133C22.5516 97.444 22.6541 97.8275 22.4747 98.0698C22.2952 98.3121 21.9016 98.3215 21.5956 98.0908C21.2896 97.86 21.187 97.4766 21.3665 97.2342C21.546 96.9919 21.9396 96.9825 22.2456 97.2133Z" fill="#262015" stroke="#262015" stroke-width="0.0961531"/>
<path d="M11.9175 95.483C12.1863 95.6529 12.2726 95.9405 12.1101 96.1252C11.9477 96.3099 11.5981 96.322 11.3293 96.152C11.0605 95.9821 10.9742 95.6946 11.1366 95.5099C11.2991 95.3251 11.6487 95.3131 11.9175 95.483Z" fill="#262015" stroke="#262015" stroke-width="0.0791114"/>
<path d="M15.2309 97.1016C15.5369 97.3323 15.6395 97.7158 15.46 97.9581C15.2805 98.2004 14.8869 98.2098 14.5809 97.979C14.2749 97.7483 14.1724 97.3648 14.3519 97.1225C14.5313 96.8802 14.9249 96.8708 15.2309 97.1016Z" fill="#262015" stroke="#262015" stroke-width="0.0961531"/>
<path d="M7.18814 76.0948C7.79473 76.1831 8.12848 76.5791 7.93359 76.9793C7.7387 77.3796 7.08896 77.6325 6.48237 77.5443C5.87577 77.4561 5.54203 77.0601 5.73692 76.6598C5.93181 76.2596 6.58154 76.0066 7.18814 76.0948Z" fill="#262015" stroke="#262015" stroke-width="0.147752"/>
<path d="M3.5789 75.6591C4.35375 76.1998 4.64349 76.9071 4.22603 77.2391C3.80858 77.571 2.84203 77.4018 2.06718 76.8611C1.29232 76.3205 1.00259 75.6131 1.42005 75.2812C1.8375 74.9492 2.80405 75.1184 3.5789 75.6591Z" fill="#262015" stroke="#262015" stroke-width="0.200779"/>
<path d="M23.5663 48.1726C24.2968 49.2605 24.421 50.3266 23.8437 50.5539C23.2664 50.7811 22.2062 50.0834 21.4758 48.9955C20.7453 47.9076 20.6211 46.8414 21.1984 46.6142C21.7757 46.3869 22.8359 47.0846 23.5663 48.1726Z" fill="#262015" stroke="#262015" stroke-width="0.255029"/>
<path d="M21.0176 44.9659C21.4325 45.9839 21.258 46.7355 20.628 46.6447C19.998 46.5539 19.1509 45.6551 18.736 44.6371C18.3212 43.6191 18.4956 42.8675 19.1256 42.9583C19.7557 43.0491 20.6027 43.9479 21.0176 44.9659Z" fill="#262015" stroke="#262015" stroke-width="0.236597"/>
<path d="M12.1361 50.9104C12.2355 51.2125 12.1192 51.4892 11.8764 51.5284C11.6335 51.5677 11.3561 51.3546 11.2567 51.0525C11.1573 50.7504 11.2736 50.4737 11.5165 50.4344C11.7593 50.3952 12.0368 50.6083 12.1361 50.9104Z" fill="#262015" stroke="#262015" stroke-width="0.0791114"/>
<path d="M25.7778 52.3462C25.8672 52.7189 25.7025 53.08 25.4098 53.1528C25.1172 53.2257 24.8075 52.9826 24.7181 52.6099C24.6287 52.2373 24.7935 51.8761 25.0861 51.8033C25.3787 51.7304 25.6884 51.9735 25.7778 52.3462Z" fill="#262015" stroke="#262015" stroke-width="0.0961531"/>
<path d="M13.2961 48.1299C13.2961 48.1299 14.0947 50.7358 16.8687 53.4257C19.6427 56.1157 24.8124 59.6882 22.2065 58.8476C19.6007 58.007 13.2541 54.6866 12.9599 51.9967C12.6657 49.3068 13.128 46.7429 13.2961 48.1299Z" fill="#262015" stroke="black" stroke-width="0.264583"/>
</svg>
