<svg width="208" height="166" viewBox="0 0 208 166" fill="none" xmlns="http://www.w3.org/2000/svg">
<path d="M116.7 67.6503L126.249 133.951L130.003 152.139L136.104 147.14L134.897 129.988L133.204 97.3015L135.437 67.4701L116.7 67.6503Z" fill="#2F1F12" stroke="black" stroke-width="0.264583"/>
<path d="M136.041 147.169C136.903 147.651 140.282 149.316 140.282 149.316L141.48 152.607L130.089 152.299L136.041 147.169Z" fill="#2F1F12" stroke="black" stroke-width="0.264583"/>
<path d="M133.19 97.7618L122.106 98.781L120.832 80.6854L134.577 80.4511L133.19 97.7618Z" fill="#BD6F19" stroke="black" stroke-width="0.264583"/>
<path d="M27.79 122.709L38.0595 125.952L51.5719 100.999L42.5636 94.7838L27.79 122.709Z" fill="#BD6F19" stroke="black" stroke-width="0.264583"/>
<path d="M37.6389 152.81C42.2455 149.207 43.0111 146.928 42.9274 146.928L48.8695 147.933L50.8513 152.437L37.6389 152.81Z" fill="#2F1F12" stroke="black" stroke-width="0.264583"/>
<path d="M27.6099 122.8C27.6099 122.8 36.5151 153.622 37.519 152.797C38.7801 151.761 43.6843 147.598 43.2843 146.626C42.969 145.861 38.2924 125.772 38.2924 125.772L27.6099 122.8Z" fill="#2F1F12" stroke="black" stroke-width="0.264583"/>
<path d="M51.7521 101.09L61.1207 93.8829L69.5885 72.9837L76.1645 27.8522L43.4644 23.8886L34.276 93.7028L51.7521 101.09Z" fill="#BD6F19" stroke="black" stroke-width="0.264583"/>
<path d="M38.8511 30.0814L26.9679 40.397L17.576 81.7367L20.845 99.9304L25.157 120.744L30.3329 105.837L49.5284 30.6393L38.8511 30.0814Z" fill="#BD6F19" stroke="black" stroke-width="0.264583"/>
<path d="M50.8512 29.0233L27.0693 40.3737L39.6809 28.663L50.8512 29.0233Z" fill="#BD6F19" stroke="black" stroke-width="0.264583"/>
<path d="M17.6108 81.8119L34.6365 90.4598C34.6365 90.4598 24.9076 123.07 24.9076 121.989C24.9076 120.908 17.6108 81.8119 17.6108 81.8119Z" fill="#DED1CC" stroke="black" stroke-width="0.264583"/>
<path d="M151.545 22.9617L167.912 0.442856L171.462 25.0398L151.545 22.9617Z" fill="#BD6F19" stroke="black" stroke-width="0.264583"/>
<path d="M143.923 22.3504L177.203 23.959L182.137 27.4023L142.475 46.6766L143.923 22.3504Z" fill="#DF8F35" stroke="black" stroke-width="0.264583"/>
<path d="M170.249 54.3979L186.525 37.4988L205.566 45.847L204.145 52.3977L191.621 56.3972L170.249 54.3979Z" fill="#392515" stroke="black" stroke-width="0.264583"/>
<path d="M204.252 52.3628L204.165 44.7385L207.669 47.1115L204.252 52.3628Z" fill="#23170D" stroke="black" stroke-width="0.264583"/>
<path d="M144.055 45.7652L172.534 31.9201L171.145 2.41402L144.055 45.7652Z" fill="#DF8F35" stroke="black" stroke-width="0.264583"/>
<path d="M141.829 46.739L169.675 55.0217L187.328 36.9161L181.894 27.3816L141.829 46.739Z" fill="#DF8F35" stroke="black" stroke-width="0.264583"/>
<path d="M142.18 46.657L141.175 63.729L167.241 57.523L169.726 54.9674L142.18 46.657Z" fill="#EFE1DC" stroke="black" stroke-width="0.264583"/>
<path d="M142.644 63.5065L134.356 80.5321L102.242 82.4239L111.34 31.3469L143.905 22.4287L142.644 63.5065Z" fill="#DF8F35" stroke="black" stroke-width="0.264583"/>
<path d="M75.6658 28.8996L122.812 32.2748L110.895 83.175L102.36 82.7291L67.1985 68.0785L75.6658 28.8996Z" fill="#DF8F35" stroke="black" stroke-width="0.264583"/>
<path d="M123.087 32.6348L109.502 49.4467L110.214 92.1528L124.447 96.1165L138.325 56.9752L123.087 32.6348Z" fill="#DF8F35" stroke="black" stroke-width="0.264583"/>
<path d="M110.278 92.2583L105.53 144.761L112.196 161.336L118.035 157.264L114.067 143.776L124.374 96.1055L110.278 92.2583Z" fill="#392515" stroke="black" stroke-width="0.264583"/>
<path d="M118.096 157.148L123.907 158.994L125.19 162.71L112.309 161.381L118.096 157.148Z" fill="#392515" stroke="black" stroke-width="0.264583"/>
<path d="M13.5636 127.09L8.29318 162.21L5.46143 161.415L13.5636 127.09Z" fill="#2F1F12" stroke="black" stroke-width="0.264583"/>
<path d="M43.3727 24.7708L75.9827 29.0948L67.2471 69.0905L57.0653 91.0718L34.9049 106.386L29.812 87.7814L31.3016 58.4618L43.3727 24.7708Z" fill="#DF8F35" stroke="black" stroke-width="0.264583"/>
<path d="M17.9692 105.845H12.2039L6.25843 111.07L4.27661 119.358L17.9692 105.845Z" fill="#DF8F35" stroke="black" stroke-width="0.264583"/>
<path d="M6.93642 158.176L11.5998 161.759L11.8437 164.94L6.07837 163.138L6.93642 158.176Z" fill="#392515" stroke="black" stroke-width="0.264583"/>
<path d="M4.1275 119.896L0.31311 160.796L6.6189 163.679L13.5417 126.459L4.1275 119.896Z" fill="#392515" stroke="black" stroke-width="0.264583"/>
<path d="M29.9522 87.9375L4.18848 119.827L13.7373 126.853L34.8166 106.134L29.9522 87.9375Z" fill="#DF8F35" stroke="black" stroke-width="0.264583"/>
</svg>
