<svg width="97" height="232" viewBox="0 0 97 232" fill="none" xmlns="http://www.w3.org/2000/svg">
<path d="M66.9607 104.941L80.705 111.102L66.2024 109.586L66.9607 104.941Z" fill="#171E1E" stroke="black" stroke-width="0.264583"/>
<path d="M62.5056 85.6044L67.5294 101.624L65.8232 110.723L54.1642 90.9125L62.5056 85.6044Z" fill="#025B9A" stroke="black" stroke-width="0.264583"/>
<path d="M63.4535 106.742L46.8655 115.747L65.3492 111.292L63.4535 106.742Z" fill="#171E1E" stroke="black" stroke-width="0.264583"/>
<path d="M66.3919 106.173L81.4632 114.515L65.8232 111.102L66.3919 106.173Z" fill="#171E1E" stroke="black" stroke-width="0.264583"/>
<path d="M56.3125 9.92598L52.425 35.7978L77.3585 43.8408L80.3076 29.0952L77.0904 18.9074L75.4818 1.48077L56.3125 9.92598Z" fill="#0272C1" stroke="black" stroke-width="0.264583"/>
<path d="M45.4544 35.7978L56.5806 9.6579L50.1462 38.881L45.4544 35.7978Z" fill="#025B9A" stroke="black" stroke-width="0.264583"/>
<path d="M49.4759 38.4788L78.4309 50.2753L79.5033 40.6236L54.7039 17.7009L49.4759 38.4788Z" fill="#0272C1" stroke="black" stroke-width="0.264583"/>
<path d="M57.2509 9.6579L75.8839 17.1647L61.4064 18.1031L57.2509 9.6579Z" fill="#F2F30D" stroke="black" stroke-width="0.264583"/>
<path d="M77.0904 19.7117L62.2108 24.8056L78.2969 39.8193L80.5757 28.8271L77.0904 19.7117Z" fill="#F2F30D" stroke="black" stroke-width="0.264583"/>
<path d="M90.2273 8.18329L95.8575 23.4651L80.8438 29.0952L90.2273 8.18329Z" fill="#171E1E" stroke="black" stroke-width="0.264583"/>
<path d="M84.4632 25.878L95.1873 23.5991L84.5972 37.6745L84.4632 25.878Z" fill="#171E1E" stroke="black" stroke-width="0.264583"/>
<path d="M75.4817 0.676453L76.5541 18.3712L80.5756 29.8995L90.2273 8.04925L75.4817 0.676453Z" fill="#171E1E" stroke="black" stroke-width="0.264583"/>
<path d="M76.5542 17.835L75.3477 1.07861L56.4465 9.52382L76.5542 17.835Z" fill="#0272C1" stroke="black" stroke-width="0.264583"/>
<path d="M31.3722 114.258L28.0276 219.313L22.9337 208.991L24.1402 119.446L31.3722 114.258Z" fill="#025B9A" stroke="black" stroke-width="0.264583"/>
<path d="M13.2238 129.134L28.832 165.023L25.2127 119.848L13.2238 129.134Z" fill="#0272C1" stroke="black" stroke-width="0.264583"/>
<path d="M13.5177 129.17L13.4162 163.28L28.5544 164.565L13.5177 129.17Z" fill="#0272C1" stroke="black" stroke-width="0.264583"/>
<path d="M13.645 163.398L27.8936 193.576L24.9445 164.052L13.645 163.398Z" fill="#0272C1" stroke="black" stroke-width="0.264583"/>
<path d="M13.4162 163.192L13.5502 191.156L27.6946 193.236L13.4162 163.192Z" fill="#0272C1" stroke="black" stroke-width="0.264583"/>
<path d="M14.0079 191.424L25.4252 192.834L28.1617 219.447L14.0079 191.424Z" fill="#0272C1" stroke="black" stroke-width="0.264583"/>
<path d="M13.5664 190.878L13.014 230.842L28.0669 219.045L13.5664 190.878Z" fill="#0272C1" stroke="black" stroke-width="0.264583"/>
<path d="M46.1244 34.9935L78.6988 49.8731L78.9669 61.2674L40.7624 75.4768L46.1244 34.9935Z" fill="#0272C1" stroke="black" stroke-width="0.264583"/>
<path d="M78.8329 60.8653L79.1565 70.1826L26.3444 122.424L15.3582 130.947L19.8505 116.362L61.8084 66.7635L78.8329 60.8653Z" fill="#025B9A" stroke="black" stroke-width="0.264583"/>
<path d="M65.444 114.041L80.4205 121.245L64.5909 118.022L65.444 114.041Z" fill="#171E1E" stroke="black" stroke-width="0.264583"/>
<path d="M43.7374 97.8321L60.7993 84.8461L66.5814 103.045L64.5908 116.316L58.6192 116.411L43.7374 97.8321Z" fill="#0272C1" stroke="black" stroke-width="0.264583"/>
<path d="M58.5245 117.074L43.5479 124.278L62.4108 119.444L62.7899 116.885L58.5245 117.074Z" fill="#171E1E" stroke="black" stroke-width="0.264583"/>
<path d="M63.2639 116.695L62.4329 119.459L79.9467 126.837L64.9701 116.221L63.2639 116.695Z" fill="#171E1E" stroke="black" stroke-width="0.264583"/>
<path d="M17.4376 64.4846L0.279114 146.658L48.1353 97.8633L17.4376 64.4846Z" fill="#0272C1" stroke="black" stroke-width="0.264583"/>
<path d="M17.1696 64.6187L48.0012 98.2654L62.2106 85.6646L62.7468 50.6774L55.9103 40.7576L45.3202 35.2615L29.2341 42.7684L17.1696 64.6187Z" fill="#0272C1" stroke="black" stroke-width="0.264583"/>
</svg>
