<svg width="155" height="82" viewBox="0 0 155 82" fill="none" xmlns="http://www.w3.org/2000/svg">
<path d="M92.4298 22.7625L117.389 10.857L120.315 8.3111C119.36 14.4907 116.769 21.108 114.995 27.5064L116.724 30.437L114.419 37.4887L97.9715 63.7906L96.3755 67.692L93.7297 70.664L93.0948 68.333L92.4298 22.7625Z" fill="#51321D" stroke="#432611" stroke-width="0.264583"/>
<path d="M114.435 37.5146L121.129 35.683L116.74 30.4629L114.435 37.5146Z" fill="#51321D" stroke="#432611" stroke-width="0.264583"/>
<path d="M132.168 7.29297L138.419 10.0953L141.567 14.8575L143.429 33.8513L145.512 38.5403L138.729 39.859L134.651 36.3607L123.479 34.6206L121.129 35.683L116.74 30.4629L126.139 14.2165L129.464 8.19046L132.168 7.29297Z" fill="#51321D" stroke="#432611" stroke-width="0.264583"/>
<path d="M138.419 10.0953C142.852 9.80219 142.187 9.5824 142.187 9.5824L150.433 24.5284L145.512 38.5402L143.429 33.8513L141.567 14.8574L138.419 10.0953Z" fill="#51321D" stroke="#432611" stroke-width="0.264583"/>
<path d="M150.433 24.5284L152.96 35.7562L151.143 42.7163L147.596 43.2841L145.512 38.5403L150.433 24.5284Z" fill="#51321D" stroke="#432611" stroke-width="0.264583"/>
<path d="M145.512 38.5403L146.266 41.1046H144.936L143.34 39.1081L145.512 38.5403Z" fill="#51321D" stroke="#432611" stroke-width="0.264583"/>
<path d="M151.098 27.166L152.738 27.917L154.201 33.2653L152.029 31.5069L151.098 27.166Z" fill="#51321D" stroke="#432611" stroke-width="0.264583"/>
<path d="M126.139 14.2165L119.799 11.0478L123.08 3.75796L125.429 0.46106L132.168 7.29297L129.464 8.19046L126.139 14.2165Z" fill="#38200E" stroke="black" stroke-width="0.264583"/>
<path d="M120.331 8.33699L122.814 1.0838L124.298 2.05151L123.08 3.75796L119.799 11.0478L120.331 8.33699Z" fill="#2F1B0C" stroke="#301A0C" stroke-width="0.264583"/>
<path d="M119.799 11.0479L126.139 14.2165L116.724 30.437L114.995 27.5065L119.799 11.0479Z" fill="#51321D" stroke="#432611" stroke-width="0.264583"/>
<path d="M15.5718 24.382L1.03052 45.592L11.6261 65.5383L21.0248 66.3442L24.7488 62.9374L21.2464 51.8195L15.5718 24.382Z" fill="#51321D" stroke="#432611" stroke-width="0.264583"/>
<path d="M1.03052 45.592L1.87285 61.6552L11.6261 65.5383L1.03052 45.592Z" fill="#51321D" stroke="#51321D" stroke-width="0.264583"/>
<path d="M1.8728 61.6552L13.4438 81.6015L44.9647 76.1433L43.7233 66.509L21.0247 66.3441L11.6261 65.5382L1.8728 61.6552Z" fill="#51321D" stroke="#432611" stroke-width="0.264583"/>
<path d="M43.7235 66.509L71.4317 76.9308L44.9648 76.1433L43.7235 66.509Z" fill="#51321D" stroke="#432611" stroke-width="0.264583"/>
<path d="M56.4026 58.2646L14.2548 23.2501C14.2548 23.2501 48.4227 0.788592 46.9597 1.31976C45.4967 1.85093 75.6876 60.5724 75.6876 60.5724L87.8792 65.939L89.6969 74.5293L56.4026 58.2646Z" fill="#51321D" stroke="#432611" stroke-width="0.264583"/>
<path d="M46.5164 1.19366L92.4455 22.7884L93.1105 68.3589L93.7297 70.6639L107.975 76.5685C101.872 75.6099 95.8001 75.49 89.6969 74.5314L87.8792 65.9412L75.6876 60.5746C65.6429 40.7146 55.4263 20.8192 46.5164 1.19366Z" fill="#51321D" stroke="#432611" stroke-width="0.264583"/>
<path d="M114.435 37.5146L107.563 56.6549L97.9871 63.8165L114.435 37.5146Z" fill="#F4E3D7" stroke="#51321D" stroke-width="0.264583"/>
<path d="M15.5718 24.382L21.2464 51.8195L24.7487 62.9374L29.0047 66.4541L43.7233 66.5091L51.925 63.4686L56.4026 58.2668L15.5718 24.382Z" fill="#51321D" stroke="#432611" stroke-width="0.264583"/>
<path d="M51.9252 63.4685L59.9938 69.5861L51.7478 69.4579L43.7235 66.509L51.9252 63.4685Z" fill="#432611" stroke="#301A0C" stroke-width="0.264583"/>
<path d="M96.3912 67.7179L107.253 68.9818L97.9872 63.8166L96.3912 67.7179Z" fill="#432611" stroke="#301A0C" stroke-width="0.264583"/>
<path d="M97.9871 63.8165L100.603 62.0032L107.253 66.7105L108.317 68.4871L107.253 68.9817L97.9871 63.8165Z" fill="#432611" stroke="#301A0C" stroke-width="0.264583"/>
<path d="M96.3755 67.692L107.286 73.7715L107.975 76.5685L93.7297 70.664L96.3755 67.692Z" fill="#432611" stroke="#301A0C" stroke-width="0.264583"/>
</svg>
