<svg width="136" height="113" viewBox="0 0 136 113" fill="none" xmlns="http://www.w3.org/2000/svg">
<path d="M83.2147 69.2954L99.5665 111.085L135.111 111.949L93.79 68.9446L83.2147 69.2954Z" fill="#FFF100" stroke="black" stroke-width="0.264583"/>
<path d="M135.183 111.999L107.484 111.281L86.2018 69.2145L93.854 68.9953L135.183 111.999Z" fill="#806600" stroke="black" stroke-width="0.264583"/>
<path d="M64.5248 38.64L116.014 88.3223L98.3527 86.7803L64.5248 38.64Z" fill="#554400" stroke="black" stroke-width="0.264583"/>
<path d="M28.5171 72.8473C31.2409 69.7379 64.2611 38.3011 64.2611 38.3011L118.378 94.4431L45.5183 91.3303L28.5171 72.8473Z" fill="#FFF100" stroke="black" stroke-width="0.264583"/>
<path d="M16.9246 38.2164L28.4795 72.91L64.3276 38.1825L57.6499 31.2266L16.9246 38.2164Z" fill="#FFF100" stroke="black" stroke-width="0.264583"/>
<path d="M16.8805 38.3683L19.9036 37.5188L23.9618 44.2824L20.7132 49.641L16.8805 38.3683Z" fill="#2B2200" stroke="black" stroke-width="0.264583"/>
<path d="M41.6476 60.1846L64.2852 38.2907L112.301 92.9795L41.6476 60.1846Z" fill="#806600" stroke="black" stroke-width="0.264583"/>
<path d="M14.7055 31.4283L28.135 21.7369L57.6274 31.2181L16.6505 38.126L14.7055 31.4283Z" fill="#FFF100" stroke="black" stroke-width="0.264583"/>
<path d="M0.3396 42.334L14.9691 31.7434L17.0339 38.9958L0.3396 42.334Z" fill="#B3B3B3" stroke="black" stroke-width="0.264583"/>
<path d="M14.9288 31.3141L32.2602 18.5461L30.5468 14.5811L14.9288 31.3141Z" fill="#2B2200" stroke="black" stroke-width="0.264583"/>
<path d="M14.775 31.2294L30.6346 9.17565L31.3815 13.827L14.775 31.2294Z" fill="#2B2200" stroke="black" stroke-width="0.264583"/>
<path d="M14.841 31.2802L31.3156 1.22852L31.9966 7.21005L14.841 31.2802Z" fill="#2B2200" stroke="black" stroke-width="0.264583"/>
<path d="M15.7532 33.1829L37.6222 24.8411L34.015 35.212L15.7532 33.1829Z" fill="#AA8800" stroke="black" stroke-width="0.264583"/>
<path d="M16.2042 35.8883L20.0369 37.692L16.9489 38.4492L16.2042 35.8883Z" fill="#2B2200" stroke="black" stroke-width="0.264583"/>
</svg>
