<svg width="142" height="43" viewBox="0 0 142 43" fill="none" xmlns="http://www.w3.org/2000/svg">
<path d="M0.858704 10.3053L3.78427 15.0774L30.3886 8.1425L15.0903 0.796158L0.858704 10.3053Z" fill="#E4B87A" stroke="black" stroke-width="0.264583"/>
<path d="M15.1433 0.669083L34.1554 5.57666L43.4424 29.861L26.8005 30.4147L15.1433 0.669083Z" fill="#886631" stroke="black" stroke-width="0.264583"/>
<path d="M52.8785 11.6024L72.5414 12.9517L89.5852 31.8384L73.7005 34.3694L52.8785 11.6024Z" fill="#886631" stroke="black" stroke-width="0.264583"/>
<path d="M105.304 18.0254L111.855 20.4526L126.536 35.3851C126.536 35.3851 119.503 35.6573 119.188 35.2861C118.872 34.915 105.304 18.0254 105.304 18.0254Z" fill="#886631" stroke="black" stroke-width="0.264583"/>
<path d="M119.082 35.5151L140.981 23.3509L126.598 35.3331L119.082 35.5151Z" fill="#BB904C" stroke="black" stroke-width="0.264583"/>
<path d="M105.014 18.0296L111.126 22.3396L126.424 35.4115L119.07 35.5373L101.197 20.3054L105.014 18.0296Z" fill="#FACF8B" stroke="black" stroke-width="0.264583"/>
<path d="M105.076 17.9056L78.7168 31.7167L92.8348 38.5675L111.177 22.1959L105.076 17.9056Z" fill="#BB904C" stroke="black" stroke-width="0.264583"/>
<path d="M54.3298 21.8421L70.4984 38.677L92.7559 38.5857L70.1829 17.0173L54.3298 21.8421Z" fill="#FACF8B" stroke="black" stroke-width="0.264583"/>
<path d="M32.91 24.6104L52.8487 11.6632L70.2477 17.0173L48.9366 42.2788L32.91 24.6104Z" fill="#BB904C" stroke="black" stroke-width="0.264583"/>
<path d="M15.2853 0.918533L23.9138 35.9087L49.0265 42.3762L30.4444 8.08571L15.2853 0.918533Z" fill="#FACF8B" stroke="black" stroke-width="0.264583"/>
</svg>
