<svg width="131" height="97" viewBox="0 0 131 97" fill="none" xmlns="http://www.w3.org/2000/svg">
<path d="M4.8587 7.26503L7.53665 0.579895L26.2183 9.73421L30.7422 27.565L18.4941 20.5651L4.8587 7.26503Z" fill="#E4B87A" stroke="black" stroke-width="0.264583"/>
<path d="M10.6833 39.916L35.0157 75.6106L22.7956 85.4754L10.6833 39.916Z" fill="#886631" stroke="black" stroke-width="0.264583"/>
<path d="M38.4502 60.0542L64.1276 60.2614L79.5008 86.2861L66.6575 87.4799L38.4502 60.0542Z" fill="#886631" stroke="black" stroke-width="0.264583"/>
<path d="M91.413 63.4535L111.572 93.5331L116.715 92.1233L103.299 63.7221L91.413 63.4535Z" fill="#886631" stroke="black" stroke-width="0.264583"/>
<path d="M113.336 94.5375L130.707 62.1941L117.248 95.4598L113.336 94.5375Z" fill="#FACF8B" stroke="black" stroke-width="0.264583"/>
<path d="M90.348 67.4394L106.346 95.9145L116.913 95.4671L100.898 66.4017L90.348 67.4394Z" fill="#BB904C" stroke="black" stroke-width="0.264583"/>
<path d="M66.7856 93.5561L91.1185 63.307L100.941 66.1908L80.7631 95.7183L66.7856 93.5561Z" fill="#FACF8B" stroke="black" stroke-width="0.264583"/>
<path d="M26.1378 9.71954L30.7773 27.7533L3.59083 75.8826L0.598022 70.4996L7.48913 37.3669L26.1378 9.71954Z" fill="#FACF8B" stroke="black" stroke-width="0.264583"/>
<path d="M35.7506 64.0407L60.7022 95.8248L80.5037 95.7563L58.9301 64.3181L35.7506 64.0407Z" fill="#BB904C" stroke="black" stroke-width="0.264583"/>
<path d="M9.61804 88.647L38.038 60.0749L59.1011 64.276L35.8084 96.2503L9.61804 88.647Z" fill="#FACF8B" stroke="black" stroke-width="0.264583"/>
<path d="M7.47724 37.6428L35.5522 96.2256L10.6504 91.0225L0.685913 70.4597L7.47724 37.6428Z" fill="#BB904C" stroke="black" stroke-width="0.264583"/>
</svg>
