<svg width="176" height="82" viewBox="0 0 176 82" fill="none" xmlns="http://www.w3.org/2000/svg">
<path d="M87.5492 32.0616C88.2426 31.946 169.263 68.3534 169.263 68.3534C169.263 68.3534 171.922 68.7001 172.384 68.3534C172.846 68.0067 174.464 66.3886 174.464 66.3886L175.274 68.8157L173.078 71.474L168.339 72.2831L105.926 57.1422L87.2024 60.0317L87.5492 32.0616Z" fill="#E7D5B9" stroke="black" stroke-width="0.264583"/>
<path d="M36.28 14.1626L51.0741 21.2707L71.3004 23.12L87.8282 32.1351L56.5063 41.1503L36.28 14.1626Z" fill="#E7D5B9" stroke="black" stroke-width="0.264583"/>
<path d="M36.8679 13.6846L30.3376 35.1822L54.2625 55.293L67.9008 58.9915L92.1724 53.7904L87.7804 32.5239L45.9408 21.4284L36.8679 13.6846Z" fill="#E7D5B9" stroke="black" stroke-width="0.264583"/>
<path d="M17.7973 18.9434L26.0612 25.5314L27.9105 34.7199L31.4934 40.8456L36.2321 42.0014L34.1517 28.2475L39.4828 15.6783L43.3402 17.5998L41.3176 13.1067L20.0511 7.4433L17.7973 18.9434Z" fill="#E7D5B9" stroke="black" stroke-width="0.264583"/>
<path d="M88.9361 33.1018L76.338 42.0014L69.6345 63.4991L65.2425 74.1324L61.4283 73.67L63.8555 76.2128L58.5389 78.8711L60.966 79.449L60.0414 80.9515L70.2123 78.6399L76.6848 73.3233L94.5995 53.7905L88.9361 33.1018Z" fill="#E7D5B9" stroke="black" stroke-width="0.264583"/>
<path d="M1.41858 7.44172L2.64698 5.67839L20.0372 0.981201L29.7836 2.43083L41.4092 13.1433L38.1922 12.6396L1.41858 7.44172Z" fill="#E7D5B9" stroke="black" stroke-width="0.264583"/>
<path d="M1.40939 7.50748L14.0174 4.07703L26.7896 6.1409L38.4471 12.8362L35.4849 17.1114L6.85098 10.0352L0.767456 10.2195L1.40939 7.50748Z" fill="#E7D5B9" stroke="black" stroke-width="0.264583"/>
<path d="M0.577332 10.9203L7.79337 21.0084L19.5145 22.8693L24.7831 13.4136L21.4706 11.4972L17.0433 11.7429L10.9598 7.81166L2.20077 8.95416L1.41303 7.46768L0.577332 10.9203Z" fill="#E7D5B9" stroke="black" stroke-width="0.264583"/>
<path d="M45.7096 22.5841L31.8401 35.9913L31.609 41.1923L30.222 45.0064L30.4532 49.514L25.4833 63.1523L25.3677 64.4237L21.6692 64.886L23.5185 66.9664L20.0511 67.891L22.825 69.3936L20.629 72.7453L27.4481 70.4338L32.9959 65.5795L46.981 44.5441L50.3328 37.4938L45.7096 22.5841Z" fill="#E7D5B9" stroke="black" stroke-width="0.264583"/>
</svg>
