<svg width="87" height="170" viewBox="0 0 87 170" fill="none" xmlns="http://www.w3.org/2000/svg">
<path d="M33.168 94.0211L14.2374 97.2588L12.5594 103.871C12.5594 103.871 41.6114 100.05 40.9688 99.8531C40.3262 99.6562 33.168 94.0211 33.168 94.0211Z" fill="#FF7F2A" stroke="black" stroke-width="0.264583"/>
<path d="M14.1481 97.5048L5.8922 105.2L0.144287 128.95L2.85759 141.253L14.1481 97.5048Z" fill="#FF7F2A" stroke="black" stroke-width="0.264583"/>
<path d="M2.8844 141.169L21.226 165.861L26.7597 165.151L4.74087 133.857L2.8844 141.169Z" fill="#FF7F2A" stroke="black" stroke-width="0.264583"/>
<path d="M21.3688 165.875L44.9406 162.542L40.6385 167.003L29.2945 169.148L21.3688 165.875Z" fill="#FF7F2A" stroke="black" stroke-width="0.264583"/>
<path d="M40.8884 163.091L43.4411 153.198L46.5739 156.123L44.8691 162.584L40.8884 163.091Z" fill="#FF7F2A" stroke="black" stroke-width="0.264583"/>
<path d="M46.5293 156L38.2555 148.379L40.2994 146.006L44.6728 150.277L46.5293 156Z" fill="#FF7F2A" stroke="black" stroke-width="0.264583"/>
<path d="M56.5524 23.6896L25.635 56.7479L26.3133 100.662L72.7607 100.423L78.9014 82.2553L73.332 25.9394L56.5524 23.6896Z" fill="#FF7F2A" stroke="black" stroke-width="0.264583"/>
<path d="M84.7564 8.44128L72.975 69.3271L63.764 8.90531C63.764 8.90531 85.1492 8.84906 84.7564 8.44128Z" fill="#FF7F2A" stroke="black" stroke-width="0.264583"/>
<path d="M43.6642 14.7127L63.6212 8.65222L73.0821 69.3693L78.9094 82.1237L78.0237 84.8491L63.9784 57.2737L43.6642 14.7127Z" fill="#FF7F2A" stroke="black" stroke-width="0.264583"/>
<path d="M43.3967 14.7912L86.3126 9.46183L84.6531 6.96543L84.2928 3.41223L74.7539 0.459045L63.3602 5.08958L49.6114 3.89117L42.8358 8.33874L44.1863 12.2965L43.3967 14.7912Z" fill="#FF7F2A" stroke="black" stroke-width="0.264583"/>
<path d="M50.6643 13.8356L78.3749 10.4503L77.8547 15.7439L75.8512 22.0728L74.6246 29.5291L70.5439 33.6839L65.1467 34.3764L59.7479 31.3771L56.0615 23.6188L52.9998 19.4921L50.6643 13.8356Z" fill="#6C5D53" stroke="black" stroke-width="0.214268"/>
</svg>
