<svg width="151" height="225" viewBox="0 0 151 225" fill="none" xmlns="http://www.w3.org/2000/svg">
<path d="M24.7925 72.9445L11.0823 96.3332L43.4075 159.816L46.5357 159.72L32.7483 73.6419L25.3718 69.7118L24.7925 72.9445Z" fill="#F4E3D7" stroke="black" stroke-width="0.264583"/>
<path d="M136.427 181.154L143.637 191.604L140.797 195.219L133.041 184.656L136.427 181.154Z" fill="#28170B" stroke="black" stroke-width="0.264583"/>
<path d="M139.65 170.727L144.019 176.545L134.598 184.34L128.781 177.313L139.65 170.727Z" fill="#C87137" stroke="black" stroke-width="0.264583"/>
<path d="M108.163 156.279L104.667 170.332L120.397 200.031L150.136 159.702L108.163 156.279Z" fill="#D38D5F" stroke="black" stroke-width="0.264583"/>
<path d="M134.324 180.476L144.511 197.692L120.342 200.087L124.302 179.256L134.324 180.476Z" fill="#D38D5F" stroke="black" stroke-width="0.264583"/>
<path d="M131.621 197.534L128.917 214.265L131.812 214.931L144.565 197.557L131.621 197.534Z" fill="#28170B" stroke="black" stroke-width="0.264583"/>
<path d="M123.241 116.753L133.455 119.408L138.288 127.089L130.505 131.958L123.241 116.753Z" fill="#D38D5F" stroke="black" stroke-width="0.264583"/>
<path d="M138.288 127.129L140.192 138.688L136.642 140.654L130.431 131.943L138.288 127.129Z" fill="#28170B" stroke="black" stroke-width="0.264583"/>
<path d="M66.7081 112.301C67.7731 112.086 123.537 116.763 123.537 116.763L150.054 159.86L141.561 164.435L78.287 158.346L66.2166 150.472L66.7081 112.301Z" fill="#D38D5F" stroke="black" stroke-width="0.264583"/>
<path d="M53.5684 100.88L62.7988 102.371L83.4987 133.979L54.6062 188.361L43.4642 185.808L48.7621 163.418L42.3173 147.603L53.5684 100.88Z" fill="#D38D5F" stroke="black" stroke-width="0.264583"/>
<path d="M34.4219 224.163L43.8452 184.008L55.1416 187.171L37.2025 224.738L34.4219 224.163Z" fill="#28170B" stroke="black" stroke-width="0.264583"/>
<path d="M38.8558 25.1779C39.2108 25.6184 44.4722 51.0388 44.4722 51.0388L45.5919 40.0025L39.7644 18.4153L38.8558 25.1779Z" fill="#917C6F" stroke="black" stroke-width="0.264583"/>
<path d="M39.5442 42.777L39.2985 58.7956L48.1738 58.5132L41.4559 42.1218L39.5442 42.777Z" fill="#DEAA87" stroke="black" stroke-width="0.264583"/>
<path d="M49.3207 42.807L62.1558 9.94507L63.6032 11.3346L48.993 55.2333L47.2726 45.3939L49.3207 42.807Z" fill="#917C6F" stroke="black" stroke-width="0.264583"/>
<path d="M40.5547 60.9759L50.0308 3.30657L53.9632 0.640564L42.8759 65.1218L40.5547 60.9759Z" fill="#917C6F" stroke="black" stroke-width="0.264583"/>
<path d="M44.4432 66.8943L49.7021 36.2373L51.6137 78.5771L44.4432 66.8943Z" fill="#DEAA87" stroke="black" stroke-width="0.264583"/>
<path d="M49.6209 36.2616L40.2313 60.1598L44.5057 66.7731L49.6209 36.2616Z" fill="#F4E3D7" stroke="black" stroke-width="0.264583"/>
<path d="M0.800818 57.175L0.636963 63.2074L27.1264 73.6907L38.4322 54.1023L0.800818 57.175Z" fill="#D38D5F" stroke="black" stroke-width="0.264583"/>
<path d="M13.3628 97.9682L38.326 54.1462L57.8759 87.4624L46.9525 162.834L13.3628 97.9682Z" fill="#D38D5F" stroke="black" stroke-width="0.264583"/>
</svg>
