<svg width="222" height="81" viewBox="0 0 222 81" fill="none" xmlns="http://www.w3.org/2000/svg">
<path d="M158.874 43.981C159.986 44.6747 167.451 50.29 167.451 50.29L172.375 58.0427L185.127 65.6922C185.127 65.6922 172.261 45.3121 172.012 45.3403C171.762 45.3684 158.874 43.981 158.874 43.981Z" fill="#483E37" stroke="#3A1A10" stroke-width="0.264583"/>
<path d="M144.352 45.8839L153.224 9.22973L157.24 9.08911L217.347 40.4842L221.318 64.4173L209.632 71.0825L186.329 68.8233L170.65 49.0056L160.689 45.0121L144.352 45.8839Z" fill="#6C5D53" stroke="#3A1A10" stroke-width="0.264583"/>
<path d="M117.158 63.8308L124.069 59.6832L125.068 63.6861L125.385 65.2235L117.158 63.8308Z" fill="#483E37" stroke="#3A1A10" stroke-width="0.264583"/>
<path d="M123.411 60.6769L119.214 47.7401L127.269 36.4626L128.539 61.4456L125.113 64.8485L123.411 60.6769Z" fill="#483E37" stroke="#3A1A10" stroke-width="0.264583"/>
<path d="M83.1438 47.877C83.3684 48.1289 89.5937 64.2103 89.5937 64.2103L92.6422 62.9641L86.449 46.1602L83.1438 47.877Z" fill="#DFD4AD" stroke="#3A1A10" stroke-width="0.264583"/>
<path d="M89.8023 63.3551C89.5295 63.5076 88.3262 66.5236 88.3262 66.5236L79.9509 69.4867L90.2676 69.7519L94.3108 68.91C94.3108 68.91 94.4392 61.4526 94.1985 61.3864C93.9578 61.3201 89.8023 63.3551 89.8023 63.3551H89.8023Z" fill="#DFD4AD" stroke="#3A1A10" stroke-width="0.264583"/>
<path d="M86.5773 49.958L94.2786 72.6416L104.932 77.1757L104.547 55.9239L113.757 29.7072L102.108 32.2261L86.5773 49.958Z" fill="#E0CFAC" stroke="#3A1A10" stroke-width="0.264583"/>
<path d="M82.149 38.7952L103.825 27.1882L107.868 29.031L107.692 32.8426L86.1767 50.2533L82.149 38.7952Z" fill="#E0CFAC" stroke="#3A1A10" stroke-width="0.264583"/>
<path d="M84.652 79.6951L90.7008 77.4745L95.5943 71.7538L104.547 76.8978L97.7604 79.9934L84.652 79.6951Z" fill="#E0CFAC" stroke="#3A1A10" stroke-width="0.264583"/>
<path d="M72.2979 44.1692L85.6034 48.5404L82.0369 37.8254L72.2979 44.1692Z" fill="#E0CFAC" stroke="#3A1A10" stroke-width="0.264583"/>
<path d="M69.6825 44.1251L72.0732 44.9405L96.6855 32.2133L81.8282 25.558L68.7198 40.5787L69.6825 44.1251Z" fill="#483E37" stroke="#3A1A10" stroke-width="0.264583"/>
<path d="M60.7938 16.6582L112.345 1.0143L122.774 0.497253L123.801 2.02187L123.512 5.58151L77.2716 32.5274L70.7254 44.3995L60.7938 39.0103V16.6582Z" fill="#6C5D53" stroke="#3A1A10" stroke-width="0.264583"/>
<path d="M77.2368 32.7382C78.6487 33.063 95.065 32.8562 95.4821 32.6242C95.8993 32.3922 123.721 17.6698 123.721 17.6698L123.047 15.3431L124.314 8.84689L123.528 5.70486L120.544 4.45203L77.2368 32.7382Z" fill="#483E37" stroke="#3A1A10" stroke-width="0.264583"/>
<path d="M100.697 27.9378L125.79 40.1281L123.753 17.6168L100.697 27.9378Z" fill="#6C5D53" stroke="#3A1A10" stroke-width="0.264583"/>
<path d="M107.034 29.9371C107.002 31.2165 106.794 42.4788 106.794 42.4788L120.704 36.6388L107.034 29.9371Z" fill="#6C5D53" stroke="#3A1A10" stroke-width="0.264583"/>
<path d="M106.745 41.1464L106.409 49.6047L106.056 51.8717L114.254 51.9778L122.501 48.1397L125.951 39.8206L116.356 33.0129L106.745 41.1464Z" fill="#6C5D53" stroke="#3A1A10" stroke-width="0.264583"/>
<path d="M77.3127 32.7175L61.9155 33.6877L61.0922 39.3323L70.6433 44.3595L77.3127 32.7175Z" fill="#483E37" stroke="#3A1A10" stroke-width="0.264583"/>
<path d="M124.069 79.932L129.311 75.601L130.037 72.9012L134.302 77.1009L133.1 80.4008L124.069 79.932Z" fill="#6C5D53" stroke="#3A1A10" stroke-width="0.264583"/>
<path d="M121.437 2.54575L123.252 0.286499L154.815 8.31105L155.427 17.2168L137.025 75.9104L134.552 78.5352L129.174 74.1949L121.437 2.54575Z" fill="#6C5D53" stroke="#3A1A10" stroke-width="0.264583"/>
<path d="M64.7771 14.5344L66.8789 13.6063L67.8576 11.2001L70.6173 7.30902L72.7191 7.44823L74.2273 10.7825L73.7941 13.4671L66.4778 16.006L64.7771 14.5344Z" fill="#483E37" stroke="#3A1A10" stroke-width="0.264583"/>
<path d="M49.6866 33.3998L69.9348 31.8752L62.8591 22.8336L46.1555 26.0485L49.6866 33.3998Z" fill="#6C5D53" stroke="#3A1A10" stroke-width="0.264583"/>
<path d="M52.4202 39.8778C52.9336 39.8447 57.4039 39.253 57.4039 39.253L61.9125 41.414L70.3358 31.6962L48.4426 30.6887L52.4202 39.8778Z" fill="#483E37" stroke="#3A1A10" stroke-width="0.264583"/>
<path d="M64.8573 14.5808L67.8898 14.4349L71.5158 10.1992L73.0561 10.9548L74.7247 13.845V17.7559L70.7457 21.9188L69.9114 26.5987L72.1416 31.7028L70.7457 32.7237L62.5309 16.7749L64.8573 14.5808Z" fill="#6C5D53" stroke="#3A1A10" stroke-width="0.264583"/>
<path d="M46.5097 20.6659L64.9288 14.4283L70.6888 32.379L57.9174 24.2853L46.4455 26.5941L44.5432 22.522L46.5097 20.6659Z" fill="#6C5D53" stroke="#3A1A10" stroke-width="0.264583"/>
<path d="M0.574219 45.557L21.753 31.8951L46.5579 20.666L52.6845 39.9225L38.696 37.8146L29.4383 38.1129L2.74023 48.288L0.574219 45.557Z" fill="#6C5D53" stroke="#3A1A10" stroke-width="0.264583"/>
</svg>
