<svg width="97" height="183" viewBox="0 0 97 183" fill="none" xmlns="http://www.w3.org/2000/svg">
<path d="M41.8317 78.4609C44.2261 80.1261 58.8684 103.474 58.8684 103.474L69.0862 92.0205L62.3793 82.1031L41.8317 78.4609Z" fill="#9FE23C" stroke="black" stroke-width="0.264583"/>
<path d="M69.2564 91.9811L81.174 182.49L59.0081 103.374L69.2564 91.9811Z" fill="#FFCCAA" stroke="black" stroke-width="0.264583"/>
<path d="M25.1014 71.5395L28.274 74.9194L27.3893 69.4624L25.1014 71.5395Z" fill="#483E37" stroke="black" stroke-width="0.264583"/>
<path d="M36.0213 68.8804L25.0263 71.4232L23.5151 69.1282L26.578 62.8671C26.578 62.8671 32.1251 61.7418 32.3047 61.8408C32.4843 61.9397 36.0213 68.8804 36.0213 68.8804Z" fill="#483E37" stroke="black" stroke-width="0.264583"/>
<path d="M41.3105 69.4789C41.9491 70.1878 51.4469 88.5796 51.4469 88.5796L58.0715 91.6958L46.279 68.7699L41.3105 69.4789Z" fill="#C4FF6C" stroke="black" stroke-width="0.264583"/>
<path d="M47.6359 71.9685C47.5959 72.2818 56.6948 91.6546 56.6948 91.6546L70.5027 103.064L73.9147 99.8324L73.2562 92.0503L65.3546 75.4226L47.6359 71.9685Z" fill="#C4FF6C" stroke="black" stroke-width="0.264583"/>
<path d="M28.3812 60.7439C30.7769 65.049 33.6675 68.8746 35.694 72.9492L46.0124 70.8335L46.1792 64.1039C46.1792 64.1039 47.2116 52.029 35.9068 54.3261C35.5823 54.392 28.3812 60.7439 28.3812 60.7439Z" fill="#C83737" stroke="black" stroke-width="0.264583"/>
<path d="M27.1466 84.5687L34.1204 91.205L31.1687 81.649L27.1466 84.5687Z" fill="#483E37" stroke="black" stroke-width="0.264583"/>
<path d="M44.99 65.3771L34.0305 72.4628L38.0013 80.9003L53.1381 79.1719L44.99 65.3771Z" fill="#C4FF6C" stroke="black" stroke-width="0.264583"/>
<path d="M34.0106 72.4628L27.5257 77.7099L27.0369 84.3338L37.9514 80.9209L34.0106 72.4628Z" fill="#483E37" stroke="black" stroke-width="0.264583"/>
<path d="M5.99268 15.5543L8.56247 21.3658L14.3289 13.6114L5.99268 15.5543Z" fill="#483E37" stroke="black" stroke-width="0.277091"/>
<path d="M14.8499 22.6235L14.4708 41.8479L18.7209 47.7587L17.3441 22.879L14.8499 22.6235Z" fill="#80E5FF" stroke="black" stroke-width="0.264583"/>
<path d="M8.35474 30.8341L0.474487 21.1865L5.42001 18.4762L7.95968 23.9323L8.35474 30.8341Z" fill="#483E37" stroke="black" stroke-width="0.264583"/>
<path d="M0.443404 21.3045L0.383545 12.5496L5.41183 6.58112L14.7102 13.374L0.443404 21.3045Z" fill="#483E37" stroke="black" stroke-width="0.264583"/>
<path d="M5.4917 6.6553L14.7302 0.439514L16.8652 1.04131L7.80631 10.332L5.4917 6.6553Z" fill="#80E5FF" stroke="black" stroke-width="0.264583"/>
<path d="M16.486 1.72552L41.9667 18.3202L51.8836 49.7783L28.3783 61.3278L27.5203 60.5035L25.6447 61.3361L18.0623 49.1848L16.2067 22.813L16.486 1.72552Z" fill="#C4FF6C" stroke="black" stroke-width="0.264583"/>
<path d="M16.9649 0.909393L39.9514 15.7481L41.9268 18.1718L14.0317 7.12518L16.9649 0.909393Z" fill="#80E5FF" stroke="black" stroke-width="0.264583"/>
<path d="M6.15015 8.26282L16.6258 1.22266L16.3464 23.184L13.8323 23.0356L8.46476 19.7134L6.15015 8.26282Z" fill="#C83737" stroke="black" stroke-width="0.264583"/>
<path d="M46.6581 36.5361L52.2451 36.4701L57.0539 41.4246L48.6933 45.2662L46.6581 36.5361Z" fill="#C83737" stroke="black" stroke-width="0.264583"/>
<path d="M55.3334 38.5029L39.7303 49.1343L37.1295 59.5411L49.2861 77.6278L95.8941 101.021L55.3334 38.5029Z" fill="#9FE23C" stroke="black" stroke-width="0.264583"/>
</svg>
